<?xml version="1.0" encoding="utf-8"?>
<!-- Generator: Adobe Illustrator 21.0.0, SVG Export Plug-In . SVG Version: 6.00 Build 0)  -->
<svg version="1.1" id="Layer_1" xmlns="http://www.w3.org/2000/svg" xmlns:xlink="http://www.w3.org/1999/xlink" x="0px" y="0px"
	 viewBox="0 0 53.1 42.8" style="enable-background:new 0 0 53.1 42.8;" xml:space="preserve">
<style type="text/css">
	.st0{fill:#084D39;}
	.st1{fill:#B55567;}
	.st2{fill:#405940;}
	.st3{fill:#8DC68D;}
	.st4{fill:#282F2D;}
	.st5{fill:#F5B1BE;}
	.st6{fill:#96D3E7;}
	.st7{fill:#EE7087;}
	.st8{fill:#F49F87;}
	.st9{fill:#959EBE;}
	.st10{fill:#FFFFFF;}
	.st11{fill:#F8D673;}
	.st12{fill:#F8D9E2;}
	.st13{fill:#E5E8F0;}
</style>
<title>logo.svg</title>
<path class="st0" d="M14.1,4.3c0,0.2-0.1,0.5-0.2,0.7l-0.5,0.7c0.2-0.1,0.4-0.1,0.7-0.1c0.3,0,0.4,0.1,0.4,0.2s-0.6,0.6-2,1.4
	c-0.2,0-0.4,0-0.5-0.1c-0.1-0.1-0.2-0.2-0.3-0.3c0-0.1,0.1-0.3,0.3-0.6l0.4-0.6l0.2-0.2c0.2-0.2,0.3-0.5,0.3-0.8V4.4c0,0,0,0-0.1,0
	c-0.3,0.3-0.6,0.5-1,0.7c-0.1,0-0.3,0-0.4-0.1c-0.1-0.1-0.2-0.2-0.2-0.2s0.1-0.5,0.6-0.8c0.2-0.2,0.5-0.4,0.8-0.5
	c0.3-0.1,0.6,0,0.9,0.1C13.8,3.7,14,3.9,14.1,4.3C14.1,4.2,14.1,4.2,14.1,4.3C14.1,4.3,14.1,4.2,14.1,4.3z"/>
<path class="st0" d="M16.1,3c0,0.6-0.1,1.1-0.2,1.6c0,0.5-0.1,1-0.2,1.5c-0.1,0-0.2,0-0.3-0.2c-0.1-0.1-0.1-0.2-0.2-0.3
	c0-0.1-0.1-0.3-0.1-0.5s-0.1-0.4-0.1-0.7c0-0.3-0.1-0.5-0.1-0.8C15,3.4,14.9,3.2,14.9,3c0-0.1,0-0.2,0-0.2c0-0.1,0-0.2,0.1-0.2
	c0-0.1,0.1-0.1,0.2-0.2c0.1,0,0.1-0.1,0.2-0.1c0.3-0.1,0.4,0,0.5,0.1c0,0.1,0.1,0.2,0.2,0.3C16.1,2.8,16.1,2.9,16.1,3z"/>
<path class="st0" d="M19.5,1c0.1,0.3-0.1,0.7-0.5,1.1l-1,1.2l0.7,0.3c0.2,0.1,0.3,0.3,0.4,0.5c0.1,0.4,0,0.8-0.2,1.2
	c-0.1,0.4-0.4,0.6-0.8,0.7c-0.2,0-0.3,0-0.5-0.1c-0.2,0-0.4-0.1-0.5-0.2c0,0,0.1-0.2,0.3-0.4c0.2-0.2,0.4-0.4,0.6-0.7
	c0.2-0.2,0.3-0.4,0.3-0.7c0,0-0.2,0-0.6-0.2S17,3.5,17,3.4c0-0.4,0.2-0.7,0.4-1c0.2-0.2,0.4-0.5,0.6-0.7c0.1-0.2,0.3-0.4,0.3-0.5
	c0-0.1,0-0.1,0-0.2c0-0.1-0.1-0.1-0.2-0.1c-0.1,0-0.2,0.1-0.4,0.3s-0.3,0.3-0.4,0.3c-0.1,0-0.3,0-0.4,0c-0.2-0.1-0.3-0.1-0.3-0.3
	s0.1-0.6,0.5-0.8c0.3-0.2,0.6-0.4,0.9-0.4c0.3,0,0.6,0.1,0.9,0.3C19.2,0.5,19.4,0.7,19.5,1z"/>
<path class="st0" d="M21.1,3.2c0,0.2-0.1,0.3-0.2,0.4c-0.1,0.2-0.3,0.3-0.5,0.3c-0.1,0-0.2-0.1-0.3-0.2C20,3.6,20,3.4,19.9,3.3
	c0-0.3,0.1-0.6,0.2-0.9c0.2-0.4,0.3-0.7,0.5-0.7s0.2,0.1,0.3,0.2C21,2.2,21,2.4,21,2.6c0,0.1,0,0.3,0.1,0.4L21.1,3.2z"/>
<path class="st0" d="M24.7,0.7c-0.1,0.2-0.2,0.4-0.3,0.6c-0.4,0.5-0.7,1-0.9,1.6c0.2,0.2,0.4,0.5,0.5,0.8c0.1,0.2,0.2,0.5,0.2,0.8
	c0,0.4-0.1,0.9-0.3,1.3c-0.2,0.5-0.5,0.8-0.7,0.8s-0.6-0.1-0.8-0.5c-0.2-0.2-0.3-0.5-0.4-0.8c0-0.5,0.1-0.9,0.2-1.4
	c0-0.1,0.1-0.2,0.1-0.4c0.1-0.1,0.1-0.3,0.2-0.5c-0.1,0-0.2,0-0.2,0h-0.1L21.7,3c0.1-0.2,0.2-0.5,0.3-0.7c0.1-0.1,0.2-0.2,0.3-0.2
	c0.2,0,0.3,0,0.5,0.1c0.2-0.6,0.4-1.1,0.8-1.6c0.2-0.3,0.4-0.4,0.6-0.5c0.1,0,0.3,0.1,0.3,0.2C24.6,0.5,24.6,0.6,24.7,0.7z M23.6,4
	c-0.1-0.2-0.2-0.4-0.3-0.7C23.1,3.6,23,3.9,23,4.3c0,0.2,0,0.3-0.1,0.5v0.5c0,0.1,0,0.2,0.1,0.3c0.1-0.1,0.2-0.3,0.4-0.5
	C23.5,4.7,23.6,4.4,23.6,4z"/>
<path class="st0" d="M27.6,2.8v0.3c0,0.1-0.1,0.1-0.2,0.2l-0.5,0.3c-0.2,0.1-0.4,0.2-0.7,0.4c-0.4,0.3-0.7,0.4-0.7,0.4
	c-0.1,0-0.2-0.1-0.3-0.2c0-0.1-0.1-0.2-0.1-0.3c0-0.2,0.2-0.4,0.5-0.7L26,3l0.4-0.2c-0.1-0.2-0.3-0.3-0.5-0.4
	c-0.3-0.2-0.4-0.4-0.4-0.5c0-0.1,0.1-0.2,0.1-0.3c0.1,0,0.1-0.1,0.2-0.1c0.3,0.1,0.5,0.2,0.7,0.4l0.6,0.4
	C27.4,2.4,27.6,2.6,27.6,2.8z"/>
<path class="st0" d="M31.9,2.9v0.4c0,0.4-0.2,0.8-0.4,1.2c-0.2,0.3-0.5,0.4-0.9,0.4c-0.2-0.1-0.4-0.2-0.6-0.4
	c-0.2-0.1-0.4-0.3-0.6-0.5c-0.1,0.1-0.2,0.3-0.2,0.4c0,0.1-0.1,0.2-0.2,0.3l-0.1,0.2c-0.1,0.2-0.2,0.3-0.4,0.3
	c-0.2,0-0.3-0.3-0.3-0.8c0.1-0.5,0.2-1.1,0.4-1.6c0.3-0.8,0.6-1.1,0.7-0.9c0.1,0.1,0.2,0.1,0.2,0.1c0.2,0,0.4,0,0.7-0.1
	C30.4,2,30.6,2,30.8,1.9c0.2,0,0.5,0.1,0.7,0.3C31.7,2.4,31.8,2.6,31.9,2.9z M31,3c0-0.3-0.1-0.5-0.3-0.5c-0.2,0-0.4,0-0.6,0.1
	c-0.3,0.1-0.5,0.3-0.7,0.6c0,0.1,0.1,0.1,0.1,0.2l0.3,0.3C30,3.8,30.1,3.9,30.3,4c0.1,0,0.2-0.1,0.4-0.3C30.8,3.4,30.9,3.2,31,3
	L31,3z"/>
<path class="st0" d="M34.4,2.6c-0.2,0.5-0.5,1-0.7,1.5c-0.2,0.5-0.5,0.9-0.8,1.3c-0.1,0-0.2-0.1-0.2-0.3c0-0.1,0-0.2,0-0.4
	c0-0.1,0.1-0.3,0.1-0.5s0.1-0.4,0.2-0.7s0.1-0.5,0.2-0.7c0.1-0.2,0.1-0.5,0.1-0.7c0-0.1,0-0.2,0.1-0.2c0-0.1,0.1-0.1,0.2-0.2
	c0.1,0,0.1-0.1,0.2-0.1c0.1,0,0.2,0,0.2,0c0.3,0.1,0.4,0.1,0.4,0.3c0,0.1,0,0.2,0.1,0.3C34.4,2.4,34.4,2.5,34.4,2.6z"/>
<path class="st0" d="M39.2,1.2c-0.4-0.1-0.9,0-1.3,0.3c-0.1,0.1-0.2,0.2-0.3,0.3c-0.1,0.2-0.3,0.3-0.4,0.5C36.5,3.1,36,4,35.7,5.1
	c-0.1,0.2-0.2,0.5-0.4,0.6c-0.1,0.1-0.3,0.1-0.4,0.1c-0.2,0-0.3-0.1-0.4-0.3c-0.1-0.1-0.1-0.3-0.1-0.4c0.2-0.6,0.5-1.2,0.9-1.7
	c0.3-0.4,0.6-0.8,0.9-1.1c0.3-0.3,0.6-0.6,0.9-0.9c0.7-0.6,1.3-0.9,1.6-0.9c0.2,0,0.4,0.2,0.6,0.4c0.1,0.2,0.1,0.3,0.1,0.3
	S39.4,1.2,39.2,1.2z"/>
<path class="st0" d="M38.5,4.5c-0.1,0.1-0.2,0.3-0.3,0.3C38,5,37.8,5,37.7,5c-0.1,0-0.2-0.1-0.2-0.3c-0.1-0.2-0.1-0.3,0-0.5
	c0.1-0.3,0.3-0.6,0.5-0.8c0.3-0.4,0.5-0.5,0.7-0.5c0.1,0,0.2,0.2,0.2,0.3c0,0.2-0.1,0.4-0.1,0.7c-0.1,0.2-0.1,0.3-0.1,0.4
	S38.5,4.5,38.5,4.5z"/>
<path class="st0" d="M42.8,3.4c-0.1,0.3-0.4,0.6-1,0.8l-1.4,0.6l0.5,0.6C41,5.5,41.1,5.8,41,6c-0.1,0.4-0.4,0.7-0.7,1
	c-0.3,0.3-0.6,0.4-1,0.3C39.1,7.1,39,7,38.9,6.9c-0.2-0.2-0.3-0.3-0.4-0.4s0.1-0.1,0.4-0.2s0.7-0.2,0.8-0.3c0.2-0.1,0.4-0.3,0.6-0.5
	c0,0-0.2-0.1-0.4-0.4s-0.4-0.5-0.3-0.7s0.4-0.5,0.9-0.7s0.6-0.3,0.9-0.4c0.2-0.1,0.3-0.2,0.5-0.3c0,0,0.1-0.1,0.1-0.2
	c0-0.1,0-0.1-0.1-0.2c-0.1,0-0.2,0-0.5,0.1S40.9,3,40.8,3c-0.1,0-0.3-0.1-0.4-0.2c-0.1-0.1-0.2-0.2-0.2-0.4c0.1-0.3,0.4-0.4,0.8-0.5
	c0.3-0.1,0.7,0,1,0.1c0.3,0.1,0.5,0.4,0.6,0.7C42.8,2.8,42.8,3.1,42.8,3.4z"/>
<path class="st1" d="M17.2,42.1v-1.3c0-0.4,0-0.7,0-1.1c0-0.7,0.2-1.4,0.6-1.9l0,0c0-0.1,0.1-0.2,0.2-0.2c0,0,0.1,0,0.1,0l0,0
	c0.1,0,0.1,0,0.1,0l0.1,0.1l0,0c0,0,0,0.1-0.1,0.1l0,0c-0.1,0.1-0.1,0.2-0.2,0.3c-0.3,0.6-0.5,1.2-0.4,1.9c0,0.2,0,0.3,0,0.5
	c0,0.2,0,0.4,0.1,0.7c0,0.2,0,0.4,0,0.6c0,0.2,0,0.4,0,0.6v0.3c0,0.1,0,0.1-0.1,0.2c0,0.1-0.1,0.1-0.1,0.2c0,0,0,0.1-0.1,0.1
	s0-0.1,0-0.1c0,0,0-0.1-0.1-0.2v-0.4L17.2,42.1z"/>
<path class="st1" d="M20.3,38.3c0-0.3,0-0.5-0.1-0.9h0.4c0,0,0,0,0.1,0c0,0,0.1,0,0.1,0.1l0.1,0.1l-0.1,0.1l-0.1,0.1c0,0,0,0-0.1,0
	s-0.1,0-0.1,0.1v0.2c0,0,0,0.1,0,0.1l0.1,0.5l0,0c0,0,0,0.1,0,0.1c0,0,0,0.1-0.1,0.1s0,0.1-0.1,0.1h-0.1l-0.1-0.1L20,38.4
	c-0.2-0.2-0.3-0.3-0.5-0.4c-0.1-0.1-0.1-0.1-0.2-0.1l0,0c-0.1,0.1-0.1,0.1-0.1,0.2c-0.1,0.2-0.1,0.3-0.1,0.5c0,0.1,0,0.2-0.1,0.3
	c0,0,0-0.1-0.1-0.1c0,0-0.1-0.1-0.1-0.1v-0.1c0-0.1,0-0.2,0-0.4c0-0.2,0.1-0.3,0.3-0.4c0,0,0.1-0.1,0.1-0.1h0.1c0,0,0.1,0,0.1,0.1
	c0.2,0.1,0.4,0.2,0.6,0.4C20.1,38.2,20.2,38.2,20.3,38.3z"/>
<path class="st1" d="M24.3,35.3c-0.2-0.1-0.4-0.1-0.6-0.1c-0.5,0-0.9,0.3-1.1,0.8c-0.3,0.5-0.5,0.9-0.7,1.4
	c-0.1,0.3-0.1,0.5-0.1,0.8c0,0.1,0,0.3-0.1,0.4c0,0,0,0.1,0,0.1c0,0.1,0,0.3-0.1,0.4c0,0,0,0-0.1,0.1l-0.1,0.1l-0.1,0.1
	c0,0,0-0.1-0.1-0.1c0,0-0.1-0.1-0.1-0.2v-0.1c0,0,0-0.1,0-0.1c0,0,0,0,0-0.1c0.1,0,0.2-0.1,0.2-0.1c0,0,0-0.1,0-0.1v-0.2
	c0.1-0.9,0.5-1.8,1-2.6c0.2-0.3,0.5-0.6,0.9-0.7c0.1,0,0.2-0.1,0.3-0.1c0,0,0.1,0,0.1,0C24,34.9,24.1,35,24.3,35.3z"/>
<path class="st1" d="M23.1,39.1l-0.1,0.3c-0.1,0.3-0.2,0.6-0.3,0.9c0,0.1-0.1,0.1-0.1,0.2c0,0,0,0-0.1,0h-0.1v-0.1
	c0.1-0.2,0.1-0.4,0.2-0.6c0.1-0.2,0.1-0.3,0.1-0.5c0-0.1,0-0.2,0-0.3l0,0c0,0,0-0.1,0-0.1c0-0.1,0-0.1,0.1-0.1s0-0.1,0-0.1H23l0,0
	c0,0.1,0.1,0.1,0.1,0.2C23.1,39.1,23.1,39.1,23.1,39.1z M23.2,38.1L23.2,38.1C23.2,38.1,23.1,38.1,23.2,38.1L23.2,38.1
	C23.1,38,23.1,38,23.1,38c0,0,0-0.1,0-0.1l0,0c0-0.1,0-0.1,0.1-0.1c0,0,0.1-0.1,0.2-0.1c0,0,0.1,0,0.1,0c0.1,0,0.1,0.1,0.2,0.1
	c0.3,0.2,0.5,0.6,0.7,0.9c0,0.1,0,0.1,0,0.1V39l0,0l0,0l0,0c0,0-0.1,0-0.1,0c0,0,0,0-0.1,0s-0.1-0.2-0.1-0.2c0-0.1-0.1-0.3-0.2-0.4
	c0-0.1-0.1-0.2-0.2-0.2h-0.1C23.5,38,23.3,38.1,23.2,38.1L23.2,38.1z"/>
<path class="st1" d="M27.8,38.3L27.8,38.3C27.8,38.3,27.8,38.3,27.8,38.3v0.2c0,0,0,0-0.1,0l0,0c0,0-0.1,0-0.1-0.1
	c0,0-0.1-0.1-0.1-0.1v-0.1c0,0,0-0.1,0.1-0.1c0.1,0,0.1-0.1,0.2-0.1c0,0,0.1,0,0.1,0c0.1,0,0.1,0,0.2,0c0.2,0.1,0.3,0.2,0.3,0.4l0,0
	c0,0,0,0.1-0.1,0.1s-0.1,0.1-0.1,0.1l0,0c0,0,0,0-0.1,0s0,0,0-0.1s0-0.1-0.1-0.1c0,0,0-0.1-0.1-0.1l0,0c0,0,0,0-0.1,0
	C27.9,38.4,27.8,38.4,27.8,38.3z M28.9,38.3L28.9,38.3c0-0.2-0.1-0.4-0.2-0.6c-0.1-0.2-0.3-0.3-0.6-0.4c0,0-0.1,0-0.1-0.1s0,0-0.1,0
	s0,0,0.1,0l0.1-0.2h0.1c0.3,0.1,0.5,0.3,0.7,0.5c0.1,0.2,0.2,0.4,0.2,0.7c0,0.1,0,0.2-0.1,0.3c0,0,0,0-0.1,0.1s-0.1,0-0.1,0.1
	c0,0,0,0-0.1,0c0,0,0,0,0-0.1c0,0,0-0.1,0-0.1l0,0C29,38.5,29,38.5,28.9,38.3C28.9,38.4,28.9,38.4,28.9,38.3L28.9,38.3z"/>
<path class="st1" d="M30,38.2L30,38.2c-0.1,0-0.1-0.1-0.1-0.1c-0.1-0.1-0.1-0.2-0.2-0.3l0,0c0,0,0-0.1,0-0.1l0.1-0.1h0.1h0.1
	c0,0,0.1,0,0.1,0.1c0,0.1,0.1,0.1,0.1,0.2C30.2,37.9,30.2,38,30,38.2C30.1,38.1,30.1,38.2,30,38.2C30,38.3,30.1,38.2,30,38.2z"/>
<path class="st1" d="M31.6,39.3c0-0.1,0-0.1,0.1-0.2c0-0.1,0-0.1,0.1-0.2c0-0.1,0-0.1,0-0.2c0-0.1,0-0.1-0.1-0.2
	c-0.1-0.1-0.2-0.2-0.3-0.2c-0.1,0-0.2,0-0.3-0.1c-0.1,0-0.2,0-0.3-0.1c-0.1,0-0.1,0-0.1-0.1c0,0,0-0.1,0-0.1V38c0,0,0.1-0.1,0.1-0.1
	c0,0,0.1,0,0.1,0l0,0l0.7,0.1h0.1c0.1,0,0.3-0.1,0.3-0.2c0,0,0-0.1,0-0.1v-0.1c0,0,0-0.1,0-0.1c-0.3-0.2-0.6-0.4-0.9-0.6
	c0,0-0.1,0-0.1,0h-0.1c0,0-0.1,0-0.1,0c0,0,0,0-0.1,0c0,0-0.1,0-0.1,0l0,0c0,0-0.1,0-0.1-0.1c0,0,0-0.1,0-0.1c0,0,0-0.1,0-0.1
	c0,0,0.1-0.1,0.1-0.1c0.1,0,0.2,0,0.2,0c0.1,0,0.2,0,0.3,0.1c0.3,0.1,0.6,0.3,0.9,0.5c0.1,0.1,0.2,0.3,0.3,0.4
	c0,0.2-0.1,0.4-0.3,0.5c-0.1,0.1-0.1,0.1-0.1,0.1v0.1c0,0,0,0.1,0,0.1c0,0.1,0,0.2,0.1,0.2c0,0.1,0,0.2-0.1,0.2
	c-0.1,0.1-0.2,0.2-0.3,0.2L31.6,39.3z"/>
<path class="st1" d="M33.3,39.1c0-0.2-0.1-0.3-0.1-0.5l-0.2-1c0-0.1,0-0.1,0-0.2c-0.1-0.2-0.1-0.5,0-0.7c0,0,0,0,0-0.1
	c0,0,0-0.1,0.1-0.1c0,0,0,0,0.1,0s0,0,0.1,0l0.1,0.1c0,0,0,0.1,0.1,0.1c0,0,0,0,0,0.1l0,0v0.1l0,0c0,0.1,0,0.2,0,0.3
	c0,0.2,0,0.3,0.1,0.5c0,0.1,0,0.1,0.1,0.2c0.1,0.3,0.1,0.6,0.1,0.8v0.2c0,0.1,0,0.1-0.1,0.1S33.3,39.1,33.3,39.1z"/>
<path class="st1" d="M34.2,38.3L34.2,38.3C34.2,38.3,34.2,38.3,34.2,38.3v0.2c0,0,0,0-0.1,0l0,0c0,0-0.1,0-0.1-0.1
	c0,0-0.1-0.1-0.1-0.1v-0.1c0,0,0-0.1,0.1-0.1c0.1,0,0.1-0.1,0.2-0.1c0,0,0.1,0,0.1,0c0.1,0,0.1,0,0.2,0c0.2,0.1,0.3,0.2,0.3,0.4l0,0
	c0,0,0,0.1-0.1,0.1s-0.1,0.1-0.1,0.1l0,0c0,0,0,0-0.1,0s0,0,0-0.1s0-0.1-0.1-0.1c0,0,0-0.1-0.1-0.1l0,0c0,0,0,0-0.1,0
	C34.4,38.4,34.3,38.4,34.2,38.3z M35.4,38.3L35.4,38.3c0-0.2-0.1-0.4-0.2-0.6c-0.1-0.2-0.3-0.3-0.6-0.4c0,0-0.1,0-0.1-0.1s0,0-0.1,0
	s0,0,0.1,0l0.1-0.1h0.1c0.3,0.1,0.5,0.3,0.7,0.5c0.1,0.2,0.2,0.4,0.2,0.7c0,0.1,0,0.2-0.1,0.3c0,0,0,0-0.1,0.1s-0.1,0-0.1,0.1
	c0,0,0,0-0.1,0c0,0,0,0,0-0.1c0,0,0-0.1,0-0.1l0,0c0,0,0-0.1,0-0.1C35.4,38.5,35.4,38.4,35.4,38.3L35.4,38.3z"/>
<path class="st2" d="M19.6,41.1c0.1,0,0.2,0.1,0.3,0.1l0.3,0.3c0.1,0.1,0.2,0.3,0.2,0.4c0,0.2-0.1,0.3-0.2,0.5
	c-0.2,0.2-0.4,0.3-0.6,0.3c-0.1,0-0.1,0-0.2,0c-0.2,0-0.3,0-0.5-0.1c-0.2-0.1-0.4-0.3-0.4-0.6c0-0.1,0-0.2,0-0.2
	c0.1-0.3,0.3-0.6,0.6-0.7c0.1,0,0.2-0.1,0.3-0.1C19.4,41,19.5,41,19.6,41.1L19.6,41.1z M19.2,42.5c0.2,0,0.4-0.1,0.6-0.2
	c0.2-0.1,0.3-0.2,0.3-0.4l0,0c0-0.2-0.1-0.3-0.2-0.4c-0.2-0.1-0.4-0.2-0.6-0.2c-0.4,0-0.6,0.2-0.7,0.6l0,0
	C18.6,42.3,18.8,42.5,19.2,42.5C19.2,42.5,19.2,42.5,19.2,42.5L19.2,42.5z"/>
<path class="st2" d="M21.2,40.8c0.1-0.1,0.2-0.2,0.3-0.2c0.1,0,0.2,0,0.3-0.1H22c0.3,0,0.6,0.1,0.9,0.1c0,0,0,0,0.1,0.1
	c0,0,0.1,0,0.1,0.1c-0.2,0-0.3,0-0.5,0.1c-0.1,0-0.2,0-0.4-0.1c-0.1,0-0.1,0-0.2,0c-0.2,0-0.5,0.1-0.7,0.3c0.1,0.2,0.3,0.2,0.5,0.3
	c0.3,0.1,0.7,0.2,0.9,0.5c0.1,0.1,0.1,0.1,0.2,0.2c0,0,0,0.1,0.1,0.2c0,0.1-0.1,0.2-0.2,0.3c-0.1,0.1-0.2,0.1-0.3,0.2
	c-0.2,0.1-0.4,0.1-0.7,0.1c-0.3,0-0.6-0.1-0.8-0.2l-0.2-0.1c-0.1,0-0.1-0.1-0.1-0.2c0.1,0,0.1,0,0.2,0.1c0.2,0.1,0.3,0.1,0.5,0.1
	h0.2h0.2l0.5-0.1l0,0h0.2c0.2-0.1,0.3-0.2,0.3-0.3c0-0.1-0.1-0.2-0.1-0.3c-0.1-0.1-0.3-0.2-0.5-0.3l-0.6-0.2c0,0-0.1,0-0.2-0.1
	c0,0-0.1,0-0.1-0.1c-0.1-0.1-0.1-0.1-0.1-0.2c0-0.1,0-0.1,0.1-0.2L21.2,40.8L21.2,40.8z"/>
<path class="st2" d="M25,42.7L25,42.7c-0.1,0-0.1,0-0.2-0.1c-0.1,0-0.1-0.1-0.1-0.2c0-0.1,0-0.2-0.1-0.3c0-0.1,0-0.2,0-0.3v-0.4
	c-0.1,0.1-0.2,0.2-0.2,0.3c-0.1,0.1-0.1,0.1-0.2,0.2C24.1,41.9,24,42,24,42c-0.1,0-0.1,0-0.2-0.1c-0.1,0-0.2-0.1-0.2-0.3
	c-0.1-0.4-0.2-0.7-0.3-1.1l0,0v-0.2c0,0,0-0.1,0.1-0.1l0,0c0,0,0,0.1,0,0.1c0,0,0,0,0,0.1c0,0,0.1,0,0.1,0.1c0,0,0.1,0,0.1,0.1
	l0.1,0.3c0,0.1,0.1,0.3,0.1,0.4c0.1,0.1,0.1,0.2,0.1,0.3c0,0.1,0.1,0.1,0.1,0.2c0.1-0.1,0.1-0.1,0.2-0.2c0.1-0.1,0.2-0.2,0.3-0.3
	c0.1-0.1,0.2-0.3,0.2-0.4l0.2-0.3c0-0.1,0.1-0.1,0.1-0.1l0.1,0.2l0,0c0,0.2-0.1,0.3-0.1,0.5c0,0.1,0,0.1,0,0.2s0,0.1,0,0.1
	s0,0.1,0,0.1c0,0.3,0,0.6,0.2,0.9c0,0,0.1,0.1,0.1,0.1C25,42.7,25,42.7,25,42.7z"/>
<path class="st2" d="M26.2,40.4C26.2,40.4,26.2,40.4,26.2,40.4c0.2,0,0.3,0.1,0.4,0.2c0.1,0.1,0.1,0.2,0.2,0.3c0,0.1,0,0.3,0.1,0.4
	c0,0.2,0,0.3-0.1,0.5c-0.1,0.2-0.1,0.3-0.1,0.3c0.1,0,0.1,0.1,0.2,0.1c0.1,0.1,0.3,0.1,0.4,0.2c0.1,0,0.1,0.1,0.2,0.2l0.1,0.1
	c0,0,0,0,0,0.1v0.1h-0.1h-0.1c0,0,0,0-0.1,0c-0.1-0.1-0.2-0.2-0.4-0.3c-0.1,0-0.1,0-0.2-0.1c-0.1-0.1-0.3,0-0.4,0.1
	c-0.1,0.1-0.3,0.2-0.4,0.3h-0.1c-0.1,0-0.1,0-0.2,0l0,0c-0.1,0-0.1-0.1-0.1-0.1v-0.1c0,0,0-0.1,0.1-0.1c0-0.1,0.1-0.1,0.1-0.1
	c0.1-0.1,0.3-0.1,0.5-0.2c0.2-0.1,0.3-0.2,0.3-0.4c0-0.1,0-0.1,0-0.2c0-0.1,0-0.3,0-0.4c0-0.2-0.1-0.4-0.3-0.5L26,40.6
	c-0.1,0-0.1,0-0.1-0.1c0,0-0.1,0-0.1-0.1s0-0.1,0.1-0.1l0,0C25.9,40.4,26,40.4,26.2,40.4z"/>
<path class="st2" d="M27.8,41.8c0.3-0.3,0.6-0.7,0.8-1.1v-0.1c0.1-0.3,0.3-0.5,0.5-0.7c0,0.1,0,0.1,0,0.2c0,0.1,0,0.2,0,0.3l0,0
	c0,0.4-0.1,0.8-0.1,1.2l-0.1,0.3c0,0.1-0.1,0.2-0.1,0.3v0.1c0,0.1,0,0.1,0,0.2v0.1c0,0.1,0.1,0.1,0.2,0.1v0.1c0,0,0,0.1,0,0.1
	c0,0,0,0.1,0,0.1l0,0h-0.1c0,0-0.1-0.1-0.1-0.1c0,0-0.1-0.1-0.1-0.2v-0.1c0-0.3,0-0.6,0.1-0.9c0-0.2,0.1-0.4,0.1-0.6
	c0-0.2,0-0.3,0.1-0.5s0-0.2,0-0.2s0,0.1-0.1,0.1c0,0,0,0.1-0.1,0.1c-0.2,0.5-0.5,0.9-0.9,1.2c0,0-0.1,0.1-0.1,0.1L27.8,41.8
	c0,0,0-0.1,0-0.1L27.8,41.8z"/>
<path class="st2" d="M31.4,42.7L31.4,42.7c-0.1,0-0.1,0-0.2-0.1c-0.1,0-0.1-0.1-0.1-0.2c0-0.1,0-0.2-0.1-0.3c0-0.1,0-0.2,0-0.3v-0.4
	c-0.1,0.1-0.2,0.2-0.2,0.3c-0.1,0.1-0.1,0.1-0.2,0.2c-0.1,0-0.1,0.1-0.2,0.1c-0.1,0-0.1,0-0.2-0.1c-0.1,0-0.2-0.1-0.2-0.3
	c-0.1-0.4-0.2-0.7-0.3-1.1l0,0v-0.2c0,0,0-0.1,0.1-0.1l0,0c0,0,0,0.1,0,0.1c0,0,0,0,0,0.1c0,0,0.1,0,0.1,0.1c0,0,0.1,0,0.1,0.1
	l0.1,0.3c0,0.1,0.1,0.3,0.1,0.4c0.1,0.1,0.1,0.2,0.1,0.3c0,0.1,0.1,0.1,0.1,0.2c0.1-0.1,0.1-0.1,0.2-0.2c0.1-0.1,0.2-0.2,0.3-0.3
	c0.1-0.1,0.2-0.3,0.2-0.4l0.2-0.3c0-0.1,0.1-0.1,0.1-0.1l0.1,0.2l0,0c0,0.2-0.1,0.3-0.1,0.5c0,0.1,0,0.1,0,0.2s0,0.1,0,0.1
	s0,0.1,0,0.1c0,0.3,0,0.6,0.2,0.9c0,0,0.1,0.1,0.1,0.1C31.4,42.7,31.4,42.7,31.4,42.7z"/>
<path class="st2" d="M34.2,40.2C34.2,40.2,34.2,40.2,34.2,40.2l-0.1,0.1c-0.3,0.1-0.6,0.3-0.8,0.6c-0.3,0.4-0.6,0.8-0.9,1.2
	c-0.1,0.1-0.1,0.3-0.1,0.4v0.1c0,0.1,0,0.1,0.1,0.2c0,0,0.1,0,0.1,0c0,0,0.1,0,0.1-0.1l0,0l0.8-0.6c0,0,0.1-0.1,0.1-0.1l0.1-0.2
	v-0.1c0-0.1,0-0.1-0.1-0.1s-0.1-0.1-0.1-0.1h-0.1c-0.1,0-0.2,0.1-0.3,0.1h-0.1l-0.1,0.1c0,0-0.1,0-0.1,0.1h-0.1c0,0,0,0,0-0.1v-0.1
	c0,0,0-0.1,0-0.1c0,0,0,0,0.1-0.1c0.2-0.1,0.3-0.2,0.5-0.3h0.1c0.2,0,0.4,0.1,0.4,0.3v0.1c-0.1,0.2-0.2,0.4-0.4,0.6
	c-0.2,0.2-0.4,0.3-0.7,0.4c-0.1,0-0.1,0.1-0.2,0.1h-0.1c-0.1,0-0.1,0-0.2-0.1c-0.1-0.1-0.2-0.2-0.2-0.3c0-0.1,0-0.1,0-0.2
	c0.1-0.2,0.1-0.4,0.2-0.6l0.1-0.1c0.2-0.4,0.5-0.8,0.9-1.1c0.2-0.1,0.3-0.3,0.5-0.4l0.1-0.1c0,0,0.1,0,0.1,0h0.1c0,0,0,0.1,0,0.1
	L34.2,40.2z M34.5,40.1L34.5,40.1C34.4,40.1,34.4,40.1,34.5,40.1L34.5,40.1L34.5,40.1L34.5,40.1L34.5,40.1L34.5,40.1L34.5,40.1z"/>
<path class="st2" d="M34.3,41.8c0.3-0.3,0.6-0.7,0.8-1.1v-0.1c0.1-0.3,0.3-0.5,0.5-0.7c0,0.1,0,0.1,0,0.2c0,0.1,0,0.2,0,0.3l0,0
	c0,0.4-0.1,0.8-0.1,1.2l-0.1,0.3c0,0.1-0.1,0.2-0.1,0.3v0.1c0,0.1,0,0.1,0,0.2v0.1c0,0.1,0.1,0.1,0.2,0.1v0.1c0,0,0,0.1,0,0.1
	c0,0,0,0.1,0,0.1l0,0h-0.1c0,0-0.1-0.1-0.1-0.1c0,0-0.1-0.1-0.1-0.2v-0.1c0-0.3,0-0.6,0.1-0.9c0-0.2,0.1-0.4,0.1-0.6
	c0-0.2,0-0.3,0.1-0.5s0-0.2,0-0.2s0,0.1-0.1,0.1c0,0,0,0.1-0.1,0.1c-0.2,0.5-0.5,0.9-0.9,1.2c0,0-0.1,0.1-0.1,0.1L34.3,41.8
	c0,0,0-0.1,0-0.1L34.3,41.8z"/>
<path class="st2" d="M36.8,40.4C36.8,40.4,36.9,40.4,36.8,40.4c0.2,0,0.3,0.1,0.4,0.2c0.1,0.1,0.1,0.2,0.2,0.3c0,0.1,0,0.3,0.1,0.4
	c0,0.2,0,0.3-0.1,0.5c-0.1,0.2-0.1,0.3-0.1,0.3c0.1,0,0.1,0.1,0.2,0.1c0.1,0.1,0.3,0.1,0.4,0.2c0.1,0,0.1,0.1,0.2,0.2l0.1,0.1
	c0,0,0,0,0,0.1v0.1H38H38c0,0,0,0-0.1,0c-0.1-0.1-0.2-0.2-0.4-0.3c-0.1,0-0.1,0-0.2-0.1c-0.1-0.1-0.3,0-0.4,0.1
	c-0.1,0.1-0.3,0.2-0.4,0.3h-0.1c-0.1,0-0.1,0-0.2,0l0,0c-0.1,0-0.1-0.1-0.1-0.1v-0.1c0,0,0-0.1,0.1-0.1c0-0.1,0.1-0.1,0.1-0.1
	c0.1-0.1,0.3-0.1,0.5-0.2c0.2-0.1,0.3-0.2,0.3-0.4c0-0.1,0-0.1,0-0.2c0-0.1,0-0.3,0-0.4c0-0.2-0.1-0.4-0.3-0.5l-0.2-0.1
	c-0.1,0-0.1,0-0.1-0.1c0,0-0.1,0-0.1-0.1s0-0.1,0.1-0.1C36.5,40.4,36.6,40.4,36.8,40.4z"/>
<path class="st2" d="M40.2,42.1c0,0.1-0.1,0.2-0.3,0.3c-0.3,0.2-0.1,0-0.1,0.1c-0.4,0.2-0.9,0.2-1.3-0.1c0,0,0,0-0.1-0.1v-0.1l0,0
	v-0.1l0,0l0,0l0,0c0.2,0.1,0.3,0.2,0.5,0.2c0.1,0,0.2,0,0.2,0c0.2,0,0.3-0.1,0.5-0.2c0.1-0.1,0.2-0.1,0.2-0.2l0,0
	c0-0.1-0.1-0.2-0.2-0.3c-0.2-0.2-0.5-0.2-0.7-0.2c-0.1,0-0.2,0-0.3,0.1h-0.1c0,0-0.1,0-0.1,0h-0.1c0,0-0.1,0-0.1-0.1s0,0,0-0.1l0,0
	c0,0,0,0,0.1,0l0,0c0.1,0,0.2-0.1,0.4-0.1l0.6-0.2c0.1,0,0.1-0.1,0.2-0.1c0,0,0.1-0.1,0.1-0.1c0,0,0-0.1-0.1-0.1
	c0-0.1-0.1-0.1-0.1-0.2c-0.1-0.1-0.2-0.1-0.3-0.1c-0.1,0-0.2-0.1-0.3-0.1l-0.1-0.1c0,0,0-0.1,0-0.1c0,0,0-0.1,0.1-0.1
	c0,0,0.1,0,0.1,0l0,0c0.1,0,0.1,0,0.1,0c0,0.1,0.1,0.1,0.2,0.1l0.2,0.1c0.1,0,0.2,0.1,0.3,0.2c0,0,0.1,0,0.1,0.1c0,0,0,0,0.1,0
	c0.1,0.1,0.2,0.1,0.2,0.2l0,0c0,0.1,0,0.1-0.1,0.2c-0.1,0.1-0.2,0.2-0.4,0.3l0.3,0.1l0.1,0.1c0,0,0.1,0.1,0.1,0.1
	c0.1,0.1,0.1,0.1,0.1,0.1c0,0,0.1,0.1,0.1,0.2C40.1,42,40.1,42.1,40.2,42.1z"/>
<path class="st3" d="M3.2,26.3L3,25.9c-0.2-0.6-0.4-1.1-0.4-1.7c0-0.1,0-0.3-0.1-0.4c-0.1-0.5,0-1,0.2-1.4C2.8,22.1,3,22,3.2,21.9
	c0.1,0.1,0.1,0.2,0.1,0.2c0.1,0.3,0.2,0.5,0.2,0.8c0.2,1,0.1,2.1-0.2,3.1c0,0,0,0.1-0.1,0.1L3.2,26.3z"/>
<path class="st3" d="M3.5,27.2c0-0.1,0-0.2-0.1-0.3c0.1-0.7,0.5-1.3,0.9-1.7c0.3-0.3,0.7-0.4,1.2-0.4c0.3,0,0.4,0.1,0.4,0.4
	c0,0.1,0,0.3-0.1,0.4c-0.1,0.1-0.2,0.3-0.3,0.4c-0.4,0.4-0.8,0.7-1.3,0.9C4.1,27,3.8,27.1,3.5,27.2z"/>
<path class="st3" d="M0.5,24.4c0.2,0,0.4,0.1,0.6,0.3c0.6,0.5,1.2,1,1.7,1.6c0.2,0.2,0.3,0.4,0.3,0.6c0,0.1,0.1,0.1,0.1,0.2
	s0.1,0.2,0.1,0.3c-0.2,0-0.4-0.1-0.6-0.2c-0.9-0.4-1.6-1.1-2-2C0.5,25,0.4,24.7,0.5,24.4z"/>
<path class="st3" d="M3.9,30.1c-0.3-0.1-0.7-0.1-1-0.3c-0.6-0.2-1.1-0.5-1.6-0.8c-0.1-0.1-0.2-0.2-0.3-0.4c-0.1-0.1,0-0.2-0.1-0.2
	c0.2-0.1,0.5-0.1,0.7-0.1c0.5,0.2,1,0.4,1.4,0.6C3.5,29.2,3.8,29.6,3.9,30.1z"/>
<path class="st3" d="M8.8,30.9c0.3,1,0.2,2-0.3,2.9C8.2,33.8,8,33.6,8,33.3c-0.1-0.4-0.1-0.9,0-1.3c0.1-0.4,0.3-0.8,0.7-1L8.8,30.9
	L8.8,30.9z"/>
<path class="st3" d="M5.9,27.6c0.1,0.2,0,0.5-0.1,0.7c-0.1,0.1-0.2,0.2-0.3,0.3c-0.4,0.3-0.7,0.7-1,1.1l-0.1,0.1
	c-0.1,0-0.2-0.1-0.2-0.1c0,0,0,0,0,0c-0.1-0.4,0-0.8,0.1-1.2c0.1-0.3,0.3-0.5,0.6-0.6c0.2-0.1,0.4-0.2,0.7-0.2
	C5.7,27.5,5.8,27.5,5.9,27.6z"/>
<path class="st3" d="M7.4,29.3v0.6c0,0.2-0.1,0.5-0.2,0.7c-0.3,0.5-0.6,1-1.1,1.4c0,0-0.1,0-0.1,0C6,32,6,32,6,31.9
	c-0.1-0.6,0-1.1,0.4-1.6c0.2-0.3,0.4-0.6,0.7-0.8c0.1-0.1,0.2-0.2,0.3-0.3C7.4,29.3,7.4,29.3,7.4,29.3z"/>
<path class="st3" d="M5.2,32.4c-0.3,0.1-0.6,0.1-0.9,0.1c-0.5,0.1-1,0-1.5-0.1c-0.2,0-0.2-0.1-0.2-0.3c0-0.1,0-0.2,0.1-0.3
	c0.1-0.3,0.3-0.4,0.6-0.4l0.4,0.1c0.5,0.1,0.9,0.3,1.4,0.6C5.1,32.2,5.1,32.3,5.2,32.4z"/>
<path class="st3" d="M7.4,34.1L7.4,34.1c-0.4,0.3-0.9,0.5-1.5,0.5H5.4c-0.1,0-0.2,0-0.3-0.1c-0.1,0-0.1-0.1-0.1-0.1
	c-0.1-0.2,0-0.5,0.2-0.6c0.1,0,0.2-0.1,0.3-0.1L7,33.9L7.4,34.1z"/>
<path class="st4" d="M6.2,32.6c0.4,0.5,1,0.8,1.5,1.1c-0.2-0.4-0.2-0.9-0.2-1.4c0-0.6,0.3-1.2,0.8-1.6c0.1-0.1,0.2-0.1,0.3-0.2
	c0.1-0.1,0.3-0.1,0.4,0.1c0,0,0,0,0,0c0.1,0.1,0.1,0.2,0.2,0.3c0.1,0.6,0.1,1.2,0,1.8c-0.1,0.5-0.3,1-0.5,1.4
	c0.4,0.2,0.7,0.3,1.1,0.4c0.1,0,0.3,0.1,0.4,0.1c0.1,0,0.2,0.1,0.2,0.2c0,0.1-0.1,0.2-0.2,0.2c-0.1,0-0.1,0-0.2,0
	c-0.5-0.1-0.9-0.2-1.4-0.4l-0.7-0.3c-0.2,0.1-0.5,0.2-0.7,0.3C6.6,35,6,35.1,5.3,35.1H5.2c-0.7-0.2-0.7-0.3-0.6-1
	c0-0.2,0.1-0.3,0.3-0.4c0.2-0.1,0.4-0.2,0.7-0.2l0.7,0.1h0.3c-0.1-0.1-0.1-0.1-0.1-0.2s-0.3-0.2-0.4-0.4c-0.2-0.2-0.5-0.3-0.8-0.3
	l-0.8,0.1c-0.6,0.1-1.2,0.1-1.9,0c-0.3,0-0.6-0.3-0.5-0.6c0,0,0,0,0-0.1c0-0.2,0.1-0.3,0.1-0.5c0.1-0.4,0.6-0.7,1-0.5c0,0,0,0,0.1,0
	c0.4,0.1,0.7,0.3,1,0.4c0.1,0.1,0.2,0.1,0.3,0.1v-0.1c-0.2-0.3-0.3-0.6-0.5-0.9c0,0,0-0.1-0.1-0.1C4,30.7,4,30.6,3.9,30.6l-1-0.2
	c-0.5-0.1-0.9-0.3-1.4-0.6c-0.2-0.1-0.3-0.2-0.5-0.3c-0.2-0.1-0.4-0.3-0.5-0.6c-0.2-0.2-0.1-0.6,0.2-0.7C0.8,28.1,0.9,28,1,28
	c0.3,0,0.6,0,0.8,0.1L3,28.7c0.1,0,0.2,0.1,0.3,0.1c0-0.3-0.1-0.6-0.1-0.8l-0.3-0.1c-0.4-0.1-0.8-0.3-1.2-0.6
	c-0.6-0.5-1.1-1.1-1.5-1.8C0,25.1,0,24.7,0,24.4C0,24.2,0.2,24,0.4,24c0,0,0.1,0,0.1,0c0.2,0,0.4,0.1,0.6,0.3
	c0.2,0.2,0.4,0.3,0.6,0.5l0.6,0.5c0.1,0,0.1,0.1,0.2,0.1c0-0.1-0.1-0.3-0.1-0.4c-0.1-0.5-0.2-1-0.2-1.6c0-0.5,0.1-0.9,0.3-1.4
	c0.1-0.3,0.4-0.5,0.7-0.6c0.1,0,0.2,0,0.3,0.1c0.1,0.1,0.2,0.2,0.2,0.4c0.1,0.3,0.2,0.7,0.3,1c0.1,0.6,0.1,1.2,0.1,1.9
	c0.1,0.1,0.2,0,0.2-0.1c0.4-0.3,0.9-0.4,1.3-0.4c0.1,0,0.2,0,0.3,0.1c0.2,0,0.3,0.2,0.4,0.4c0.1,0.3,0,0.6-0.1,0.9
	C6.1,26,6,26.1,5.8,26.3c-0.4,0.4-1,0.8-1.6,1l-0.7,0.3c0,0.3,0,0.7,0.2,0.9c0.1-0.1,0.1-0.2,0.1-0.2c0.1-0.4,0.4-0.7,0.7-0.9
	c0.3-0.2,0.6-0.3,0.9-0.3c0.1,0,0.2,0,0.3,0c0.2,0,0.4,0.2,0.4,0.5c0,0.3-0.1,0.7-0.3,0.9c-0.1,0.2-0.2,0.3-0.4,0.4
	c-0.4,0.3-0.7,0.6-1,1c-0.1,0.1-0.1,0.2-0.2,0.3c0.2,0.5,0.5,0.9,0.8,1.3c0.1,0.1,0.2,0.2,0.3,0.3c0.1-0.1,0.1-0.1,0.1-0.2v-0.4
	c0-0.3,0.1-0.5,0.2-0.7c0.3-0.6,0.8-1.2,1.3-1.6c0.1-0.1,0.1-0.1,0.2-0.1c0.1-0.1,0.3,0,0.4,0.1c0,0,0,0.1,0,0.1c0,0.1,0,0.1,0,0.2
	c0,0.4,0,0.7,0,1.1c0,0.3-0.1,0.5-0.3,0.8c-0.3,0.5-0.6,0.9-1,1.3c-0.1,0-0.1,0.1-0.1,0.1S6.3,32.5,6.2,32.6z M3.2,26.3
	c0.1-0.1,0.1-0.1,0.1-0.1s0-0.1,0.1-0.1c0.4-1,0.4-2.1,0.2-3.1c-0.1-0.3-0.1-0.6-0.2-0.8c0-0.1-0.1-0.2-0.1-0.2
	c-0.2,0-0.4,0.2-0.5,0.4c-0.2,0.5-0.2,0.9-0.2,1.4c0,0.1,0,0.3,0.1,0.4c0,0.6,0.2,1.2,0.4,1.7C3.1,26.1,3.1,26.2,3.2,26.3L3.2,26.3z
	 M3.5,27.2c0.3-0.1,0.5-0.2,0.8-0.3c0.5-0.2,0.9-0.5,1.3-0.9c0.1-0.1,0.2-0.2,0.3-0.4C5.9,25.5,6,25.4,6,25.2c0-0.3-0.1-0.4-0.4-0.4
	c-0.4,0-0.8,0.1-1.2,0.4C4,25.7,3.6,26.3,3.5,27C3.5,27,3.5,27.1,3.5,27.2L3.5,27.2z M0.5,24.4c-0.1,0.3,0,0.5,0.1,0.7
	c0.4,0.9,1.1,1.6,2,2c0.2,0.1,0.4,0.1,0.6,0.2c0-0.1-0.1-0.2-0.1-0.3S3,26.9,3,26.8c0-0.2-0.1-0.4-0.3-0.6c-0.5-0.6-1.1-1.1-1.7-1.6
	C0.9,24.5,0.7,24.4,0.5,24.4L0.5,24.4z M3.9,30.1c0-0.5-0.3-0.9-0.7-1.1c-0.5-0.2-1-0.4-1.4-0.6c-0.2-0.1-0.5-0.1-0.7,0.1
	c0,0.1,0,0.2,0.1,0.2c0.1,0.1,0.2,0.3,0.3,0.4c0.5,0.3,1,0.6,1.6,0.8C3.2,29.9,3.5,30,3.9,30.1z M8.9,30.9L8.9,30.9
	c-0.1,0-0.1,0-0.2,0.1c-0.3,0.2-0.6,0.6-0.7,1c-0.1,0.4-0.1,0.9,0,1.3c0,0.3,0.2,0.5,0.5,0.6C9,33,9.1,31.9,8.9,30.9L8.9,30.9z
	 M5.9,27.6c-0.1-0.1-0.3-0.1-0.4,0c-0.2,0.1-0.4,0.1-0.7,0.2c-0.3,0.1-0.4,0.3-0.6,0.6c-0.2,0.4-0.2,0.8-0.1,1.2
	c0,0.1,0,0.1,0.1,0.2c0,0,0,0,0,0c0,0,0.1-0.1,0.1-0.1c0.3-0.4,0.6-0.7,1-1.1c0.1-0.1,0.2-0.2,0.3-0.3C5.9,28.1,6,27.8,5.9,27.6
	L5.9,27.6z M7.5,29.3c-0.1,0-0.1,0-0.1,0c-0.1,0.1-0.2,0.2-0.3,0.3c-0.2,0.3-0.4,0.5-0.7,0.8C6,30.9,5.9,31.4,6,32
	c0,0.1,0,0.1,0.1,0.2c0,0,0,0,0,0h0.1c0.5-0.4,0.8-0.9,1.1-1.4c0.1-0.2,0.2-0.5,0.2-0.7L7.5,29.3z M5.2,32.3
	c-0.1-0.1-0.1-0.1-0.2-0.2c-0.4-0.2-0.9-0.4-1.4-0.6c-0.1,0-0.2-0.1-0.4-0.1c-0.3-0.1-0.5,0.1-0.6,0.4c0,0.1,0,0.2-0.1,0.3
	c0,0.2,0.1,0.2,0.2,0.3c0.5,0.1,1,0.1,1.5,0.1C4.6,32.4,4.9,32.4,5.2,32.3L5.2,32.3z M7.4,34.1L7,34c-0.5-0.1-1-0.1-1.4-0.1
	c-0.1,0-0.2,0-0.3,0.1C5.1,34,4.9,34.2,5,34.4c0,0,0,0,0,0.1c0,0.1,0.1,0.1,0.1,0.1l0.3,0.1h0.5C6.5,34.6,7,34.5,7.4,34.1
	C7.4,34.1,7.4,34.1,7.4,34.1z"/>
<path class="st3" d="M49.9,26.3l0.2-0.4c0.2-0.6,0.4-1.1,0.4-1.7c0-0.1,0-0.3,0.1-0.4c0.1-0.5,0-1-0.2-1.4c-0.1-0.2-0.2-0.4-0.5-0.4
	c-0.1,0.1-0.1,0.2-0.1,0.2c-0.1,0.3-0.2,0.5-0.2,0.8c-0.2,1-0.1,2.1,0.2,3.1c0,0,0,0.1,0.1,0.1L49.9,26.3z"/>
<path class="st3" d="M49.6,27.2c0-0.1,0-0.2,0.1-0.3c-0.1-0.7-0.5-1.3-0.9-1.7c-0.3-0.3-0.7-0.4-1.1-0.4c-0.3,0-0.4,0.1-0.4,0.4
	c0,0.1,0,0.3,0.1,0.4c0.1,0.1,0.2,0.3,0.3,0.4c0.4,0.4,0.8,0.7,1.3,0.9C49,27,49.2,27.1,49.6,27.2z"/>
<path class="st3" d="M52.7,24.5c-0.2,0-0.4,0.1-0.6,0.3c-0.6,0.5-1.2,1-1.7,1.6c-0.2,0.2-0.3,0.4-0.3,0.6c0,0.1-0.1,0.1-0.1,0.2
	s-0.1,0.2-0.1,0.3c0.2,0,0.4-0.1,0.6-0.2c0.9-0.4,1.6-1.1,2-2C52.6,25,52.7,24.7,52.7,24.5z"/>
<path class="st3" d="M49.2,30.1c0.3-0.1,0.7-0.1,1-0.3c0.6-0.2,1.1-0.5,1.6-0.8c0.1-0.1,0.2-0.2,0.3-0.4c0.1-0.1,0-0.2,0.1-0.2
	c-0.2-0.1-0.5-0.1-0.7-0.1c-0.5,0.2-1,0.4-1.4,0.6C49.6,29.2,49.3,29.6,49.2,30.1z"/>
<path class="st3" d="M44.2,31c-0.3,1-0.2,2,0.3,2.9c0.3-0.1,0.5-0.3,0.5-0.6c0.1-0.4,0.1-0.9,0-1.3c-0.1-0.4-0.3-0.8-0.6-1L44.2,31
	L44.2,31z"/>
<path class="st3" d="M47.2,27.6c-0.1,0.2,0,0.5,0.1,0.7c0.1,0.1,0.2,0.2,0.3,0.3c0.4,0.3,0.7,0.7,1,1.1l0.1,0.1
	c0.1,0,0.2-0.1,0.2-0.1c0,0,0,0,0,0c0.1-0.4,0-0.8-0.1-1.2c-0.1-0.3-0.3-0.5-0.6-0.6c-0.2-0.1-0.4-0.2-0.7-0.2
	C47.5,27.5,47.3,27.5,47.2,27.6z"/>
<path class="st3" d="M45.7,29.4v0.6c0,0.2,0.1,0.5,0.2,0.7c0.3,0.5,0.6,1,1.1,1.4c0,0,0.1,0,0.1,0c0.1,0,0.1-0.1,0.1-0.2
	c0.1-0.6,0-1.1-0.4-1.6c-0.2-0.3-0.4-0.6-0.6-0.8c-0.1-0.1-0.2-0.2-0.3-0.3C45.8,29.3,45.7,29.4,45.7,29.4z"/>
<path class="st3" d="M47.9,32.4c0.3,0.1,0.6,0.1,0.9,0.1c0.5,0.1,1,0,1.5-0.1c0.2,0,0.2-0.1,0.2-0.3c0-0.1,0-0.2-0.1-0.3
	c-0.1-0.3-0.3-0.4-0.6-0.4l-0.4,0.1c-0.5,0.1-0.9,0.3-1.4,0.6L47.9,32.4z"/>
<path class="st3" d="M45.7,34.1L45.7,34.1c0.4,0.4,0.9,0.6,1.5,0.6h0.5c0.1,0,0.2,0,0.3-0.1c0.1,0,0.1-0.1,0.1-0.1
	c0.1-0.2,0-0.5-0.2-0.6c-0.1,0-0.2-0.1-0.3-0.1L46.1,34C46,34,45.8,34,45.7,34.1z"/>
<path class="st4" d="M46.8,32.5c0-0.1-0.1-0.1-0.1-0.1c-0.4-0.4-0.7-0.8-1-1.3c-0.1-0.2-0.2-0.5-0.3-0.8c0-0.4,0-0.7,0-1.1
	c0-0.1,0-0.1,0-0.2c0-0.2,0.2-0.3,0.4-0.2c0,0,0,0,0.1,0c0.1,0,0.2,0.1,0.2,0.1c0.6,0.4,1,1,1.3,1.6c0.1,0.2,0.2,0.5,0.2,0.7v0.4
	c0,0.1,0,0.1,0.1,0.2c0.1-0.1,0.2-0.2,0.3-0.3c0.3-0.4,0.6-0.9,0.8-1.3c-0.1-0.1-0.1-0.2-0.2-0.3c-0.3-0.4-0.6-0.7-1-1
	c-0.1-0.1-0.3-0.3-0.4-0.4c-0.2-0.3-0.3-0.6-0.3-0.9c0-0.2,0.2-0.5,0.4-0.5h0.3c0.3,0.1,0.6,0.2,0.9,0.3c0.3,0.2,0.6,0.5,0.7,0.9
	c0,0.1,0,0.2,0.1,0.2c0.2-0.3,0.2-0.6,0.2-0.9c-0.2-0.1-0.4-0.2-0.7-0.3c-0.6-0.2-1.1-0.6-1.6-1.1c-0.1-0.1-0.3-0.3-0.4-0.5
	c-0.1-0.3-0.2-0.6-0.1-0.9c0-0.2,0.2-0.3,0.4-0.4c0.1,0,0.2,0,0.3-0.1c0.5-0.1,1,0.1,1.3,0.4c0.1,0.1,0.1,0.1,0.2,0.1
	c-0.1-0.6,0-1.3,0.1-1.9c0.1-0.3,0.2-0.7,0.3-1c0.1-0.1,0.1-0.3,0.2-0.4c0.1-0.1,0.2-0.1,0.3-0.1c0.3,0.1,0.5,0.3,0.7,0.6
	c0.2,0.4,0.3,0.9,0.3,1.3c-0.1,0.5-0.1,1-0.2,1.6c0,0.1-0.1,0.2-0.1,0.4l0.2-0.1l0.6-0.5l0.6-0.5c0.2-0.1,0.4-0.2,0.6-0.3
	c0.2-0.1,0.4,0,0.5,0.2c0,0,0,0.1,0,0.1c0,0.4,0,0.7-0.2,1.1c-0.4,0.7-0.9,1.3-1.6,1.8c-0.3,0.3-0.7,0.5-1.1,0.6l-0.3,0.1
	c-0.1,0.3-0.1,0.6-0.1,0.8c0.1,0,0.2-0.1,0.3-0.1l1.2-0.6c0.3-0.1,0.5-0.2,0.8-0.1c0.3,0,0.6,0.2,0.6,0.5c0,0.1,0,0.2-0.1,0.3
	c-0.1,0.2-0.3,0.4-0.5,0.6c-0.2,0.1-0.3,0.2-0.5,0.3c-0.4,0.2-0.9,0.4-1.4,0.6l-1,0.2c-0.1,0-0.2,0.1-0.2,0.1c0,0,0,0.1-0.1,0.1
	c-0.2,0.3-0.3,0.6-0.5,0.9v0.1c0.1,0,0.2-0.1,0.3-0.1c0.3-0.1,0.7-0.3,1-0.4c0.4-0.2,0.9,0.1,1.1,0.5c0,0,0,0,0,0
	c0.1,0.2,0.1,0.3,0.1,0.5c0,0.3-0.2,0.6-0.5,0.7c-0.6,0.1-1.2,0.1-1.9,0c-0.3-0.1-0.5-0.1-0.8-0.1c-0.3,0-0.6,0-0.8,0.3
	c-0.1,0.1-0.3,0.2-0.4,0.4c0,0.1-0.1,0.1-0.1,0.2h0.3l0.7-0.1c0.2,0,0.5,0,0.7,0.2c0.2,0.1,0.3,0.2,0.3,0.4c0.1,0.6,0.1,0.8-0.6,1
	h-0.1c-0.7,0.1-1.4,0-1.9-0.4c-0.2-0.1-0.5-0.2-0.7-0.3l-0.7,0.3c-0.4,0.2-0.9,0.3-1.4,0.4h-0.2c-0.1,0-0.2-0.1-0.2-0.2
	c0-0.1,0-0.2,0.1-0.2c0,0,0,0,0,0c0.1,0,0.3-0.1,0.4-0.1c0.4-0.1,0.8-0.2,1.1-0.4c-0.2-0.5-0.4-0.9-0.5-1.4c-0.1-0.6-0.1-1.2,0-1.8
	c0-0.1,0.1-0.2,0.2-0.3c0.1-0.1,0.3-0.2,0.4-0.1c0.1,0,0.2,0.1,0.3,0.2c0.5,0.4,0.8,1,0.8,1.6c0,0.5,0,0.9-0.2,1.4
	C45.8,33.3,46.3,33,46.8,32.5C46.8,32.6,46.8,32.5,46.8,32.5z M50.1,25.9c0.2-0.6,0.4-1.1,0.4-1.7c0-0.1,0-0.3,0.1-0.4
	c0.1-0.5,0-1-0.2-1.4c-0.1-0.2-0.2-0.4-0.5-0.4c-0.1,0.1-0.1,0.2-0.1,0.2c-0.1,0.3-0.2,0.5-0.2,0.8c-0.2,1-0.1,2.1,0.2,3.1
	c0,0,0,0.1,0.1,0.1s0,0.1,0.1,0.1C50,26.2,50,26.1,50.1,25.9L50.1,25.9z M49.6,26.9c-0.1-0.7-0.5-1.3-0.9-1.7
	c-0.3-0.3-0.7-0.4-1.1-0.4c-0.3,0-0.4,0.1-0.4,0.4c0,0.1,0,0.3,0.1,0.4c0.1,0.1,0.2,0.3,0.3,0.4c0.4,0.4,0.8,0.7,1.3,0.9
	c0.2,0.1,0.5,0.2,0.8,0.3C49.6,27.1,49.6,27,49.6,26.9z M52,24.7c-0.6,0.5-1.2,1-1.7,1.6c-0.2,0.2-0.3,0.4-0.3,0.6
	c0,0.1-0.1,0.1-0.1,0.2s-0.1,0.2-0.1,0.3c0.2,0,0.4-0.1,0.6-0.2c0.9-0.4,1.6-1.1,2-2c0.1-0.2,0.2-0.5,0.1-0.7
	C52.4,24.5,52.2,24.6,52,24.7z M50.2,29.9c0.6-0.2,1.1-0.5,1.6-0.8c0.1-0.1,0.2-0.2,0.3-0.4c0.1-0.1,0-0.2,0.1-0.2
	c-0.2-0.1-0.5-0.1-0.7-0.1c-0.5,0.2-1,0.4-1.4,0.6c-0.4,0.2-0.7,0.6-0.8,1.1C49.6,30,49.9,30,50.2,29.9z M44.6,33.9
	c0.3-0.1,0.5-0.3,0.5-0.6c0.1-0.4,0.1-0.9,0-1.3c-0.1-0.4-0.3-0.8-0.6-1l-0.1-0.1h-0.1C44,31.9,44.1,33,44.6,33.9L44.6,33.9z
	 M47.3,28.2c0.1,0.1,0.2,0.2,0.3,0.3c0.4,0.3,0.7,0.7,1,1.1l0.1,0.1c0.1,0,0.2-0.1,0.2-0.1c0,0,0,0,0,0c0.1-0.4,0-0.8-0.1-1.2
	c-0.1-0.3-0.3-0.5-0.6-0.6c-0.2-0.1-0.4-0.2-0.7-0.2c-0.1-0.1-0.3-0.1-0.4,0C47.1,27.8,47.1,28.1,47.3,28.2L47.3,28.2z M45.7,29.9
	c0,0.2,0.1,0.5,0.2,0.7c0.3,0.5,0.6,1,1.1,1.4c0,0,0.1,0,0.1,0c0.1,0,0.1-0.1,0.1-0.2c0.1-0.6,0-1.1-0.4-1.6
	c-0.2-0.3-0.4-0.6-0.6-0.8c-0.1-0.1-0.2-0.2-0.3-0.3c0,0-0.1,0-0.1,0C45.7,29.5,45.7,29.7,45.7,29.9L45.7,29.9z M48.8,32.5
	c0.5,0.1,1,0,1.5-0.1c0.2,0,0.2-0.1,0.2-0.3c0-0.1,0-0.2-0.1-0.3c-0.1-0.3-0.3-0.4-0.6-0.4l-0.4,0.1c-0.5,0.1-0.9,0.3-1.4,0.6
	c-0.1,0-0.1,0.1-0.2,0.2C48.2,32.4,48.5,32.5,48.8,32.5L48.8,32.5z M45.7,34.1c0.4,0.3,0.9,0.5,1.5,0.5h0.5c0.1,0,0.2,0,0.3-0.1
	c0.1,0,0.1-0.1,0.1-0.1c0.1-0.2,0-0.5-0.2-0.6c-0.1,0-0.2-0.1-0.3-0.1l-1.4,0.1C46,34,45.8,34,45.7,34.1L45.7,34.1z"/>
<path class="st5" d="M18.7,16.2c0.5-0.3,1.1-0.6,1.7-0.7c0.3-0.1,0.5-0.1,0.8-0.2c0.6-0.2,1.2-0.3,1.8-0.4c0.3,0,0.6-0.1,0.9-0.1
	l1.2-0.2c0.1,0,0.2,0,0.3,0h4.1c0.3,0,0.6,0.1,0.9,0.1h0.5h1.5c0.9,0,1.9,0.1,2.8,0.2c0.1,0,0.3,0,0.4,0c0.8,0,1.6,0.1,2.4,0.3
	c0.3,0.1,0.7,0.1,1.1,0.1l1,0.1c0.4,0.1,0.7,0.3,0.9,0.7c0.2,0.2,0.3,0.6,0.3,0.9c0,0.1,0,0.2,0,0.2c-0.2,0.2-0.1,0.4-0.1,0.7
	c0,0.4,0.1,0.9,0.1,1.3c0,0.8,0,1.6,0.1,2.5c0,0.2,0,0.5,0,0.7l0.1,1.4c0,0.2,0,0.4,0,0.6c0,1.1,0,2.3,0,3.4c0,0.2,0,0.5,0.1,0.7
	c0,0.1,0,0.2,0,0.2c0,1,0,2-0.1,3c0,0.3,0,0.6-0.1,0.9c-0.1,0.2-0.2,0.3-0.4,0.3c-0.4,0-0.8,0.1-1.2,0.2c-0.5,0.1-1.1,0.2-1.6,0.2
	c-0.2,0-0.4,0-0.6-0.1c-0.2,0-0.5,0-0.7,0c-0.1,0-0.2,0-0.3,0c-0.3-0.1-0.6-0.1-0.9-0.1c-0.4,0-0.8,0-1.2,0.1
	c-1.1,0.1-2.2,0.1-3.3,0.1h-1.2c-0.1,0-0.2,0-0.3,0c-0.4-0.1-0.9-0.1-1.3-0.1h-3.4c-0.7,0-1.4,0-2.1-0.1c-0.4,0-0.9,0-1.3,0
	c-0.5,0-1-0.1-1.5-0.2c-0.3-0.1-0.6-0.3-0.7-0.7c-0.1-0.3-0.1-0.6-0.2-0.9L18.7,29c-0.1-0.6-0.2-1.2-0.3-1.8c0-0.1,0-0.1,0-0.2
	c-0.1-1.2-0.2-2.3-0.4-3.5c0-0.3-0.1-0.6-0.1-0.8v-3.2c0-0.2,0-0.5,0.1-0.7c0.1-0.4,0.1-0.9,0.2-1.3c0-0.1,0.1-0.2,0.1-0.3
	c0.2-0.2,0.3-0.5,0.3-0.8C18.7,16.3,18.7,16.2,18.7,16.2z M22.2,19.8c-0.5,0.1-1,0.4-1.4,0.8c-0.2,0.2-0.4,0.6-0.4,0.9v2.3
	c0,0.2,0,0.4,0.1,0.6c0.1,0.5,0.2,1.1,0.3,1.6c0.1,0.4,0.2,0.9,0.4,1.3c0.2,0.5,0.6,0.9,1.2,1.1c0.3,0.1,0.6,0.3,0.7,0.6
	c0.1,0.2,0.3,0.4,0.4,0.5c0.4,0.4,0.8,0.8,1.2,1.1c0.3,0.3,0.6,0.5,1,0.7l1.8,0.8c0.1,0,0.2,0,0.2,0.1l0.6,0.1
	c0.3,0.1,0.7,0.1,1,0.1c1.2,0,2.3,0,3.5,0c0.1,0,0.3,0,0.4,0c0.6-0.1,1.2-0.3,1.7-0.6c0.2-0.1,0.3-0.2,0.5-0.3
	c0.3-0.1,0.6-0.3,0.9-0.5c0.6-0.4,1.1-1,1.3-1.7c0.1-0.3,0.3-0.6,0.5-0.9c0.3,0,0.6,0,0.8-0.2c0.2-0.2,0.4-0.4,0.6-0.6
	c0.5-0.6,0.7-1.4,0.8-2.1c0.1-0.5,0-1,0.1-1.6c0-0.9-0.2-1.8-0.5-2.7c-0.1-0.2-0.2-0.4-0.4-0.5c-0.2-0.1-0.5-0.2-0.7-0.3
	c-0.3-0.1-0.6-0.4-0.8-0.7c-0.4-0.8-0.8-1.5-1.4-2.1c-0.2-0.3-0.5-0.5-0.7-0.7c-0.3-0.4-0.7-0.6-1.2-0.8c-0.2-0.1-0.3-0.2-0.4-0.2
	l-0.6-0.2c-0.3-0.1-0.6-0.2-0.9-0.3c-0.6-0.2-1.3-0.4-2-0.4h-0.2c-0.3-0.1-0.7-0.1-1-0.1h-1.4c-0.4,0-0.7,0-1.1,0.1
	c-0.4,0.1-0.8,0.3-1.2,0.5c-0.6,0.3-1,0.7-1.4,1.2l0,0c-0.5,0.5-1,1-1.5,1.6c-0.2,0.2-0.3,0.4-0.4,0.7L22.2,19.8z"/>
<path class="st6" d="M18.9,15.4c0-0.1,0-0.2,0-0.2c0.1-0.7,0.2-1.3,0.4-2c0.1-0.4,0.2-0.9,0.4-1.3c0-0.1,0-0.1,0.1-0.2
	c0.2-0.6,0.6-1,1.2-1.3c0.2-0.1,0.3-0.2,0.5-0.3c0.3-0.2,0.6-0.3,1-0.3c0.1,0,0.3,0,0.4-0.1c0.9-0.2,1.8-0.4,2.7-0.4h0.2
	c0.5-0.1,1-0.1,1.5-0.1h4.8c0.2,0,0.5,0,0.7,0.1c0.2,0,0.3,0,0.5,0h1c0.2,0,0.5,0,0.7,0.1c0.4,0,0.7,0.1,1.1,0.1
	c0.7,0.1,1.5,0.2,2.2,0.3c0.3,0,0.5,0.1,0.8,0.1c0.4,0.1,0.7,0.4,0.8,0.8c0.1,0.3,0.2,0.7,0.2,1c0,0.2,0.1,0.5,0.2,0.7
	c0.1,0.2,0.2,0.4,0.2,0.6c0.2,0.7,0.5,1.3,0.7,2c0.1,0.2,0.1,0.4,0.1,0.6c-0.1-0.1-0.3-0.1-0.4-0.2c-0.6-0.4-1.2-0.6-1.9-0.6
	c-0.2,0-0.5,0-0.7-0.1l-1.4-0.2c-0.1,0-0.2,0-0.3,0c-0.9,0-1.8-0.1-2.7-0.2c-0.2,0-0.4,0-0.6,0h-1.8c-0.4,0-0.8-0.1-1.2-0.1h-0.3
	c-0.6,0-1.3,0-1.9-0.1c-0.3,0-0.5,0.1-0.8,0.1h-1c-1,0-2,0.1-2.9,0.2c-0.9,0.1-1.8,0.3-2.6,0.6c-0.5,0.2-1,0.3-1.5,0.5
	C19,15.4,19,15.4,18.9,15.4z M37.4,14.1c0.4-0.1,0.8-0.1,1.2-0.1s0.5-0.2,0.5-0.5v-0.7c0-0.5-0.2-1.1-0.6-1.5
	c-0.2-0.3-0.6-0.5-1-0.6c-0.1,0-0.3,0-0.4-0.1c-0.6-0.1-1.3-0.2-1.9-0.2c-0.4,0-0.7,0-1.1,0c-0.4,0-0.8,0.1-1.1,0.3
	c-0.3,0.2-0.4,0.5-0.4,0.8c-0.1,0.5,0,1,0.1,1.5c0.1,0.3,0.2,0.5,0.4,0.7c0.2,0.2,0.5,0.3,0.8,0.3h0.7c0.4,0,0.8,0,1.1,0.1
	C36.3,14.1,36.8,14.1,37.4,14.1L37.4,14.1z M25.6,13.9H26c0.5,0,1-0.2,1.3-0.6c0.3-0.3,0.4-0.7,0.3-1.1c0-0.2-0.1-0.4-0.1-0.6
	c0-0.1-0.1-0.2-0.2-0.3c-0.2-0.3-0.5-0.5-0.9-0.7c-0.1-0.1-0.3-0.1-0.5-0.1c-0.6,0-1.1,0.1-1.6,0.3c-0.5,0.2-0.8,0.7-0.8,1.3v0.4
	c0,0.4,0.2,0.7,0.5,0.9C24.5,13.7,25.1,13.9,25.6,13.9L25.6,13.9z M22.4,13.9c0.1,0,0.2,0,0.3-0.1c0.3,0,0.5-0.3,0.6-0.6
	c0.1-0.3-0.1-0.7-0.4-0.8c-0.1,0-0.3-0.1-0.4-0.2c-0.1-0.1-0.4-0.1-0.5,0c-0.2,0.1-0.4,0.4-0.4,0.6v0.2c0,0.4,0.3,0.8,0.7,0.8
	C22.3,13.9,22.3,13.9,22.4,13.9L22.4,13.9z"/>
<path class="st6" d="M18.7,13.2c0.1,0.1,0.1,0.3,0,0.4c-0.1,0.4-0.2,0.9-0.3,1.3c-0.1,0.3-0.1,0.5-0.2,0.8c0,0.2-0.1,0.4-0.3,0.6
	c-0.3-0.1-0.6,0-0.8-0.1c-0.1,0-0.2,0-0.3,0h-1.6c-0.2,0-0.3,0-0.4,0.1c-0.5,0.1-1.1,0.2-1.7,0.1c-0.4,0-0.9,0.1-1.3,0.2
	c-0.3,0.1-0.6,0.2-0.9,0.2c0-0.1,0-0.2,0-0.2c0-0.4,0.1-0.8,0.1-1.2c0-0.5,0.3-0.9,0.7-1.1c0.5-0.3,1-0.5,1.5-0.5
	c0.4,0,0.9-0.1,1.3-0.2l1.7-0.2c0.7-0.1,1.4-0.1,2.1-0.1C18.4,13.2,18.6,13.2,18.7,13.2z"/>
<path class="st6" d="M41.1,33.5c0.1,0.3-0.2,0.7-0.5,0.7c0,0,0,0-0.1,0c-0.4,0.1-0.9,0.2-1.4,0.3c-0.2,0-0.3,0-0.5,0.1
	c-0.3,0-0.6,0-0.9,0.1c-0.1,0-0.3,0-0.4,0c-1.1,0-2.1,0-3.2,0c-0.3,0-0.6,0.1-0.9,0.1h-2c-0.4-0.1-0.8-0.1-1.2-0.1h-0.2
	c-0.4-0.1-0.8-0.1-1.3-0.1h-5.3c-0.2,0-0.4-0.1-0.7-0.1c-0.2,0-0.5,0-0.7,0c-0.5,0-1,0-1.5-0.2L20,34.3c-0.1-0.2-0.1-0.4-0.1-0.6
	c0.2-0.1,0.3-0.1,0.5-0.1h2.8h0.8c0.2,0,0.3,0,0.5,0c0.6,0.1,1.1,0.1,1.7,0.1c0.8-0.1,1.6-0.1,2.4-0.1c0.2,0,0.4,0,0.6,0.1l0.5,0.1
	h4c0.2,0,0.3,0,0.5-0.1c0,0,0.1,0,0.1,0c0.3,0,0.7-0.1,1-0.1c0.8,0.1,1.5,0,2.3,0.1c0.7,0.1,1.3,0.1,2-0.1l0.9-0.1
	C40.7,33.6,40.9,33.5,41.1,33.5z"/>
<path class="st7" d="M17.7,32.8h-1.1c0,0-0.1-0.1-0.1-0.1c0-0.6-0.2-1.1-0.1-1.7c0-0.3-0.1-0.6-0.2-0.9c0-0.2,0-0.4-0.1-0.6v-1.6
	c0-0.3,0-0.7-0.1-1c0-0.3,0-0.6,0-0.8c0-0.7,0-1.3-0.2-2c-0.1-0.4-0.1-0.8-0.1-1.2c-0.1-1-0.2-2.1-0.3-3.1c-0.1-0.5-0.1-1-0.1-1.5
	s-0.1-0.8-0.1-1.3c0-0.1,0-0.2,0-0.3c0.3,0,0.6,0,0.9,0c0,0.2,0,0.3,0,0.4c0,0.6,0,1.3,0.1,1.9c0.1,0.7,0.2,1.3,0.2,2
	c0,0.4,0,0.8,0.1,1.3c0.1,0.4,0.1,0.9,0.1,1.3c0,0.3,0.1,0.6,0.1,0.9c0,0.1,0,0.1,0,0.2c0,0.8,0.1,1.6,0.1,2.5v0.2
	c0,1.1,0.1,2.2,0.3,3.2C17.4,31.3,17.5,32,17.7,32.8z"/>
<path class="st8" d="M11.9,17.1c0.2-0.1,0.4-0.2,0.6-0.2c0,0.1,0.1,0.1,0.1,0.1c0.1,0.9,0.1,1.9,0.2,2.8c0.1,0.7,0.2,1.4,0.2,2
	s0.2,1.4,0.3,2.1l0.2,0.9c0.1,0.4,0.1,0.7,0.1,1.1c0,0.4,0.1,0.8,0.1,1.1c0.1,0.7,0.2,1.4,0.3,2.1s0.2,1.3,0.3,2v0.2
	c0,0.3,0,0.5,0.1,0.8c0,0.1,0,0.2,0,0.3c-0.1,0.1-0.2,0-0.3,0l-0.3-0.1c-0.2-0.5-0.3-1-0.4-1.5c-0.1-0.2-0.1-0.5-0.1-0.8
	c0-0.5-0.1-1.1-0.2-1.6c-0.1-0.5-0.2-1-0.2-1.6s-0.1-0.9-0.2-1.4c0-0.1,0-0.2,0-0.2c0-0.8-0.1-1.6-0.2-2.4c0-0.1,0-0.2,0-0.2
	c-0.1-0.7-0.1-1.3-0.1-2c0-0.4-0.1-0.8-0.1-1.2s-0.1-0.6-0.1-0.9C11.9,18.1,11.9,17.6,11.9,17.1z"/>
<path class="st7" d="M15.2,32.7c-0.4,0-0.4-0.1-0.5-0.3c-0.1-0.4-0.1-0.7-0.1-1.1c0-0.4-0.1-0.8-0.1-1.1c-0.2-1.3-0.4-2.6-0.6-3.9
	v-0.1c0-0.6-0.1-1.1-0.2-1.7c-0.1-0.7-0.2-1.5-0.3-2.2s-0.2-1.5-0.3-2.2c-0.1-0.4-0.1-0.7-0.1-1.1c-0.1-0.6-0.1-1.2-0.1-1.8
	c0-0.1,0-0.2,0-0.3c0.3,0,0.5,0,0.8,0c0,0.1,0,0.2,0.1,0.3c0.2,1.5,0.3,3,0.6,4.4c0,0.2,0.1,0.5,0.1,0.7c0.1,0.8,0.2,1.6,0.2,2.4
	c0,0.3,0,0.6,0.1,0.8c0,0.3,0,0.7,0,1c0,0.6,0,1.1,0.1,1.6c0.1,0.6,0.1,1.2,0.2,1.8c0,0.4,0.1,0.8,0.2,1.2
	C15.2,31.6,15.2,32.1,15.2,32.7z"/>
<path class="st8" d="M16.1,32.7c-0.4,0-0.5,0-0.5-0.3s-0.1-0.7-0.1-1l-0.2-1.2c0-0.1,0-0.1,0-0.2c0-0.5-0.1-1-0.1-1.5
	c0-0.3-0.1-0.7-0.1-1l-0.1-0.8c0-0.5,0-1-0.1-1.5c0-0.2,0-0.5,0-0.7c0-0.7,0-1.3-0.2-2c-0.1-0.7-0.2-1.4-0.3-2s-0.2-1.5-0.3-2.3
	l-0.1-0.6c0-0.2,0-0.5,0-0.7c0.2-0.1,0.5-0.2,0.7-0.1c0,0.1,0.1,0.1,0.1,0.1c0.1,1.2,0.2,2.4,0.4,3.7c0.1,0.4,0.1,0.8,0.1,1.1
	c0.1,1.1,0.3,2.1,0.4,3.2c0,0.3,0.1,0.5,0.1,0.8c0,0.5,0,1,0.1,1.6c0,0.1,0,0.3,0,0.4v1.3c0,0.6,0,1.1,0.2,1.7c0,0.1,0,0.2,0,0.3
	c0,0.4,0,0.7,0.1,1.1C16.1,32.4,16.1,32.6,16.1,32.7z"/>
<path class="st8" d="M16.7,16.7c0.3-0.1,0.6,0.1,0.9,0.1c0,0.2,0,0.4,0,0.7c-0.1,1.1-0.1,2.3-0.1,3.4v1.5c0,0.8,0.1,1.6,0.2,2.4
	c0.1,0.6,0.1,1.2,0.2,1.8c0.1,1,0.2,1.9,0.3,2.9c0.1,0.8,0.2,1.6,0.3,2.4c0,0.2,0.1,0.5,0.2,0.7c0,0.1,0.1,0.3,0.1,0.4h-0.5
	c-0.2-0.2-0.3-0.5-0.3-0.8c-0.1-0.7-0.2-1.3-0.4-2c-0.1-0.4-0.2-0.9-0.2-1.4c0-0.1,0-0.3,0-0.4v-1.4c0-0.3-0.1-0.7-0.1-1
	c0-0.2,0-0.5,0-0.7c0-0.3-0.1-0.6-0.1-0.9c0-0.1,0-0.2,0-0.3c0-0.8-0.1-1.5-0.2-2.3c0-0.1,0-0.3,0-0.4c0-0.8-0.1-1.5-0.2-2.3
	c-0.1-0.6-0.1-1.3-0.1-1.9C16.6,16.9,16.6,16.8,16.7,16.7z"/>
<path class="st7" d="M11,17.4c0.2-0.2,0.4-0.2,0.6-0.2c0,0.1,0,0.2,0,0.3c0,0.2,0,0.4,0,0.6c0,0.7,0,1.3,0.1,2c0,0.1,0,0.3,0.1,0.4
	c0.1,0.7,0.1,1.4,0.1,2.1c0,0.2,0.1,0.4,0.1,0.6c0.1,0.6,0.1,1.1,0.2,1.6c0,0.1,0,0.2,0,0.3c0,0.5,0.1,1,0.2,1.6
	c0.1,0.3,0.1,0.6,0.1,0.9c0,0.5,0.1,1,0.3,1.5c0.1,0.4,0.1,0.9,0.2,1.4c0,0.2,0.1,0.5,0.1,0.7c0.1,0.3,0.2,0.7,0.3,1
	c0,0.1,0,0.1,0,0.2c-0.2,0-0.5-0.1-0.7-0.2c-0.1-0.3-0.2-0.7-0.3-1c0-0.1,0-0.1-0.1-0.2c0-0.5-0.1-1-0.2-1.4
	c-0.1-0.7-0.2-1.3-0.3-1.9s-0.2-1.3-0.2-1.9l-0.2-1.4c0-0.2,0-0.4,0-0.6c0-0.4,0-0.8-0.1-1.2c0-0.1,0-0.2,0-0.3
	c0-0.6-0.1-1.2-0.2-1.8c0-0.2,0-0.3-0.1-0.5C11,19.1,11,18.2,11,17.4z"/>
<path class="st6" d="M19.4,33.5c0.1,0.3,0.1,0.5,0,0.8h-0.3c-1.6,0-3.1,0-4.7,0c-0.6,0-1.2-0.1-1.7-0.4c-0.2-0.1-0.3-0.2-0.4-0.3
	c-0.2-0.4-0.3-0.8-0.4-1.3c0,0,0-0.1,0-0.1l0.3,0.2c0.3,0.3,0.7,0.4,1.1,0.4c0.1,0,0.3,0,0.4,0.1c0.5,0.1,1.1,0.2,1.6,0.3
	c0.7,0.1,1.3,0.1,2,0.1c0.2,0,0.3,0,0.4,0.1l0.5,0.1L19.4,33.5z"/>
<path class="st8" d="M10.7,17.5v1.9c0,0.4,0,0.9,0.1,1.3c0,0.2,0,0.3,0.1,0.5c0.1,0.8,0.1,1.6,0.1,2.4c0,0.6,0.1,1.1,0.1,1.6
	s0.2,1.4,0.3,2c0,0.2,0.1,0.3,0.1,0.5c0.2,0.9,0.3,1.8,0.5,2.6c0,0.2,0,0.3,0.1,0.5c0,0.2,0.1,0.3,0.1,0.5c-0.1-0.1-0.1-0.1-0.2-0.1
	c-0.3-0.5-0.5-1-0.6-1.5c-0.1-0.7-0.2-1.3-0.3-2c0-0.3-0.1-0.7-0.2-1c-0.2-0.8-0.3-1.5-0.3-2.3c0-0.1,0-0.3,0-0.4
	c-0.1-0.7-0.1-1.5-0.1-2.3c0-0.6,0-1.1,0-1.6s0-1.3,0-2C10.5,17.9,10.5,17.7,10.7,17.5C10.6,17.5,10.6,17.6,10.7,17.5z"/>
<path class="st9" d="M41.7,15c-0.2-0.1-0.3-0.4-0.1-0.6s0.4-0.3,0.6-0.1c0.1,0.1,0.2,0.2,0.2,0.3c0.2,0.1,0.3,0.2,0.5,0.3
	c0.2,0.2,0.4,0.4,0.5,0.7c0.3,0.8,0.1,1.7-0.6,2.2l-0.5,0.4c-0.1,0.1-0.2,0.1-0.2,0.1s-0.1,0-0.1-0.1c0-0.1,0-0.1,0-0.2
	c0.1,0,0.1-0.1,0.2-0.1c0.5-0.2,0.8-0.7,0.9-1.2v-0.1c0.1-0.7-0.3-1.3-0.9-1.4C42,15.1,41.8,15,41.7,15z"/>
<path class="st9" d="M9.9,19.3c-0.2,0.1-0.4,0-0.6-0.1c-0.4-0.4-0.7-0.9-0.7-1.5v-0.4c0-0.1,0-0.2,0.1-0.3c0.2-0.4,0.4-0.7,0.7-1
	c0.1-0.1,0.3-0.2,0.4-0.2c0.2,0,0.4,0,0.6,0c0.1,0,0.1,0.1,0.1,0.2c0,0.1-0.1,0.1-0.1,0.1c-0.4,0-0.7,0.2-1,0.4
	c-0.2,0.1-0.3,0.3-0.4,0.5c-0.2,0.5-0.2,1,0.1,1.5c0,0,0,0.1,0.1,0.1C9.3,18.9,9.5,19.2,9.9,19.3z"/>
<path class="st10" d="M10.5,16.7c0.1,0.4-0.2,0.4-0.4,0.5c-0.2,0.5-0.2,1-0.2,1.5H9.8c-0.3-0.3-0.4-0.8-0.3-1.2
	c0-0.2,0.1-0.5,0.3-0.6l0.4-0.2C10.3,16.6,10.4,16.6,10.5,16.7z"/>
<path class="st10" d="M41.9,17.2c0-0.3,0-0.6,0-0.9c0-0.3-0.2-0.6-0.1-0.9c0.2-0.1,0.3,0.1,0.5,0.2c0.1,0.1,0.2,0.2,0.3,0.4
	c0.1,0.5-0.1,0.9-0.5,1.2C42.1,17.2,42,17.2,41.9,17.2L41.9,17.2z"/>
<path class="st11" d="M15,12.9l-0.7,0.1c-0.1-0.2-0.1-0.5-0.1-0.7c-0.1-0.2-0.1-0.4,0-0.6c0.2-0.1,0.5-0.1,0.7-0.1L15,12.9z"/>
<path class="st11" d="M13.9,13L13,13.2c-0.1-0.3-0.1-0.6,0.1-0.9c0.1-0.3,0.4-0.5,0.8-0.6c0,0.2,0,0.4,0,0.7
	C13.8,12.6,13.9,12.8,13.9,13z"/>
<path class="st11" d="M15.4,11.5l0.3-0.1h0.3c0.1,0.4,0.1,0.8,0.1,1.3c-0.2,0.1-0.4,0.1-0.6,0.1c-0.1-0.1-0.2-0.3-0.2-0.4
	C15.5,12.1,15.4,11.8,15.4,11.5z"/>
<path class="st11" d="M17.3,12.7c-0.2,0.1-0.4,0.1-0.6,0c-0.1-0.4-0.1-0.8-0.1-1.1c0.2-0.1,0.3-0.1,0.5-0.1
	C17.2,11.8,17.3,12.3,17.3,12.7z"/>
<path class="st11" d="M18.1,12.6c-0.1,0.1-0.3,0.1-0.3-0.1c-0.1-0.3-0.1-0.7-0.2-1c0.1-0.1,0.2-0.1,0.3,0c0,0,0,0,0,0.1
	C18.1,12,18.1,12.3,18.1,12.6z"/>
<path class="st10" d="M31,31.9c-0.4,0-0.8,0-1.1,0c-0.5,0-1-0.1-1.6-0.1c-0.7-0.1-1.4-0.3-2-0.6c-0.6-0.2-1.1-0.6-1.5-1
	c-0.4-0.3-0.7-0.6-1-1c-0.4-0.5-0.8-1-1.1-1.6c-0.3-0.6-0.5-1.3-0.6-2l-0.2-0.8c0-0.1,0-0.1,0-0.2c0-0.6,0-1.2,0.1-1.9
	c0-0.1,0-0.1,0-0.2c0.1-0.8,0.2-1.6,0.5-2.3c0.3-0.8,0.7-1.5,1.3-2.1c0.4-0.6,1.1-1,1.6-1.6c0.1-0.2,0.3-0.3,0.4-0.4
	c0.2-0.1,0.4-0.3,0.6-0.4c0.5-0.3,1.1-0.5,1.7-0.5h2c0.2,0,0.3,0,0.4,0.1s0.3,0,0.4,0.1c0.4,0,0.7,0.1,1.1,0.2
	c0.5,0.2,1.1,0.3,1.6,0.5c0.5,0.2,0.9,0.4,1.4,0.7c0.1,0.1,0.3,0.2,0.4,0.3c0.1,0.1,0.1,0.1,0.2,0.2c0.6,0.6,1.2,1.2,1.6,2
	c0.3,0.5,0.5,0.9,0.7,1.4c0.3,0.7,0.5,1.4,0.6,2.2c0.1,0.5,0.1,1,0.1,1.5c0,0.2,0,0.3,0,0.5c0,0.1,0,0.2,0,0.3
	c-0.1,0.2-0.1,0.5-0.1,0.8c0,0.5-0.1,0.9-0.3,1.4c0,0.1-0.1,0.1-0.2,0.2s-0.2,0.3-0.2,0.4l-0.4,0.7c-0.1,0.1-0.1,0.2-0.2,0.4
	c-0.1,0.3-0.3,0.6-0.5,0.9c-0.3,0.3-0.5,0.5-0.9,0.7c-0.6,0.3-1.1,0.7-1.7,0.9c-0.6,0.3-1.2,0.4-1.9,0.4L31,31.9z M22.6,23.3
	c0,1,0.1,1.9,0.4,2.8c0.1,0.2,0.1,0.4,0.2,0.7c0.3,0.6,0.6,1.2,1,1.8c0.4,0.6,0.9,1.1,1.5,1.4l1.5,0.8c0.2,0.1,0.4,0.2,0.6,0.2
	c1.2,0.4,2.5,0.5,3.8,0.4c0.9-0.1,1.9-0.4,2.7-0.8c0.7-0.3,1.3-0.7,1.7-1.3c0.4-0.5,0.7-1.1,1-1.7c0.2-0.4,0.3-0.8,0.3-1.2
	c0-0.3,0.1-0.6,0.2-0.8s0.1-0.7,0.1-1.1s0.1-0.6,0.1-0.8c0-0.3,0-0.6-0.1-0.8c-0.1-0.4-0.2-0.8-0.2-1.3c-0.1-0.5-0.2-0.9-0.3-1.4
	c-0.2-0.6-0.6-1.1-1-1.5c-0.9-0.8-1.8-1.5-2.9-2c-0.8-0.4-1.6-0.6-2.5-0.6c-0.4,0-0.8,0-1.2,0c-0.4,0-0.9,0-1.3,0.1
	c-0.7,0.1-1.3,0.3-2,0.6c-0.3,0.1-0.5,0.2-0.8,0.4c-0.4,0.4-0.8,0.8-1.2,1.3c-0.2,0.3-0.5,0.6-0.6,1c-0.2,0.5-0.5,1-0.7,1.6
	c-0.1,0.2-0.2,0.4-0.2,0.7C22.6,22.1,22.6,22.6,22.6,23.3z"/>
<path class="st12" d="M38.6,27.7c0-0.2,0-0.4,0.1-0.6c0.1-0.3,0.2-0.5,0.2-0.8c0-0.1,0-0.3,0.1-0.4c0.1-0.3,0.2-0.6,0.2-0.9v-0.6
	c0-0.7-0.1-1.4-0.2-2.1c-0.1-0.3-0.1-0.6-0.2-0.9c-0.1-0.2-0.1-0.4-0.2-0.6c0.2-0.1,0.3,0,0.4,0.1c0.7,0.3,0.5,0.2,0.7,0.8
	c0,0.2,0.1,0.5,0.2,0.7c0.2,1.2,0.2,2.4-0.1,3.6c-0.2,0.6-0.5,1.2-0.9,1.6L38.6,27.7z"/>
<path class="st12" d="M22.1,27.7c-0.2-0.2-0.5-0.5-0.6-0.8c-0.2-0.7-0.4-1.3-0.4-2c-0.1-0.7-0.1-1.3-0.1-2c0-0.3,0-0.7,0-1
	c0-0.4,0.1-0.8,0.5-1.1c0.2-0.1,0.3-0.2,0.6-0.3c0,0.1,0,0.2-0.1,0.3l-0.3,1.1c0,0.1,0,0.1,0,0.2c-0.1,0.9-0.2,1.7-0.1,2.6
	c0,0.5,0.1,1,0.3,1.5C21.8,26.5,21.9,27.1,22.1,27.7z"/>
<path class="st10" d="M38.6,13.5c-0.3,0.1-0.7,0.2-1,0.2c-0.7,0-1.3-0.1-2-0.2l-1.1-0.1H34c-0.4,0-0.7-0.3-0.8-0.7c0,0,0,0,0,0
	c-0.1-0.4-0.1-0.9,0-1.3c0.1-0.4,0.4-0.6,0.8-0.6c0.7,0,1.3,0,2,0c0.5,0,1.1,0.1,1.6,0.3c0.2,0,0.3,0.1,0.5,0.3
	c0.4,0.4,0.6,0.8,0.6,1.4C38.6,13,38.6,13.2,38.6,13.5z M35,11L35,11c-0.2,0-0.4,0-0.6,0c-0.1,0-0.2,0-0.3,0.1
	c-0.3,0.2-0.4,0.5-0.4,0.8v0.4c0,0.3,0.1,0.4,0.4,0.5c0.5,0.1,1,0.2,1.5,0.2c0.6,0,1.3,0,1.9,0.1c0.2,0.1,0.3-0.1,0.4-0.2
	c0.2-0.5,0.1-1-0.2-1.4c-0.1-0.1-0.1-0.1-0.2-0.1c-0.1-0.1-0.2-0.1-0.4-0.1c-0.3-0.1-0.7-0.1-1-0.1C35.8,11.1,35.4,11,35,11L35,11z"
	/>
<path class="st10" d="M25.7,13.4c-0.2,0-0.5,0-0.7-0.1c-0.9-0.3-1.1-0.7-0.9-1.6c0-0.2,0.1-0.3,0.3-0.4c0.2-0.3,0.6-0.5,1-0.5
	c0.8-0.1,1.6,0.5,1.7,1.3c0,0.2,0,0.3,0,0.5c0,0.1-0.1,0.2-0.2,0.3c-0.2,0.3-0.6,0.5-1,0.5C25.9,13.4,25.8,13.4,25.7,13.4L25.7,13.4
	z M24.4,12.2L24.4,12.2v0.2c0,0.4,0.3,0.7,0.6,0.8c0.3,0.1,0.7,0.1,1,0.1c0.4,0,0.7-0.4,0.7-0.8v-0.2c-0.1-0.5-0.4-0.8-0.8-0.9
	l-0.6-0.1c-0.4-0.1-0.8,0.2-0.8,0.6c0,0,0,0.1,0,0.1C24.4,12,24.4,12.1,24.4,12.2z"/>
<path class="st10" d="M22.4,13.4c-0.3,0-0.4-0.1-0.3-0.4s0.1-0.4,0.3-0.4c0.2,0,0.5,0.2,0.5,0.4c0,0,0,0.1,0,0.1
	C22.8,13.3,22.6,13.4,22.4,13.4z"/>
<path class="st13" d="M30.4,30.9c-0.5,0-1,0-1.5-0.2c-0.4-0.1-0.9-0.3-1.3-0.5c-0.4-0.2-0.8-0.4-1.2-0.6c-0.4-0.2-0.8-0.4-1.2-0.7
	c-0.2-0.2-0.3-0.3-0.5-0.6c-0.4-0.5-0.7-1.1-1-1.7c-0.3-0.6-0.5-1.3-0.6-2c-0.1-0.5-0.2-1.1-0.1-1.6v-0.7c0-0.5,0.1-1,0.4-1.4
	c0.2-0.4,0.4-0.8,0.6-1.2c0.2-0.4,0.4-0.9,0.8-1.2c0.3-0.3,0.6-0.6,0.9-1l0.1-0.1c0.5-0.3,1-0.6,1.6-0.7c0.4-0.1,0.9-0.2,1.3-0.2
	c0.3,0,0.7,0,1,0c1,0.1,2,0.2,3,0.6c0.7,0.2,1.3,0.6,1.8,1c0.3,0.2,0.5,0.4,0.8,0.6c0.6,0.5,1,1.2,1.3,1.9c0.3,0.9,0.5,1.8,0.6,2.8
	c0,0.3,0.1,0.6,0.1,0.9c0,0.2,0,0.5-0.1,0.7c-0.1,0.6-0.3,1.1-0.4,1.7c0,0.2-0.1,0.5-0.2,0.7c-0.1,0.3-0.3,0.7-0.5,1
	c-0.2,0.3-0.4,0.6-0.7,0.9l-0.1,0.1l-0.6,0.6c-0.2,0.3-0.6,0.4-0.9,0.5c-0.1,0-0.2,0-0.3,0.1C32.5,30.8,31.4,31,30.4,30.9z
	 M35.2,23.8c-0.1-0.4-0.1-0.8-0.1-1.3c-0.1-1.1-0.7-2-1.6-2.6l-0.7-0.4c-0.2-0.2-0.5-0.3-0.8-0.3c-0.3-0.1-0.7-0.2-1-0.3
	c-0.5-0.2-1-0.2-1.4-0.1l-0.4,0.1c-0.5,0-0.9,0.2-1.3,0.4c-0.5,0.3-0.9,0.8-1.3,1.3c-0.2,0.3-0.4,0.7-0.6,1.1
	c-0.2,0.4-0.3,0.7-0.3,1.1c0,0.5,0,1,0.1,1.5c0,0.4,0.2,0.9,0.4,1.2c0.1,0.1,0.1,0.2,0.2,0.3c0.2,0.5,0.6,1,0.9,1.4
	c0.1,0.2,0.3,0.3,0.5,0.4c0.9,0.5,1.9,0.8,2.9,0.7c0.5,0,1.1-0.1,1.6-0.2c0.4-0.1,0.8-0.3,1.1-0.6c0.2-0.2,0.4-0.3,0.5-0.5
	c0.4-0.3,0.6-0.7,0.8-1.2c0-0.1,0.1-0.2,0.2-0.3c0.1-0.2,0.2-0.4,0.2-0.6C35.2,24.5,35.2,24.2,35.2,23.8L35.2,23.8z"/>
<path class="st13" d="M34.2,12.4c0-0.2,0-0.3,0-0.5v-0.3c0.2-0.2,0.5-0.3,0.8-0.3c0.3,0,0.6,0,0.9,0.1c0.1,0,0.2,0,0.2,0
	c0.3,0,0.7,0,1,0.1c0.2,0,0.4,0.1,0.5,0.3c0.1,0.3,0.2,0.5,0,0.8c-0.6,0-1.3,0-1.9,0C35.2,12.6,34.7,12.5,34.2,12.4z"/>
<path class="st13" d="M25.5,12.8l-0.4-0.1c-0.2,0-0.3-0.2-0.3-0.4c0-0.6-0.1-0.7,0.6-0.8c0.4-0.1,0.8,0.2,0.8,0.5c0,0,0,0.1,0,0.1
	C26.3,12.7,26.2,12.8,25.5,12.8z"/>
<path class="st10" d="M30.1,19.2h0.4c0.1,0,0.2,0,0.3,0c0.6,0.1,1.2,0.4,1.7,0.7c0.3,0.2,0.6,0.3,0.8,0.5c0.1,0,0.1,0.1,0.2,0.1
	c0.6,0.6,0.9,1.3,1,2.1c0.1,0.5,0.1,0.9,0.1,1.4c0,1.2-0.6,2.4-1.6,3.2c-0.2,0.1-0.3,0.2-0.5,0.3c-1,0.3-2.1,0.4-3.2,0.2
	c-0.5-0.1-0.9-0.3-1.4-0.6c-0.1-0.1-0.2-0.2-0.3-0.3c-0.3-0.4-0.6-0.8-0.8-1.3c-0.1-0.1-0.1-0.3-0.2-0.4c-0.1-0.2-0.2-0.4-0.3-0.7
	c-0.1-0.6-0.2-1.1-0.2-1.7c0-0.3,0.1-0.6,0.2-0.8c0.2-0.5,0.5-1,0.8-1.5c0.1-0.2,0.3-0.4,0.5-0.5c0.4-0.3,0.8-0.5,1.3-0.6
	c0.2-0.1,0.3-0.1,0.5-0.1C29.7,19.2,29.9,19.2,30.1,19.2L30.1,19.2z M30.9,26.6c0.3,0,0.7,0,1-0.1c0.4,0,0.7-0.2,0.9-0.6
	c0.3-0.4,0.5-0.7,0.7-1.1c0.1-0.2,0.2-0.5,0.2-0.7c0-0.7-0.1-1.4-0.5-2.1c-0.1-0.1-0.2-0.3-0.3-0.4c-0.2-0.2-0.5-0.5-0.7-0.7
	c-0.5-0.4-1.1-0.7-1.8-0.6c-0.1,0-0.2,0-0.3-0.1c-0.6-0.2-1.3,0-1.8,0.4c-0.1,0.1-0.1,0.2-0.2,0.2c-0.4,0.3-0.7,0.8-0.8,1.3
	c-0.1,0.6-0.1,1.3-0.1,1.9c0,0.1,0,0.2,0.1,0.3c0.3,0.6,0.7,1.1,1.2,1.6c0.3,0.2,0.6,0.4,1,0.4C30.1,26.6,30.4,26.6,30.9,26.6z"/>
<path class="st10" d="M28.7,22.9c0,0.2,0,0.4-0.1,0.6c0,0.3,0.1,0.6,0.2,0.8l0.5,0.7c0.2,0.3,0.5,0.5,0.9,0.4c0.1,0,0.1,0,0.2,0
	c-0.1,0.1-0.2,0.1-0.2,0.2c-0.1,0-0.3,0-0.4,0c-0.6-0.1-1.1-0.5-1.4-1.1c-0.1-0.1-0.1-0.3-0.2-0.5c0-0.3,0-0.7,0.2-1
	C28.5,23,28.5,22.9,28.7,22.9z"/>
<path class="st10" d="M32.4,22.4c-0.8-1-0.6-0.8-2-1.3c0.1-0.1,0.1-0.1,0.2-0.1c0.1,0,0.2,0,0.3,0c0.5,0.1,1,0.3,1.3,0.7
	c0.1,0.1,0.2,0.3,0.2,0.4C32.5,22.2,32.5,22.3,32.4,22.4z"/>
<path class="st10" d="M32.1,24.8c0-0.4,0.1-0.9,0.2-1.3c0.1,0.2,0.1,0.4,0.1,0.6C32.4,24.4,32.3,24.6,32.1,24.8z"/>
<path class="st10" d="M31.3,22.5c0.3,0.1,0.4,0.2,0.4,0.4c0,0.2-0.1,0.5-0.2,0.7c-0.1-0.2-0.1-0.4-0.1-0.6S31.4,22.7,31.3,22.5z"/>
<path class="st10" d="M30.7,23.6c-0.1,0.1-0.2,0.2-0.3,0.3c-0.2-0.1-0.3-0.3-0.4-0.5c0-0.1,0-0.2,0.3-0.3c0.1,0.2-0.1,0.3,0,0.4
	S30.6,23.6,30.7,23.6L30.7,23.6z"/>
<path class="st10" d="M30.8,23.9c0.1-0.2,0.2-0.4,0.2-0.6c0.1,0,0.2,0.2,0.2,0.3C31.1,23.8,31,23.9,30.8,23.9z"/>
<path class="st10" d="M29.4,21.6c0.1-0.2,0.3-0.2,0.5-0.2C29.8,21.6,29.6,21.6,29.4,21.6z"/>
<path class="st10" d="M30.9,22c0.2-0.1,0.5,0,0.6,0.2c-0.2-0.1-0.2-0.1-0.3-0.1C31.2,22.1,31,22.1,30.9,22z"/>
<path class="st10" d="M31.1,25.5c0.1-0.2,0.2-0.2,0.4-0.2C31.4,25.5,31.3,25.5,31.1,25.5z"/>
<path class="st10" d="M29.1,20.6c0,0,0,0.1,0,0.1c-0.1,0.1-0.2,0.1-0.3,0.1L29.1,20.6L29.1,20.6z"/>
<path class="st10" d="M30.7,23.6c0-0.1,0-0.1,0-0.2l0,0V23.6z"/>
<path class="st10" d="M29.1,20.6h0.2l0,0C29.3,20.7,29.2,20.7,29.1,20.6z"/>
<path class="st10" d="M30.9,24.2L30.9,24.2C30.9,24.2,30.9,24.2,30.9,24.2L30.9,24.2C30.9,24.2,30.9,24.2,30.9,24.2z"/>
<path class="st10" d="M31,21.7L31,21.7L31,21.7L31,21.7C31,21.7,31,21.7,31,21.7L31,21.7z"/>
<path class="st10" d="M31,21.7c0.2-0.1,0.2-0.1,0.2,0.1l0,0C31.2,21.8,31.1,21.8,31,21.7z"/>
<path class="st10" d="M31.2,21.8C31.3,21.8,31.3,21.8,31.2,21.8L31.2,21.8C31.3,21.8,31.3,21.8,31.2,21.8
	C31.2,21.8,31.2,21.8,31.2,21.8L31.2,21.8z"/>
<path class="st10" d="M27.9,22L27.9,22C27.9,22,27.9,22.1,27.9,22L27.9,22C27.9,22.1,27.9,22.1,27.9,22z"/>
<path class="st10" d="M28.2,21.4L28.2,21.4C28.2,21.4,28.2,21.4,28.2,21.4L28.2,21.4L28.2,21.4z"/>
<path class="st4" d="M41.9,18.7c0,0.2,0,0.4-0.1,0.6c0,0.8,0,1.6,0.1,2.4c0,0.3,0,0.6,0,0.9s0.1,0.8,0.1,1.3c0,0.2,0,0.4,0,0.6
	c0,0.7,0,1.5,0,2.2c0,0.2,0,0.5,0.1,0.7c0,0.2,0,0.3,0,0.5v1.3c0.1,0.7,0.1,1.5,0.1,2.3c0,0.6-0.2,1.2-0.4,1.8
	c0,0.1-0.1,0.2-0.1,0.3l-0.1,0.5c-0.1,0.6-0.4,0.8-0.9,0.9c-0.5,0.2-1,0.3-1.5,0.4c0,0-0.1,0-0.1,0c-0.6-0.1-1.1,0.1-1.7,0.1h-3.7
	c-0.5,0-1,0.1-1.6,0.1c-0.4,0.1-0.8,0-1.3-0.1c0,0-0.1,0-0.1,0c-0.6,0-1.2-0.1-1.9-0.1h-5.8c-0.2,0-0.4-0.1-0.6-0.1
	c-0.2,0-0.5,0-0.7,0c-0.5,0-0.9,0-1.4-0.1c-0.2,0-0.5,0-0.7-0.1h-5.3c-0.7,0-1.4-0.2-2-0.4c-0.3-0.1-0.5-0.3-0.6-0.6
	c-0.3-0.7-0.5-1.5-0.6-2.2c0-0.1,0-0.3-0.1-0.4c-0.3-0.7-0.5-1.4-0.6-2.1c-0.1-0.9-0.2-1.8-0.4-2.7C10.1,26,10,25.4,10,24.7
	c0-0.5-0.1-1-0.1-1.5s0-0.9,0.1-1.3c0-0.3,0-0.7,0-1c0-0.3-0.1-0.5-0.1-0.8C9.3,20,8.7,19.6,8.5,19c-0.3-0.6-0.4-1.2-0.3-1.9
	c0.2-0.6,0.6-1.1,1.1-1.5c0.2-0.1,0.3-0.2,0.5-0.2h0.7c0-0.1,0.1-0.1,0.1-0.1c0-0.6,0.3-1.1,0.8-1.4c0.4-0.3,0.8-0.5,1.3-0.6
	c0.1-0.2,0.1-0.4,0-0.6c-0.1-0.5,0.3-0.8,0.5-1.1c0.2-0.2,0.5-0.4,0.9-0.4c0.6-0.1,1.2-0.2,1.8-0.2c0.7-0.1,1.3,0,2,0.1
	c0.3,0,0.5,0.2,0.6,0.5c0.1,0.3,0.2,0.6,0.2,0.9c0,0.1,0,0.2,0,0.2c0.3,0.1,0.3,0.1,0.4-0.1c0-0.1,0.1-0.2,0.1-0.4
	c0.1-0.5,0.4-1,0.7-1.4c0.3-0.3,0.6-0.6,1-0.7c0,0,0,0,0.1,0c0.3-0.2,0.7-0.4,1.1-0.5c0.4-0.1,0.8-0.2,1.2-0.3
	c0.4-0.1,0.7-0.1,1.1-0.2C24.6,9.1,25,9.1,25.4,9h0.1c0.6-0.1,1.2-0.1,1.8-0.1h4.6C32.2,9,32.4,9,32.7,9c0.3,0,0.6,0,0.9,0
	c0.7,0,1.5,0.1,2.2,0.2H36c0.5,0,1,0.1,1.5,0.2c0.3,0.1,0.5,0.1,0.8,0.1c0.3,0,0.5,0.1,0.8,0.2c0.3,0.1,0.6,0.3,0.8,0.5
	c0.1,0.1,0.1,0.2,0.2,0.3c0.2,0.4,0.3,0.9,0.3,1.3c0,0.2,0,0.3,0.1,0.5c0.2,0.6,0.4,1.1,0.7,1.6c0,0.1,0.1,0.1,0.1,0.2h0.5
	c0.3,0,0.6,0.1,0.8,0.2c0.2,0.1,0.3,0.2,0.5,0.3c0.3,0.2,0.5,0.4,0.6,0.7c0.1,0.4,0.2,0.7,0.2,1.1c0,0.2,0,0.5-0.1,0.7
	c-0.2,0.5-0.5,0.9-0.9,1.2l-0.1,0.1C42.5,18.6,42.2,18.7,41.9,18.7z M18.7,16.2c0,0.1,0,0.1,0,0.2c0,0.3-0.1,0.6-0.3,0.8
	c-0.1,0.1-0.1,0.2-0.1,0.3c-0.1,0.4-0.2,0.9-0.2,1.3c0,0.2-0.1,0.5-0.1,0.7v3.2c0,0.3,0,0.6,0.1,0.8c0.1,1.1,0.3,2.3,0.4,3.5
	c0,0.1,0,0.1,0,0.2c0.1,0.6,0.2,1.2,0.3,1.8l0.3,2.4c0.1,0.3,0.1,0.6,0.2,0.9c0.1,0.3,0.3,0.6,0.7,0.7c0.5,0.1,1,0.2,1.5,0.2
	c0.4,0,0.9,0,1.3,0c0.7,0.1,1.4,0.1,2.1,0.1h3.5c0.4,0,0.9,0,1.3,0.1c0.1,0,0.2,0,0.3,0h1.2c1.1,0,2.2,0,3.3-0.1
	c0.4,0,0.8-0.1,1.2-0.1c0.3,0,0.6,0,0.9,0.1c0.1,0,0.2,0,0.3,0h0.7c0.2,0,0.4,0,0.6,0.1c0.5,0,1.1-0.1,1.6-0.2
	c0.4-0.1,0.8-0.2,1.2-0.2c0.2,0,0.4-0.1,0.4-0.3c0.1-0.3,0.1-0.6,0.1-0.9c0-1,0-2,0.1-3v-0.2c-0.1-0.2-0.1-0.5-0.1-0.7
	c0-1.1,0-2.3,0-3.4c0-0.2,0-0.4,0-0.6l-0.1-1.4c0-0.2,0-0.5,0-0.7c-0.1-0.8-0.1-1.6-0.1-2.5c0-0.4-0.1-0.9-0.1-1.3
	c-0.1-0.2,0-0.5,0.1-0.7c0.1-0.1,0-0.2,0-0.2c0-0.3-0.1-0.6-0.3-0.9c-0.2-0.3-0.5-0.6-0.9-0.7c-0.3-0.1-0.7-0.1-1-0.1
	c-0.4-0.1-0.7-0.1-1.1-0.1c-0.8-0.2-1.6-0.3-2.4-0.3c-0.1,0-0.3,0-0.4,0c-0.9-0.1-1.9-0.2-2.8-0.2h-1.5c-0.2,0-0.3,0-0.5,0
	c-0.3,0-0.6-0.1-0.9-0.1H25l-1.2,0.2c-0.3,0.1-0.6,0.1-0.9,0.1c-0.6,0-1.2,0.2-1.8,0.4c-0.2,0.1-0.5,0.2-0.8,0.2
	C19.8,15.7,19.2,15.9,18.7,16.2z M18.9,15.4c0.1,0,0.2,0,0.2-0.1c0.5-0.2,1-0.3,1.5-0.5c0.8-0.3,1.7-0.5,2.6-0.6
	c1-0.1,2-0.2,2.9-0.2c0.3,0,0.7,0,1,0c0.3,0,0.5-0.1,0.8-0.1c0.6,0.1,1.3,0,1.9,0.1h0.3l1.2,0.1h1.8c0.2,0,0.4,0,0.6,0
	c0.9,0.1,1.8,0.2,2.7,0.2h0.3l1.4,0.2c0.2,0.1,0.5,0.1,0.7,0.1c0.7,0,1.3,0.2,1.9,0.6l0.4,0.2c0-0.2,0-0.4-0.1-0.6
	c-0.2-0.7-0.5-1.3-0.7-2c-0.1-0.2-0.1-0.4-0.2-0.6c-0.1-0.2-0.2-0.4-0.2-0.7c-0.1-0.3-0.1-0.7-0.2-1c-0.1-0.4-0.4-0.7-0.8-0.8
	c-0.3-0.1-0.5-0.1-0.8-0.1c-0.7-0.1-1.5-0.2-2.2-0.3c-0.4,0-0.7-0.1-1.1-0.1l-0.7-0.1h-1h-0.5c-0.2,0-0.5,0-0.7-0.1h-4.8
	c-0.5,0-1,0-1.5,0.1c-0.1,0-0.1,0-0.2,0c-0.9,0-1.8,0.2-2.7,0.4c-0.1,0-0.3,0.1-0.4,0.1c-0.4,0-0.7,0.1-1,0.3
	c-0.2,0.1-0.3,0.2-0.5,0.3c-0.6,0.2-1,0.7-1.2,1.3c0,0.1,0,0.1-0.1,0.2c-0.1,0.4-0.3,0.9-0.4,1.3c-0.2,0.7-0.3,1.3-0.4,2
	C18.9,15.3,18.9,15.4,18.9,15.4L18.9,15.4z M18.7,13.2h-0.4c-0.7,0-1.4,0-2.1,0.1c-0.6,0.1-1.1,0.1-1.7,0.2s-0.9,0.2-1.3,0.2
	c-0.5,0-1.1,0.2-1.5,0.5c-0.4,0.2-0.7,0.7-0.7,1.1c0,0.4,0,0.8-0.1,1.2c0,0.1,0,0.2,0,0.2c0.3,0,0.6-0.1,0.9-0.2
	c0.4-0.1,0.9-0.2,1.3-0.2c0.6,0,1.1,0,1.7-0.1c0.1,0,0.3,0,0.4-0.1h1.6c0.1,0,0.2,0,0.3,0c0.3,0.1,0.6,0.1,0.8,0.1
	c0.1-0.2,0.2-0.3,0.3-0.6c0.1-0.3,0.1-0.5,0.2-0.8c0.1-0.4,0.2-0.9,0.3-1.3C18.7,13.5,18.8,13.4,18.7,13.2L18.7,13.2z M41.1,33.5
	c-0.1,0-0.3,0.1-0.4,0.1c-0.3,0.1-0.6,0.1-0.9,0.1c-0.7,0.1-1.3,0.1-2,0.1c-0.8-0.1-1.5-0.1-2.3-0.1c-0.3,0-0.7,0-1,0.1
	c0,0-0.1,0-0.1,0c-0.2,0-0.3,0-0.5,0.1h-4c-0.2,0-0.3,0-0.5-0.1c-0.2,0-0.4,0-0.6-0.1c-0.8,0-1.6,0-2.4,0.1c-0.6,0-1.1,0-1.7-0.1
	c-0.2,0-0.3,0-0.5,0h-0.8h-2.9c-0.2,0-0.3,0-0.5,0.1c-0.1,0.2,0,0.4,0.1,0.6l0.4,0.1c0.5,0.1,1,0.2,1.5,0.2c0.2,0,0.5,0,0.7,0
	c0.2,0,0.5,0,0.7,0.1h5.3c0.4,0,0.8,0,1.3,0.1c0.1,0,0.2,0,0.2,0c0.4,0,0.8,0,1.2,0.1h2c0.3,0,0.6-0.1,0.9-0.1c1.1,0,2.1,0,3.2,0
	c0.1,0,0.3,0,0.4,0c0.3-0.1,0.6-0.1,0.9-0.1c0.2,0,0.3,0,0.5-0.1c0.5-0.1,0.9-0.2,1.4-0.3c0.3,0,0.6-0.3,0.6-0.6
	C41.1,33.6,41.1,33.5,41.1,33.5L41.1,33.5z M17.7,32.8c-0.2-0.8-0.3-1.5-0.4-2.2c-0.2-1.1-0.4-2.1-0.3-3.2v-0.2
	c0-0.8-0.1-1.6-0.1-2.5c0-0.1,0-0.1,0-0.2l-0.1-0.9c0-0.4,0-0.9-0.1-1.3c-0.1-0.4-0.1-0.8-0.1-1.3c0-0.7-0.1-1.3-0.2-2
	c-0.1-0.6-0.1-1.3-0.1-1.9c0-0.1,0-0.3,0-0.4c-0.3,0-0.6,0-0.9,0c0,0.1,0,0.2,0,0.3c0,0.4,0.1,0.8,0.1,1.3s0.1,1,0.1,1.5
	c0.1,1,0.2,2.1,0.3,3.1c0.1,0.4,0.1,0.8,0.1,1.2c0.1,0.7,0.2,1.3,0.2,2c0,0.3,0,0.6,0,0.8c0.1,0.3,0.1,0.7,0.1,1v1.6
	c0,0.2,0,0.4,0.1,0.6c0,0.3,0.1,0.6,0.1,0.9c0,0.6,0.1,1.1,0.1,1.7c0,0.4,0,0.4,0.1,0.1C16.9,32.8,17.3,32.8,17.7,32.8L17.7,32.8z
	 M11.9,17.1v1.6c0,0.3,0.1,0.6,0.1,0.9s0.1,0.8,0.1,1.2c0.1,0.7,0.1,1.3,0.1,2c0,0.1,0,0.2,0,0.2c0.1,0.8,0.2,1.6,0.2,2.4
	c0,0.1,0,0.2,0,0.2c0.1,0.5,0.1,0.9,0.2,1.4s0.1,1,0.2,1.6c0.1,0.5,0.2,1.1,0.2,1.6c0,0.3,0.1,0.5,0.1,0.8c0.2,0.5,0.3,1,0.4,1.5
	l0.3,0.1c0.1,0,0.2,0.1,0.3,0c0-0.1,0-0.2,0-0.3c-0.1-0.3-0.1-0.5-0.1-0.8v-0.2c-0.1-0.7-0.2-1.3-0.3-2s-0.2-1.4-0.3-2.1
	c-0.1-0.4-0.1-0.7-0.1-1.1c0-0.4-0.1-0.7-0.1-1.1c-0.1-0.3-0.1-0.6-0.2-0.9c-0.1-0.7-0.2-1.4-0.3-2.1l-0.2-2
	c-0.1-0.9-0.1-1.9-0.2-2.8c0,0,0-0.1-0.1-0.1C12.2,17,12,17,11.9,17.1z M15.2,32.7c0-0.5,0-1-0.1-1.5C15,30.8,15,30.4,14.9,30
	c-0.1-0.6-0.1-1.2-0.2-1.8c-0.1-0.5-0.1-1.1-0.1-1.6c0-0.3,0-0.7,0-1s-0.1-0.6-0.1-0.8c0-0.8-0.1-1.6-0.2-2.4c0-0.2-0.1-0.5-0.1-0.7
	c-0.3-1.5-0.5-2.9-0.6-4.4c0-0.1,0-0.2-0.1-0.3c-0.3,0-0.5,0-0.8,0c0,0.1,0,0.2,0,0.3C13,17.8,13,18.4,13,19l0.1,1.1
	c0.1,0.7,0.2,1.5,0.3,2.2s0.2,1.5,0.3,2.2c0.1,0.6,0.2,1.1,0.2,1.7v0.1c0.2,1.3,0.4,2.6,0.6,3.9c0.1,0.4,0.1,0.8,0.1,1.1
	c0,0.4,0,0.7,0.1,1.1C14.8,32.6,14.9,32.7,15.2,32.7z M16.1,32.7c0-0.2,0-0.4,0-0.7C16,31.7,16,31.4,16,31c0-0.1,0-0.2,0-0.3
	c-0.1-0.6-0.2-1.1-0.2-1.7v-1.3c0-0.1,0-0.3,0-0.4c-0.1-0.5-0.1-1-0.1-1.6c0-0.3,0-0.5-0.1-0.8c-0.1-1.1-0.2-2.1-0.4-3.2
	c-0.1-0.4-0.1-0.8-0.1-1.1c-0.2-1.2-0.3-2.4-0.4-3.7c0-0.1,0-0.1-0.1-0.1c-0.3,0-0.5,0-0.7,0.1c0,0.2,0,0.5,0,0.7l0.1,0.6
	c0.1,0.8,0.2,1.5,0.3,2.3s0.2,1.4,0.3,2c0.1,0.7,0.2,1.3,0.2,2c0,0.2,0,0.5,0,0.7c0.1,0.5,0.1,1,0.1,1.5c0,0.3,0.1,0.5,0.1,0.8
	s0.1,0.7,0.1,1c0.1,0.5,0.1,1,0.1,1.5c0,0.1,0,0.1,0,0.2l0.2,1.2c0.1,0.3,0.1,0.7,0.1,1C15.6,32.6,15.8,32.8,16.1,32.7L16.1,32.7z
	 M16.6,16.7c0,0.1,0,0.2,0,0.3c0,0.6,0,1.3,0.1,1.9c0.1,0.7,0.2,1.5,0.2,2.3c0,0.2,0,0.3,0,0.4c0.1,0.7,0.2,1.5,0.2,2.3
	c0,0.1,0,0.2,0,0.3c0,0.3,0.1,0.6,0.1,0.9c0,0.2,0,0.5,0,0.7l0.1,1v1.8c0.1,0.4,0.2,0.9,0.2,1.4c0.1,0.7,0.2,1.3,0.4,2
	c0,0.3,0.1,0.6,0.3,0.8h0.6c-0.1-0.2-0.1-0.3-0.1-0.4s-0.1-0.5-0.2-0.7c-0.1-0.8-0.2-1.6-0.3-2.4c-0.1-1-0.3-1.9-0.3-2.9
	c0-0.6-0.1-1.2-0.2-1.8c-0.1-0.8-0.2-1.6-0.2-2.4v-1.5c0-1.1,0-2.3,0.1-3.4c0-0.2,0-0.4,0-0.7C17.2,16.8,17,16.6,16.6,16.7
	L16.6,16.7z M10.9,17.4c0,0.9,0,1.7,0,2.5c0,0.2,0,0.3,0.1,0.5c0.1,0.6,0.2,1.2,0.2,1.8c0,0.1,0,0.2,0,0.3c0.1,0.4,0.1,0.8,0.1,1.2
	c0,0.2,0,0.4,0,0.6l0.2,1.4c0.1,0.6,0.1,1.3,0.2,1.9s0.3,1.3,0.3,1.9c0.1,0.5,0.2,1,0.2,1.4c0,0.1,0,0.1,0.1,0.2
	c0.1,0.3,0.2,0.6,0.3,1c0.2,0.2,0.4,0.2,0.7,0.2c0-0.1,0-0.1,0-0.2c-0.1-0.3-0.2-0.7-0.3-1c-0.1-0.2-0.1-0.4-0.1-0.7
	c0-0.5-0.1-0.9-0.2-1.4c-0.1-0.5-0.2-1-0.3-1.5c0-0.3-0.1-0.6-0.1-0.9c-0.1-0.5-0.1-1-0.2-1.6c0-0.1,0-0.2,0-0.3
	c-0.1-0.6-0.1-1.1-0.2-1.6c0-0.2,0-0.4-0.1-0.6c-0.1-0.7-0.1-1.4-0.1-2.1c0-0.2,0-0.3-0.1-0.4c-0.1-0.7-0.1-1.3-0.1-2
	c0-0.2,0-0.4,0-0.6s0-0.2,0-0.3C11.3,17.2,11.1,17.3,10.9,17.4L10.9,17.4z M19.4,33.5l-1.2-0.1l-0.5-0.1l-0.4-0.1
	c-0.7,0-1.3,0-2-0.1c-0.5-0.1-1.1-0.1-1.6-0.3c-0.1,0-0.3-0.1-0.4-0.1c-0.4,0-0.8-0.2-1.1-0.4l-0.3-0.2c0,0.1-0.1,0.1,0,0.1
	c0.1,0.4,0.3,0.8,0.4,1.3c0.1,0.2,0.2,0.3,0.4,0.3c0.5,0.2,1.1,0.4,1.7,0.4c1.6,0,3.1,0,4.7,0h0.3C19.4,34.1,19.5,33.8,19.4,33.5
	L19.4,33.5z M10.7,17.5c-0.1,0.1-0.1,0.1-0.1,0.1c-0.1,0.2-0.1,0.4-0.2,0.6c0,0.7,0,1.3,0,2s0,1.1,0,1.6c-0.1,0.8,0,1.5,0.1,2.3
	c0,0.1,0,0.3,0,0.4c0,0.8,0.1,1.6,0.3,2.3c0.1,0.3,0.1,0.7,0.2,1c0.1,0.7,0.2,1.3,0.3,2c0.1,0.5,0.3,1.1,0.6,1.5
	c0.1,0,0.1,0.1,0.2,0.1c-0.1-0.2-0.1-0.3-0.1-0.5s0-0.3-0.1-0.5c-0.2-0.9-0.3-1.8-0.5-2.6c0-0.2-0.1-0.3-0.1-0.5
	c-0.1-0.7-0.2-1.4-0.3-2s-0.1-1.1-0.1-1.6c-0.1-0.8-0.1-1.6-0.1-2.4c0-0.2-0.1-0.3-0.1-0.5c-0.1-0.4-0.1-0.9-0.1-1.3L10.7,17.5z
	 M41.7,15c0.2,0.1,0.3,0.1,0.4,0.1c0.6,0.1,1.1,0.8,0.9,1.4v0.1c-0.1,0.5-0.4,1-0.9,1.2c-0.1,0-0.1,0.1-0.2,0.1c0,0,0,0.1,0,0.2
	s0.1,0.1,0.1,0.1c0.1,0,0.2,0,0.2-0.1c0.2-0.1,0.3-0.2,0.5-0.4c0.7-0.5,0.9-1.4,0.6-2.2c-0.1-0.3-0.3-0.5-0.5-0.7
	c-0.2-0.1-0.3-0.2-0.5-0.3c-0.2-0.2-0.5-0.2-0.8-0.2C41.5,14.6,41.6,14.8,41.7,15L41.7,15z M9.8,19.3c-0.4-0.2-0.4-0.2-0.7-0.7
	c0,0,0-0.1-0.1-0.1c-0.2-0.5-0.3-1-0.1-1.5c0.1-0.2,0.2-0.4,0.4-0.5c0.3-0.3,0.6-0.4,1-0.4c0,0,0.1-0.1,0.1-0.1s0-0.2-0.1-0.2
	c-0.2,0-0.4,0-0.6,0c-0.2,0-0.3,0.1-0.4,0.2c-0.3,0.3-0.5,0.6-0.7,1c0,0.1-0.1,0.2-0.1,0.3v0.4c0,0.6,0.3,1.1,0.7,1.5
	C9.4,19.4,9.7,19.4,9.8,19.3L9.8,19.3z M15,12.9v-1.3c-0.4-0.1-0.4-0.1-0.7,0.1c0,0.2,0,0.4,0,0.6c0,0.2-0.1,0.4,0.1,0.7
	C14.6,12.9,14.8,12.9,15,12.9L15,12.9z M13.8,13v-0.7c0-0.2,0-0.4,0-0.7c-0.4,0.1-0.5,0.2-0.8,0.6c-0.1,0.3-0.1,0.6-0.1,0.9
	C13.3,13.1,13.6,13.1,13.8,13L13.8,13z M10.5,16.7c-0.1-0.1-0.3-0.1-0.4,0c-0.1,0.1-0.3,0.2-0.4,0.2c-0.2,0.1-0.3,0.3-0.3,0.6
	c-0.1,0.4,0,0.9,0.3,1.2c0,0,0.1,0,0.1,0c0-0.5,0-1,0.2-1.5C10.2,17.1,10.6,17.1,10.5,16.7L10.5,16.7z M41.9,17.3L41.9,17.3
	c0.1,0,0.2,0,0.2-0.1c0.4-0.3,0.5-0.8,0.5-1.2c0-0.2-0.1-0.3-0.3-0.4c-0.1-0.1-0.3-0.3-0.5-0.2c-0.1,0.3,0.1,0.6,0.1,0.9L41.9,17.3z
	 M15.4,11.5c0,0.3,0,0.6,0,0.8c0,0.2,0,0.3,0.2,0.4c0.2,0,0.4,0,0.6-0.1c0-0.4,0-0.8-0.1-1.3h-0.3L15.4,11.5z M17.3,12.7
	c0-0.4-0.1-0.8-0.2-1.2c-0.2,0-0.4,0-0.5,0.1c0.1,0.4,0.1,0.8,0.1,1.1C16.9,12.7,17.1,12.7,17.3,12.7L17.3,12.7z M18,12.7
	c0.1-0.3,0-0.7-0.2-1c0-0.1-0.1-0.2-0.2-0.1c0,0-0.1,0-0.1,0c0,0.3,0.1,0.7,0.2,1C17.8,12.7,17.9,12.7,18,12.7L18,12.7z"/>
<path class="st4" d="M22.2,19.8c0.2-0.3,0.3-0.6,0.5-0.9c0.1-0.2,0.3-0.5,0.4-0.7c0.4-0.6,0.9-1.1,1.5-1.6l0,0
	c0.4-0.5,0.9-0.9,1.4-1.2c0.4-0.2,0.8-0.4,1.2-0.5c0.4-0.1,0.7-0.1,1.1-0.1h1.4c0.3,0,0.7,0,1,0.1c0.1,0,0.1,0,0.2,0
	c0.7,0,1.4,0.1,2,0.4c0.3,0.1,0.6,0.2,0.9,0.3c0.2,0.1,0.4,0.1,0.6,0.2c0.1,0.1,0.3,0.2,0.4,0.2c0.4,0.2,0.8,0.5,1.2,0.8
	c0.2,0.3,0.5,0.5,0.7,0.7c0.5,0.7,1,1.4,1.4,2.1c0.2,0.3,0.4,0.5,0.8,0.7c0.2,0.1,0.5,0.2,0.7,0.3c0.2,0.1,0.4,0.3,0.4,0.5
	c0.3,0.9,0.4,1.8,0.5,2.7c0,0.5,0,1-0.1,1.6c-0.1,0.8-0.4,1.5-0.8,2.1c-0.2,0.2-0.4,0.4-0.6,0.6c-0.2,0.2-0.5,0.2-0.8,0.2
	c-0.2,0.3-0.4,0.6-0.5,0.9c-0.3,0.7-0.7,1.3-1.3,1.7c-0.3,0.2-0.6,0.4-0.9,0.5c-0.2,0.1-0.3,0.2-0.5,0.3c-0.5,0.3-1.1,0.5-1.7,0.6
	c-0.1,0-0.3,0-0.4,0h-3.5c-0.3,0-0.7-0.1-1-0.1l-0.6-0.1c-0.1,0-0.2,0-0.2-0.1c-0.6-0.2-1.2-0.5-1.8-0.8c-0.4-0.2-0.7-0.4-1-0.7
	c-0.4-0.4-0.8-0.8-1.2-1.1c-0.2-0.1-0.3-0.3-0.4-0.5c-0.2-0.3-0.4-0.5-0.7-0.6c-0.5-0.2-0.9-0.6-1.2-1.1c-0.2-0.4-0.3-0.8-0.4-1.3
	c-0.1-0.5-0.2-1.1-0.3-1.6c0-0.2,0-0.4-0.1-0.6v-2.3c0-0.3,0.1-0.7,0.4-0.9C21.2,20.2,21.7,19.9,22.2,19.8z M31,31.8L31,31.8
	c0.4,0,0.9,0,1.3,0c0.6,0,1.3-0.1,1.9-0.4c0.6-0.3,1.2-0.6,1.7-0.9c0.3-0.2,0.6-0.4,0.9-0.7c0.2-0.3,0.4-0.6,0.5-0.9l0.2-0.4
	l0.4-0.7c0.1-0.1,0.2-0.3,0.2-0.4s0.1-0.1,0.2-0.2c0.2-0.4,0.3-0.9,0.3-1.4c0-0.3,0-0.5,0.1-0.8c0-0.1,0-0.2,0-0.3
	c0-0.2,0-0.3,0-0.5c0-0.5,0-1-0.1-1.5c-0.1-0.7-0.3-1.5-0.6-2.2c-0.2-0.5-0.4-1-0.7-1.4c-0.4-0.7-1-1.4-1.6-2
	c-0.1-0.1-0.1-0.2-0.2-0.2s-0.2-0.3-0.4-0.3c-0.4-0.2-0.9-0.5-1.4-0.7c-0.5-0.2-1.1-0.3-1.6-0.5c-0.4-0.1-0.7-0.2-1.1-0.2
	c-0.2,0-0.3,0-0.4-0.1s-0.3,0-0.4-0.1h-2c-0.6,0-1.2,0.2-1.7,0.5c-0.2,0.1-0.4,0.2-0.6,0.4c-0.2,0.1-0.3,0.2-0.4,0.4
	c-0.5,0.6-1.1,1-1.6,1.6c-0.6,0.6-1,1.3-1.3,2.1c-0.3,0.7-0.5,1.5-0.5,2.3c0,0.1,0,0.1,0,0.2C22,23.4,22,24,22,24.6
	c0,0.1,0,0.1,0,0.2l0.2,0.8c0.1,0.7,0.3,1.4,0.6,2c0.3,0.6,0.7,1.1,1.1,1.6c0.3,0.4,0.6,0.7,1,1c0.4,0.4,1,0.8,1.5,1
	c0.6,0.3,1.3,0.5,2,0.6c0.5,0.1,1,0.1,1.6,0.1L31,31.8z M38.6,27.7c0.1,0,0.2-0.1,0.2-0.2c0.4-0.4,0.8-1,0.9-1.6
	c0.2-1.2,0.3-2.4,0.1-3.6c0-0.2-0.1-0.5-0.2-0.7c-0.2-0.6,0-0.5-0.7-0.8c-0.1-0.1-0.3-0.1-0.4-0.1l0.2,0.6c0.1,0.3,0.2,0.6,0.2,0.9
	c0.2,0.7,0.2,1.4,0.2,2.1V25c0,0.3,0,0.6-0.2,0.9c-0.1,0.1-0.1,0.3-0.1,0.4c0,0.3-0.1,0.5-0.2,0.8C38.6,27.3,38.6,27.5,38.6,27.7
	L38.6,27.7z M22.1,27.7c-0.2-0.6-0.3-1.1-0.4-1.6c-0.1-0.5-0.2-1-0.3-1.5c0-0.9,0-1.7,0.1-2.6c0-0.1,0-0.1,0-0.2l0.3-1.1
	c0-0.1,0-0.2,0.1-0.3c-0.2,0-0.4,0.1-0.6,0.3c-0.3,0.2-0.5,0.7-0.5,1.1c0,0.3,0,0.7,0,1c0,0.7,0,1.3,0.1,2c0.1,0.7,0.2,1.3,0.4,2
	C21.6,27.1,21.8,27.4,22.1,27.7L22.1,27.7z"/>
<path class="st4" d="M37.4,14.1c-0.6-0.1-1.2-0.1-1.7-0.2c-0.4-0.1-0.8-0.1-1.1-0.1h-0.7c-0.3,0-0.6-0.1-0.8-0.3
	c-0.2-0.2-0.4-0.4-0.4-0.7c-0.1-0.5-0.1-1-0.1-1.5c0-0.3,0.2-0.6,0.4-0.8c0.3-0.2,0.7-0.4,1.1-0.3c0.4,0,0.7,0,1.1,0
	c0.7,0,1.3,0.1,1.9,0.2c0.1,0,0.3,0.1,0.4,0.1c0.4,0,0.8,0.3,1,0.6c0.4,0.4,0.6,0.9,0.6,1.5v0.7c0,0.3-0.2,0.5-0.5,0.5
	S37.8,14.1,37.4,14.1z M38.6,13.5v-0.7c0-0.5-0.2-1-0.6-1.4c-0.1-0.1-0.3-0.2-0.5-0.3C37,11,36.5,10.9,36,10.9c-0.7,0-1.3,0-2,0
	c-0.4,0-0.7,0.2-0.8,0.6c-0.1,0.4-0.1,0.9,0,1.3c0.1,0.4,0.3,0.6,0.8,0.7h0.6c0.4,0,0.7,0,1.1,0.1c0.7,0.1,1.3,0.2,2,0.2
	C37.9,13.6,38.3,13.6,38.6,13.5L38.6,13.5z"/>
<path class="st4" d="M25.6,13.9c-0.6,0-1.1-0.1-1.6-0.5c-0.3-0.2-0.5-0.5-0.5-0.9v-0.4c0-0.5,0.3-1,0.8-1.3c0.5-0.3,1-0.4,1.6-0.3
	c0.2,0,0.3,0.1,0.5,0.1c0.3,0.2,0.6,0.4,0.9,0.7c0.1,0.1,0.1,0.2,0.2,0.3c0.1,0.2,0.1,0.4,0.1,0.6c0.1,0.4,0,0.8-0.3,1.1
	c-0.3,0.4-0.8,0.6-1.3,0.6L25.6,13.9z M25.7,13.4L25.7,13.4c0.1,0,0.1,0,0.2,0c0.4,0,0.8-0.2,1-0.5c0.1-0.1,0.1-0.2,0.2-0.3
	c0.2-0.8-0.4-1.7-1.2-1.8c-0.2,0-0.3,0-0.5,0c-0.4,0-0.8,0.2-1,0.5c-0.1,0.1-0.2,0.2-0.3,0.4C23.9,12.6,24,13,25,13.4
	C25.2,13.4,25.5,13.4,25.7,13.4z"/>
<path class="st4" d="M22.4,13.9c-0.6,0-0.8-0.2-0.8-0.7v-0.3c0-0.3,0.2-0.5,0.4-0.6c0.1-0.1,0.4-0.1,0.5,0c0.1,0.1,0.2,0.1,0.4,0.2
	c0.3,0.1,0.5,0.5,0.4,0.8c0,0.3-0.3,0.5-0.6,0.6C22.6,13.9,22.5,13.9,22.4,13.9z M22.4,13.4c0.3,0,0.5-0.1,0.5-0.3
	c0-0.3-0.2-0.5-0.4-0.5c0,0,0,0-0.1,0c-0.2,0-0.3,0.1-0.3,0.4S22.1,13.4,22.4,13.4L22.4,13.4z"/>
<path class="st4" d="M22.6,23.3c0-0.6,0-1.1,0.1-1.6c0.1-0.2,0.1-0.5,0.2-0.7c0.2-0.5,0.5-1,0.7-1.6c0.2-0.4,0.4-0.7,0.6-1
	c0.4-0.4,0.8-0.8,1.2-1.3c0.2-0.2,0.5-0.4,0.8-0.4c0.7-0.2,1.3-0.4,2-0.6c0.4-0.1,0.9-0.1,1.3-0.1c0.4,0,0.8,0,1.2,0
	c0.9,0,1.7,0.2,2.5,0.6c1.1,0.5,2,1.2,2.9,2c0.4,0.4,0.8,0.9,1,1.5c0.2,0.4,0.3,0.9,0.3,1.4c0.1,0.4,0.2,0.8,0.2,1.3
	c0,0.3,0.1,0.6,0.1,0.8c0,0.3,0,0.6-0.1,0.8s-0.1,0.7-0.1,1.1s-0.1,0.6-0.2,0.8c0,0.4-0.1,0.8-0.3,1.2c-0.3,0.6-0.6,1.2-1,1.7
	c-0.4,0.6-1,1.1-1.7,1.3c-0.9,0.4-1.8,0.7-2.7,0.8c-1.3,0.2-2.6,0-3.8-0.4l-0.6-0.2L25.7,30c-0.6-0.3-1.2-0.8-1.5-1.4
	c-0.4-0.5-0.7-1.1-1-1.8c-0.1-0.2-0.2-0.4-0.2-0.7C22.7,25.2,22.5,24.3,22.6,23.3z M30.4,30.9c1,0,2.1-0.1,3.1-0.5
	c0.1-0.1,0.2-0.1,0.3-0.1c0.4,0,0.7-0.2,0.9-0.5l0.6-0.6c0,0,0.1-0.1,0.1-0.1c0.3-0.3,0.5-0.6,0.7-0.9c0.2-0.3,0.3-0.6,0.5-1
	s0.1-0.5,0.2-0.7c0.1-0.6,0.3-1.1,0.4-1.7c0-0.2,0.1-0.5,0.1-0.7c0-0.3,0-0.6-0.1-0.9c-0.1-1-0.3-1.9-0.6-2.8
	c-0.3-0.7-0.7-1.4-1.3-1.9c-0.3-0.2-0.5-0.4-0.8-0.6c-0.5-0.4-1.2-0.8-1.8-1c-1-0.3-2-0.5-3-0.6c-0.3,0-0.7,0-1,0
	c-0.4,0.1-0.9,0.2-1.3,0.2c-0.6,0.2-1.1,0.4-1.6,0.7l-0.1,0.1c-0.3,0.3-0.6,0.6-0.9,1c-0.3,0.4-0.6,0.8-0.8,1.2
	c-0.2,0.4-0.4,0.8-0.6,1.2c-0.2,0.4-0.4,0.9-0.4,1.4v0.7c0,0.5,0,1.1,0.1,1.6c0.1,0.7,0.3,1.4,0.6,2c0.3,0.6,0.6,1.2,1,1.7
	c0.1,0.2,0.3,0.4,0.5,0.6c0.4,0.3,0.7,0.5,1.2,0.7c0.4,0.2,0.8,0.4,1.2,0.6c0.4,0.2,0.8,0.4,1.3,0.5C29.4,30.9,29.9,31,30.4,30.9
	L30.4,30.9z"/>
<path class="st4" d="M35,11c0.4,0.1,0.7,0.1,1.1,0.1c0.3,0,0.7,0.1,1,0.1c0.1,0,0.3,0.1,0.4,0.1c0.1,0,0.2,0.1,0.2,0.1
	c0.3,0.4,0.4,0.9,0.2,1.4c0,0.2-0.2,0.3-0.4,0.2C37,13.1,36.3,13,35.7,13c-0.5-0.1-1-0.1-1.5-0.2c-0.3-0.1-0.4-0.2-0.4-0.5v-0.4
	c0-0.4,0.2-0.6,0.4-0.8c0.1-0.1,0.2-0.1,0.3-0.1L35,11L35,11z M34.2,12.4c0.5,0.1,1,0.2,1.6,0.3c0.6,0,1.2,0,1.9,0
	c0.2-0.3,0.1-0.5,0-0.8c-0.1-0.2-0.3-0.3-0.5-0.3c-0.3-0.1-0.7-0.1-1-0.1c-0.1,0-0.2,0-0.2,0c-0.3-0.1-0.6-0.1-0.9-0.1
	c-0.3,0-0.6,0.1-0.8,0.3v0.3C34.1,12.1,34.1,12.2,34.2,12.4z"/>
<path class="st4" d="M24.4,12.2V12c-0.1-0.5,0.4-0.8,0.8-0.8c0.2,0,0.4,0,0.6,0.1c0.4,0.1,0.8,0.5,0.8,0.9v0.2
	c0,0.4-0.3,0.8-0.7,0.8c-0.3,0.1-0.7,0.1-1-0.1c-0.4-0.1-0.6-0.4-0.6-0.8C24.4,12.4,24.4,12.3,24.4,12.2L24.4,12.2z M25.5,12.8
	c0.6,0,0.8-0.1,0.7-0.6c0-0.4-0.3-0.7-0.7-0.7c-0.1,0-0.1,0-0.2,0c-0.7,0.1-0.6,0.2-0.6,0.8c0,0.2,0.1,0.4,0.3,0.4
	C25.3,12.8,25.4,12.8,25.5,12.8L25.5,12.8z"/>
<path class="st4" d="M35.2,23.8c0,0.4-0.1,0.8-0.1,1.1c0,0.2-0.1,0.4-0.2,0.6c-0.1,0.1-0.1,0.2-0.2,0.3c-0.1,0.5-0.4,0.9-0.8,1.2
	c-0.2,0.2-0.3,0.3-0.5,0.5c-0.3,0.3-0.7,0.5-1.1,0.6c-0.5,0.1-1.1,0.2-1.6,0.2c-1,0-2-0.2-2.9-0.7c-0.2-0.1-0.4-0.2-0.5-0.4
	c-0.4-0.4-0.7-0.9-0.9-1.4c0-0.1-0.1-0.2-0.2-0.3c-0.2-0.4-0.4-0.8-0.4-1.2c-0.1-0.5-0.1-1-0.1-1.5c0-0.4,0.1-0.8,0.3-1.1
	c0.2-0.4,0.3-0.7,0.6-1.1c0.3-0.5,0.8-0.9,1.3-1.3c0.4-0.2,0.9-0.3,1.3-0.4l0.4-0.1c0.5-0.1,1-0.1,1.4,0.1c0.3,0.1,0.7,0.2,1,0.3
	c0.3,0.1,0.5,0.2,0.8,0.3c0.2,0.2,0.5,0.3,0.7,0.4c0.9,0.6,1.5,1.5,1.6,2.6C35.1,23,35.2,23.4,35.2,23.8z M30.1,19.2L30.1,19.2
	c-0.2,0-0.4,0-0.6,0c-0.2,0-0.3,0-0.5,0.1c-0.5,0.2-0.9,0.4-1.3,0.6c-0.2,0.1-0.4,0.3-0.5,0.5c-0.3,0.5-0.6,1-0.8,1.5
	c-0.1,0.3-0.2,0.5-0.2,0.8c0,0.6,0,1.1,0.2,1.7c0,0.2,0.1,0.5,0.3,0.7c0.1,0.1,0.2,0.3,0.2,0.4c0.2,0.5,0.5,0.9,0.8,1.3
	c0.1,0.1,0.2,0.2,0.3,0.3c0.4,0.2,0.9,0.4,1.4,0.6c1.1,0.2,2.2,0.2,3.2-0.2c0.2-0.1,0.4-0.1,0.5-0.3c0.9-0.8,1.5-1.9,1.6-3.2
	c0-0.5,0-0.9-0.1-1.4c-0.1-0.8-0.4-1.5-1-2.1c-0.1,0-0.1-0.1-0.2-0.1c-0.3-0.2-0.6-0.3-0.8-0.5c-0.5-0.3-1.1-0.5-1.7-0.7
	c-0.1,0-0.2,0-0.3,0L30.1,19.2z"/>
<path class="st4" d="M30.9,26.6c-0.5,0-0.9-0.1-1.2-0.1c-0.4,0-0.7-0.2-1-0.4c-0.5-0.4-0.9-1-1.2-1.6c-0.1-0.1-0.1-0.2-0.1-0.3
	c0-0.6,0-1.3,0.1-1.9c0.1-0.5,0.4-1,0.8-1.3c0.1-0.1,0.1-0.1,0.2-0.2c0.5-0.4,1.1-0.6,1.8-0.4c0.1,0,0.2,0,0.3,0.1
	c0.7-0.1,1.3,0.2,1.8,0.6c0.2,0.2,0.5,0.4,0.7,0.7c0.1,0.1,0.2,0.2,0.3,0.4c0.4,0.6,0.5,1.3,0.5,2.1c0,0.2-0.1,0.5-0.2,0.7
	c-0.2,0.4-0.5,0.8-0.7,1.1c-0.2,0.3-0.6,0.5-0.9,0.6C31.6,26.6,31.2,26.6,30.9,26.6z M31.2,21.8L31.2,21.8c0.1,0,0.1,0,0.1-0.1l0,0
	C31.3,21.8,31.3,21.8,31.2,21.8c0-0.1,0-0.2-0.2-0.1v-0.1l0,0v0.1L31.2,21.8z M29.1,20.6l-0.3,0.2c0.1,0,0.2,0,0.3-0.1
	C29.1,20.7,29.1,20.7,29.1,20.6c0,0,0.1,0,0.2,0.1l0,0C29.2,20.7,29.2,20.6,29.1,20.6z M30.7,23.6c-0.1-0.1-0.3,0.2-0.4,0
	s0.2-0.3,0-0.4c-0.2,0.1-0.3,0.1-0.3,0.3c0,0.2,0.2,0.4,0.4,0.5C30.5,23.8,30.6,23.7,30.7,23.6l0-0.2l0,0
	C30.7,23.5,30.7,23.6,30.7,23.6L30.7,23.6z M28.7,22.9c-0.1,0-0.2,0.1-0.3,0.2c-0.3,0.5-0.3,1,0,1.5c0.3,0.5,0.8,0.9,1.4,1.1
	c0.1,0,0.3,0,0.4,0c0.1,0,0.1-0.1,0.2-0.2c-0.1,0-0.1-0.1-0.2,0c-0.3,0-0.7-0.2-0.9-0.4c-0.2-0.2-0.3-0.4-0.5-0.7
	c-0.2-0.2-0.3-0.5-0.2-0.8C28.7,23.3,28.7,23.1,28.7,22.9L28.7,22.9z M32.4,22.4c0.1-0.1,0.1-0.2,0.1-0.3c0-0.2-0.1-0.3-0.2-0.4
	c-0.4-0.3-0.8-0.6-1.3-0.7c-0.1,0-0.2,0-0.3,0c-0.1,0-0.1,0.1-0.2,0.1C31.8,21.6,31.6,21.4,32.4,22.4L32.4,22.4z M32.1,24.8
	c0.2-0.2,0.3-0.4,0.3-0.7c0-0.2,0-0.4-0.1-0.6C32.2,23.9,32.1,24.3,32.1,24.8L32.1,24.8z M31.4,22.5c0.1,0.2,0.1,0.4,0.2,0.6
	s0,0.4,0.1,0.6c0.1-0.2,0.2-0.4,0.2-0.7C31.8,22.7,31.6,22.6,31.4,22.5L31.4,22.5z M30.8,23.9c0.3,0,0.4-0.2,0.4-0.3
	c0-0.1,0-0.3-0.1-0.3c0,0,0,0,0,0C31,23.5,30.9,23.7,30.8,23.9L30.8,23.9z M29.4,21.6c0.2-0.1,0.4,0,0.5-0.2
	C29.8,21.3,29.5,21.4,29.4,21.6L29.4,21.6z M31,22c0.1,0.1,0.2,0.1,0.4,0.2c0.1,0,0.1,0,0.3,0.1C31.5,22,31.2,21.9,31,22L31,22z
	 M31.1,25.5c0.2,0,0.3,0,0.4-0.2C31.4,25.3,31.2,25.3,31.1,25.5L31.1,25.5z M30.9,24.2L30.9,24.2L30.9,24.2
	C30.9,24.2,30.9,24.2,30.9,24.2S30.9,24.3,30.9,24.2L30.9,24.2z M27.9,22C27.9,22,27.9,22.1,27.9,22L27.9,22
	C27.9,22.1,27.9,22.1,27.9,22S27.9,22,27.9,22L27.9,22z M28.3,21.4L28.3,21.4L28.3,21.4L28.3,21.4z"/>
</svg>
