<svg id="Layer_1" data-name="Layer 1" xmlns="http://www.w3.org/2000/svg" viewBox="0 0 355 236.3"><defs><style>.cls-1{fill:#084d39;}.cls-2{fill:#b55567;}.cls-3{fill:#405940;}.cls-4{fill:#8dc68d;}.cls-5{fill:#282f2d;}.cls-6{fill:#f5b1be;}.cls-7{fill:#96d3e7;}.cls-8{fill:#ee7087;}.cls-9{fill:#f49f87;}.cls-10{fill:#959ebe;}.cls-11{fill:#fff;}.cls-12{fill:#f8d673;}.cls-13{fill:#f8d9e2;}.cls-14{fill:#e5e8f0;}</style></defs><title>logo.svg</title><path class="cls-1" d="M100.85,192.18a1.1,1.1,0,0,1-.24.68l-.47.66a1.9,1.9,0,0,1,.66-.05c.26,0,.42.08.45.24s-.63.63-2,1.36a.61.61,0,0,1-.5-.13.53.53,0,0,1-.26-.34c0-.1.08-.29.32-.58l.45-.55.18-.24a1.08,1.08,0,0,0,.26-.79l0-.08s0,0-.05,0a4.33,4.33,0,0,1-1,.71.39.39,0,0,1-.37-.11c-.08-.08-.16-.16-.16-.24s.13-.5.55-.81a2.27,2.27,0,0,1,.81-.5,1.38,1.38,0,0,1,.87.11,1,1,0,0,1,.55.6s0,0,0,.05S100.85,192.15,100.85,192.18Z"/><path class="cls-1" d="M102.92,190.87a10.63,10.63,0,0,1-.16,1.65,6,6,0,0,1-.24,1.52c-.1,0-.18,0-.29-.16a.81.81,0,0,1-.16-.34c0-.13-.05-.31-.1-.5s-.05-.42-.08-.68a7.57,7.57,0,0,0-.1-.76c-.05-.24-.08-.47-.13-.71a.36.36,0,0,1,0-.24.3.3,0,0,1,.08-.21.45.45,0,0,1,.16-.16.53.53,0,0,1,.21-.1c.29-.08.45,0,.5.13a1.68,1.68,0,0,0,.16.26A1.68,1.68,0,0,1,102.92,190.87Z"/><path class="cls-1" d="M106.26,188.9c.05.29-.11.66-.5,1.15l-1,1.18.71.34a.7.7,0,0,1,.37.47,1.88,1.88,0,0,1-.18,1.18,1.05,1.05,0,0,1-.79.71,1,1,0,0,1-.5-.08,1.49,1.49,0,0,1-.52-.21s.05-.16.26-.37a4.64,4.64,0,0,0,.58-.68,1,1,0,0,0,.26-.71s-.18,0-.55-.16-.58-.26-.6-.42a1.38,1.38,0,0,1,.45-1,8.5,8.5,0,0,0,.58-.73c.13-.21.26-.37.32-.47a.58.58,0,0,0,0-.21.14.14,0,0,0-.16-.11c-.05,0-.18.13-.37.34s-.31.34-.37.34a1.35,1.35,0,0,1-.45,0c-.21-.05-.31-.13-.34-.26s.13-.55.5-.84a2.54,2.54,0,0,1,.94-.44,1,1,0,0,1,.86.32A1.26,1.26,0,0,1,106.26,188.9Z"/><path class="cls-1" d="M107.88,191.16a.64.64,0,0,1-.16.42.75.75,0,0,1-.5.29c-.1,0-.21-.08-.34-.24a1.14,1.14,0,0,1-.18-.42,2,2,0,0,1,.18-.89c.16-.45.32-.68.5-.71s.18.08.34.24a2.6,2.6,0,0,1,.1.66,3.91,3.91,0,0,1,.05.45Z"/><path class="cls-1" d="M111.47,188.62a1.38,1.38,0,0,1-.32.58,5.74,5.74,0,0,0-.87,1.57,1.7,1.7,0,0,1,.52.76,2.44,2.44,0,0,1,.18.76,2.47,2.47,0,0,1-.32,1.26c-.24.5-.47.76-.73.76s-.55-.13-.84-.5a1.34,1.34,0,0,1-.37-.76,5.24,5.24,0,0,1,.18-1.36,3.18,3.18,0,0,1,.13-.37c.05-.13.13-.29.21-.47-.1,0-.16,0-.24,0h-.1l-.47.08a1.56,1.56,0,0,1,.34-.66c.1-.13.18-.18.26-.18a1.32,1.32,0,0,1,.5.08,6,6,0,0,1,.79-1.6c.21-.29.39-.45.6-.47a.38.38,0,0,1,.31.21A1.06,1.06,0,0,1,111.47,188.62Zm-1.13,3.28a4.66,4.66,0,0,0-.29-.66,2.68,2.68,0,0,0-.29.94,3.94,3.94,0,0,0-.05.52v.47a1,1,0,0,0,.05.31c.1-.13.21-.31.37-.52A2.19,2.19,0,0,0,110.34,191.9Z"/><path class="cls-1" d="M114.33,190.75V191a.38.38,0,0,1-.18.16l-.52.29c-.21.1-.42.24-.68.39-.45.26-.66.42-.66.42a.37.37,0,0,1-.31-.16.51.51,0,0,1-.08-.26c0-.21.18-.45.5-.68l.37-.21.37-.21a3.09,3.09,0,0,0-.47-.42c-.26-.18-.39-.37-.39-.5a.36.36,0,0,1,.13-.26.42.42,0,0,1,.21-.08,2.16,2.16,0,0,1,.71.37l.63.42A.47.47,0,0,1,114.33,190.75Z"/><path class="cls-1" d="M118.63,190.8v.39a2.06,2.06,0,0,1-.42,1.18,1,1,0,0,1-.89.39,1.93,1.93,0,0,1-.63-.39,3.13,3.13,0,0,1-.58-.52,2,2,0,0,0-.24.45,2.12,2.12,0,0,1-.16.34l-.11.21a.51.51,0,0,1-.42.26c-.21,0-.31-.26-.26-.76a6.33,6.33,0,0,1,.45-1.55c.32-.79.55-1.1.73-.86a.49.49,0,0,0,.24.11,2.88,2.88,0,0,0,.66-.1,2.94,2.94,0,0,1,.58-.1,1.29,1.29,0,0,1,.68.26A.87.87,0,0,1,118.63,190.8Zm-.89.1c0-.31-.05-.5-.26-.5a1.48,1.48,0,0,0-.6.13,1,1,0,0,0-.66.58,2.42,2.42,0,0,0,.13.21l.26.26a1.19,1.19,0,0,0,.45.29c.08,0,.21-.1.39-.34A2.07,2.07,0,0,0,117.74,190.91Z"/><path class="cls-1" d="M121.17,190.49a14.5,14.5,0,0,1-.74,1.49,6.9,6.9,0,0,1-.79,1.34.29.29,0,0,1-.21-.26.9.9,0,0,1,0-.37c0-.13.05-.31.11-.5s.11-.42.16-.66.13-.5.18-.73a6.71,6.71,0,0,0,.13-.71.42.42,0,0,1,.08-.24.24.24,0,0,1,.16-.16.53.53,0,0,1,.21-.1.36.36,0,0,1,.24,0c.29.05.45.13.42.29a.92.92,0,0,0,.05.31A1.41,1.41,0,0,1,121.17,190.49Z"/><path class="cls-1" d="M126,189.08a1.72,1.72,0,0,0-1.28.29,1.78,1.78,0,0,0-.34.31c-.13.16-.26.31-.45.5a8.2,8.2,0,0,0-1.47,2.8,1.09,1.09,0,0,1-.39.63.46.46,0,0,1-.39.1.6.6,0,0,1-.39-.29.57.57,0,0,1-.1-.45,6.51,6.51,0,0,1,.95-1.73,14.05,14.05,0,0,1,.87-1.13,10.21,10.21,0,0,1,.89-.94c.71-.65,1.26-.94,1.63-.86a.84.84,0,0,1,.55.39c.08.16.13.26.1.31S126.13,189.1,126,189.08Z"/><path class="cls-1" d="M125.29,192.46a.77.77,0,0,1-.31.34.69.69,0,0,1-.55.08c-.1,0-.18-.13-.21-.34a.72.72,0,0,1,0-.47,2.74,2.74,0,0,1,.47-.79q.47-.55.71-.47c.08,0,.16.16.24.34a2.86,2.86,0,0,1-.13.66c-.05.18-.08.31-.11.42S125.31,192.41,125.29,192.46Z"/><path class="cls-1" d="M129.59,191.28c-.08.29-.42.55-1,.79l-1.39.58.47.63a.64.64,0,0,1,.1.6,2,2,0,0,1-.71,1,1.07,1.07,0,0,1-1,.26,2.38,2.38,0,0,1-.42-.29c-.21-.18-.34-.31-.37-.42s.13-.1.39-.18.66-.24.84-.31a1.25,1.25,0,0,0,.58-.5s-.16-.11-.42-.39-.39-.5-.34-.66.39-.52.87-.73.63-.26.87-.37a2.51,2.51,0,0,0,.5-.29.28.28,0,0,0,.08-.18.14.14,0,0,0-.1-.16c-.05,0-.21,0-.47.13s-.42.16-.47.13a.73.73,0,0,1-.37-.24.4.4,0,0,1-.18-.39c.08-.26.37-.42.84-.5a2.28,2.28,0,0,1,1,.05,1.11,1.11,0,0,1,.63.66A2.17,2.17,0,0,1,129.59,191.28Z"/><path class="cls-2" d="M104,230v-1.28c0-.37,0-.73,0-1.1a3.9,3.9,0,0,1,.58-1.94h0a.71.71,0,0,1,.18-.21s.05,0,.1,0h0c.05,0,.08,0,.1,0l.05.05v0s0,.05-.05.08l0,0a.94.94,0,0,0-.18.26,4.1,4.1,0,0,0-.45,1.91,2.85,2.85,0,0,0,0,.47,5.11,5.11,0,0,1,.05.66,3.87,3.87,0,0,1,0,.55,5.05,5.05,0,0,0,0,.63v.26a.62.62,0,0,1-.05.21.55.55,0,0,1-.11.16s0,.05-.05.05,0-.05,0-.08a.37.37,0,0,1-.05-.16v-.37L104,230Z"/><path class="cls-2" d="M107.06,226.19q0-.39-.08-.87h.37a.09.09,0,0,1,.05,0s.05,0,.05.05l.05.05-.05.05-.05.05s0,0-.05,0-.08,0-.1.05v.18a1.14,1.14,0,0,0,0,.13l.08.52h0a.1.1,0,0,1,0,.08s0,.05-.05.08,0,.05-.05.08l-.05,0-.13-.08-.24-.24a4,4,0,0,0-.5-.45.31.31,0,0,0-.21-.11h0a.33.33,0,0,0-.13.24,3.07,3.07,0,0,0-.13.52.93.93,0,0,0-.05.26s0-.05-.05-.08a.17.17,0,0,1-.05-.13v-.1a1.73,1.73,0,0,1,0-.37.56.56,0,0,1,.26-.39.24.24,0,0,1,.13-.08h.08a.2.2,0,0,1,.13.05c.18.13.37.24.58.37C106.91,226.08,107,226.13,107.06,226.19Z"/><path class="cls-2" d="M111.05,223.17a1.79,1.79,0,0,0-.6-.13,1.2,1.2,0,0,0-1.08.79,11.62,11.62,0,0,0-.68,1.42,2.75,2.75,0,0,0-.13.79,2,2,0,0,1-.05.39.2.2,0,0,1,0,.1.84.84,0,0,1-.08.37.06.06,0,0,1-.05.05l-.08.05-.08.05s0-.05-.05-.05a.55.55,0,0,1-.1-.16v-.08a.1.1,0,0,1,0-.08.09.09,0,0,1,0-.05c.1,0,.16-.05.18-.1a.29.29,0,0,0,0-.13v-.21a6.8,6.8,0,0,1,1-2.62,1.82,1.82,0,0,1,.87-.73.91.91,0,0,1,.34-.08.2.2,0,0,1,.13,0C110.76,222.78,110.89,222.94,111.05,223.17Z"/><path class="cls-2" d="M109.92,227l-.08.34c-.08.31-.18.63-.26.92a.53.53,0,0,1-.11.21.09.09,0,0,1-.05,0h-.1v-.13c.08-.21.13-.42.21-.63a1.48,1.48,0,0,0,.08-.47,1.08,1.08,0,0,0,0-.29v0a.1.1,0,0,1,0-.08c0-.05,0-.08.05-.13s0-.05,0-.08h.1s0,0,0,0a.66.66,0,0,1,.1.18C109.89,227,109.89,227,109.92,227Zm.05-.94h0s-.05,0-.05-.05v0c0-.05,0-.08,0-.13a.2.2,0,0,1,0-.1v0c0-.05,0-.08.08-.13a.23.23,0,0,1,.16-.08.1.1,0,0,1,.08,0,.92.92,0,0,1,.21.13,1.88,1.88,0,0,1,.65.94c0,.05,0,.08,0,.13v.13a0,0,0,0,1,0,0l0,0h0a.1.1,0,0,1-.08,0s0,0-.05,0-.08-.16-.1-.24a2,2,0,0,0-.18-.42.65.65,0,0,0-.18-.24h-.08A.44.44,0,0,0,110,226.06Z"/><path class="cls-2" d="M114.53,226.25l0,0s0,0,0,.05v.16s0,0-.05,0h0s-.05,0-.1-.05a.36.36,0,0,1-.08-.1v-.1s0-.05.05-.08a1.61,1.61,0,0,1,.16-.1.2.2,0,0,1,.1,0,.33.33,0,0,1,.16,0,.43.43,0,0,1,.26.39v0s0,.05-.05.08-.05.05-.08.05h0s0,0-.05,0,0,0,0-.05,0-.08-.05-.1a.14.14,0,0,0-.05-.1l0,0a.09.09,0,0,0-.05,0S114.56,226.27,114.53,226.25Zm1.18,0v-.05a.8.8,0,0,0-.18-.52,1.11,1.11,0,0,0-.55-.42s-.08,0-.1-.05,0,0-.05,0,0,0,.05,0L115,225h.1a1,1,0,0,1,.65.52,1.66,1.66,0,0,1,.21.68,1.33,1.33,0,0,1-.05.34s0,0-.05.05-.05,0-.05.05a.09.09,0,0,0-.05,0s0,0,0-.05a.24.24,0,0,1,0-.13v0a.29.29,0,0,1,0-.13C115.69,226.32,115.71,226.27,115.71,226.22Z"/><path class="cls-2" d="M116.82,226.14h-.08a.2.2,0,0,1-.05-.1,2.17,2.17,0,0,1-.18-.34v0a.1.1,0,0,1,0-.08l.08-.13h.05l.08,0s.05,0,.05.05a2.42,2.42,0,0,1,.13.21.49.49,0,0,1,0,.31s0,.05-.05.08S116.84,226.12,116.82,226.14Z"/><path class="cls-2" d="M118.34,227.17a.43.43,0,0,1,.08-.16,1.28,1.28,0,0,1,.08-.18.45.45,0,0,0,0-.18.81.81,0,0,0-.05-.21.4.4,0,0,0-.26-.18.78.78,0,0,0-.26-.05c-.08,0-.18,0-.26-.05a.14.14,0,0,1-.13-.08.1.1,0,0,1,0-.08v-.05s.05-.05.08-.08a.24.24,0,0,1,.13,0h0l.71.08h.1a.36.36,0,0,0,.34-.18.1.1,0,0,0,0-.08v-.1s0-.05,0-.08a8.27,8.27,0,0,0-.86-.58.24.24,0,0,0-.13,0h-.05a1.14,1.14,0,0,1-.13,0s0,0-.05,0a.1.1,0,0,1-.08,0h0s-.05,0-.08-.05a.24.24,0,0,1,0-.13.1.1,0,0,1,0-.08s.05-.05.1-.08a.73.73,0,0,1,.24,0,1.32,1.32,0,0,1,.31.05,3.63,3.63,0,0,1,.86.53.63.63,0,0,1,.26.45.67.67,0,0,1-.29.47c-.05.05-.1.08-.13.13v.08a.29.29,0,0,0,0,.13,1.33,1.33,0,0,1,.05.24.3.3,0,0,1-.08.21.75.75,0,0,1-.34.24Z"/><path class="cls-2" d="M120.12,227c0-.16-.08-.31-.1-.47l-.24-1c0-.05,0-.1,0-.16a1.31,1.31,0,0,1,0-.73s0,0,0-.05a.14.14,0,0,1,.05-.1s0,0,.05,0,0,0,.05,0l.08.05a.14.14,0,0,1,.05.1s0,0,0,.05h0v.05a0,0,0,0,1,0,0c0,.08,0,.18,0,.26a1.65,1.65,0,0,0,.08.5c0,.05,0,.13.05.18a4.54,4.54,0,0,1,.08.84v.24c0,.05,0,.08-.08.13S120.12,227,120.12,227Z"/><path class="cls-2" d="M121,226.25l0,0s0,0,0,.05v.16s0,0-.05,0h0s-.05,0-.1-.05a.36.36,0,0,1-.08-.1v-.1s0-.05.05-.08a1.61,1.61,0,0,1,.16-.1.2.2,0,0,1,.1,0,.33.33,0,0,1,.16,0,.43.43,0,0,1,.26.39v0s0,.05-.05.08-.05.05-.08.05h0s0,0-.05,0,0,0,0-.05,0-.08-.05-.1a.14.14,0,0,0-.05-.1l0,0a.09.09,0,0,0-.05,0S121.06,226.28,121,226.25Zm1.18,0v-.05a.8.8,0,0,0-.18-.52,1.11,1.11,0,0,0-.55-.42s-.08,0-.1-.05,0,0-.05,0,0,0,.05,0l.13-.08h.1a1,1,0,0,1,.65.52,1.66,1.66,0,0,1,.21.68,1.33,1.33,0,0,1-.05.34s0,0-.05.05-.05,0-.05.05a.09.09,0,0,0-.05,0s0,0,0-.05a.24.24,0,0,1,0-.13v0a.29.29,0,0,1,0-.13A.33.33,0,0,1,122.22,226.23Z"/><path class="cls-3" d="M106.33,229a.59.59,0,0,1,.31.13l.26.26a.66.66,0,0,1,.18.45.76.76,0,0,1-.21.47,1,1,0,0,1-.6.29c-.08,0-.13,0-.18,0a.9.9,0,0,1-.47-.11.59.59,0,0,1-.37-.58.73.73,0,0,1,0-.24,1,1,0,0,1,.58-.71.91.91,0,0,1,.31-.08.14.14,0,0,1,.16.11Zm-.32,1.42a1.15,1.15,0,0,0,.55-.18.67.67,0,0,0,.31-.42v0a.5.5,0,0,0-.24-.42,1.36,1.36,0,0,0-.6-.18c-.39,0-.6.21-.66.65v0a.55.55,0,0,0,.63.55Z"/><path class="cls-3" d="M108,228.76a.52.52,0,0,1,.31-.21,1.11,1.11,0,0,1,.29-.05h.16a3.67,3.67,0,0,1,.89.13,19428.08,19428.08,0,0,0,.05.05s.05,0,.1.05a2.89,2.89,0,0,1-.47.05,1.55,1.55,0,0,1-.37-.05.65.65,0,0,0-.21,0,1,1,0,0,0-.66.26.72.72,0,0,0,.5.26,2.05,2.05,0,0,1,.92.47.38.38,0,0,1,.16.24.37.37,0,0,1,.05.16.32.32,0,0,1-.16.26.81.81,0,0,1-.34.16,2.05,2.05,0,0,1-.68.1,2.24,2.24,0,0,1-.81-.16l-.16-.08a.16.16,0,0,1-.08-.16.81.81,0,0,0,.21.05,3.83,3.83,0,0,0,.52.13l.16,0h.16l.47-.05h0l.18,0c.18-.08.26-.16.26-.26a.55.55,0,0,0-.13-.29,1.19,1.19,0,0,0-.5-.29l-.58-.18a.37.37,0,0,0-.16-.05.57.57,0,0,1-.13-.08c-.05-.05-.1-.1-.1-.16a.23.23,0,0,1,.11-.18v-.1Z"/><path class="cls-3" d="M111.73,230.62h0a.28.28,0,0,1-.16-.05c-.05,0-.08-.1-.1-.18a1.13,1.13,0,0,1-.05-.31c0-.1,0-.24,0-.34v-.39a1.9,1.9,0,0,1-.24.29.82.82,0,0,1-.24.18.35.35,0,0,1-.21.05.81.81,0,0,1-.21-.05c-.08,0-.16-.13-.21-.31a7.26,7.26,0,0,1-.31-1.08h0v-.16a.29.29,0,0,1,.05-.1h0a.2.2,0,0,1,0,.08.08.08,0,0,0,0,.05.14.14,0,0,0,.1.05.1.1,0,0,1,.08.05l.08.34a2,2,0,0,0,.1.42,1.6,1.6,0,0,1,.13.31,1.79,1.79,0,0,1,.13.18c.08-.08.13-.1.18-.16a3.14,3.14,0,0,0,.31-.29c.08-.13.16-.26.24-.42l.16-.29c0-.05.08-.08.13-.13l.05.18h0a3.71,3.71,0,0,1-.11.52c0,.05,0,.13,0,.18s0,.05,0,.1,0,.08,0,.13a1.55,1.55,0,0,0,.16.87.24.24,0,0,1,.08.13C111.78,230.6,111.78,230.62,111.73,230.62Z"/><path class="cls-3" d="M112.93,228.34a.27.27,0,0,0,.1,0,.44.44,0,0,1,.26.18.69.69,0,0,1,.16.34,2,2,0,0,1,.05.39,3.68,3.68,0,0,1-.05.47c-.05.18-.08.26-.05.29a.63.63,0,0,0,.18.08,2.45,2.45,0,0,1,.39.21,1.14,1.14,0,0,1,.18.16l.05.05a.09.09,0,0,1,0,.05v.1h-.05s-.05,0-.05,0,0,0-.05,0a.78.78,0,0,0-.37-.26.49.49,0,0,0-.18-.05.34.34,0,0,0-.39.1,2.05,2.05,0,0,1-.39.26l-.08,0a.51.51,0,0,1-.21,0h0c-.05,0-.1-.05-.13-.13v-.05a.44.44,0,0,1,.05-.13.26.26,0,0,1,.1-.13,2,2,0,0,1,.47-.18.56.56,0,0,0,.34-.42.69.69,0,0,1,0-.18,1,1,0,0,0,0-.39.66.66,0,0,0-.29-.52l-.24-.08c-.08,0-.1,0-.13-.05a.05.05,0,0,1,0-.1C112.65,228.29,112.75,228.29,112.93,228.34Z"/><path class="cls-3" d="M114.56,229.68a4.36,4.36,0,0,0,.84-1.13l0-.05a1.54,1.54,0,0,1,.47-.66c0,.08,0,.13,0,.18a1,1,0,0,1,0,.26v0c0,.39-.05.79-.11,1.18l-.08.31c0,.08-.05.16-.08.26v.05a.33.33,0,0,0,0,.16v.08c0,.05.05.08.16.13v.05a.1.1,0,0,1,0,.08s0,.05,0,.08l0,0h-.08s-.08-.05-.1-.1a.28.28,0,0,1-.05-.16v-.05a3.3,3.3,0,0,1,.13-.87,4.07,4.07,0,0,0,.11-.55c0-.16,0-.31.05-.47s0-.16,0-.24,0,.05-.05.08a.36.36,0,0,1-.08.1,4.38,4.38,0,0,1-.87,1.23.57.57,0,0,1-.13.08l-.08,0a.17.17,0,0,1-.05-.13Z"/><path class="cls-3" d="M118.15,230.63h0a.28.28,0,0,1-.16-.05c-.05,0-.08-.1-.1-.18a1.13,1.13,0,0,1-.05-.31c0-.1,0-.24,0-.34v-.39a1.9,1.9,0,0,1-.24.29.82.82,0,0,1-.24.18.35.35,0,0,1-.21.05.81.81,0,0,1-.21-.05c-.08,0-.16-.13-.21-.31a7.26,7.26,0,0,1-.31-1.08h0v-.16a.29.29,0,0,1,.05-.1h0a.2.2,0,0,1,0,.08.08.08,0,0,0,0,.05.14.14,0,0,0,.1.05.1.1,0,0,1,.08.05l.08.34a2,2,0,0,0,.1.42,1.6,1.6,0,0,1,.13.31,1.79,1.79,0,0,1,.13.18c.08-.08.13-.1.18-.16a3.14,3.14,0,0,0,.31-.29c.08-.13.16-.26.24-.42l.16-.29c0-.05.08-.08.13-.13l.05.18h0a3.71,3.71,0,0,1-.11.52c0,.05,0,.13,0,.18s0,.05,0,.1,0,.08,0,.13a1.55,1.55,0,0,0,.16.87.24.24,0,0,1,.08.13C118.2,230.6,118.18,230.63,118.15,230.63Z"/><path class="cls-3" d="M121,228.09s0,0-.05,0l-.08.05a2.25,2.25,0,0,0-.79.6,5.79,5.79,0,0,0-.87,1.23,2.31,2.31,0,0,0-.13.39v.05a.28.28,0,0,0,.05.16.1.1,0,0,0,.08,0,.2.2,0,0,0,.1-.05,0,0,0,0,0,0,0l.79-.55a.26.26,0,0,0,.1-.13l.08-.16v-.05c0-.05,0-.08-.05-.13s-.08-.05-.13-.05H120a.82.82,0,0,0-.26.13l-.05,0-.08.08s-.05,0-.05.05h-.08a.09.09,0,0,1,0-.05v-.05s0-.05,0-.08a.06.06,0,0,1,.05-.05,1.24,1.24,0,0,1,.52-.26h.05c.24,0,.37.11.37.34v.1a1,1,0,0,1-.37.58,3.67,3.67,0,0,1-.68.42.35.35,0,0,1-.21.08h-.05a.28.28,0,0,1-.18-.08.46.46,0,0,1-.16-.34.33.33,0,0,1,0-.16,2.23,2.23,0,0,1,.24-.58l.08-.1a5.29,5.29,0,0,1,.89-1.1,6,6,0,0,1,.5-.37l.13-.08a.24.24,0,0,1,.13,0h.08a.35.35,0,0,1,0,.13Zm.24-.05h-.08s0,0,0-.05a0,0,0,0,0,0,0h.13a0,0,0,0,1,0,0v0s0,0,0,0Z"/><path class="cls-3" d="M121.06,229.69a4.36,4.36,0,0,0,.84-1.13l0-.05a1.54,1.54,0,0,1,.47-.66c0,.08,0,.13,0,.18a1,1,0,0,1,0,.26v0c0,.39-.05.79-.11,1.18l-.08.31c0,.08-.05.16-.08.26v.05a.33.33,0,0,0,0,.16v.08c0,.05.05.08.16.13v.05a.1.1,0,0,1,0,.08s0,.05,0,.08l0,0h-.08s-.08-.05-.1-.1a.28.28,0,0,1-.05-.16v-.05a3.3,3.3,0,0,1,.13-.87,4.07,4.07,0,0,0,.11-.55c0-.16,0-.31.05-.47s0-.16,0-.24,0,.05-.05.08a.36.36,0,0,1-.08.1,4.38,4.38,0,0,1-.87,1.23.57.57,0,0,1-.13.08l-.08,0a.17.17,0,0,1-.05-.13Z"/><path class="cls-3" d="M123.58,228.35a.27.27,0,0,0,.1,0,.44.44,0,0,1,.26.18.69.69,0,0,1,.16.34,2,2,0,0,1,.05.39,3.68,3.68,0,0,1-.05.47c-.05.18-.08.26-.05.29a.63.63,0,0,0,.18.08,2.45,2.45,0,0,1,.39.21,1.14,1.14,0,0,1,.18.16l.05.05a.09.09,0,0,1,0,.05v.1h-.05s-.05,0-.05,0,0,0-.05,0a.78.78,0,0,0-.37-.26.49.49,0,0,0-.18-.05.34.34,0,0,0-.39.1,2.05,2.05,0,0,1-.39.26l-.08,0a.51.51,0,0,1-.21,0h0c-.05,0-.1-.05-.13-.13v-.05a.44.44,0,0,1,.05-.13.26.26,0,0,1,.1-.13,2,2,0,0,1,.47-.18.56.56,0,0,0,.34-.42.69.69,0,0,1,0-.18,1,1,0,0,0,0-.39.66.66,0,0,0-.29-.52l-.24-.08c-.08,0-.1,0-.13-.05a.05.05,0,0,1,0-.1C123.29,228.3,123.39,228.3,123.58,228.35Z"/><path class="cls-3" d="M126.93,230.06q0,.12-.31.31s-.05,0-.1.05a1.25,1.25,0,0,1-1.34-.08s0,0-.05-.05v-.05h0v-.05h0a0,0,0,0,1,0,0l0,0a1.09,1.09,0,0,0,.52.16,1,1,0,0,0,.24,0,3.4,3.4,0,0,0,.5-.16c.13-.05.21-.13.21-.24h0a.36.36,0,0,0-.16-.29,1.29,1.29,0,0,0-.73-.24,1.53,1.53,0,0,0-.34.05l-.08,0a.1.1,0,0,1-.08,0s-.05,0-.05,0-.05,0-.05-.05,0,0,0-.05h0s0,0,.05,0h0c.13,0,.24-.08.37-.1l.58-.16a.55.55,0,0,0,.16-.1,1,1,0,0,0,.1-.08.36.36,0,0,0-.08-.1.7.7,0,0,0-.13-.16,1.22,1.22,0,0,0-.26-.13.82.82,0,0,1-.26-.13l-.08-.08a.16.16,0,0,1,0-.1s0-.05.05-.08a.16.16,0,0,1,.1,0h0c.05,0,.08,0,.08,0a.7.7,0,0,0,.16.13l.18.08a.54.54,0,0,1,.26.16.14.14,0,0,0,.1.05.09.09,0,0,1,.05,0q.16.08.16.16h0c0,.05,0,.1-.11.21a1.06,1.06,0,0,1-.39.29l.31.08.13.08a.57.57,0,0,1,.1.13c.05.05.08.1.1.13a.22.22,0,0,1,.05.16A.4.4,0,0,0,126.93,230.06Z"/><path class="cls-4" d="M90,214.22l-.18-.37a6.43,6.43,0,0,1-.42-1.73,2.29,2.29,0,0,0-.05-.42,2.86,2.86,0,0,1,.16-1.42.59.59,0,0,1,.47-.45,1.06,1.06,0,0,1,.13.24,7.36,7.36,0,0,1,.21.81,5.75,5.75,0,0,1-.21,3.12s0,.08-.05.1Z"/><path class="cls-4" d="M90.32,215.11a2.2,2.2,0,0,1-.05-.26,3.48,3.48,0,0,1,.92-1.73,1.54,1.54,0,0,1,1.15-.37c.29,0,.37.11.37.39a.68.68,0,0,1-.11.39,1.86,1.86,0,0,1-.26.37,3.66,3.66,0,0,1-1.29.89C90.84,214.9,90.61,215,90.32,215.11Z"/><path class="cls-4" d="M87.25,212.33a.92.92,0,0,1,.6.26,12.5,12.5,0,0,1,1.7,1.63.94.94,0,0,1,.29.58c0,.08.08.13.1.21s.05.16.08.26a1.67,1.67,0,0,1-.58-.16,4.54,4.54,0,0,1-2-2A.93.93,0,0,1,87.25,212.33Z"/><path class="cls-4" d="M90.63,218a5.53,5.53,0,0,1-1-.26,5.82,5.82,0,0,1-1.55-.81,2.26,2.26,0,0,1-.34-.37c-.05-.05,0-.16-.05-.24a.91.91,0,0,1,.73-.05c.5.18,1,.39,1.44.6A1.45,1.45,0,0,1,90.63,218Z"/><path class="cls-4" d="M95.61,218.84a3.73,3.73,0,0,1-.34,2.94.61.61,0,0,1-.47-.55,3.67,3.67,0,0,1,0-1.31,1.67,1.67,0,0,1,.66-1l.08-.05Z"/><path class="cls-4" d="M92.68,215.48a.78.78,0,0,1-.13.68,2,2,0,0,1-.29.34,10.15,10.15,0,0,0-1,1.07l-.1.1a.15.15,0,0,1-.16-.16,2.23,2.23,0,0,1,.13-1.23,1.18,1.18,0,0,1,.55-.58,3.29,3.29,0,0,1,.66-.24A.42.42,0,0,1,92.68,215.48Z"/><path class="cls-4" d="M94.22,217.23v.58a1.3,1.3,0,0,1-.18.71,4.91,4.91,0,0,1-1.1,1.44.1.1,0,0,1-.08,0c-.08,0-.08-.08-.1-.16a2.09,2.09,0,0,1,.37-1.57c.21-.26.42-.55.66-.81a1.52,1.52,0,0,1,.31-.26A.2.2,0,0,0,94.22,217.23Z"/><path class="cls-4" d="M92,220.27c-.34.05-.6.1-.87.13a4.78,4.78,0,0,1-1.49-.08c-.16,0-.21-.11-.21-.26a1.12,1.12,0,0,1,.05-.29.5.5,0,0,1,.58-.37l.37.08a6.26,6.26,0,0,1,1.36.58A.79.79,0,0,0,92,220.27Z"/><path class="cls-4" d="M94.19,222V222a2.48,2.48,0,0,1-1.47.5h-.5a.7.7,0,0,1-.31-.08c-.05,0-.08-.08-.1-.1a.43.43,0,0,1,.24-.55.67.67,0,0,1,.31-.05l1.44.11Z"/><path class="cls-5" d="M93,220.51a5,5,0,0,0,1.52,1.08,3.12,3.12,0,0,1-.18-1.36,2,2,0,0,1,.81-1.6,1.59,1.59,0,0,1,.26-.18.3.3,0,0,1,.45.11.81.81,0,0,1,.16.34,4.53,4.53,0,0,1,0,1.78,5.62,5.62,0,0,1-.47,1.42,3.55,3.55,0,0,0,1.13.37,2.18,2.18,0,0,1,.39.11c.1,0,.18.13.16.21a.23.23,0,0,1-.21.16.58.58,0,0,1-.21,0,6.45,6.45,0,0,1-1.39-.39l-.71-.29c-.24.1-.47.21-.71.34a3.32,3.32,0,0,1-1.94.37H92c-.71-.16-.71-.34-.63-1a.55.55,0,0,1,.29-.39,1,1,0,0,1,.68-.16l.73.08h.29c-.05-.08-.05-.13-.1-.16s-.29-.24-.42-.37a.84.84,0,0,0-.76-.26l-.79.1a6.33,6.33,0,0,1-1.86,0,.58.58,0,0,1-.52-.68,2.49,2.49,0,0,1,.11-.47.82.82,0,0,1,1.08-.52c.37.11.71.26,1,.39a.53.53,0,0,0,.34.11v-.08c-.16-.29-.34-.58-.5-.87,0,0,0-.05-.05-.08a1.06,1.06,0,0,0-.24-.13l-1-.24a6.35,6.35,0,0,1-1.36-.6c-.18-.11-.34-.24-.52-.34a1.67,1.67,0,0,1-.5-.55.53.53,0,0,1,.5-.81,2.12,2.12,0,0,1,.81.13l1.18.5a1.81,1.81,0,0,1,.26.11,7.06,7.06,0,0,0-.13-.84l-.26-.11a3.19,3.19,0,0,1-1.15-.58A5,5,0,0,1,87,213.35a1.73,1.73,0,0,1-.21-1.08.37.37,0,0,1,.47-.37,1.38,1.38,0,0,1,.63.29c.21.16.39.34.6.52l.6.52a.84.84,0,0,0,.18.11,3.74,3.74,0,0,1-.08-.42c-.08-.52-.16-1-.21-1.57A2.91,2.91,0,0,1,89.3,210a1.09,1.09,0,0,1,.68-.55.22.22,0,0,1,.29.11,1.44,1.44,0,0,1,.21.39,6.82,6.82,0,0,1,.26,1,8.78,8.78,0,0,1,.1,1.86c.1.08.16,0,.24-.05a2,2,0,0,1,1.34-.39,1.12,1.12,0,0,1,.29.05.54.54,0,0,1,.39.39,1.18,1.18,0,0,1-.11.89,3.49,3.49,0,0,1-.37.5,4.49,4.49,0,0,1-1.55,1l-.66.26a1.64,1.64,0,0,0,.18.94c.1-.05.11-.16.13-.24a1.51,1.51,0,0,1,.73-.86,2.86,2.86,0,0,1,.94-.31.54.54,0,0,1,.29,0,.48.48,0,0,1,.45.47,1.18,1.18,0,0,1-.29.92,3.19,3.19,0,0,1-.39.45,12,12,0,0,0-1,1,2.75,2.75,0,0,0-.21.29,9.13,9.13,0,0,0,.79,1.31,1,1,0,0,0,.29.29c.1-.05.08-.13.08-.18v-.37a1.76,1.76,0,0,1,.16-.73,4.46,4.46,0,0,1,1.34-1.62.92.92,0,0,1,.21-.13.29.29,0,0,1,.42.21.33.33,0,0,1,0,.16c0,.37,0,.73,0,1.07a2.07,2.07,0,0,1-.29.76,5.77,5.77,0,0,1-1,1.34c-.05,0-.08.08-.1.1S93.07,220.43,93,220.51Zm-3-6.3c.05-.08.08-.1.08-.13s0-.08.05-.1a5.74,5.74,0,0,0,.21-3.12c-.05-.26-.13-.55-.21-.81a1.06,1.06,0,0,0-.13-.24.59.59,0,0,0-.47.45,2.93,2.93,0,0,0-.16,1.42c0,.13,0,.26.05.42a5.58,5.58,0,0,0,.42,1.73A1,1,0,0,0,90,214.22Zm.31.89c.29-.1.52-.21.76-.29a4.9,4.9,0,0,0,1.29-.89,1.86,1.86,0,0,0,.26-.37.74.74,0,0,0,.11-.39c0-.29-.08-.37-.37-.39a1.54,1.54,0,0,0-1.15.37,3.48,3.48,0,0,0-.92,1.73S90.29,215,90.32,215.11Zm-3.07-2.78a1,1,0,0,0,.13.73,4.54,4.54,0,0,0,2,2,1.86,1.86,0,0,0,.58.16c0-.1-.05-.18-.08-.26s-.1-.16-.1-.21a.7.7,0,0,0-.29-.58,11.09,11.09,0,0,0-1.7-1.63A.75.75,0,0,0,87.25,212.33ZM90.63,218a1.35,1.35,0,0,0-.73-1.08c-.47-.21-1-.42-1.44-.6a.91.91,0,0,0-.73.05c0,.08,0,.18.05.24a2.26,2.26,0,0,0,.34.37,5.82,5.82,0,0,0,1.55.81A8.16,8.16,0,0,1,90.63,218Zm5,.84h-.08s-.05,0-.08.05a1.67,1.67,0,0,0-.66,1,3.16,3.16,0,0,0,0,1.31.59.59,0,0,0,.47.55A3.72,3.72,0,0,0,95.61,218.84Zm-2.93-3.36a.52.52,0,0,0-.39,0,4.83,4.83,0,0,0-.66.24,1.08,1.08,0,0,0-.55.58,2.2,2.2,0,0,0-.13,1.23.14.14,0,0,0,.16.16s.08-.05.1-.1a10.15,10.15,0,0,1,1-1.07,3.32,3.32,0,0,0,.29-.34A.65.65,0,0,0,92.68,215.48Zm1.55,1.76c-.05,0-.1,0-.13,0a1.52,1.52,0,0,0-.31.26c-.24.26-.42.52-.66.81a2.09,2.09,0,0,0-.37,1.57.13.13,0,0,0,.1.16l.08,0a4.91,4.91,0,0,0,1.1-1.44,1.36,1.36,0,0,0,.18-.71Zm-2.26,3c-.1-.08-.13-.13-.21-.16a6.86,6.86,0,0,0-1.36-.58,1.84,1.84,0,0,0-.37-.08.5.5,0,0,0-.58.37.94.94,0,0,0-.05.29c0,.16.05.24.21.26a4.78,4.78,0,0,0,1.49.08A6.2,6.2,0,0,1,92,220.27ZM94.19,222l-.39-.11c-.47-.05-1-.08-1.44-.11a1.32,1.32,0,0,0-.31.05.39.39,0,0,0-.24.55c0,.05.05.1.1.1l.31.08h.5a2.48,2.48,0,0,0,1.47-.5S94.17,222,94.19,222Z"/><path class="cls-4" d="M136.65,214.26l.18-.37a6.43,6.43,0,0,0,.42-1.73,2.29,2.29,0,0,1,.05-.42,2.86,2.86,0,0,0-.16-1.42.59.59,0,0,0-.47-.45,1.06,1.06,0,0,0-.13.24,7.36,7.36,0,0,0-.21.81,5.75,5.75,0,0,0,.21,3.12s0,.08.05.1Z"/><path class="cls-4" d="M136.33,215.15a2.2,2.2,0,0,0,.05-.26,3.48,3.48,0,0,0-.92-1.73,1.54,1.54,0,0,0-1.15-.37c-.29,0-.37.1-.37.39a.68.68,0,0,0,.1.39,1.86,1.86,0,0,0,.26.37,3.66,3.66,0,0,0,1.28.89C135.81,214.94,136,215,136.33,215.15Z"/><path class="cls-4" d="M139.43,212.37a.92.92,0,0,0-.6.26,12.5,12.5,0,0,0-1.71,1.62.94.94,0,0,0-.29.58c0,.08-.08.13-.11.21s-.05.16-.08.26a1.67,1.67,0,0,0,.58-.16,4.54,4.54,0,0,0,2-2A1.21,1.21,0,0,0,139.43,212.37Z"/><path class="cls-4" d="M136,218a5.53,5.53,0,0,0,1-.26,5.82,5.82,0,0,0,1.55-.81,2.26,2.26,0,0,0,.34-.37c.05-.05,0-.16.05-.24a.91.91,0,0,0-.73-.05c-.5.18-1,.39-1.44.6A1.52,1.52,0,0,0,136,218Z"/><path class="cls-4" d="M131,218.87a3.73,3.73,0,0,0,.34,2.94.61.61,0,0,0,.47-.55,3.67,3.67,0,0,0,0-1.31,1.67,1.67,0,0,0-.65-1l-.08-.05Z"/><path class="cls-4" d="M134,215.51a.78.78,0,0,0,.13.68,2,2,0,0,0,.29.34,10.15,10.15,0,0,1,1,1.08l.1.1a.15.15,0,0,0,.16-.16,2.23,2.23,0,0,0-.13-1.23,1.18,1.18,0,0,0-.55-.58,3.29,3.29,0,0,0-.66-.24A.41.41,0,0,0,134,215.51Z"/><path class="cls-4" d="M132.45,217.27v.58a1.3,1.3,0,0,0,.18.71,4.91,4.91,0,0,0,1.1,1.44.1.1,0,0,0,.08,0c.08,0,.08-.08.11-.16a2.09,2.09,0,0,0-.37-1.57c-.21-.26-.42-.55-.65-.81a1.52,1.52,0,0,0-.31-.26A.2.2,0,0,1,132.45,217.27Z"/><path class="cls-4" d="M134.7,220.31c.34.05.6.11.87.13a4.78,4.78,0,0,0,1.49-.08c.16,0,.21-.1.21-.26a1.12,1.12,0,0,0-.05-.29.5.5,0,0,0-.58-.37l-.37.08a6.26,6.26,0,0,0-1.36.58Z"/><path class="cls-4" d="M132.47,222v.08a2.48,2.48,0,0,0,1.47.5h.5a.7.7,0,0,0,.31-.08c.05,0,.08-.08.1-.1a.43.43,0,0,0-.24-.55.67.67,0,0,0-.31-.05l-1.44.1A4.05,4.05,0,0,0,132.47,222Z"/><path class="cls-5" d="M133.57,220.44c0-.05-.08-.08-.1-.1a5.77,5.77,0,0,1-1-1.34,2.07,2.07,0,0,1-.29-.76c0-.37,0-.71,0-1.07,0-.05,0-.1,0-.16a.3.3,0,0,1,.42-.21.57.57,0,0,1,.21.13,4.46,4.46,0,0,1,1.34,1.63,1.38,1.38,0,0,1,.16.73v.37c0,.05,0,.13.08.18a.61.61,0,0,0,.29-.29,9.64,9.64,0,0,0,.79-1.31,2.75,2.75,0,0,0-.21-.29,12,12,0,0,0-1-1,3.19,3.19,0,0,1-.39-.45,1.29,1.29,0,0,1-.29-.92.48.48,0,0,1,.45-.47h.29a2.86,2.86,0,0,1,.94.32,1.69,1.69,0,0,1,.73.87c0,.08,0,.18.13.24a1.64,1.64,0,0,0,.18-.94c-.21-.08-.42-.18-.66-.26a4.16,4.16,0,0,1-1.55-1.05,2.22,2.22,0,0,1-.37-.5,1.18,1.18,0,0,1-.1-.89.51.51,0,0,1,.39-.39,1.11,1.11,0,0,1,.29-.05,1.77,1.77,0,0,1,1.34.39c.05.05.1.13.24.05A6.36,6.36,0,0,1,136,211a7.67,7.67,0,0,1,.26-1,2.87,2.87,0,0,1,.21-.39.26.26,0,0,1,.29-.1,1,1,0,0,1,.68.55,2.61,2.61,0,0,1,.26,1.34c-.05.52-.13,1-.21,1.57,0,.13-.05.24-.08.42l.18-.1.6-.52.6-.52a1.38,1.38,0,0,1,.63-.29.36.36,0,0,1,.47.37,2.14,2.14,0,0,1-.21,1.07,5,5,0,0,1-1.55,1.76,3,3,0,0,1-1.15.58l-.26.1a4.65,4.65,0,0,0-.13.84,1.81,1.81,0,0,1,.26-.1L138,216a1.72,1.72,0,0,1,.81-.13.55.55,0,0,1,.5.81,1.27,1.27,0,0,1-.5.55,3.6,3.6,0,0,1-.52.34,7,7,0,0,1-1.36.6l-1,.24a1.06,1.06,0,0,0-.24.13s0,.05-.05.08c-.16.29-.34.58-.5.86v.08c.13,0,.24-.08.34-.1.34-.13.68-.29,1-.39a.82.82,0,0,1,1.07.53,1.53,1.53,0,0,1,.1.47.62.62,0,0,1-.52.68,5.55,5.55,0,0,1-1.86,0c-.26-.05-.52-.08-.79-.11a.84.84,0,0,0-.76.26c-.13.13-.26.24-.42.37a1.55,1.55,0,0,0-.11.16h.29l.73-.08a1.05,1.05,0,0,1,.68.16.55.55,0,0,1,.29.39c.08.63.05.81-.63,1h-.08a3.13,3.13,0,0,1-1.94-.37c-.24-.13-.47-.24-.71-.34l-.71.29a6.45,6.45,0,0,1-1.39.39l-.21,0c-.1,0-.21-.08-.21-.16a.17.17,0,0,1,.16-.21,2.18,2.18,0,0,1,.39-.1,3.78,3.78,0,0,0,1.13-.37,6.91,6.91,0,0,1-.47-1.42,3.73,3.73,0,0,1,0-1.78.81.81,0,0,1,.16-.34.33.33,0,0,1,.45-.1.94.94,0,0,1,.26.18,1.94,1.94,0,0,1,.81,1.6,3.12,3.12,0,0,1-.18,1.36,6.58,6.58,0,0,0,1.52-1.07C133.57,220.47,133.57,220.44,133.57,220.44Zm3.28-6.58a6.43,6.43,0,0,0,.42-1.73,2.29,2.29,0,0,1,.05-.42,2.86,2.86,0,0,0-.16-1.42.59.59,0,0,0-.47-.45,1.06,1.06,0,0,0-.13.24,7.36,7.36,0,0,0-.21.81,5.75,5.75,0,0,0,.21,3.12s0,.08.05.1,0,.05.08.13A1.76,1.76,0,0,1,136.86,213.86Zm-.47,1a3.48,3.48,0,0,0-.92-1.73,1.54,1.54,0,0,0-1.15-.37c-.29,0-.37.1-.37.39a.68.68,0,0,0,.1.39,1.86,1.86,0,0,0,.26.37,3.66,3.66,0,0,0,1.28.89c.24.11.47.18.76.29C136.36,215,136.38,214.94,136.38,214.86Zm2.44-2.25a12.5,12.5,0,0,0-1.71,1.62.94.94,0,0,0-.29.58c0,.08-.08.13-.11.21s-.05.16-.08.26a1.67,1.67,0,0,0,.58-.16,4.54,4.54,0,0,0,2-2,1.41,1.41,0,0,0,.13-.73A1.07,1.07,0,0,0,138.82,212.61ZM137,217.77a5.82,5.82,0,0,0,1.55-.81,2.26,2.26,0,0,0,.34-.37c.05-.05,0-.16.05-.24a.91.91,0,0,0-.73-.05c-.5.18-1,.39-1.44.6A1.46,1.46,0,0,0,136,218,5.79,5.79,0,0,0,137,217.77Zm-5.61,4a.61.61,0,0,0,.47-.55,3.67,3.67,0,0,0,0-1.31,1.67,1.67,0,0,0-.65-1l-.08-.05h-.08A3.62,3.62,0,0,0,131.4,221.8Zm2.71-5.61a2,2,0,0,0,.29.34,10.15,10.15,0,0,1,1,1.08l.1.1a.15.15,0,0,0,.16-.16,2.23,2.23,0,0,0-.13-1.23,1.18,1.18,0,0,0-.55-.58,3.29,3.29,0,0,0-.66-.24.52.52,0,0,0-.39,0A.67.67,0,0,0,134.1,216.19Zm-1.65,1.65a1.3,1.3,0,0,0,.18.71,4.91,4.91,0,0,0,1.1,1.44.1.1,0,0,0,.08,0c.08,0,.08-.08.11-.16a2.09,2.09,0,0,0-.37-1.57c-.21-.26-.42-.55-.65-.81a1.52,1.52,0,0,0-.31-.26s-.08,0-.13,0A5,5,0,0,0,132.45,217.84Zm3.12,2.6a4.78,4.78,0,0,0,1.49-.08c.16,0,.21-.1.21-.26a1.12,1.12,0,0,0-.05-.29.5.5,0,0,0-.58-.37l-.37.08a6.26,6.26,0,0,0-1.36.58,2.09,2.09,0,0,0-.21.16A4,4,0,0,0,135.57,220.44Zm-3.1,1.62a2.48,2.48,0,0,0,1.47.5h.5a.7.7,0,0,0,.31-.08c.05,0,.08-.08.1-.1a.43.43,0,0,0-.24-.55.67.67,0,0,0-.31-.05l-1.44.1a2.18,2.18,0,0,0-.39.1Z"/><path class="cls-6" d="M105.48,204.11a6.5,6.5,0,0,1,1.7-.71c.26-.08.52-.13.76-.21a6,6,0,0,1,1.78-.37c.29,0,.58-.08.87-.13l1.21-.16a1.48,1.48,0,0,1,.34,0h4.09c.29,0,.58.05.89.08l.5,0h1.52a19.54,19.54,0,0,1,2.78.19,2,2,0,0,0,.39,0,9.65,9.65,0,0,1,2.44.26c.34.08.71.08,1.07.13l1,.13a1.41,1.41,0,0,1,.94.66,1.45,1.45,0,0,1,.31.87c0,.08,0,.18,0,.24-.18.21-.11.42-.08.66,0,.45.08.89.08,1.31,0,.81,0,1.65.08,2.46a5.93,5.93,0,0,1,0,.68l.08,1.42c0,.18,0,.37,0,.55,0,1.15,0,2.28,0,3.43a2.32,2.32,0,0,0,.05.73.36.36,0,0,1,0,.24c0,1,0,2-.06,3a2.48,2.48,0,0,1-.13.87c-.08.21-.18.34-.45.31a4.52,4.52,0,0,0-1.15.23,5.53,5.53,0,0,1-1.6.16,5.09,5.09,0,0,1-.63-.05,5.93,5.93,0,0,0-.68,0,1.48,1.48,0,0,1-.34,0,2.71,2.71,0,0,0-.92-.05,8.88,8.88,0,0,0-1.18.05,28.24,28.24,0,0,1-3.33.08h-1.23a1.48,1.48,0,0,1-.34,0,5.59,5.59,0,0,0-1.31-.08h-3.43a11,11,0,0,1-2.07-.08,7.59,7.59,0,0,0-1.34,0,4.79,4.79,0,0,1-1.49-.21.84.84,0,0,1-.65-.66,5.09,5.09,0,0,1-.18-.87l-.31-2.39c-.08-.6-.18-1.21-.26-1.78,0-.05,0-.13,0-.18a31,31,0,0,0-.36-3.46c0-.29-.05-.55-.05-.84v-3.2a3.49,3.49,0,0,1,.08-.73c.08-.45.13-.87.21-1.31a1.11,1.11,0,0,1,.11-.31,1,1,0,0,0,.29-.81C105.46,204.21,105.48,204.16,105.48,204.11Zm3.51,3.65a2.69,2.69,0,0,0-1.39.76,1.34,1.34,0,0,0-.39.92v2.31a4.29,4.29,0,0,0,.05.58c.08.52.16,1.08.26,1.6a4.38,4.38,0,0,0,.39,1.26,2.25,2.25,0,0,0,1.15,1.1,1.39,1.39,0,0,1,.71.63,2.78,2.78,0,0,0,.45.52c.42.37.81.76,1.23,1.13a3.82,3.82,0,0,0,1,.71l1.81.76a.77.77,0,0,0,.24.05l.58.08a6.1,6.1,0,0,0,1,.11c1.15,0,2.33,0,3.49,0a2,2,0,0,0,.39,0,6,6,0,0,0,1.73-.65,3.26,3.26,0,0,1,.52-.26,4.88,4.88,0,0,0,.89-.5,4.13,4.13,0,0,0,1.34-1.73c.13-.34.34-.63.5-.94a1.1,1.1,0,0,0,.81-.21,4,4,0,0,0,.58-.58,4.39,4.39,0,0,0,.81-2.12c.08-.52,0-1,.05-1.57a9.42,9.42,0,0,0-.47-2.7.71.71,0,0,0-.45-.5c-.24-.11-.5-.18-.73-.29a1.42,1.42,0,0,1-.76-.66,11.39,11.39,0,0,0-1.39-2.12c-.24-.26-.5-.47-.71-.73a3,3,0,0,0-1.15-.81c-.16-.05-.29-.16-.45-.21l-.6-.24c-.29-.11-.6-.18-.89-.26a6.36,6.36,0,0,0-2-.37h-.16a3,3,0,0,0-1-.08h-1.39a4.83,4.83,0,0,0-1.08.1,4.87,4.87,0,0,0-1.21.5,4.68,4.68,0,0,0-1.44,1.23,0,0,0,0,1,0,0,13.9,13.9,0,0,0-1.47,1.57,5.58,5.58,0,0,0-.42.66Z"/><path class="cls-7" d="M105.67,203.35c0-.08,0-.16,0-.21.13-.66.21-1.34.4-2a7.48,7.48,0,0,1,.37-1.31.49.49,0,0,0,.05-.18,2.16,2.16,0,0,1,1.21-1.28c.18-.08.34-.18.52-.26a2.52,2.52,0,0,1,1-.34,2.09,2.09,0,0,0,.39-.08,11.36,11.36,0,0,1,2.67-.39h.18a5.47,5.47,0,0,1,1.47-.08h4.77a6,6,0,0,1,.68.05,3,3,0,0,0,.5,0h1a6,6,0,0,1,.68.08c.37,0,.71.11,1.07.11a20.7,20.7,0,0,1,2.23.29,4.37,4.37,0,0,1,.81.13,1.1,1.1,0,0,1,.84.81,6.86,6.86,0,0,1,.24,1,1.48,1.48,0,0,0,.21.66,2.35,2.35,0,0,1,.21.6c.24.66.5,1.31.73,2a.91.91,0,0,1,.1.55,2.67,2.67,0,0,1-.39-.21,3.71,3.71,0,0,0-1.89-.58,3.54,3.54,0,0,1-.73-.11l-1.44-.24a1.49,1.49,0,0,0-.34,0,18.7,18.7,0,0,1-2.7-.19c-.18,0-.37,0-.55,0h-1.76c-.39,0-.79-.05-1.18-.08l-.34,0c-.63,0-1.28,0-1.91-.05-.26,0-.52.05-.79.05h-1a15.67,15.67,0,0,0-2.94.23,12.72,12.72,0,0,0-2.6.55c-.5.18-1,.31-1.52.52C105.82,203.3,105.75,203.32,105.67,203.35Zm18.54-1.29c.37-.05.76-.08,1.18-.13s.5-.18.5-.52v-.73a2.44,2.44,0,0,0-.55-1.49,1.48,1.48,0,0,0-1-.6,2.09,2.09,0,0,1-.39-.08,12.14,12.14,0,0,0-1.94-.19c-.37,0-.73,0-1.07,0a1.52,1.52,0,0,0-1.1.31,1.27,1.27,0,0,0-.45.84,4.63,4.63,0,0,0,.05,1.47,1.09,1.09,0,0,0,.45.68,1.41,1.41,0,0,0,.79.26h.68a8.15,8.15,0,0,1,1.13.08C123.05,202,123.6,202,124.2,202.05Zm-11.82-.25h.42a1.78,1.78,0,0,0,1.29-.63,1.21,1.21,0,0,0,.26-1.1,4.57,4.57,0,0,0-.13-.58.62.62,0,0,0-.16-.29,2.51,2.51,0,0,0-.86-.71,1.07,1.07,0,0,0-.47-.13,2.81,2.81,0,0,0-1.6.34,1.37,1.37,0,0,0-.76,1.28v.39a1.14,1.14,0,0,0,.47.92A2.37,2.37,0,0,0,112.38,201.81Zm-3.22,0a.81.81,0,0,0,.29-.05.64.64,0,0,0,.55-.6.77.77,0,0,0-.44-.84,1.55,1.55,0,0,1-.37-.16.43.43,0,0,0-.5,0,.67.67,0,0,0-.39.63V201A.73.73,0,0,0,109.16,201.78Z"/><path class="cls-7" d="M105.46,201.15a.65.65,0,0,1,0,.45c-.08.45-.18.87-.29,1.28-.05.26-.13.5-.18.76a1.24,1.24,0,0,1-.29.55c-.26-.05-.58,0-.84-.11a1,1,0,0,0-.29,0H102a2.58,2.58,0,0,0-.45.05,5.87,5.87,0,0,1-1.65.13,4.52,4.52,0,0,0-1.31.18,3.21,3.21,0,0,1-.87.21c0-.1,0-.18,0-.24,0-.39.05-.79.05-1.18a1.31,1.31,0,0,1,.68-1.13,3.4,3.4,0,0,1,1.52-.52,11.36,11.36,0,0,0,1.31-.21l1.7-.21a18.93,18.93,0,0,1,2.1-.08A1.05,1.05,0,0,0,105.46,201.15Z"/><path class="cls-7" d="M127.86,221.41a.62.62,0,0,1-.55.73c-.45.13-.92.24-1.36.34a2.89,2.89,0,0,1-.47.05,3.52,3.52,0,0,0-.92.08,1,1,0,0,1-.39,0c-1.07,0-2.12,0-3.2,0-.31,0-.63.05-.92.08h-2a4.5,4.5,0,0,0-1.18-.11h-.24a4.08,4.08,0,0,0-1.26-.08h-5.32c-.24,0-.45-.05-.68-.05a5.93,5.93,0,0,0-.68,0,5.6,5.6,0,0,1-1.47-.16l-.45-.08a.69.69,0,0,1-.08-.55c.16-.1.31-.05.5-.05H110l.84,0a1.59,1.59,0,0,1,.5,0,8.89,8.89,0,0,0,1.68.08,12.31,12.31,0,0,1,2.41-.08,4.29,4.29,0,0,1,.58.05l.5.05h4a3.23,3.23,0,0,0,.52-.05,1.14,1.14,0,0,0,.13,0c.34,0,.68-.08,1-.08.76.05,1.49,0,2.25.13a6,6,0,0,0,2-.05l.92-.13A3.43,3.43,0,0,1,127.86,221.41Z"/><path class="cls-8" d="M104.45,220.68h-1.07s-.08-.05-.08-.08c0-.58-.16-1.13-.13-1.7A4.93,4.93,0,0,0,103,218a4.29,4.29,0,0,1-.05-.58v-1.63a4.48,4.48,0,0,0-.08-1,4.42,4.42,0,0,1,0-.84,10,10,0,0,0-.16-2c-.05-.39-.1-.81-.13-1.21-.1-1-.23-2.07-.34-3.12-.05-.5-.1-1-.13-1.47s-.08-.84-.1-1.26a1.39,1.39,0,0,1,0-.31,3.79,3.79,0,0,1,.94,0c0,.16,0,.31,0,.45a15.65,15.65,0,0,0,.13,1.91c.05.66.16,1.34.16,2a9.77,9.77,0,0,0,.1,1.26,6.91,6.91,0,0,1,.08,1.28c0,.29.05.58.08.87,0,.05,0,.1,0,.16,0,.81.08,1.63.1,2.46v.24a12.16,12.16,0,0,0,.34,3.23C104.16,219.18,104.32,219.92,104.45,220.68Z"/><path class="cls-9" d="M98.66,205a.89.89,0,0,1,.55-.16c0,.05.05.08.05.1.08.92.13,1.86.21,2.78.05.68.16,1.36.23,2s.16,1.39.26,2.1l.16.92a4.83,4.83,0,0,1,.13,1.08,8.25,8.25,0,0,0,.13,1.13c.1.68.23,1.39.34,2.07s.21,1.31.29,2v.24a2.68,2.68,0,0,0,.08.79,1.26,1.26,0,0,1,0,.31c-.13.08-.24,0-.34,0l-.26-.08c-.16-.52-.31-1-.44-1.52a3.85,3.85,0,0,1-.13-.76,11.21,11.21,0,0,0-.23-1.6c-.13-.52-.16-1-.23-1.55s-.1-.94-.18-1.42c0-.08,0-.16,0-.24a23.71,23.71,0,0,0-.23-2.39c0-.08,0-.16,0-.24-.05-.66-.08-1.31-.13-2,0-.42-.08-.81-.13-1.23s-.05-.58-.08-.89C98.66,206,98.66,205.54,98.66,205Z"/><path class="cls-8" d="M102,220.57c-.39,0-.45-.05-.5-.34a7.46,7.46,0,0,1-.1-1.08,8.76,8.76,0,0,0-.13-1.13c-.21-1.28-.42-2.57-.63-3.88V214a9.46,9.46,0,0,0-.21-1.7c-.1-.73-.21-1.47-.29-2.2s-.18-1.47-.26-2.2c-.05-.37-.05-.71-.08-1.08-.05-.58-.1-1.18-.13-1.76a1.61,1.61,0,0,1,0-.34,2.46,2.46,0,0,1,.76,0c0,.1,0,.18.05.29.18,1.47.31,3,.6,4.43a6.12,6.12,0,0,1,.1.68,14.09,14.09,0,0,1,.16,2.36c0,.29,0,.55.05.84a6.66,6.66,0,0,1,0,1,11.69,11.69,0,0,0,.13,1.65c.05.6.13,1.21.18,1.81,0,.39.1.81.16,1.21A14,14,0,0,1,102,220.57Z"/><path class="cls-9" d="M102.9,220.65c-.39,0-.47,0-.5-.29s-.08-.68-.1-1l-.16-1.21c0-.05,0-.13,0-.18,0-.5-.05-1-.1-1.47,0-.34-.08-.68-.13-1l-.08-.79a9.85,9.85,0,0,0-.08-1.52,3.44,3.44,0,0,1,0-.73,10.75,10.75,0,0,0-.16-2c-.08-.68-.23-1.36-.31-2s-.21-1.52-.29-2.28l-.08-.58a3,3,0,0,1,0-.68,1.41,1.41,0,0,1,.73-.13c0,.05.05.08.05.13.05,1.23.21,2.44.36,3.67.05.37.08.76.1,1.13.13,1.08.26,2.15.36,3.23,0,.26.05.52.05.79a10.54,10.54,0,0,0,.08,1.57,2.4,2.4,0,0,1,0,.45v1.28a6.17,6.17,0,0,0,.16,1.7,1.49,1.49,0,0,1,0,.34,5,5,0,0,0,.08,1.08A1.62,1.62,0,0,1,102.9,220.65Z"/><path class="cls-9" d="M103.44,204.61c.31-.08.58.11.87.08a1.86,1.86,0,0,1,0,.66c-.13,1.13-.08,2.25-.11,3.38v1.52a14.31,14.31,0,0,0,.18,2.36c.08.58.13,1.18.18,1.76.05,1,.21,1.94.34,2.91.1.79.23,1.6.34,2.39a3.52,3.52,0,0,0,.18.71,3.45,3.45,0,0,0,.13.39H105a1.44,1.44,0,0,1-.31-.84c-.13-.66-.23-1.31-.37-2-.08-.45-.16-.89-.23-1.36a2,2,0,0,1,0-.39v-1.42c0-.31-.05-.66-.08-1a6.87,6.87,0,0,1,0-.73c0-.31-.05-.63-.08-.92,0-.1,0-.24,0-.34a16.3,16.3,0,0,0-.16-2.25,2.54,2.54,0,0,1,0-.45,21.77,21.77,0,0,0-.18-2.25,15.3,15.3,0,0,1-.13-1.91C103.41,204.84,103.41,204.71,103.44,204.61Z"/><path class="cls-8" d="M97.75,205.31c.16-.16.37-.16.58-.24a1,1,0,0,1,0,.26c0,.21,0,.39,0,.58a9.9,9.9,0,0,0,.1,2,2.58,2.58,0,0,1,.05.45c.05.68.08,1.36.13,2.07,0,.18.05.39.05.58.08.55.13,1.1.21,1.65a1.49,1.49,0,0,1,0,.34,10,10,0,0,0,.16,1.55,5.47,5.47,0,0,1,.1.92,9.37,9.37,0,0,0,.26,1.49,7.75,7.75,0,0,1,.16,1.36,3.13,3.13,0,0,0,.13.68c.08.34.21.66.31,1a.45.45,0,0,1,0,.18.94.94,0,0,1-.66-.21c-.08-.34-.16-.66-.26-1a.49.49,0,0,1-.05-.18,12.72,12.72,0,0,0-.23-1.44c-.08-.66-.21-1.28-.34-1.94s-.16-1.26-.23-1.89l-.16-1.36a3.87,3.87,0,0,1,0-.55,4.88,4.88,0,0,0-.08-1.23,1.49,1.49,0,0,1,0-.34,9.73,9.73,0,0,0-.16-1.76,2.9,2.9,0,0,1-.05-.5C97.77,207,97.75,206.15,97.75,205.31Z"/><path class="cls-7" d="M106.18,221.41a1.7,1.7,0,0,1,0,.81l-.29,0c-1.55,0-3.12,0-4.67,0a4.36,4.36,0,0,1-1.73-.37.73.73,0,0,1-.39-.34c-.16-.42-.29-.84-.42-1.26,0,0,0-.05,0-.1l.26.18a1.76,1.76,0,0,0,1.13.42,2,2,0,0,1,.39.05c.52.13,1.07.16,1.6.26a12.34,12.34,0,0,0,2,.08,2.58,2.58,0,0,1,.45.05l.47.05Z"/><path class="cls-9" d="M97.46,205.44v1.86a10.89,10.89,0,0,0,.08,1.28,2.9,2.9,0,0,1,.05.5c.05.81.08,1.63.13,2.44,0,.55.08,1.1.13,1.65s.16,1.36.26,2c0,.16.05.31.08.5.16.89.31,1.78.47,2.65,0,.16,0,.31.05.5a4.73,4.73,0,0,0,.13.5c-.08-.05-.13-.08-.16-.13a5.18,5.18,0,0,1-.63-1.52c-.13-.66-.21-1.34-.29-2a6.32,6.32,0,0,0-.18-1,8.76,8.76,0,0,1-.29-2.33,2.54,2.54,0,0,0,0-.45,10.82,10.82,0,0,1-.08-2.25c0-.55,0-1.07,0-1.63s0-1.34,0-2a1.46,1.46,0,0,1,.16-.55S97.38,205.47,97.46,205.44Z"/><path class="cls-10" d="M128.45,202.87a.44.44,0,1,1,.68-.42c.16.11.31.24.5.34a1.23,1.23,0,0,1,.5.66,1.92,1.92,0,0,1-.58,2.18l-.47.37c-.05.05-.16.05-.24.08s-.1,0-.1-.05a.45.45,0,0,1,0-.18.53.53,0,0,1,.21-.1,1.58,1.58,0,0,0,.87-1.23v-.05a1.21,1.21,0,0,0-.94-1.42A4.64,4.64,0,0,0,128.45,202.87Z"/><path class="cls-10" d="M96.64,207.22a.44.44,0,0,1-.55-.13,2.07,2.07,0,0,1-.71-1.47v-.39a.52.52,0,0,1,.05-.29,3.73,3.73,0,0,1,.68-1,.58.58,0,0,1,.45-.18,4.25,4.25,0,0,1,.58,0c.13,0,.13.13.1.24s-.05.05-.08.05a1.65,1.65,0,0,0-1,.44,1.13,1.13,0,0,0-.37.5,1.7,1.7,0,0,0,.08,1.47s0,.05.05.08A1.2,1.2,0,0,0,96.64,207.22Z"/><path class="cls-11" d="M97.3,204.57c.1.39-.24.37-.42.5a4,4,0,0,0-.18,1.49h-.13a1.39,1.39,0,0,1-.34-1.18.75.75,0,0,1,.34-.58l.37-.24A.44.44,0,0,1,97.3,204.57Z"/><path class="cls-11" d="M128.66,205.15c0-.29,0-.6,0-.92s-.18-.6-.05-.92c.21-.05.34.08.47.18a.66.66,0,0,1,.26.39,1.38,1.38,0,0,1-.47,1.23s-.08,0-.13.05Z"/><path class="cls-12" d="M101.81,200.78l-.68.08c-.13-.24-.05-.47-.08-.68a1.28,1.28,0,0,1,0-.63,1,1,0,0,1,.73-.08Z"/><path class="cls-12" d="M100.63,200.93l-.81.16a1.37,1.37,0,0,1,.05-.92,1,1,0,0,1,.76-.6,1.84,1.84,0,0,1,0,.66A6.16,6.16,0,0,0,100.63,200.93Z"/><path class="cls-12" d="M102.21,199.41l.29-.08h.34a5.27,5.27,0,0,1,.13,1.26.8.8,0,0,1-.58.08.45.45,0,0,1-.18-.42C102.24,200,102.21,199.73,102.21,199.41Z"/><path class="cls-12" d="M104.07,200.57a1.17,1.17,0,0,1-.6,0c-.05-.39-.08-.76-.13-1.15a.73.73,0,0,1,.52-.05A6.11,6.11,0,0,1,104.07,200.57Z"/><path class="cls-12" d="M104.83,200.54c-.13.08-.26.08-.29-.05-.08-.31-.13-.66-.18-1a.19.19,0,0,1,.31.08A1.43,1.43,0,0,1,104.83,200.54Z"/><path class="cls-11" d="M117.77,219.8c-.37,0-.76,0-1.13,0-.52,0-1-.11-1.57-.13a6.63,6.63,0,0,1-2-.63,4.5,4.5,0,0,1-1.52-1,12.09,12.09,0,0,1-1-1,7.2,7.2,0,0,1-1.1-1.55,9.38,9.38,0,0,1-.6-2l-.16-.81c0-.05,0-.13,0-.18a11,11,0,0,1,.05-1.86c0-.05,0-.13,0-.18a7.6,7.6,0,0,1,.53-2.28,5.2,5.2,0,0,1,1.29-2.07c.42-.63,1.08-1,1.55-1.65a1.52,1.52,0,0,1,.45-.37,2.68,2.68,0,0,1,.58-.37,3.82,3.82,0,0,1,1.68-.52h2a2.58,2.58,0,0,1,.45.05,2.58,2.58,0,0,0,.45.05,4.85,4.85,0,0,1,1.1.16c.52.16,1.07.29,1.6.47a13,13,0,0,1,1.36.66,3.91,3.91,0,0,1,.37.31,1.58,1.58,0,0,0,.21.21,7.57,7.57,0,0,1,1.6,2,8.16,8.16,0,0,1,.71,1.44,10.67,10.67,0,0,1,.57,2.18,6.92,6.92,0,0,1,.1,1.47c0,.16,0,.31,0,.5a1.49,1.49,0,0,1,0,.34,1.58,1.58,0,0,0-.11.76,3.46,3.46,0,0,1-.32,1.36c0,.08-.1.13-.16.18s-.16.26-.24.37l-.39.73c-.05.1-.11.24-.16.37a3.07,3.07,0,0,1-.53.89,3.66,3.66,0,0,1-.87.71,13.61,13.61,0,0,1-1.73.92,4,4,0,0,1-1.86.42Zm-8.41-8.58a8,8,0,0,0,.44,2.83,6.33,6.33,0,0,0,.21.66,8.81,8.81,0,0,0,1,1.76,3.94,3.94,0,0,0,1.52,1.42l1.52.79a5,5,0,0,0,.55.24,8.66,8.66,0,0,0,3.83.37,8.34,8.34,0,0,0,2.73-.78,3.9,3.9,0,0,0,1.71-1.34,11,11,0,0,0,1-1.7,3.32,3.32,0,0,0,.34-1.23c0-.26.11-.55.16-.81s.11-.71.13-1.07.05-.55.05-.84a4.51,4.51,0,0,0-.05-.84c-.05-.42-.18-.84-.23-1.26a6.63,6.63,0,0,0-.31-1.39,3.84,3.84,0,0,0-1-1.5,11.65,11.65,0,0,0-2.88-2,4.88,4.88,0,0,0-2.52-.58c-.39,0-.79,0-1.18,0a7.18,7.18,0,0,0-1.31.1,19.7,19.7,0,0,0-2,.55,2,2,0,0,0-.76.45c-.39.42-.81.79-1.18,1.26a4.92,4.92,0,0,0-.63,1c-.24.52-.5,1-.74,1.55a7,7,0,0,0-.24.68C109.33,210.06,109.38,210.56,109.36,211.22Z"/><path class="cls-13" d="M125.35,215.61a1.15,1.15,0,0,1,.11-.55,2.82,2.82,0,0,0,.18-.81,1.23,1.23,0,0,1,.11-.42,2.7,2.7,0,0,0,.16-.92v-.63a8.45,8.45,0,0,0-.23-2.15,8.85,8.85,0,0,0-.24-.89c-.05-.18-.1-.37-.16-.58.16-.08.26,0,.39.05.68.32.52.18.71.81a7,7,0,0,0,.18.71,9.86,9.86,0,0,1-.06,3.62,3.76,3.76,0,0,1-.92,1.6Z"/><path class="cls-13" d="M108.85,215.57a2.71,2.71,0,0,1-.6-.81,11,11,0,0,1-.44-2,10.16,10.16,0,0,1-.1-2,6.66,6.66,0,0,0,0-1,1.2,1.2,0,0,1,.47-1.07,1.23,1.23,0,0,1,.55-.29c0,.1,0,.18-.05.26l-.32,1.07a.45.45,0,0,0,0,.18,12.3,12.3,0,0,0-.11,2.6,9.92,9.92,0,0,0,.26,1.49C108.57,214.44,108.7,215,108.85,215.57Z"/><path class="cls-11" d="M125.41,201.37a3.39,3.39,0,0,1-1,.16,17.9,17.9,0,0,1-2-.16l-1.07-.05h-.58a.71.71,0,0,1-.76-.66,3.16,3.16,0,0,1,0-1.31.79.79,0,0,1,.81-.58c.66,0,1.31,0,2,0a6.79,6.79,0,0,1,1.6.26,1,1,0,0,1,.47.26,2,2,0,0,1,.6,1.36A2.66,2.66,0,0,0,125.41,201.37Zm-3.59-2.49h0c-.18,0-.37,0-.55,0a.39.39,0,0,0-.26.08,1.08,1.08,0,0,0-.45.84v.39c0,.31.08.42.37.47a14.74,14.74,0,0,0,1.49.24,11.72,11.72,0,0,1,1.91.11c.18.05.31-.05.39-.24a1.33,1.33,0,0,0-.23-1.42.57.57,0,0,0-.21-.13,2.05,2.05,0,0,0-.37-.13,5.77,5.77,0,0,0-1-.13A5.31,5.31,0,0,1,121.82,198.88Z"/><path class="cls-11" d="M112.49,201.34a3.54,3.54,0,0,1-.73-.11c-.94-.32-1.07-.74-.86-1.65a.81.81,0,0,1,.26-.39,1.23,1.23,0,0,1,1-.52,1.55,1.55,0,0,1,1.73,1.84.62.62,0,0,1-.16.29,1.12,1.12,0,0,1-1,.5.31.31,0,0,1-.18.05Zm-1.31-1.26h0v.24a.81.81,0,0,0,.63.79,2,2,0,0,0,1,.05.76.76,0,0,0,.68-.81v-.24a1.09,1.09,0,0,0-.84-.92l-.58-.08a.74.74,0,0,0-.84.76A.58.58,0,0,0,111.18,200.08Z"/><path class="cls-11" d="M109.13,201.33c-.26,0-.37-.13-.34-.42s.13-.39.34-.39a.44.44,0,0,1,.47.5C109.58,201.2,109.42,201.33,109.13,201.33Z"/><path class="cls-14" d="M117.16,218.83a4.3,4.3,0,0,1-1.52-.16,5.32,5.32,0,0,1-1.26-.53,10.9,10.9,0,0,0-1.23-.63,10,10,0,0,1-1.15-.66,2.38,2.38,0,0,1-.47-.55,8.33,8.33,0,0,1-1-1.68,10.54,10.54,0,0,1-.58-2,5.5,5.5,0,0,1-.13-1.6v-.68a3.34,3.34,0,0,1,.37-1.42c.21-.39.39-.79.58-1.21a4.46,4.46,0,0,1,.76-1.21c.29-.34.63-.65.94-1l.08-.08a5.56,5.56,0,0,1,1.6-.73,10.52,10.52,0,0,1,1.31-.23,4.45,4.45,0,0,1,1,0,11.14,11.14,0,0,1,3,.58,6.69,6.69,0,0,1,1.81,1,8.91,8.91,0,0,1,.79.6,5.15,5.15,0,0,1,1.28,1.89,9.93,9.93,0,0,1,.6,2.78c0,.29.05.58.05.89a5.54,5.54,0,0,1-.05.68c-.11.55-.26,1.13-.39,1.68a3.12,3.12,0,0,1-.18.71c-.13.34-.32.66-.47,1a6.19,6.19,0,0,1-.68.94l-.1.1-.63.55a1.43,1.43,0,0,1-.94.47.81.81,0,0,0-.34.08A8.77,8.77,0,0,1,117.16,218.83Zm4.83-7.1c-.05-.42-.08-.84-.13-1.26a3.51,3.51,0,0,0-1.62-2.62l-.71-.45a2,2,0,0,0-.76-.34,7.13,7.13,0,0,1-1-.29,2.46,2.46,0,0,0-1.44-.05l-.39.05a3.31,3.31,0,0,0-1.31.39,4.89,4.89,0,0,0-1.29,1.26,8.31,8.31,0,0,0-.55,1.07,3.41,3.41,0,0,0-.29,1.13,5.55,5.55,0,0,0,.1,1.47,2.6,2.6,0,0,0,.44,1.23.79.79,0,0,1,.16.29,5.8,5.8,0,0,0,.94,1.42,1.84,1.84,0,0,0,.5.39,5.47,5.47,0,0,0,2.86.74,10.67,10.67,0,0,0,1.6-.21,2.34,2.34,0,0,0,1.08-.55c.18-.16.37-.34.52-.5a2.37,2.37,0,0,0,.76-1.18,1.76,1.76,0,0,1,.16-.31,1.65,1.65,0,0,0,.21-.6A3.43,3.43,0,0,0,122,211.73Z"/><path class="cls-14" d="M120.93,200.32c0-.21,0-.34,0-.47v-.26a1,1,0,0,1,.79-.31,3.52,3.52,0,0,1,.92.08.73.73,0,0,0,.24,0,3.93,3.93,0,0,1,1,.11.54.54,0,0,1,.5.34c.1.26.24.52,0,.79-.63,0-1.26,0-1.86,0A11.39,11.39,0,0,1,120.93,200.32Z"/><path class="cls-14" d="M112.3,200.76l-.37-.05a.42.42,0,0,1-.34-.42c0-.58-.08-.68.6-.84a.71.71,0,0,1,.86.68C113.09,200.63,113,200.76,112.3,200.76Z"/><path class="cls-11" d="M116.86,207.13h.39a1.06,1.06,0,0,1,.29,0,5.19,5.19,0,0,1,1.73.68,8.84,8.84,0,0,0,.84.5,1.46,1.46,0,0,1,.21.13,3.24,3.24,0,0,1,1,2.1,7.93,7.93,0,0,1,.08,1.36,4.17,4.17,0,0,1-1.55,3.17,1.41,1.41,0,0,1-.52.26,6,6,0,0,1-3.2.18,6.75,6.75,0,0,1-1.36-.55,1.12,1.12,0,0,1-.31-.29,5.85,5.85,0,0,1-.84-1.26,2.87,2.87,0,0,0-.21-.39,2,2,0,0,1-.29-.68,6.26,6.26,0,0,1-.16-1.7,2.19,2.19,0,0,1,.21-.81,6.73,6.73,0,0,1,.81-1.47,2.33,2.33,0,0,1,.52-.5,5.84,5.84,0,0,1,1.29-.63,1.48,1.48,0,0,1,.47-.08c.18,0,.37,0,.55,0Zm.86,7.42c.26,0,.66,0,1-.08a1.36,1.36,0,0,0,.94-.55c.26-.37.5-.73.74-1.1a1.7,1.7,0,0,0,.21-.71,3.79,3.79,0,0,0-.5-2.07,2.07,2.07,0,0,0-.31-.39,8.06,8.06,0,0,0-.71-.66,2.42,2.42,0,0,0-1.81-.6,1.53,1.53,0,0,1-.34-.05,1.86,1.86,0,0,0-1.76.37c-.08.05-.13.16-.21.21a1.82,1.82,0,0,0-.79,1.28,7.8,7.8,0,0,0-.05,1.91.64.64,0,0,0,.1.31,4.76,4.76,0,0,0,1.2,1.57,1.9,1.9,0,0,0,1,.45C116.85,214.5,117.22,214.53,117.72,214.55Z"/><path class="cls-11" d="M115.47,210.83c0,.18,0,.39-.05.58a1.21,1.21,0,0,0,.24.84l.5.66a.94.94,0,0,0,.86.45c.05,0,.1,0,.18,0-.08.05-.16.13-.21.16a1.27,1.27,0,0,1-.45,0,2.33,2.33,0,0,1-1.44-1.05,1.25,1.25,0,0,1-.16-.47,1.88,1.88,0,0,1,.18-1C115.26,210.93,115.31,210.83,115.47,210.83Z"/><path class="cls-11" d="M119.16,210.33c-.81-1-.6-.84-2-1.29.05-.05.1-.1.16-.1a1.08,1.08,0,0,1,.29,0,2.79,2.79,0,0,1,1.34.66,1.39,1.39,0,0,1,.21.45C119.24,210.13,119.27,210.26,119.16,210.33Z"/><path class="cls-11" d="M118.87,212.67a4.68,4.68,0,0,1,.21-1.26.79.79,0,0,1,.1.6A.82.82,0,0,1,118.87,212.67Z"/><path class="cls-11" d="M118.09,210.41c.29.05.45.21.42.45a1.56,1.56,0,0,1-.18.68c-.1-.18-.05-.37-.08-.55S118.14,210.62,118.09,210.41Z"/><path class="cls-11" d="M117.51,211.54a2.61,2.61,0,0,1-.26.29.57.57,0,0,1-.37-.47c0-.13,0-.18.26-.26.13.16-.11.29,0,.45s.26-.08.39,0Z"/><path class="cls-11" d="M117.56,211.85q.12-.35.24-.63a.25.25,0,0,1,.16.31A.43.43,0,0,1,117.56,211.85Z"/><path class="cls-11" d="M116.17,209.52a.52.52,0,0,1,.52-.21C116.54,209.49,116.36,209.47,116.17,209.52Z"/><path class="cls-11" d="M117.7,209.91a.54.54,0,0,1,.63.24c-.16-.05-.21-.05-.26-.08A3,3,0,0,1,117.7,209.91Z"/><path class="cls-11" d="M117.88,213.4c.11-.18.24-.16.45-.16A.5.5,0,0,1,117.88,213.4Z"/><path class="cls-11" d="M115.91,208.55a.2.2,0,0,1,0,.13.47.47,0,0,1-.29.08l.31-.21Z"/><path class="cls-11" d="M117.51,211.54c0-.08,0-.13,0-.21h0v.21Z"/><path class="cls-11" d="M115.91,208.55h.21v0a.51.51,0,0,1-.21,0Z"/><path class="cls-11" d="M117.67,212.14l0,0s0,0,0-.05l0,0A.09.09,0,0,0,117.67,212.14Z"/><path class="cls-11" d="M117.8,209.65v-.08h0v0s0,0,0,.05Z"/><path class="cls-11" d="M117.8,209.65c.18-.08.18-.05.21.11h0a.78.78,0,0,0-.21-.11Z"/><path class="cls-11" d="M118,209.76a.2.2,0,0,1,.1-.05l0,0s0,.05-.05.05-.05,0-.08,0Z"/><path class="cls-11" d="M114.68,209.94l0,0s0,.05,0,.08l0,0C114.63,210,114.65,210,114.68,209.94Z"/><path class="cls-11" d="M115,209.28h0s0,0,0-.05h0Z"/><path class="cls-5" d="M128.63,206.57a5.64,5.64,0,0,0-.05.6,18.54,18.54,0,0,0,.08,2.41c0,.29,0,.58,0,.89s.05.84.08,1.28c0,.18,0,.37,0,.55,0,.73,0,1.47,0,2.2a6,6,0,0,0,.08.68,3,3,0,0,1,0,.5V217a9.24,9.24,0,0,1,.08,2.25,5,5,0,0,1-.39,1.76,1.38,1.38,0,0,0-.08.31l-.08.47c-.05.55-.42.79-.89.94a13.35,13.35,0,0,1-1.47.37,1.14,1.14,0,0,0-.13,0c-.58-.05-1.13.1-1.7.1l-3.7,0c-.52,0-1,.05-1.57.1a3.39,3.39,0,0,1-1.26-.05s-.05,0-.1,0c-.63,0-1.23-.11-1.86-.11H109.9c-.21,0-.42-.05-.63-.05a3,3,0,0,0-.68,0,5.87,5.87,0,0,1-1.36-.13,6,6,0,0,0-.68-.05h-5.27a5.48,5.48,0,0,1-2-.42,1.05,1.05,0,0,1-.6-.6,7.31,7.31,0,0,1-.55-2.23.85.85,0,0,0-.1-.37,6.33,6.33,0,0,1-.63-2.15,23.7,23.7,0,0,0-.44-2.67,8.47,8.47,0,0,1-.18-1.81c0-.5-.05-1-.05-1.52s0-.89.05-1.34a4.45,4.45,0,0,0,0-1c0-.26-.05-.52-.08-.81a1.82,1.82,0,0,1-1.47-1.05,2.85,2.85,0,0,1-.29-1.86,3.43,3.43,0,0,1,1.1-1.49.89.89,0,0,1,.52-.16l.68,0c0-.05.05-.08.05-.13a1.69,1.69,0,0,1,.81-1.44,2.92,2.92,0,0,1,1.26-.58,1,1,0,0,0,0-.63c-.05-.47.26-.76.5-1.07a1.3,1.3,0,0,1,.87-.42c.6-.05,1.21-.16,1.81-.18a7.49,7.49,0,0,1,2,.08.82.82,0,0,1,.63.5,2,2,0,0,1,.18.87.73.73,0,0,0,0,.24c.29.08.31.08.39-.1a2.69,2.69,0,0,0,.11-.37,4.65,4.65,0,0,1,.66-1.42,3.27,3.27,0,0,1,1-.73s0,0,.05,0a5.32,5.32,0,0,1,1.1-.52c.39-.08.76-.18,1.15-.26a7.08,7.08,0,0,1,1.08-.18c.45-.05.89-.08,1.31-.13h.1a7,7,0,0,1,1.81-.08h4.56c.26,0,.52.05.79.05a5,5,0,0,0,.89,0,12.49,12.49,0,0,1,2.2.19l.24,0a7,7,0,0,1,1.47.18,4.31,4.31,0,0,0,.81.11,4.06,4.06,0,0,1,.81.16,1.69,1.69,0,0,1,.81.53,1.08,1.08,0,0,1,.18.29,4.78,4.78,0,0,1,.34,1.34,1.53,1.53,0,0,0,.1.47c.21.55.42,1.1.65,1.65a.87.87,0,0,1,.08.16h.47a1.36,1.36,0,0,1,.84.24,5.93,5.93,0,0,0,.52.34,1.4,1.4,0,0,1,.58.71,3.32,3.32,0,0,1,.23,1.1,1.72,1.72,0,0,1-.13.66,2.7,2.7,0,0,1-.89,1.21l-.08.05A1.25,1.25,0,0,1,128.63,206.57Zm-23.15-2.46a.33.33,0,0,0,0,.16,1,1,0,0,1-.29.81.46.46,0,0,0-.11.31c-.08.45-.16.87-.21,1.31a7,7,0,0,0-.08.73v3.2c0,.29,0,.55.05.84.13,1.15.31,2.31.36,3.46a.45.45,0,0,0,0,.18c.08.6.18,1.21.26,1.78l.31,2.39c.05.29.13.58.18.87a.84.84,0,0,0,.65.66,4.9,4.9,0,0,0,1.49.21,11.37,11.37,0,0,1,1.34,0,13.56,13.56,0,0,0,2.07.08H115a5.43,5.43,0,0,1,1.31.08,1.48,1.48,0,0,0,.34,0h1.23a28.24,28.24,0,0,0,3.33-.08,8.88,8.88,0,0,1,1.18-.05,2.67,2.67,0,0,1,.92.05,1.48,1.48,0,0,0,.34,0l.68,0a5.09,5.09,0,0,0,.63.05,8.07,8.07,0,0,0,1.6-.16,4.52,4.52,0,0,1,1.15-.23.4.4,0,0,0,.45-.31,3.3,3.3,0,0,0,.13-.87c0-1,0-2,.06-3v-.24a2.32,2.32,0,0,1-.05-.73c0-1.15,0-2.28,0-3.43,0-.18,0-.37,0-.55l-.08-1.42a5.7,5.7,0,0,0,0-.68c-.1-.81-.05-1.63-.08-2.46,0-.45-.05-.89-.08-1.31a.82.82,0,0,1,.08-.66c.05-.05,0-.16,0-.24a1.52,1.52,0,0,0-.31-.87,1.35,1.35,0,0,0-.94-.66,6.16,6.16,0,0,0-1-.13c-.37-.05-.73-.05-1.07-.13a9.53,9.53,0,0,0-2.44-.26,2,2,0,0,1-.39,0,19.79,19.79,0,0,0-2.78-.19h-1.52a3.17,3.17,0,0,1-.5,0c-.29,0-.58-.08-.89-.08H111.8l-1.21.16c-.29.05-.58.1-.87.13a6,6,0,0,0-1.78.37,3.62,3.62,0,0,1-.76.21A7.34,7.34,0,0,0,105.48,204.11Zm.18-.76c.08,0,.16,0,.21-.05.5-.21,1-.34,1.52-.52a12.36,12.36,0,0,1,2.6-.55,21.81,21.81,0,0,1,2.94-.23,6.66,6.66,0,0,0,1,0c.26,0,.52-.08.79-.05.63.08,1.28,0,1.91.05l.34,0,1.18.08h1.76a3.87,3.87,0,0,1,.55,0c.89.08,1.78.19,2.7.19l.34,0,1.44.24a3.54,3.54,0,0,0,.73.11,3.71,3.71,0,0,1,1.89.58l.39.21a1.15,1.15,0,0,0-.1-.55c-.24-.66-.5-1.31-.73-2a4.08,4.08,0,0,0-.21-.6,1.48,1.48,0,0,1-.21-.66,6.86,6.86,0,0,0-.24-1,1.15,1.15,0,0,0-.84-.81,4.37,4.37,0,0,0-.81-.13,20.7,20.7,0,0,0-2.23-.29c-.37,0-.71-.08-1.07-.11l-.68-.08h-1l-.5,0a6,6,0,0,0-.68-.05h-4.77a5.53,5.53,0,0,0-1.47.08c-.05,0-.13,0-.18,0a11.77,11.77,0,0,0-2.67.39,2.09,2.09,0,0,1-.39.08,2.27,2.27,0,0,0-1,.34,4.89,4.89,0,0,1-.52.26,2.16,2.16,0,0,0-1.21,1.28c0,.05,0,.13-.05.18a12.24,12.24,0,0,0-.37,1.31c-.18.66-.26,1.31-.4,2C105.64,203.19,105.67,203.27,105.67,203.35Zm-.21-2.2-.37,0a18.7,18.7,0,0,0-2.1.08c-.58.08-1.13.1-1.7.21s-.87.16-1.31.21a3.2,3.2,0,0,0-1.52.52,1.31,1.31,0,0,0-.68,1.13c0,.39,0,.79-.05,1.18,0,.08,0,.16,0,.24a4.18,4.18,0,0,0,.87-.21,3.69,3.69,0,0,1,1.31-.18,7,7,0,0,0,1.65-.13,2.31,2.31,0,0,1,.45-.05h1.57a1,1,0,0,1,.29,0,4.89,4.89,0,0,0,.84.11,1.24,1.24,0,0,0,.29-.55c.05-.26.13-.5.18-.76.11-.42.18-.87.29-1.28C105.46,201.46,105.54,201.3,105.46,201.15Zm22.4,20.26a2.9,2.9,0,0,1-.42.08c-.31.05-.63.05-.92.13a7.66,7.66,0,0,1-2,.05c-.76-.08-1.49-.08-2.25-.13a6.71,6.71,0,0,0-1,.08,1.14,1.14,0,0,0-.13,0,3.94,3.94,0,0,1-.52.05h-4a3.58,3.58,0,0,1-.5-.05,4.29,4.29,0,0,0-.58-.05,14.84,14.84,0,0,0-2.41.08,9.1,9.1,0,0,1-1.68-.08,3,3,0,0,0-.5,0l-.84,0H107.2a1.12,1.12,0,0,0-.5.05.69.69,0,0,0,.08.55l.45.08a5.48,5.48,0,0,0,1.47.16,5.93,5.93,0,0,1,.68,0,6,6,0,0,0,.68.05h5.32a5,5,0,0,1,1.26.08.71.71,0,0,0,.24,0,3.61,3.61,0,0,1,1.18.11h2c.31,0,.63-.05.92-.08,1.07,0,2.12,0,3.2,0a1,1,0,0,0,.39,0,2.73,2.73,0,0,1,.92-.08,2.89,2.89,0,0,0,.47-.05c.47-.1.92-.24,1.36-.34A.56.56,0,0,0,127.86,221.41Zm-23.41-.73c-.16-.76-.29-1.49-.42-2.23a13.22,13.22,0,0,1-.34-3.23V215c0-.81-.08-1.63-.1-2.46,0-.05,0-.1,0-.16l-.08-.87a7.19,7.19,0,0,0-.08-1.28,6.8,6.8,0,0,1-.1-1.26c0-.68-.1-1.34-.16-2a15.3,15.3,0,0,1-.13-1.91c0-.13,0-.29,0-.45a5.67,5.67,0,0,0-.94,0c0,.13,0,.21,0,.31,0,.42.05.84.1,1.26s.08,1,.13,1.47c.1,1,.23,2.07.34,3.12.05.42.08.81.13,1.21a9.79,9.79,0,0,1,.16,2,4.49,4.49,0,0,0,0,.84,6.72,6.72,0,0,1,.08,1v1.63a4.29,4.29,0,0,0,.05.58c0,.29.13.58.13.87,0,.58.13,1.13.13,1.7t.08.08C103.71,220.68,104.08,220.68,104.45,220.68ZM98.66,205v1.55c0,.29.05.58.08.89s.1.81.13,1.23c.05.66.08,1.31.13,2,0,.08,0,.16,0,.24a17.94,17.94,0,0,1,.23,2.39c0,.08,0,.16,0,.24.05.47.1.94.18,1.42s.13,1,.23,1.55a10.69,10.69,0,0,1,.23,1.6,3.54,3.54,0,0,0,.13.76c.16.5.29,1,.44,1.52l.26.08c.1,0,.21.11.34,0a1.26,1.26,0,0,0,0-.31,2,2,0,0,1-.08-.79v-.24c-.1-.66-.18-1.31-.29-2s-.23-1.39-.34-2.07c-.05-.37-.1-.73-.13-1.13a7.52,7.52,0,0,0-.13-1.08c-.05-.31-.13-.6-.16-.92-.1-.71-.18-1.39-.26-2.1l-.23-2c-.08-.92-.13-1.86-.21-2.78,0,0,0-.05-.05-.1A.76.76,0,0,0,98.66,205ZM102,220.57a6.9,6.9,0,0,0-.13-1.49c-.05-.39-.13-.81-.16-1.21-.05-.6-.13-1.21-.18-1.81a11.69,11.69,0,0,1-.13-1.65c0-.34,0-.68,0-1s-.05-.55-.05-.84c0-.79-.1-1.57-.16-2.36a6.12,6.12,0,0,0-.1-.68,41.84,41.84,0,0,1-.6-4.43,1.12,1.12,0,0,0-.05-.29,3.68,3.68,0,0,0-.76,0c0,.13,0,.24,0,.34.05.58.08,1.18.13,1.76l.08,1.08c.08.73.18,1.47.26,2.2s.18,1.47.29,2.2a9.46,9.46,0,0,1,.21,1.7v.1c.21,1.28.42,2.57.63,3.88a7.8,7.8,0,0,1,.13,1.13,7.46,7.46,0,0,0,.1,1.08C101.56,220.52,101.64,220.57,102,220.57Zm.87.08a2.73,2.73,0,0,0,0-.66,5,5,0,0,1-.08-1.08,1.49,1.49,0,0,0,0-.34,6.17,6.17,0,0,1-.16-1.7v-1.28a1.28,1.28,0,0,0,0-.45,7.91,7.91,0,0,1-.08-1.57c0-.26,0-.52-.05-.79-.13-1.08-.23-2.15-.36-3.23-.05-.37-.05-.76-.1-1.13-.16-1.21-.29-2.44-.36-3.67,0-.05,0-.08-.05-.13a1.41,1.41,0,0,0-.73.13,2,2,0,0,0,0,.68l.08.58c.1.76.18,1.52.29,2.28s.23,1.36.31,2a13.43,13.43,0,0,1,.16,2,3.44,3.44,0,0,0,0,.73,14.77,14.77,0,0,1,.08,1.52c0,.26.05.52.08.79s.08.68.13,1c.05.5.08,1,.1,1.47,0,.05,0,.13,0,.18l.16,1.21c.05.34.08.68.1,1S102.53,220.68,102.9,220.65Zm.54-16c0,.13,0,.24,0,.34a15.65,15.65,0,0,0,.13,1.91,21.77,21.77,0,0,1,.18,2.25c0,.16,0,.29,0,.45a10.76,10.76,0,0,1,.16,2.25,1.49,1.49,0,0,0,0,.34c0,.31.05.63.08.92a6.87,6.87,0,0,1,0,.73l.08,1v1.81c.08.45.16.89.23,1.36.1.66.23,1.31.37,2a1.38,1.38,0,0,0,.31.84h.58c-.05-.16-.08-.26-.13-.39s-.13-.47-.18-.71c-.13-.79-.23-1.57-.34-2.39-.13-1-.29-1.94-.34-2.91a13.31,13.31,0,0,0-.18-1.76,14.09,14.09,0,0,1-.18-2.36v-1.52a29.15,29.15,0,0,1,.11-3.38,1.86,1.86,0,0,0,0-.66C104,204.71,103.75,204.53,103.44,204.61Zm-5.69.7c0,.87,0,1.68,0,2.49a3.58,3.58,0,0,0,.05.5,10,10,0,0,1,.16,1.76,1.5,1.5,0,0,0,0,.34,4.8,4.8,0,0,1,.08,1.23,3.87,3.87,0,0,0,0,.55l.16,1.36c.08.63.13,1.28.23,1.89s.26,1.28.34,1.94a9.18,9.18,0,0,1,.23,1.44.49.49,0,0,0,.05.18c.08.31.16.63.26,1a.94.94,0,0,0,.66.21c0-.08,0-.13,0-.18-.1-.34-.21-.66-.31-1a2.86,2.86,0,0,1-.13-.68,11.4,11.4,0,0,0-.16-1.36,13.67,13.67,0,0,1-.26-1.49c0-.31-.08-.63-.1-.92a10.31,10.31,0,0,1-.16-1.55,1.49,1.49,0,0,0,0-.34c-.05-.55-.13-1.1-.21-1.65a4.29,4.29,0,0,1-.05-.58c-.05-.68-.08-1.36-.13-2.07a2.58,2.58,0,0,0-.05-.45,9.9,9.9,0,0,1-.1-2c0-.18,0-.39,0-.58s0-.16,0-.26A.73.73,0,0,0,97.75,205.31Zm8.43,16.11-1.23-.13-.47-.05-.45-.05a16.44,16.44,0,0,1-2-.08c-.52-.11-1.07-.13-1.6-.26a1,1,0,0,0-.39-.05,1.76,1.76,0,0,1-1.13-.42l-.26-.18c0,.05-.05.1,0,.1.13.42.26.84.42,1.26a.52.52,0,0,0,.39.34,4.36,4.36,0,0,0,1.73.37c1.55,0,3.12,0,4.67,0l.29,0A1.71,1.71,0,0,0,106.18,221.41Zm-8.72-16c-.08.05-.13.05-.13.1a2.18,2.18,0,0,0-.16.55c0,.68,0,1.34,0,2s0,1.07,0,1.63a9.29,9.29,0,0,0,.08,2.25,2.54,2.54,0,0,1,0,.45,8.76,8.76,0,0,0,.29,2.33,5.77,5.77,0,0,1,.18,1c.08.66.16,1.34.29,2a5.18,5.18,0,0,0,.63,1.52,1.93,1.93,0,0,1,.16.13c-.05-.21-.1-.34-.13-.5s0-.31-.05-.5c-.16-.89-.31-1.78-.47-2.65,0-.16-.05-.31-.08-.5-.08-.68-.18-1.36-.26-2s-.1-1.1-.13-1.65c-.05-.81-.08-1.63-.13-2.44,0-.16-.05-.31-.05-.5a10.25,10.25,0,0,1-.08-1.28Zm31-2.57c.16.05.29.08.42.13a1.23,1.23,0,0,1,.94,1.42v.05a1.58,1.58,0,0,1-.87,1.23.53.53,0,0,0-.21.1s0,.13,0,.18.08.05.1.05a.42.42,0,0,0,.24-.08,5.76,5.76,0,0,0,.47-.37,1.88,1.88,0,0,0,.58-2.18,1.23,1.23,0,0,0-.5-.66,5.61,5.61,0,0,1-.5-.34,1.05,1.05,0,0,0-.84-.16A1.09,1.09,0,0,0,128.45,202.87Zm-31.81,4.35c-.45-.21-.45-.21-.73-.68,0,0,0-.05-.05-.08a1.7,1.7,0,0,1-.08-1.47,1.37,1.37,0,0,1,.37-.5,1.65,1.65,0,0,1,1-.44s.05-.05.08-.05,0-.21-.1-.24a4.25,4.25,0,0,0-.58,0,.68.68,0,0,0-.45.18,3.73,3.73,0,0,0-.68,1,.52.52,0,0,0-.05.29v.39a2.12,2.12,0,0,0,.71,1.47A.45.45,0,0,0,96.64,207.22Zm5.17-6.45v-1.28c-.42-.08-.42-.08-.73.08a2.53,2.53,0,0,0,0,.63c0,.21-.05.45.08.68A6.12,6.12,0,0,1,101.81,200.78Zm-1.18.16v-.68a1.84,1.84,0,0,0,0-.66c-.42.1-.5.18-.76.6a1.36,1.36,0,0,0-.05.92C100.08,201,100.35,201,100.63,200.93Zm-3.33,3.64a.35.35,0,0,0-.39,0c-.13.08-.26.16-.37.24a.83.83,0,0,0-.34.58,1.39,1.39,0,0,0,.34,1.18s.08,0,.13,0a4,4,0,0,1,.18-1.49C97,205,97.41,205,97.3,204.57Zm31.36.58.08,0c.05,0,.1,0,.13-.05a1.35,1.35,0,0,0,.47-1.23.66.66,0,0,0-.26-.39c-.13-.1-.26-.26-.47-.18-.11.31.08.6.05.92Zm-26.45-5.74c0,.31,0,.58,0,.84a.45.45,0,0,0,.18.42.85.85,0,0,0,.58-.08,5.27,5.27,0,0,0-.13-1.26h-.34Zm1.86,1.16a8.91,8.91,0,0,0-.21-1.21.73.73,0,0,0-.52.05c.05.39.08.79.13,1.15A1.17,1.17,0,0,0,104.07,200.57Zm.76,0a1.51,1.51,0,0,0-.16-1,.19.19,0,0,0-.31-.08,6.32,6.32,0,0,0,.18,1C104.57,200.62,104.67,200.62,104.83,200.54Z"/><path class="cls-5" d="M109,207.76c.16-.29.32-.63.47-.94a5.58,5.58,0,0,1,.42-.66,9.25,9.25,0,0,1,1.47-1.57l0,0a5.38,5.38,0,0,1,1.44-1.23,4,4,0,0,1,1.21-.5,3,3,0,0,1,1.08-.1h1.39a3,3,0,0,1,1,.08.17.17,0,0,0,.16,0,6.36,6.36,0,0,1,2,.37c.29.08.6.16.89.26a5.73,5.73,0,0,1,.6.24,3.41,3.41,0,0,0,.45.21,3.19,3.19,0,0,1,1.15.81c.24.26.5.47.71.73a12.32,12.32,0,0,1,1.39,2.12,1.54,1.54,0,0,0,.76.66c.24.11.5.18.73.29a.66.66,0,0,1,.45.5,9.42,9.42,0,0,1,.47,2.7c0,.52,0,1-.05,1.57a4.67,4.67,0,0,1-.81,2.12,2.41,2.41,0,0,1-.58.58,1.19,1.19,0,0,1-.81.21c-.16.31-.37.6-.5.94a4.13,4.13,0,0,1-1.34,1.73,6,6,0,0,1-.89.5,4.89,4.89,0,0,1-.52.26,6,6,0,0,1-1.73.65,2,2,0,0,1-.39,0h-3.49c-.31,0-.66-.08-1-.11l-.58-.08a.77.77,0,0,1-.24-.05c-.6-.24-1.21-.5-1.81-.76a3.82,3.82,0,0,1-1-.71c-.42-.37-.81-.76-1.23-1.13a2.15,2.15,0,0,1-.45-.52,1.5,1.5,0,0,0-.71-.63,2.36,2.36,0,0,1-1.15-1.1,7,7,0,0,1-.39-1.26c-.1-.52-.18-1.08-.26-1.6a4.29,4.29,0,0,1-.05-.58v-2.31a1.34,1.34,0,0,1,.39-.92A2.39,2.39,0,0,1,109,207.76Zm8.77,12h0c.42,0,.87,0,1.28,0a4.2,4.2,0,0,0,1.86-.42,13.61,13.61,0,0,0,1.73-.92,4.45,4.45,0,0,0,.87-.71,3.8,3.8,0,0,0,.53-.89l.16-.37.39-.73c.08-.13.16-.26.24-.37s.13-.13.16-.18a3.46,3.46,0,0,0,.32-1.36,1.5,1.5,0,0,1,.11-.76.73.73,0,0,0,0-.34c0-.16,0-.31,0-.5a6.92,6.92,0,0,0-.1-1.47,12.69,12.69,0,0,0-.57-2.18,12.27,12.27,0,0,0-.71-1.44,8,8,0,0,0-1.6-2c-.08-.05-.13-.16-.21-.21s-.24-.26-.37-.31a13,13,0,0,0-1.36-.66c-.52-.18-1.07-.32-1.6-.47a3.2,3.2,0,0,0-1.1-.16,2.58,2.58,0,0,1-.45-.05,2.58,2.58,0,0,0-.45-.05h-2a3.82,3.82,0,0,0-1.68.52,4.31,4.31,0,0,0-.58.37,2.08,2.08,0,0,0-.45.37c-.47.6-1.1,1-1.55,1.65a5,5,0,0,0-1.29,2.07,7.6,7.6,0,0,0-.53,2.28c0,.05,0,.13,0,.18a14.72,14.72,0,0,0-.05,1.86c0,.05,0,.13,0,.18l.16.81a9,9,0,0,0,.6,2,7.2,7.2,0,0,0,1.1,1.55,12.09,12.09,0,0,0,1,1,4.93,4.93,0,0,0,1.52,1,7.19,7.19,0,0,0,2,.63,15.27,15.27,0,0,0,1.57.13Zm7.58-4.19a.72.72,0,0,0,.21-.16,3.76,3.76,0,0,0,.92-1.6,9.84,9.84,0,0,0,.06-3.62,7,7,0,0,0-.18-.71c-.18-.63,0-.52-.71-.81a.41.41,0,0,0-.39-.05l.16.58c.08.29.18.6.24.89a8.45,8.45,0,0,1,.23,2.15v.63a2.19,2.19,0,0,1-.16.92,1.23,1.23,0,0,0-.11.42,4.08,4.08,0,0,1-.18.81A2.76,2.76,0,0,0,125.35,215.61Zm-16.49,0c-.16-.63-.29-1.13-.42-1.63a9.92,9.92,0,0,1-.26-1.49,17.2,17.2,0,0,1,.11-2.6c0-.05,0-.13,0-.18l.32-1.07c0-.08,0-.16.05-.26a1.23,1.23,0,0,0-.55.29,1.14,1.14,0,0,0-.47,1.07c0,.34,0,.68,0,1a10.06,10.06,0,0,0,.1,2,13.54,13.54,0,0,0,.44,2A3,3,0,0,0,108.85,215.57Z"/><path class="cls-5" d="M124.2,202.05c-.6-.05-1.15-.08-1.7-.16a8.15,8.15,0,0,0-1.13-.08h-.68a1.24,1.24,0,0,1-.79-.26,1,1,0,0,1-.45-.68,4.61,4.61,0,0,1-.05-1.47,1.08,1.08,0,0,1,.45-.84,1.49,1.49,0,0,1,1.1-.31c.37,0,.71,0,1.07,0a11.86,11.86,0,0,1,1.94.19,2.09,2.09,0,0,0,.39.08,1.34,1.34,0,0,1,1,.6,2.19,2.19,0,0,1,.55,1.49v.73c0,.34-.16.5-.5.52S124.57,202,124.2,202.05Zm1.21-.68v-.71a1.87,1.87,0,0,0-.6-1.36,1,1,0,0,0-.47-.26,8.15,8.15,0,0,0-1.6-.26,16.41,16.41,0,0,0-2,0,.79.79,0,0,0-.81.58,2.77,2.77,0,0,0,0,1.31c.05.45.31.63.76.66h.58a7.2,7.2,0,0,1,1.07.05,13.43,13.43,0,0,0,2,.16A2.75,2.75,0,0,0,125.41,201.37Z"/><path class="cls-5" d="M112.38,201.81a2.23,2.23,0,0,1-1.55-.5,1,1,0,0,1-.47-.92V200a1.33,1.33,0,0,1,.76-1.28,2.81,2.81,0,0,1,1.6-.34,3.17,3.17,0,0,1,.47.13,2.51,2.51,0,0,1,.86.71.62.62,0,0,1,.16.29,3.72,3.72,0,0,1,.13.58,1.38,1.38,0,0,1-.26,1.1,1.61,1.61,0,0,1-1.29.63Zm.11-.47h0a.58.58,0,0,1,.21,0,1.17,1.17,0,0,0,1-.5.62.62,0,0,0,.16-.29,1.56,1.56,0,0,0-1.73-1.84,1.2,1.2,0,0,0-1,.52.75.75,0,0,0-.26.39c-.21.89-.08,1.34.86,1.65A3.25,3.25,0,0,0,112.49,201.34Z"/><path class="cls-5" d="M109.16,201.78c-.55,0-.81-.24-.84-.71v-.29a.7.7,0,0,1,.39-.63.43.43,0,0,1,.5,0,1.55,1.55,0,0,0,.37.16.77.77,0,0,1,.44.84.67.67,0,0,1-.55.6A2,2,0,0,1,109.16,201.78Zm0-.45c.29,0,.47-.1.47-.31a.46.46,0,0,0-.47-.5c-.21,0-.34.13-.34.39S108.87,201.33,109.13,201.33Z"/><path class="cls-5" d="M109.36,211.22a8,8,0,0,1,.11-1.65,5.21,5.21,0,0,1,.24-.68c.24-.52.5-1,.74-1.55a4.92,4.92,0,0,1,.63-1c.37-.45.79-.84,1.18-1.26a2,2,0,0,1,.76-.45,13,13,0,0,1,2-.55,4.44,4.44,0,0,1,1.31-.1c.39,0,.79,0,1.18,0a5.29,5.29,0,0,1,2.52.58,11,11,0,0,1,2.88,2,3.84,3.84,0,0,1,1,1.5,4.88,4.88,0,0,1,.31,1.39c.05.42.16.84.23,1.26a4.37,4.37,0,0,1,.05.84c0,.29,0,.55-.05.84s-.08.71-.13,1.07-.13.55-.16.81a3.32,3.32,0,0,1-.34,1.23,13.61,13.61,0,0,1-1,1.7,4.05,4.05,0,0,1-1.71,1.34,9,9,0,0,1-2.73.78,8.58,8.58,0,0,1-3.83-.37l-.55-.24-1.52-.79a3.77,3.77,0,0,1-1.52-1.42,8.81,8.81,0,0,1-1-1.76,4.79,4.79,0,0,1-.21-.66A7.64,7.64,0,0,1,109.36,211.22Zm7.81,7.61a8,8,0,0,0,3.07-.47.73.73,0,0,1,.34-.08,1.43,1.43,0,0,0,.94-.47l.63-.55s.08-.05.1-.1a5.72,5.72,0,0,0,.68-.94c.16-.31.34-.63.47-1s.11-.47.18-.71c.13-.55.26-1.1.39-1.68a2.88,2.88,0,0,0,.05-.68c0-.29,0-.58-.05-.89a10.13,10.13,0,0,0-.6-2.78,4.94,4.94,0,0,0-1.28-1.89,8.91,8.91,0,0,0-.79-.6,6.69,6.69,0,0,0-1.81-1,10.77,10.77,0,0,0-3-.58,4.45,4.45,0,0,0-1,0c-.45.05-.87.16-1.31.23a6.29,6.29,0,0,0-1.6.73l-.08.08a11.4,11.4,0,0,0-.94,1,4.46,4.46,0,0,0-.76,1.21c-.18.39-.37.81-.58,1.21a3.34,3.34,0,0,0-.37,1.42V211a5.43,5.43,0,0,0,.13,1.6,10,10,0,0,0,.58,2,8.33,8.33,0,0,0,1,1.68,1.94,1.94,0,0,0,.47.55,5,5,0,0,0,1.15.66,7.8,7.8,0,0,1,1.23.63,5.32,5.32,0,0,0,1.26.53A4,4,0,0,0,117.16,218.83Z"/><path class="cls-5" d="M121.82,198.88c.37.05.73.11,1.13.13a5.77,5.77,0,0,1,1,.13,1.52,1.52,0,0,1,.37.13.57.57,0,0,1,.21.13,1.33,1.33,0,0,1,.23,1.42.34.34,0,0,1-.39.24,15.61,15.61,0,0,0-1.91-.11,14.74,14.74,0,0,1-1.49-.24c-.31-.05-.37-.16-.37-.47v-.39c0-.37.24-.6.45-.84a.44.44,0,0,1,.26-.08l.55-.05Zm-.89,1.44a8.21,8.21,0,0,0,1.57.26c.63,0,1.23,0,1.86,0,.21-.26.08-.52,0-.79a.62.62,0,0,0-.5-.34,3,3,0,0,0-1-.11.73.73,0,0,1-.24,0,3.73,3.73,0,0,0-.92-.08,1,1,0,0,0-.79.31v.26A3.16,3.16,0,0,0,120.93,200.32Z"/><path class="cls-5" d="M111.18,200.08v-.18c-.05-.47.42-.76.84-.76a2.18,2.18,0,0,1,.58.08,1.12,1.12,0,0,1,.84.92v.24a.76.76,0,0,1-.68.81,2,2,0,0,1-1-.05.81.81,0,0,1-.63-.79,1,1,0,0,0,0-.26Zm1.13.68c.63,0,.76-.1.73-.6a.69.69,0,0,0-.86-.68c-.68.13-.63.24-.6.84a.42.42,0,0,0,.34.42A1.3,1.3,0,0,1,112.3,200.76Z"/><path class="cls-5" d="M122,211.73a7.8,7.8,0,0,1-.13,1.13,2.35,2.35,0,0,1-.21.6,1.76,1.76,0,0,0-.16.31,2.56,2.56,0,0,1-.76,1.18,4.71,4.71,0,0,1-.52.5,2.34,2.34,0,0,1-1.08.55,10.67,10.67,0,0,1-1.6.21,5.47,5.47,0,0,1-2.86-.74,1.84,1.84,0,0,1-.5-.39,5.56,5.56,0,0,1-.94-1.42,2.86,2.86,0,0,0-.16-.29,2.6,2.6,0,0,1-.44-1.23,6.92,6.92,0,0,1-.1-1.47,3.25,3.25,0,0,1,.29-1.13,6.9,6.9,0,0,1,.55-1.07,4.89,4.89,0,0,1,1.29-1.26,3.8,3.8,0,0,1,1.31-.39l.39-.05a2.26,2.26,0,0,1,1.44.05c.31.11.66.18,1,.29a2.19,2.19,0,0,1,.76.34,6.46,6.46,0,0,0,.71.45,3.46,3.46,0,0,1,1.62,2.62C121.92,210.89,121.94,211.31,122,211.73Zm-5.13-4.59h0c-.18,0-.37,0-.55,0a3,3,0,0,0-.47.08,5.84,5.84,0,0,0-1.29.63,1.59,1.59,0,0,0-.52.5,7.25,7.25,0,0,0-.81,1.47,2.19,2.19,0,0,0-.21.81,6.17,6.17,0,0,0,.16,1.7,1.73,1.73,0,0,0,.29.68,1.87,1.87,0,0,1,.21.39,5.85,5.85,0,0,0,.84,1.26,1.09,1.09,0,0,0,.31.29,5.13,5.13,0,0,0,1.36.55,6,6,0,0,0,3.2-.18,2,2,0,0,0,.52-.26,4.35,4.35,0,0,0,1.55-3.17,11.55,11.55,0,0,0-.08-1.36,3.24,3.24,0,0,0-1-2.1,1.46,1.46,0,0,0-.21-.13,8.84,8.84,0,0,1-.84-.5,5.81,5.81,0,0,0-1.73-.68,1.06,1.06,0,0,0-.29,0Z"/><path class="cls-5" d="M117.72,214.55c-.47,0-.87-.05-1.23-.11a1.9,1.9,0,0,1-1-.45,4.37,4.37,0,0,1-1.2-1.57.75.75,0,0,1-.1-.31,9.35,9.35,0,0,1,.05-1.91,1.82,1.82,0,0,1,.79-1.28,1.58,1.58,0,0,0,.21-.21,1.86,1.86,0,0,1,1.76-.37,1.53,1.53,0,0,0,.34.05,2.38,2.38,0,0,1,1.81.6,8.71,8.71,0,0,1,.71.66,1.6,1.6,0,0,1,.31.39,3.85,3.85,0,0,1,.5,2.07,1.7,1.7,0,0,1-.21.71,10,10,0,0,1-.74,1.1,1.32,1.32,0,0,1-.94.55C118.35,214.53,118,214.53,117.72,214.55Zm.29-4.82.08,0s0,0,.05-.05l0,0a.2.2,0,0,1-.1.05c0-.13-.05-.16-.24-.08v-.1h0v.08Zm-2.1-1.18-.31.21a.53.53,0,0,0,.29-.08.2.2,0,0,0,0-.13c.05,0,.13,0,.18.05v0A.45.45,0,0,0,115.91,208.55Zm1.6,3c-.13-.08-.26.16-.39,0s.16-.29,0-.45c-.24.08-.31.13-.26.26a.57.57,0,0,0,.37.47,2.61,2.61,0,0,0,.26-.29v-.21h0A.58.58,0,0,1,117.51,211.54Zm-2-.71a.32.32,0,0,0-.29.21,1.52,1.52,0,0,0,0,1.47,2.55,2.55,0,0,0,1.44,1.05,1.27,1.27,0,0,0,.45,0c.05,0,.13-.08.21-.16-.08,0-.13-.05-.18,0a.94.94,0,0,1-.86-.45c-.18-.21-.34-.45-.5-.66a1.18,1.18,0,0,1-.24-.84A4.62,4.62,0,0,1,115.47,210.83Zm3.7-.49a.29.29,0,0,0,.05-.31,1.39,1.39,0,0,0-.21-.45,2.58,2.58,0,0,0-1.34-.66,1.08,1.08,0,0,0-.29,0c-.05,0-.1.05-.16.1C118.56,209.52,118.35,209.36,119.16,210.33Zm-.29,2.33a.82.82,0,0,0,.32-.66.79.79,0,0,0-.1-.6A4.86,4.86,0,0,0,118.87,212.67Zm-.78-2.26c.05.18.1.37.16.58s0,.37.08.55a1.56,1.56,0,0,0,.18-.68C118.53,210.62,118.38,210.49,118.09,210.41Zm-.53,1.44c.26,0,.37-.16.39-.31a.24.24,0,0,0-.16-.31Q117.68,211.5,117.56,211.85Zm-1.39-2.33c.18-.05.37,0,.52-.21A.52.52,0,0,0,116.17,209.52Zm1.52.39a3,3,0,0,0,.37.16c.05,0,.1,0,.26.08A.54.54,0,0,0,117.7,209.91Zm.18,3.49a.44.44,0,0,0,.45-.16C118.14,213.24,118,213.19,117.88,213.4Zm-.21-1.26v-.05a0,0,0,0,0,0,0s0,0,0,.05S117.64,212.17,117.67,212.14Zm-3-2.21s0,.05,0,.08l0,0s0-.05,0-.08S114.68,209.94,114.65,209.94Zm.32-.66v0h0a0,0,0,0,0,0,0Z"/></svg>