<?xml version="1.0" encoding="utf-8"?>
<!-- Generator: Adobe Illustrator 21.0.0, SVG Export Plug-In . SVG Version: 6.00 Build 0)  -->
<svg version="1.1" id="Layer_1" xmlns="http://www.w3.org/2000/svg" xmlns:xlink="http://www.w3.org/1999/xlink" x="0px" y="0px"
	 viewBox="0 0 355 236.3" style="enable-background:new 0 0 355 236.3;" xml:space="preserve">
<style type="text/css">
	.st0{fill:#084D39;}
	.st1{fill:#B55567;}
	.st2{fill:#405940;}
	.st3{fill:#8DC68D;}
	.st4{fill:#282F2D;}
	.st5{fill:#F5B1BE;}
	.st6{fill:#96D3E7;}
	.st7{fill:#EE7087;}
	.st8{fill:#F49F87;}
	.st9{fill:#959EBE;}
	.st10{fill:#FFFFFF;}
	.st11{fill:#F8D673;}
	.st12{fill:#F8D9E2;}
	.st13{fill:#E5E8F0;}
</style>
<g>
	<g>
		<path class="st0" d="M100.9,192.2c0,0.2-0.1,0.4-0.2,0.7l-0.5,0.7c0.2-0.1,0.4-0.1,0.7-0.1c0.3,0,0.4,0.1,0.4,0.2
			c0,0.2-0.6,0.6-2,1.4c-0.2,0-0.3,0-0.5-0.1c-0.2-0.1-0.2-0.2-0.3-0.3c0-0.1,0.1-0.3,0.3-0.6c0.2-0.2,0.3-0.4,0.4-0.6
			s0.2-0.2,0.2-0.2c0.2-0.3,0.3-0.6,0.3-0.8l0-0.1c0,0,0,0-0.1,0c-0.5,0.4-0.9,0.7-1,0.7c-0.1,0-0.3,0-0.4-0.1
			c-0.1-0.1-0.2-0.2-0.2-0.2c-0.1-0.2,0.1-0.5,0.6-0.8c0.4-0.3,0.6-0.5,0.8-0.5c0.3-0.1,0.6,0,0.9,0.1
			C100.6,191.7,100.7,191.9,100.9,192.2C100.8,192.1,100.8,192.1,100.9,192.2C100.9,192.1,100.9,192.1,100.9,192.2z"/>
		<path class="st0" d="M102.9,190.9c0,0.1,0,0.7-0.2,1.7c-0.1,1-0.2,1.5-0.2,1.5c-0.1,0-0.2,0-0.3-0.2c-0.1-0.1-0.1-0.2-0.2-0.3
			s-0.1-0.3-0.1-0.5c0-0.2-0.1-0.4-0.1-0.7c0-0.3-0.1-0.5-0.1-0.8c-0.1-0.2-0.1-0.5-0.1-0.7c0-0.1,0-0.2,0-0.2c0-0.1,0-0.2,0.1-0.2
			c0-0.1,0.1-0.1,0.2-0.2c0.1-0.1,0.1-0.1,0.2-0.1c0.3-0.1,0.4,0,0.5,0.1c0,0.1,0.1,0.2,0.2,0.3
			C102.8,190.7,102.9,190.8,102.9,190.9z"/>
		<path class="st0" d="M106.3,188.9c0.1,0.3-0.1,0.7-0.5,1.2l-1,1.2l0.7,0.3c0.2,0.1,0.3,0.3,0.4,0.5c0.1,0.4,0,0.8-0.2,1.2
			c-0.2,0.4-0.4,0.7-0.8,0.7c-0.1,0-0.3,0-0.5-0.1c-0.3-0.1-0.4-0.1-0.5-0.2c0,0,0.1-0.2,0.3-0.4c0.3-0.3,0.5-0.5,0.6-0.7
			c0.2-0.3,0.3-0.5,0.3-0.7c0,0-0.2,0-0.6-0.2c-0.4-0.1-0.6-0.3-0.6-0.4c-0.1-0.3,0.1-0.7,0.4-1c0.2-0.3,0.4-0.5,0.6-0.7
			c0.1-0.2,0.3-0.4,0.3-0.5c0-0.1,0-0.1,0-0.2c0-0.1-0.1-0.1-0.2-0.1c-0.1,0-0.2,0.1-0.4,0.3c-0.2,0.2-0.3,0.3-0.4,0.3
			c-0.1,0-0.3,0-0.4,0c-0.2-0.1-0.3-0.1-0.3-0.3c-0.1-0.3,0.1-0.6,0.5-0.8c0.3-0.2,0.7-0.4,0.9-0.4s0.6,0.1,0.9,0.3
			C106.1,188.5,106.2,188.7,106.3,188.9z"/>
		<path class="st0" d="M107.9,191.2c0,0.2-0.1,0.3-0.2,0.4c-0.1,0.2-0.3,0.3-0.5,0.3c-0.1,0-0.2-0.1-0.3-0.2
			c-0.1-0.2-0.2-0.3-0.2-0.4c0-0.2,0-0.5,0.2-0.9c0.2-0.4,0.3-0.7,0.5-0.7c0.1,0,0.2,0.1,0.3,0.2c0,0.1,0.1,0.3,0.1,0.7
			c0,0.2,0.1,0.3,0.1,0.4C107.9,191,107.9,191.1,107.9,191.2z"/>
		<path class="st0" d="M111.5,188.6c0,0.1-0.1,0.3-0.3,0.6c-0.4,0.5-0.7,1-0.9,1.6c0.2,0.2,0.4,0.4,0.5,0.8c0.1,0.3,0.2,0.6,0.2,0.8
			c0,0.4-0.1,0.8-0.3,1.3c-0.2,0.5-0.5,0.8-0.7,0.8c-0.3,0-0.6-0.1-0.8-0.5c-0.2-0.3-0.4-0.6-0.4-0.8c0-0.3,0.1-0.8,0.2-1.4
			c0-0.1,0.1-0.2,0.1-0.4s0.1-0.3,0.2-0.5c-0.1,0-0.2,0-0.2,0c-0.1,0-0.1,0-0.1,0l-0.5,0.1c0.1-0.3,0.2-0.5,0.3-0.7
			c0.1-0.1,0.2-0.2,0.3-0.2c0.2,0,0.4,0,0.5,0.1c0.2-0.7,0.5-1.2,0.8-1.6c0.2-0.3,0.4-0.4,0.6-0.5c0.1,0,0.2,0.1,0.3,0.2
			C111.4,188.4,111.4,188.5,111.5,188.6z M110.3,191.9c0-0.1-0.1-0.3-0.3-0.7c-0.1,0.2-0.2,0.6-0.3,0.9c0,0.2-0.1,0.4-0.1,0.5
			c0,0.2,0,0.3,0,0.5c0,0.1,0,0.2,0.1,0.3c0.1-0.1,0.2-0.3,0.4-0.5C110.3,192.6,110.4,192.3,110.3,191.9z"/>
		<path class="st0" d="M114.3,190.7c0,0.2,0,0.2,0,0.2c0,0.1-0.1,0.1-0.2,0.2c-0.2,0.1-0.3,0.2-0.5,0.3c-0.2,0.1-0.4,0.2-0.7,0.4
			c-0.4,0.3-0.7,0.4-0.7,0.4c-0.1,0-0.2-0.1-0.3-0.2c-0.1-0.1-0.1-0.2-0.1-0.3c0-0.2,0.2-0.4,0.5-0.7c0.1-0.1,0.2-0.1,0.4-0.2
			c0.1-0.1,0.2-0.1,0.4-0.2c0-0.1-0.2-0.2-0.5-0.4c-0.3-0.2-0.4-0.4-0.4-0.5c0-0.1,0.1-0.2,0.1-0.3c0.1-0.1,0.2-0.1,0.2-0.1
			c0.1,0,0.3,0.1,0.7,0.4l0.6,0.4C114.2,190.3,114.3,190.5,114.3,190.7z"/>
		<path class="st0" d="M118.6,190.8c0,0.1,0,0.3,0,0.4c0,0.5-0.2,0.9-0.4,1.2c-0.2,0.3-0.6,0.4-0.9,0.4c-0.1,0-0.3-0.1-0.6-0.4
			c-0.3-0.3-0.5-0.4-0.6-0.5c-0.1,0.1-0.1,0.2-0.2,0.4c-0.1,0.1-0.1,0.3-0.2,0.3c-0.1,0.1-0.1,0.2-0.1,0.2c-0.1,0.2-0.3,0.3-0.4,0.3
			c-0.2,0-0.3-0.3-0.3-0.8c0-0.3,0.2-0.9,0.4-1.5c0.3-0.8,0.6-1.1,0.7-0.9c0.1,0.1,0.1,0.1,0.2,0.1c0.1,0,0.3,0,0.7-0.1
			c0.3-0.1,0.5-0.1,0.6-0.1c0.3,0,0.5,0.1,0.7,0.3C118.5,190.3,118.6,190.5,118.6,190.8z M117.7,190.9c0-0.3-0.1-0.5-0.3-0.5
			c-0.2,0-0.4,0-0.6,0.1c-0.3,0.1-0.6,0.3-0.7,0.6c0,0.1,0.1,0.1,0.1,0.2c0.1,0.1,0.2,0.2,0.3,0.3c0.2,0.2,0.3,0.3,0.4,0.3
			c0.1,0,0.2-0.1,0.4-0.3C117.6,191.3,117.7,191.1,117.7,190.9z"/>
		<path class="st0" d="M121.2,190.5c0,0.1-0.3,0.6-0.7,1.5c-0.5,0.9-0.7,1.3-0.8,1.3c-0.1,0-0.2-0.1-0.2-0.3c0-0.1-0.1-0.3,0-0.4
			c0-0.1,0.1-0.3,0.1-0.5s0.1-0.4,0.2-0.7c0.1-0.3,0.1-0.5,0.2-0.7c0.1-0.2,0.1-0.5,0.1-0.7c0-0.1,0-0.2,0.1-0.2
			c0-0.1,0.1-0.1,0.2-0.2c0.1-0.1,0.1-0.1,0.2-0.1c0.1,0,0.2,0,0.2,0c0.3,0.1,0.4,0.1,0.4,0.3c0,0.1,0,0.2,0.1,0.3
			C121.2,190.3,121.2,190.4,121.2,190.5z"/>
		<path class="st0" d="M126,189.1c-0.5-0.1-0.9,0-1.3,0.3c-0.1,0.1-0.2,0.2-0.3,0.3c-0.1,0.2-0.3,0.3-0.4,0.5
			c-0.7,0.8-1.2,1.8-1.5,2.8c-0.1,0.3-0.2,0.5-0.4,0.6c-0.1,0.1-0.3,0.1-0.4,0.1c-0.2,0-0.3-0.1-0.4-0.3c-0.1-0.2-0.1-0.3-0.1-0.4
			c0.1-0.3,0.4-0.9,0.9-1.7c0.3-0.4,0.6-0.8,0.9-1.1c0.3-0.3,0.6-0.7,0.9-0.9c0.7-0.7,1.3-0.9,1.6-0.9c0.2,0.1,0.4,0.2,0.6,0.4
			c0.1,0.2,0.1,0.3,0.1,0.3C126.2,189.1,126.1,189.1,126,189.1z"/>
		<path class="st0" d="M125.3,192.5c-0.1,0.1-0.2,0.2-0.3,0.3c-0.2,0.1-0.4,0.1-0.6,0.1c-0.1,0-0.2-0.1-0.2-0.3
			c-0.1-0.2-0.1-0.3,0-0.5c0.1-0.2,0.2-0.4,0.5-0.8c0.3-0.4,0.6-0.5,0.7-0.5c0.1,0,0.2,0.2,0.2,0.3c0,0.1,0,0.3-0.1,0.7
			c-0.1,0.2-0.1,0.3-0.1,0.4C125.3,192.3,125.3,192.4,125.3,192.5z"/>
		<path class="st0" d="M129.6,191.3c-0.1,0.3-0.4,0.6-1,0.8l-1.4,0.6l0.5,0.6c0.1,0.2,0.2,0.4,0.1,0.6c-0.1,0.4-0.4,0.7-0.7,1
			c-0.4,0.3-0.7,0.4-1,0.3c-0.1,0-0.2-0.1-0.4-0.3c-0.2-0.2-0.3-0.3-0.4-0.4c0,0,0.1-0.1,0.4-0.2c0.4-0.1,0.7-0.2,0.8-0.3
			c0.3-0.2,0.5-0.3,0.6-0.5c0,0-0.2-0.1-0.4-0.4c-0.3-0.3-0.4-0.5-0.3-0.7c0.1-0.3,0.4-0.5,0.9-0.7c0.3-0.1,0.6-0.3,0.9-0.4
			c0.2-0.1,0.4-0.2,0.5-0.3c0.1-0.1,0.1-0.1,0.1-0.2c0-0.1,0-0.1-0.1-0.2c-0.1,0-0.2,0-0.5,0.1c-0.3,0.1-0.4,0.2-0.5,0.1
			c-0.1,0-0.2-0.1-0.4-0.2c-0.2-0.1-0.2-0.3-0.2-0.4c0.1-0.3,0.4-0.4,0.8-0.5c0.4-0.1,0.8-0.1,1,0.1c0.3,0.1,0.5,0.3,0.6,0.7
			C129.6,190.8,129.6,191.1,129.6,191.3z"/>
	</g>
	<g>
		<path class="st1" d="M104,230c0-0.2,0-0.5,0-0.7c0-0.2,0-0.4,0-0.6c0-0.4,0-0.7,0-1.1c0-0.7,0.2-1.3,0.6-1.9l0,0
			c0.1-0.1,0.1-0.2,0.2-0.2c0,0,0.1,0,0.1,0l0,0c0.1,0,0.1,0,0.1,0c0,0,0.1,0.1,0.1,0.1l0,0c0,0,0,0.1-0.1,0.1l0,0
			c-0.1,0.1-0.1,0.2-0.2,0.3c-0.3,0.6-0.4,1.3-0.4,1.9c0,0.2,0,0.3,0,0.5c0,0.2,0.1,0.4,0.1,0.7c0,0.2,0,0.4,0,0.6
			c0,0.2,0,0.4,0,0.6c0,0.1,0,0.2,0,0.2l0,0c0,0.1,0,0.1-0.1,0.2c0,0.1-0.1,0.1-0.1,0.2c0,0,0,0.1-0.1,0.1c0,0,0-0.1,0-0.1
			c0-0.1-0.1-0.1-0.1-0.2c0-0.1,0-0.2,0-0.2c0-0.1,0-0.1,0-0.1L104,230L104,230z"/>
		<path class="st1" d="M107.1,226.2c0-0.3-0.1-0.6-0.1-0.9c0.1,0,0.1,0,0.1,0s0.1,0,0.1,0s0.1,0,0.1,0c0,0,0.1,0,0.1,0
			c0,0,0.1,0,0.1,0.1c0,0,0,0,0.1,0.1c0,0,0,0-0.1,0.1c0,0,0,0-0.1,0.1c0,0,0,0-0.1,0c-0.1,0-0.1,0-0.1,0.1c0,0,0,0.1,0,0.1
			c0,0,0,0.1,0,0.1l0,0.1c0,0.1,0,0.1,0,0.1c0,0.2,0.1,0.3,0.1,0.5l0,0c0,0,0,0.1,0,0.1c0,0,0,0.1-0.1,0.1c0,0,0,0.1-0.1,0.1l-0.1,0
			c-0.1,0-0.1-0.1-0.1-0.1c-0.1-0.1-0.2-0.2-0.2-0.2c-0.2-0.2-0.3-0.3-0.5-0.4c-0.1-0.1-0.2-0.1-0.2-0.1l0,0c-0.1,0-0.1,0.1-0.1,0.2
			c-0.1,0.2-0.1,0.3-0.1,0.5c0,0.1-0.1,0.2-0.1,0.3c0,0,0-0.1-0.1-0.1c-0.1-0.1-0.1-0.1-0.1-0.1s0-0.1,0-0.1c0-0.1,0-0.2,0-0.4
			c0-0.2,0.1-0.3,0.3-0.4c0.1-0.1,0.1-0.1,0.1-0.1c0,0,0.1,0,0.1,0c0.1,0,0.1,0,0.1,0.1c0.2,0.1,0.4,0.2,0.6,0.4
			C106.9,226.1,107,226.1,107.1,226.2z"/>
		<path class="st1" d="M111.1,223.2c-0.2-0.1-0.4-0.1-0.6-0.1c-0.4,0-0.8,0.3-1.1,0.8c-0.3,0.5-0.5,0.9-0.7,1.4
			c-0.1,0.3-0.1,0.5-0.1,0.8c0,0.1,0,0.3-0.1,0.4c0,0,0,0.1,0,0.1c0,0.1,0,0.3-0.1,0.4c0,0,0,0.1-0.1,0.1c0,0-0.1,0-0.1,0.1
			c0,0-0.1,0-0.1,0.1c0,0,0-0.1-0.1-0.1c-0.1-0.1-0.1-0.1-0.1-0.2c0,0,0-0.1,0-0.1l0,0c0,0,0-0.1,0-0.1c0,0,0-0.1,0-0.1
			c0.1,0,0.2-0.1,0.2-0.1c0-0.1,0-0.1,0-0.1s0-0.1,0-0.1s0-0.1,0-0.1c0,0,0,0,0-0.1c0.2-0.9,0.5-1.8,1-2.6c0.2-0.3,0.5-0.6,0.9-0.7
			c0.1-0.1,0.2-0.1,0.3-0.1c0.1,0,0.1,0,0.1,0C110.8,222.8,110.9,222.9,111.1,223.2z"/>
		<path class="st1" d="M109.9,227c0,0.1-0.1,0.2-0.1,0.3c-0.1,0.3-0.2,0.6-0.3,0.9c0,0.1-0.1,0.2-0.1,0.2c0,0,0,0-0.1,0
			c0,0,0,0-0.1,0c0,0,0,0-0.1,0c0,0,0,0,0-0.1s0,0,0-0.1l0,0c0.1-0.2,0.1-0.4,0.2-0.6c0.1-0.2,0.1-0.3,0.1-0.5c0-0.1,0-0.2,0-0.3
			l0,0c0,0,0-0.1,0-0.1c0-0.1,0-0.1,0.1-0.1c0,0,0-0.1,0-0.1c0,0,0,0,0,0l0,0c0,0,0,0,0.1,0c0,0,0,0,0,0c0.1,0.1,0.1,0.1,0.1,0.2
			C109.9,227,109.9,227,109.9,227z M110,226.1C110,226.1,109.9,226,110,226.1C109.9,226,109.9,226,110,226.1L110,226.1
			c-0.1-0.1-0.1-0.2-0.1-0.2c0-0.1,0-0.1,0-0.1s0,0,0,0c0-0.1,0-0.1,0.1-0.1c0.1-0.1,0.1-0.1,0.2-0.1c0,0,0.1,0,0.1,0
			c0.1,0,0.1,0.1,0.2,0.1c0.3,0.2,0.5,0.6,0.7,0.9c0,0.1,0,0.1,0,0.1c0,0,0,0.1,0,0.1l0,0c0,0,0,0,0,0l0,0l0,0c0,0-0.1,0-0.1,0
			c0,0,0,0-0.1,0c0-0.1-0.1-0.2-0.1-0.2c-0.1-0.2-0.1-0.3-0.2-0.4c-0.1-0.1-0.1-0.2-0.2-0.2c-0.1,0-0.1,0-0.1,0
			C110.2,226,110.1,226,110,226.1z"/>
		<path class="st1" d="M114.5,226.2L114.5,226.2C114.5,226.3,114.5,226.3,114.5,226.2c-0.1,0.1-0.1,0.1-0.1,0.1s0,0,0,0.1
			c0,0,0,0,0,0.1s0,0-0.1,0l0,0c0,0-0.1,0-0.1-0.1c0,0-0.1-0.1-0.1-0.1c0,0,0,0,0-0.1c0,0,0,0,0-0.1c0,0,0-0.1,0.1-0.1
			c0.1-0.1,0.1-0.1,0.2-0.1c0.1,0,0.1,0,0.1,0c0.1,0,0.1,0,0.2,0c0.2,0.1,0.3,0.2,0.3,0.4l0,0c0,0,0,0.1-0.1,0.1
			c0,0-0.1,0.1-0.1,0.1l0,0l0,0c0,0,0,0-0.1,0c0,0,0,0,0-0.1c0,0,0-0.1-0.1-0.1C114.7,226.4,114.6,226.4,114.5,226.2L114.5,226.2
			C114.6,226.3,114.6,226.3,114.5,226.2C114.6,226.3,114.6,226.3,114.5,226.2z M115.7,226.2C115.7,226.2,115.7,226.2,115.7,226.2
			c0-0.2-0.1-0.4-0.2-0.6c-0.1-0.2-0.3-0.3-0.6-0.4c0,0-0.1,0-0.1-0.1c0,0,0,0-0.1,0c0,0,0,0,0.1,0c0.1,0,0.1-0.1,0.1-0.1l0,0l0,0
			c0,0,0,0,0.1,0c0.3,0.1,0.5,0.2,0.7,0.5c0.1,0.3,0.2,0.5,0.2,0.7c0,0.1,0,0.2-0.1,0.3c0,0,0,0-0.1,0.1c0,0-0.1,0-0.1,0.1
			c0,0-0.1,0-0.1,0c0,0,0,0,0-0.1c0-0.1,0-0.1,0-0.1l0,0c0,0,0-0.1,0-0.1C115.7,226.3,115.7,226.3,115.7,226.2z"/>
		<path class="st1" d="M116.8,226.1L116.8,226.1L116.8,226.1L116.8,226.1c-0.1,0-0.1-0.1-0.1-0.1c-0.1-0.1-0.1-0.2-0.2-0.3l0,0
			c0,0,0-0.1,0-0.1c0-0.1,0.1-0.1,0.1-0.1c0,0,0,0,0,0l0,0c0,0,0.1,0,0.1,0c0,0,0.1,0,0.1,0.1c0.1,0.1,0.1,0.2,0.1,0.2
			c0,0.1,0,0.1,0,0.2c0,0,0,0.1,0,0.2C116.9,226.1,116.9,226.1,116.8,226.1C116.8,226.1,116.8,226.1,116.8,226.1z"/>
		<path class="st1" d="M118.3,227.2c0-0.1,0.1-0.1,0.1-0.2c0-0.1,0.1-0.1,0.1-0.2c0-0.1,0-0.1,0-0.2c0-0.1,0-0.1-0.1-0.2
			c-0.1-0.1-0.1-0.2-0.3-0.2c-0.1,0-0.2-0.1-0.3-0.1c-0.1,0-0.2,0-0.3-0.1c-0.1,0-0.1,0-0.1-0.1c0,0,0-0.1,0-0.1c0,0,0,0,0-0.1
			s0.1-0.1,0.1-0.1c0.1,0,0.1,0,0.1,0l0,0c0.2,0,0.5,0.1,0.7,0.1c0,0,0.1,0,0.1,0c0.2,0,0.3-0.1,0.3-0.2c0,0,0-0.1,0-0.1l0,0
			c0,0,0-0.1,0-0.1c0,0,0-0.1,0-0.1c-0.3-0.2-0.6-0.4-0.9-0.6c-0.1,0-0.1,0-0.1,0c0,0,0,0-0.1,0c0,0-0.1,0-0.1,0c0,0,0,0-0.1,0
			c0,0-0.1,0-0.1,0l0,0c0,0-0.1,0-0.1-0.1c0-0.1,0-0.1,0-0.1c0,0,0-0.1,0-0.1c0,0,0.1-0.1,0.1-0.1c0.1,0,0.2,0,0.2,0
			c0.1,0,0.2,0,0.3,0.1c0.3,0.1,0.6,0.3,0.9,0.5c0.2,0.2,0.3,0.3,0.3,0.4c0,0.2-0.1,0.3-0.3,0.5c-0.1,0.1-0.1,0.1-0.1,0.1
			c0,0,0,0.1,0,0.1c0,0,0,0.1,0,0.1c0,0.1,0.1,0.2,0.1,0.2c0,0.1,0,0.2-0.1,0.2c-0.1,0.1-0.2,0.2-0.3,0.2L118.3,227.2z"/>
		<path class="st1" d="M120.1,227c0-0.2-0.1-0.3-0.1-0.5c-0.1-0.3-0.2-0.7-0.2-1c0-0.1,0-0.1,0-0.2c0-0.1-0.1-0.2-0.1-0.4
			c0-0.1,0-0.2,0.1-0.4c0,0,0,0,0-0.1c0-0.1,0-0.1,0.1-0.1c0,0,0,0,0.1,0c0,0,0,0,0.1,0c0,0,0.1,0,0.1,0.1c0,0,0.1,0.1,0.1,0.1
			c0,0,0,0,0,0.1l0,0l0,0l0,0c0,0,0,0,0,0c0,0.1,0,0.2,0,0.3c0,0.2,0,0.3,0.1,0.5c0,0.1,0,0.1,0.1,0.2c0.1,0.3,0.1,0.6,0.1,0.8l0,0
			c0,0.1,0,0.2,0,0.2c0,0.1,0,0.1-0.1,0.1C120.1,227,120.1,227,120.1,227z"/>
		<path class="st1" d="M121,226.3L121,226.3C121,226.3,121,226.3,121,226.3c-0.1,0.1-0.1,0.1-0.1,0.1s0,0,0,0.1c0,0,0,0,0,0.1
			s0,0-0.1,0l0,0c0,0-0.1,0-0.1-0.1c0,0-0.1-0.1-0.1-0.1c0,0,0,0,0-0.1c0,0,0,0,0-0.1c0,0,0-0.1,0.1-0.1c0.1-0.1,0.1-0.1,0.2-0.1
			c0.1,0,0.1,0,0.1,0c0.1,0,0.1,0,0.2,0c0.2,0.1,0.3,0.2,0.3,0.4l0,0c0,0,0,0.1-0.1,0.1s-0.1,0.1-0.1,0.1l0,0l0,0c0,0,0,0-0.1,0
			c0,0,0,0,0-0.1c0,0,0-0.1-0.1-0.1C121.2,226.4,121.1,226.4,121,226.3L121,226.3C121.1,226.3,121.1,226.3,121,226.3
			C121.1,226.3,121.1,226.3,121,226.3z M122.2,226.2C122.2,226.2,122.2,226.2,122.2,226.2c0-0.2-0.1-0.4-0.2-0.6
			c-0.1-0.2-0.3-0.3-0.6-0.4c0,0-0.1,0-0.1-0.1c0,0,0,0-0.1,0c0,0,0,0,0.1,0c0.1,0,0.1-0.1,0.1-0.1l0,0l0,0c0,0,0,0,0.1,0
			c0.3,0.1,0.5,0.2,0.7,0.5c0.1,0.3,0.2,0.5,0.2,0.7c0,0.1,0,0.2-0.1,0.3c0,0,0,0-0.1,0.1c0,0-0.1,0-0.1,0.1c0,0-0.1,0-0.1,0
			c0,0,0,0,0-0.1c0-0.1,0-0.1,0-0.1l0,0c0,0,0-0.1,0-0.1C122.2,226.3,122.2,226.3,122.2,226.2z"/>
	</g>
	<g>
		<path class="st2" d="M106.3,229c0.2,0,0.3,0.1,0.3,0.1c0.1,0.1,0.2,0.2,0.3,0.3c0.1,0.2,0.2,0.3,0.2,0.4c0,0.2-0.1,0.3-0.2,0.5
			c-0.2,0.2-0.4,0.3-0.6,0.3c-0.1,0-0.1,0-0.2,0c-0.2,0-0.3,0-0.5-0.1c-0.3-0.1-0.4-0.3-0.4-0.6c0-0.1,0-0.2,0-0.2
			c0.1-0.4,0.3-0.6,0.6-0.7c0.1-0.1,0.2-0.1,0.3-0.1C106.2,228.9,106.3,229,106.3,229L106.3,229z M106,230.4c0.2,0,0.4-0.1,0.6-0.2
			c0.2-0.1,0.3-0.3,0.3-0.4l0,0c0-0.2-0.1-0.3-0.2-0.4c-0.2-0.1-0.4-0.2-0.6-0.2c-0.4,0-0.6,0.2-0.7,0.7l0,0
			C105.4,230.2,105.6,230.4,106,230.4L106,230.4z"/>
		<path class="st2" d="M108,228.8c0.1-0.1,0.2-0.2,0.3-0.2c0.1,0,0.2-0.1,0.3-0.1l0.1,0c0,0,0.1,0,0.1,0c0.3,0,0.6,0.1,0.9,0.1
			c0,0,0,0,0,0c0,0,0,0,0,0c0,0,0.1,0,0.1,0.1c-0.2,0-0.3,0.1-0.5,0.1c-0.1,0-0.3,0-0.4-0.1c-0.1,0-0.2,0-0.2,0
			c-0.2,0-0.4,0.1-0.7,0.3c0.1,0.2,0.3,0.2,0.5,0.3c0.3,0.1,0.7,0.2,0.9,0.5c0.1,0.1,0.1,0.1,0.2,0.2c0,0.1,0.1,0.1,0.1,0.2
			c0,0.1-0.1,0.2-0.2,0.3c-0.1,0.1-0.2,0.1-0.3,0.2c-0.2,0.1-0.4,0.1-0.7,0.1c-0.3,0-0.6-0.1-0.8-0.2c-0.1,0-0.1-0.1-0.2-0.1
			c-0.1,0-0.1-0.1-0.1-0.2c0.1,0,0.2,0.1,0.2,0.1c0.2,0.1,0.3,0.1,0.5,0.1c0.1,0,0.1,0,0.2,0c0.1,0,0.1,0,0.1,0l0,0
			c0.2,0,0.3,0,0.5-0.1l0,0c0.1,0,0.1,0,0.2,0c0.2-0.1,0.3-0.2,0.3-0.3c0-0.1-0.1-0.2-0.1-0.3c-0.1-0.1-0.3-0.2-0.5-0.3
			c-0.2-0.1-0.4-0.1-0.6-0.2c-0.1,0-0.1-0.1-0.2-0.1c-0.1,0-0.1-0.1-0.1-0.1c-0.1-0.1-0.1-0.1-0.1-0.2c0-0.1,0-0.1,0.1-0.2
			L108,228.8L108,228.8L108,228.8L108,228.8z"/>
		<path class="st2" d="M111.7,230.6L111.7,230.6c-0.1,0-0.1,0-0.2-0.1c-0.1,0-0.1-0.1-0.1-0.2c0-0.1-0.1-0.2-0.1-0.3
			c0-0.1,0-0.2,0-0.3l0-0.1c0-0.1,0-0.2,0-0.3c-0.1,0.2-0.2,0.3-0.2,0.3c-0.1,0.1-0.1,0.1-0.2,0.2c-0.1,0.1-0.2,0.1-0.2,0.1
			s-0.1,0-0.2-0.1c-0.1,0-0.2-0.1-0.2-0.3c-0.1-0.3-0.2-0.7-0.3-1.1l0,0c0,0,0,0,0-0.1c0,0,0,0,0-0.1s0,0,0-0.1
			c0-0.1,0.1-0.1,0.1-0.1l0,0c0,0,0,0,0,0.1c0,0,0,0,0,0.1c0,0,0.1,0.1,0.1,0.1s0.1,0.1,0.1,0.1c0,0.1,0.1,0.2,0.1,0.3
			c0,0.2,0.1,0.3,0.1,0.4c0.1,0.1,0.1,0.2,0.1,0.3c0,0,0.1,0.1,0.1,0.2c0.1-0.1,0.1-0.1,0.2-0.2c0.1-0.1,0.2-0.2,0.3-0.3
			c0.1-0.1,0.2-0.3,0.2-0.4c0.1-0.1,0.1-0.2,0.2-0.3c0-0.1,0.1-0.1,0.1-0.1l0.1,0.2l0,0c0,0.2-0.1,0.3-0.1,0.5c0,0.1,0,0.1,0,0.2
			c0,0,0,0.1,0,0.1c0,0.1,0,0.1,0,0.1c0,0.4,0.1,0.7,0.2,0.9c0.1,0.1,0.1,0.1,0.1,0.1C111.8,230.6,111.8,230.6,111.7,230.6z"/>
		<path class="st2" d="M112.9,228.3c0,0,0.1,0,0.1,0c0.1,0,0.2,0.1,0.3,0.2c0.1,0.1,0.1,0.2,0.2,0.3c0,0.1,0.1,0.3,0.1,0.4
			s0,0.3-0.1,0.5c-0.1,0.2-0.1,0.3-0.1,0.3c0,0,0.1,0.1,0.2,0.1c0.2,0.1,0.3,0.2,0.4,0.2c0.1,0.1,0.1,0.1,0.2,0.2c0,0,0,0,0.1,0.1
			c0,0,0,0,0,0.1s0,0.1,0,0.1c0,0,0,0.1,0,0.1c0,0,0,0-0.1,0c0,0-0.1,0-0.1,0c0,0,0,0-0.1,0c-0.1-0.1-0.2-0.2-0.4-0.3
			c-0.1,0-0.1-0.1-0.2-0.1c-0.1-0.1-0.3,0-0.4,0.1c-0.1,0.1-0.2,0.2-0.4,0.3c0,0-0.1,0-0.1,0c-0.1,0-0.1,0-0.2,0l0,0
			c-0.1,0-0.1-0.1-0.1-0.1c0,0,0,0,0-0.1s0-0.1,0.1-0.1c0-0.1,0.1-0.1,0.1-0.1c0.1-0.1,0.3-0.1,0.5-0.2c0.2-0.1,0.3-0.2,0.3-0.4
			c0,0,0-0.1,0-0.2c0-0.1,0-0.2,0-0.4c0-0.3-0.1-0.4-0.3-0.5c-0.1,0-0.2-0.1-0.2-0.1c-0.1,0-0.1,0-0.1-0.1c-0.1,0-0.1-0.1,0-0.1
			C112.6,228.3,112.8,228.3,112.9,228.3z"/>
		<path class="st2" d="M114.6,229.7c0.3-0.3,0.6-0.7,0.8-1.1l0-0.1c0.1-0.2,0.2-0.4,0.5-0.7c0,0.1,0,0.1,0,0.2c0,0.1,0,0.2,0,0.3
			l0,0c0,0.4-0.1,0.8-0.1,1.2c0,0.1-0.1,0.2-0.1,0.3c0,0.1-0.1,0.2-0.1,0.3l0,0.1c0,0.1,0,0.1,0,0.2c0,0,0,0.1,0,0.1
			c0,0.1,0.1,0.1,0.2,0.1c0,0,0,0,0,0s0,0,0,0c0,0,0,0.1,0,0.1c0,0,0,0.1,0,0.1l0,0c0,0,0,0-0.1,0l0,0c0,0,0,0,0,0l0,0
			c0,0-0.1-0.1-0.1-0.1s-0.1-0.1-0.1-0.2l0-0.1c0-0.3,0.1-0.6,0.1-0.9c0.1-0.2,0.1-0.4,0.1-0.6c0-0.2,0-0.3,0.1-0.5
			c0-0.1,0-0.2,0-0.2c0,0,0,0.1-0.1,0.1c0,0.1-0.1,0.1-0.1,0.1c-0.2,0.4-0.5,0.9-0.9,1.2c0,0-0.1,0.1-0.1,0.1c0,0-0.1,0-0.1,0
			C114.6,229.8,114.6,229.7,114.6,229.7L114.6,229.7z"/>
		<path class="st2" d="M118.1,230.6L118.1,230.6c-0.1,0-0.1,0-0.2-0.1c-0.1,0-0.1-0.1-0.1-0.2c0-0.1-0.1-0.2-0.1-0.3
			c0-0.1,0-0.2,0-0.3l0-0.1c0-0.1,0-0.2,0-0.3c-0.1,0.2-0.2,0.3-0.2,0.3c-0.1,0.1-0.1,0.1-0.2,0.2c-0.1,0.1-0.2,0.1-0.2,0.1
			s-0.1,0-0.2-0.1c-0.1,0-0.2-0.1-0.2-0.3c-0.1-0.3-0.2-0.7-0.3-1.1l0,0c0,0,0,0,0-0.1c0,0,0,0,0-0.1c0,0,0,0,0-0.1
			c0-0.1,0.1-0.1,0.1-0.1l0,0c0,0,0,0,0,0.1c0,0,0,0,0,0.1c0,0,0.1,0.1,0.1,0.1s0.1,0.1,0.1,0.1c0,0.1,0.1,0.2,0.1,0.3
			c0,0.2,0.1,0.3,0.1,0.4c0.1,0.1,0.1,0.2,0.1,0.3c0,0,0.1,0.1,0.1,0.2c0.1-0.1,0.1-0.1,0.2-0.2c0.1-0.1,0.2-0.2,0.3-0.3
			c0.1-0.1,0.2-0.3,0.2-0.4c0.1-0.1,0.1-0.2,0.2-0.3c0-0.1,0.1-0.1,0.1-0.1l0.1,0.2l0,0c0,0.2-0.1,0.3-0.1,0.5c0,0.1,0,0.1,0,0.2
			c0,0,0,0.1,0,0.1c0,0.1,0,0.1,0,0.1c0,0.4,0.1,0.7,0.2,0.9c0.1,0.1,0.1,0.1,0.1,0.1C118.2,230.6,118.2,230.6,118.1,230.6z"/>
		<path class="st2" d="M121,228.1C120.9,228.1,120.9,228.1,121,228.1c-0.1,0.1-0.1,0.1-0.1,0.1c-0.3,0.2-0.6,0.3-0.8,0.6
			c-0.3,0.4-0.6,0.8-0.9,1.2c-0.1,0.1-0.1,0.3-0.1,0.4c0,0,0,0.1,0,0.1c0,0.1,0,0.1,0.1,0.2c0,0,0.1,0,0.1,0c0,0,0.1,0,0.1-0.1
			c0,0,0,0,0,0c0.3-0.2,0.5-0.4,0.8-0.5c0.1,0,0.1-0.1,0.1-0.1c0-0.1,0.1-0.1,0.1-0.2c0,0,0-0.1,0-0.1c0-0.1,0-0.1-0.1-0.1
			s-0.1-0.1-0.1-0.1c0,0-0.1,0-0.1,0c-0.1,0-0.2,0.1-0.3,0.1l-0.1,0c0,0-0.1,0.1-0.1,0.1c0,0-0.1,0-0.1,0.1l0,0l0,0l0,0
			c0,0,0,0,0-0.1l0,0l0,0c0,0,0-0.1,0-0.1c0,0,0-0.1,0.1-0.1c0.2-0.1,0.3-0.2,0.5-0.3c0,0,0.1,0,0.1,0c0.2,0,0.4,0.1,0.4,0.3
			c0,0,0,0.1,0,0.1c-0.1,0.2-0.2,0.4-0.4,0.6c-0.2,0.2-0.4,0.3-0.7,0.4c-0.1,0.1-0.1,0.1-0.2,0.1c0,0,0,0-0.1,0
			c-0.1,0-0.1,0-0.2-0.1c-0.1-0.1-0.2-0.2-0.2-0.3c0-0.1,0-0.1,0-0.2c0.1-0.2,0.1-0.4,0.2-0.6c0,0,0.1-0.1,0.1-0.1
			c0.3-0.4,0.6-0.8,0.9-1.1c0.2-0.1,0.3-0.3,0.5-0.4c0.1,0,0.1-0.1,0.1-0.1c0.1,0,0.1,0,0.1,0c0,0,0.1,0,0.1,0
			C121,228,121,228.1,121,228.1L121,228.1z M121.2,228C121.2,228,121.2,228,121.2,228L121.2,228L121.2,228
			C121.1,228,121.1,228,121.2,228c-0.1,0-0.1,0-0.1-0.1c0,0,0,0,0,0C121.1,228,121.1,228,121.2,228L121.2,228
			C121.1,228,121.1,228,121.2,228C121.2,228,121.2,228,121.2,228C121.2,228,121.2,228,121.2,228L121.2,228
			C121.2,228,121.2,228,121.2,228L121.2,228z"/>
		<path class="st2" d="M121.1,229.7c0.3-0.3,0.6-0.7,0.8-1.1l0-0.1c0.1-0.2,0.2-0.4,0.5-0.7c0,0.1,0,0.1,0,0.2c0,0.1,0,0.2,0,0.3
			l0,0c0,0.4-0.1,0.8-0.1,1.2c0,0.1-0.1,0.2-0.1,0.3c0,0.1-0.1,0.2-0.1,0.3l0,0.1c0,0.1,0,0.1,0,0.2c0,0,0,0.1,0,0.1
			c0,0.1,0.1,0.1,0.2,0.1c0,0,0,0,0,0c0,0,0,0,0,0c0,0,0,0.1,0,0.1c0,0,0,0.1,0,0.1l0,0c0,0,0,0-0.1,0l0,0c0,0,0,0,0,0l0,0
			c0,0-0.1-0.1-0.1-0.1s-0.1-0.1-0.1-0.2l0-0.1c0-0.3,0.1-0.6,0.1-0.9c0.1-0.2,0.1-0.4,0.1-0.6c0-0.2,0-0.3,0.1-0.5
			c0-0.1,0-0.2,0-0.2c0,0,0,0.1-0.1,0.1c0,0.1-0.1,0.1-0.1,0.1c-0.2,0.4-0.5,0.9-0.9,1.2c0,0-0.1,0.1-0.1,0.1c0,0-0.1,0-0.1,0
			C121.1,229.8,121.1,229.7,121.1,229.7L121.1,229.7z"/>
		<path class="st2" d="M123.6,228.4c0,0,0.1,0,0.1,0c0.1,0,0.2,0.1,0.3,0.2c0.1,0.1,0.1,0.2,0.2,0.3c0,0.1,0.1,0.3,0.1,0.4
			c0,0.1,0,0.3-0.1,0.5c-0.1,0.2-0.1,0.3-0.1,0.3s0.1,0.1,0.2,0.1c0.2,0.1,0.3,0.2,0.4,0.2c0.1,0.1,0.1,0.1,0.2,0.2c0,0,0,0,0.1,0.1
			c0,0,0,0,0,0.1s0,0.1,0,0.1c0,0,0,0.1,0,0.1c0,0,0,0-0.1,0c0,0-0.1,0-0.1,0c0,0,0,0-0.1,0c-0.1-0.1-0.2-0.2-0.4-0.3
			c-0.1,0-0.1-0.1-0.2-0.1c-0.1-0.1-0.3,0-0.4,0.1c-0.1,0.1-0.2,0.2-0.4,0.3c0,0-0.1,0-0.1,0c-0.1,0-0.1,0-0.2,0l0,0
			c-0.1,0-0.1-0.1-0.1-0.1c0,0,0,0,0-0.1s0-0.1,0.1-0.1c0-0.1,0.1-0.1,0.1-0.1c0.1-0.1,0.3-0.1,0.5-0.2c0.2-0.1,0.3-0.2,0.3-0.4
			c0,0,0-0.1,0-0.2c0-0.1,0-0.2,0-0.4c0-0.3-0.1-0.4-0.3-0.5c-0.1,0-0.2-0.1-0.2-0.1s-0.1,0-0.1-0.1c-0.1,0-0.1-0.1,0-0.1
			C123.3,228.3,123.4,228.3,123.6,228.4z"/>
		<path class="st2" d="M126.9,230.1c0,0.1-0.1,0.2-0.3,0.3c0,0-0.1,0-0.1,0.1c-0.2,0.1-0.4,0.2-0.6,0.2c-0.3,0-0.5-0.1-0.7-0.2
			c0,0,0,0-0.1-0.1c0,0,0,0,0-0.1l0,0c0,0,0-0.1,0-0.1l0,0c0,0,0,0,0,0c0,0,0,0,0,0l0,0c0.2,0.1,0.4,0.2,0.5,0.2c0,0,0.1,0,0.2,0
			c0.1,0,0.3-0.1,0.5-0.2c0.1-0.1,0.2-0.1,0.2-0.2l0,0c0-0.1-0.1-0.2-0.2-0.3c-0.2-0.2-0.5-0.2-0.7-0.2c-0.1,0-0.2,0-0.3,0.1
			c0,0-0.1,0-0.1,0c0,0-0.1,0-0.1,0c0,0-0.1,0-0.1,0c0,0-0.1,0-0.1-0.1c0,0,0,0,0-0.1l0,0c0,0,0,0,0,0c0,0,0,0,0.1,0l0,0
			c0.1,0,0.2-0.1,0.4-0.1c0.2-0.1,0.4-0.1,0.6-0.2c0.1,0,0.1-0.1,0.2-0.1c0,0,0.1,0,0.1-0.1c0-0.1-0.1-0.1-0.1-0.1
			c0-0.1-0.1-0.1-0.1-0.2c-0.1-0.1-0.2-0.1-0.3-0.1c-0.1,0-0.2-0.1-0.3-0.1c0,0-0.1-0.1-0.1-0.1c0,0,0-0.1,0-0.1c0,0,0-0.1,0.1-0.1
			c0,0,0.1,0,0.1,0l0,0c0.1,0,0.1,0,0.1,0c0.1,0.1,0.1,0.1,0.2,0.1c0.1,0,0.1,0.1,0.2,0.1c0.1,0,0.2,0.1,0.3,0.2
			c0,0,0.1,0.1,0.1,0.1c0,0,0.1,0,0.1,0c0.1,0.1,0.2,0.1,0.2,0.2l0,0c0,0.1,0,0.1-0.1,0.2c-0.1,0.1-0.2,0.2-0.4,0.3
			c0.1,0,0.2,0.1,0.3,0.1c0.1,0.1,0.1,0.1,0.1,0.1c0,0,0.1,0.1,0.1,0.1c0.1,0.1,0.1,0.1,0.1,0.1c0,0,0.1,0.1,0.1,0.2
			C126.9,230,126.9,230,126.9,230.1z"/>
	</g>
	<g>
		<g>
			<g>
				<g>
					<path class="st3" d="M90,214.2c-0.1-0.2-0.1-0.3-0.2-0.4c-0.2-0.6-0.4-1.1-0.4-1.7c0-0.1,0-0.3-0.1-0.4c-0.1-0.5,0-1,0.2-1.4
						c0.1-0.2,0.2-0.4,0.5-0.4c0.1,0.1,0.1,0.2,0.1,0.2c0.1,0.3,0.2,0.5,0.2,0.8c0.2,1,0.2,2.1-0.2,3.1c0,0,0,0.1-0.1,0.1
						C90.1,214.1,90.1,214.1,90,214.2z"/>
					<path class="st3" d="M90.3,215.1c0-0.1-0.1-0.2-0.1-0.3c0.2-0.6,0.4-1.3,0.9-1.7c0.3-0.3,0.7-0.4,1.2-0.4
						c0.3,0,0.4,0.1,0.4,0.4c0,0.1,0,0.3-0.1,0.4c-0.1,0.1-0.2,0.3-0.3,0.4c-0.4,0.4-0.8,0.7-1.3,0.9
						C90.8,214.9,90.6,215,90.3,215.1z"/>
					<path class="st3" d="M87.3,212.3c0.3,0,0.4,0.1,0.6,0.3c0.6,0.5,1.2,1,1.7,1.6c0.1,0.2,0.3,0.3,0.3,0.6c0,0.1,0.1,0.1,0.1,0.2
						c0,0.1,0.1,0.2,0.1,0.3c-0.2,0-0.4-0.1-0.6-0.2c-0.9-0.5-1.6-1.1-2-2C87.3,212.8,87.2,212.6,87.3,212.3z"/>
					<path class="st3" d="M90.6,218c-0.4-0.1-0.7-0.1-1-0.3c-0.6-0.2-1.1-0.4-1.5-0.8c-0.1-0.1-0.2-0.2-0.3-0.4
						c-0.1-0.1,0-0.2-0.1-0.2c0.3-0.1,0.5-0.1,0.7-0.1c0.5,0.2,1,0.4,1.4,0.6C90.3,217.1,90.5,217.5,90.6,218z"/>
					<path class="st3" d="M95.6,218.8c0.3,0.8,0.2,2-0.3,2.9c-0.3-0.1-0.4-0.3-0.5-0.6c-0.1-0.4-0.1-0.9,0-1.3
						c0.1-0.4,0.3-0.8,0.7-1C95.5,218.9,95.5,218.9,95.6,218.8C95.6,218.8,95.6,218.8,95.6,218.8z"/>
					<path class="st3" d="M92.7,215.5c0.1,0.3,0,0.5-0.1,0.7c-0.1,0.1-0.2,0.3-0.3,0.3c-0.4,0.3-0.7,0.7-1,1.1c0,0-0.1,0.1-0.1,0.1
						c-0.1,0-0.2-0.1-0.2-0.2c-0.1-0.4-0.1-0.8,0.1-1.2c0.1-0.3,0.3-0.5,0.6-0.6c0.2-0.1,0.4-0.2,0.7-0.2
						C92.4,215.4,92.5,215.4,92.7,215.5z"/>
					<path class="st3" d="M94.2,217.2c0,0.2,0,0.4,0,0.6c0,0.3-0.1,0.5-0.2,0.7c-0.3,0.5-0.6,1-1.1,1.4c0,0-0.1,0-0.1,0
						c-0.1,0-0.1-0.1-0.1-0.2c-0.1-0.6,0-1.1,0.4-1.6c0.2-0.3,0.4-0.6,0.7-0.8c0.1-0.1,0.2-0.2,0.3-0.3
						C94.1,217.2,94.2,217.2,94.2,217.2z"/>
					<path class="st3" d="M92,220.3c-0.3,0.1-0.6,0.1-0.9,0.1c-0.5,0.1-1,0-1.5-0.1c-0.2,0-0.2-0.1-0.2-0.3c0-0.1,0-0.2,0.1-0.3
						c0.1-0.3,0.3-0.4,0.6-0.4c0.1,0,0.2,0.1,0.4,0.1c0.5,0.1,0.9,0.3,1.4,0.6C91.8,220.1,91.9,220.2,92,220.3z"/>
					<path class="st3" d="M94.2,222C94.2,222,94.2,222,94.2,222c-0.4,0.4-0.9,0.6-1.5,0.6c-0.2,0-0.3,0-0.5,0c-0.1,0-0.2,0-0.3-0.1
						c-0.1,0-0.1-0.1-0.1-0.1c-0.1-0.2,0-0.5,0.2-0.6c0.1,0,0.2-0.1,0.3-0.1c0.5,0,1,0.1,1.4,0.1C93.9,221.9,94.1,221.9,94.2,222z"
						/>
				</g>
				<path class="st4" d="M93,220.5c0.5,0.4,0.9,0.8,1.5,1.1c-0.2-0.5-0.2-0.9-0.2-1.4c0-0.7,0.3-1.2,0.8-1.6
					c0.1-0.1,0.2-0.1,0.3-0.2c0.2-0.1,0.3-0.1,0.4,0.1c0.1,0.1,0.1,0.2,0.2,0.3c0.1,0.6,0.2,1.2,0,1.8c-0.1,0.5-0.2,1-0.5,1.4
					c0.4,0.2,0.7,0.3,1.1,0.4c0.1,0,0.3,0.1,0.4,0.1c0.1,0,0.2,0.1,0.2,0.2c0,0.1-0.1,0.2-0.2,0.2c-0.1,0-0.1,0-0.2,0
					c-0.5-0.1-0.9-0.2-1.4-0.4c-0.2-0.1-0.5-0.2-0.7-0.3c-0.2,0.1-0.5,0.2-0.7,0.3c-0.6,0.4-1.3,0.4-1.9,0.4c0,0-0.1,0-0.1,0
					c-0.7-0.2-0.7-0.3-0.6-1c0-0.2,0.1-0.3,0.3-0.4c0.2-0.1,0.4-0.2,0.7-0.2c0.2,0,0.5,0.1,0.7,0.1c0.1,0,0.2,0,0.3,0
					c-0.1-0.1-0.1-0.1-0.1-0.2c-0.1-0.1-0.3-0.2-0.4-0.4c-0.2-0.2-0.5-0.3-0.8-0.3c-0.3,0-0.5,0.1-0.8,0.1c-0.6,0.1-1.2,0.1-1.9,0
					c-0.4-0.1-0.6-0.3-0.5-0.7c0-0.2,0.1-0.3,0.1-0.5c0.2-0.5,0.6-0.7,1.1-0.5c0.4,0.1,0.7,0.3,1,0.4c0.1,0.1,0.2,0.1,0.3,0.1
					c0-0.1,0-0.1,0-0.1c-0.2-0.3-0.3-0.6-0.5-0.9c0,0,0-0.1-0.1-0.1c-0.1-0.1-0.2-0.1-0.2-0.1c-0.3-0.1-0.7-0.2-1-0.2
					c-0.5-0.1-0.9-0.4-1.4-0.6c-0.2-0.1-0.3-0.2-0.5-0.3c-0.2-0.2-0.4-0.3-0.5-0.6c-0.2-0.4,0-0.8,0.5-0.8c0.3,0,0.6,0,0.8,0.1
					c0.4,0.2,0.8,0.3,1.2,0.5c0.1,0,0.2,0.1,0.3,0.1c0-0.3-0.1-0.6-0.1-0.8c-0.1,0-0.2-0.1-0.3-0.1c-0.4-0.1-0.8-0.3-1.2-0.6
					c-0.7-0.5-1.2-1-1.5-1.8c-0.2-0.3-0.3-0.7-0.2-1.1c0-0.3,0.2-0.4,0.5-0.4c0.2,0.1,0.4,0.1,0.6,0.3c0.2,0.2,0.4,0.3,0.6,0.5
					s0.4,0.3,0.6,0.5c0,0,0.1,0.1,0.2,0.1c0-0.2-0.1-0.3-0.1-0.4c-0.1-0.5-0.2-1-0.2-1.6c-0.1-0.5,0.1-0.9,0.3-1.3
					c0.1-0.3,0.4-0.4,0.7-0.6c0.1-0.1,0.2,0,0.3,0.1c0.1,0.1,0.2,0.3,0.2,0.4c0.1,0.3,0.2,0.7,0.3,1c0.1,0.6,0.1,1.2,0.1,1.9
					c0.1,0.1,0.2,0,0.2-0.1c0.4-0.3,0.8-0.4,1.3-0.4c0.1,0,0.2,0,0.3,0.1c0.2,0.1,0.3,0.2,0.4,0.4c0.1,0.3,0.1,0.6-0.1,0.9
					c-0.1,0.2-0.2,0.3-0.4,0.5c-0.4,0.4-0.9,0.8-1.5,1c-0.2,0.1-0.4,0.2-0.7,0.3c0,0.3,0,0.5,0.2,0.9c0.1-0.1,0.1-0.2,0.1-0.2
					c0.1-0.4,0.4-0.7,0.7-0.9c0.3-0.2,0.6-0.3,0.9-0.3c0.1,0,0.2,0,0.3,0c0.3,0,0.4,0.2,0.4,0.5c0,0.3-0.1,0.7-0.3,0.9
					c-0.1,0.2-0.2,0.3-0.4,0.4c-0.4,0.3-0.6,0.7-1,1c-0.1,0.1-0.1,0.2-0.2,0.3c0.2,0.5,0.5,0.9,0.8,1.3c0.1,0.1,0.2,0.2,0.3,0.3
					c0.1-0.1,0.1-0.1,0.1-0.2c0-0.1,0-0.3,0-0.4c0-0.3,0.1-0.5,0.2-0.7c0.3-0.6,0.7-1.2,1.3-1.6c0.1-0.1,0.1-0.1,0.2-0.1
					c0.2-0.1,0.4,0,0.4,0.2c0,0.1,0,0.1,0,0.2c0,0.4,0,0.7,0,1.1c0,0.3-0.2,0.5-0.3,0.8c-0.3,0.5-0.6,0.9-1,1.3
					C93.2,220.4,93.1,220.4,93,220.5C93.1,220.4,93.1,220.4,93,220.5z M90,214.2c0.1-0.1,0.1-0.1,0.1-0.1c0,0,0-0.1,0.1-0.1
					c0.4-1,0.4-2,0.2-3.1c-0.1-0.3-0.1-0.6-0.2-0.8c0-0.1-0.1-0.2-0.1-0.2c-0.3,0.1-0.4,0.2-0.5,0.4c-0.2,0.5-0.2,0.9-0.2,1.4
					c0,0.1,0,0.3,0.1,0.4c0.1,0.6,0.2,1.2,0.4,1.7C89.8,214,89.9,214.1,90,214.2z M90.3,215.1c0.3-0.1,0.5-0.2,0.8-0.3
					c0.5-0.2,0.9-0.5,1.3-0.9c0.1-0.1,0.2-0.2,0.3-0.4c0.1-0.1,0.1-0.3,0.1-0.4c0-0.3-0.1-0.4-0.4-0.4c-0.4,0-0.8,0.1-1.2,0.4
					c-0.5,0.5-0.7,1.1-0.9,1.7C90.3,214.9,90.3,215,90.3,215.1z M87.3,212.3c-0.1,0.3,0,0.5,0.1,0.7c0.4,0.9,1.2,1.6,2,2
					c0.2,0.1,0.3,0.1,0.6,0.2c0-0.1-0.1-0.2-0.1-0.3c0-0.1-0.1-0.2-0.1-0.2c0-0.3-0.1-0.4-0.3-0.6c-0.5-0.6-1.1-1.1-1.7-1.6
					C87.7,212.4,87.5,212.3,87.3,212.3z M90.6,218c-0.1-0.5-0.3-0.9-0.7-1.1c-0.5-0.2-1-0.4-1.4-0.6c-0.2-0.1-0.5-0.1-0.7,0.1
					c0,0.1,0,0.2,0.1,0.2c0.1,0.1,0.2,0.3,0.3,0.4c0.5,0.4,1,0.6,1.5,0.8C89.9,217.8,90.3,217.9,90.6,218z M95.6,218.8
					C95.6,218.8,95.6,218.8,95.6,218.8c-0.1,0-0.1,0-0.2,0.1c-0.3,0.3-0.6,0.6-0.7,1c-0.1,0.4-0.1,0.9,0,1.3
					c0.1,0.3,0.2,0.5,0.5,0.6C95.8,220.8,96,219.6,95.6,218.8z M92.7,215.5c-0.2-0.1-0.3-0.1-0.4,0c-0.2,0.1-0.4,0.1-0.7,0.2
					c-0.3,0.1-0.4,0.3-0.6,0.6c-0.2,0.4-0.2,0.8-0.1,1.2c0,0.1,0,0.2,0.2,0.2c0,0,0.1-0.1,0.1-0.1c0.3-0.4,0.7-0.8,1-1.1
					c0.1-0.1,0.2-0.2,0.3-0.3C92.7,215.9,92.8,215.7,92.7,215.5z M94.2,217.2c-0.1,0-0.1,0-0.1,0c-0.1,0.1-0.2,0.2-0.3,0.3
					c-0.2,0.3-0.4,0.5-0.7,0.8c-0.4,0.5-0.4,1-0.4,1.6c0,0.1,0,0.1,0.1,0.2c0,0,0.1,0,0.1,0c0.5-0.4,0.8-0.9,1.1-1.4
					c0.1-0.2,0.2-0.5,0.2-0.7S94.2,217.4,94.2,217.2z M92,220.3c-0.1-0.1-0.1-0.1-0.2-0.2c-0.4-0.2-0.9-0.4-1.4-0.6
					c-0.1,0-0.2-0.1-0.4-0.1c-0.3,0-0.5,0.1-0.6,0.4c0,0.1-0.1,0.2-0.1,0.3c0,0.2,0.1,0.2,0.2,0.3c0.5,0.1,1,0.1,1.5,0.1
					C91.4,220.4,91.6,220.3,92,220.3z M94.2,222c-0.1,0-0.3-0.1-0.4-0.1c-0.5-0.1-1-0.1-1.4-0.1c-0.1,0-0.2,0-0.3,0.1
					c-0.2,0.1-0.3,0.3-0.2,0.6c0,0.1,0.1,0.1,0.1,0.1c0.1,0,0.2,0.1,0.3,0.1c0.2,0,0.3,0,0.5,0C93.3,222.6,93.7,222.3,94.2,222
					C94.2,222,94.2,222,94.2,222z"/>
			</g>
			<g>
				<g>
					<path class="st3" d="M136.6,214.3c0.1-0.2,0.1-0.3,0.2-0.4c0.2-0.6,0.4-1.1,0.4-1.7c0-0.1,0-0.3,0.1-0.4c0.1-0.5,0-1-0.2-1.4
						c-0.1-0.2-0.2-0.4-0.5-0.4c-0.1,0.1-0.1,0.2-0.1,0.2c-0.1,0.3-0.2,0.5-0.2,0.8c-0.2,1-0.2,2.1,0.2,3.1c0,0,0,0.1,0.1,0.1
						C136.6,214.2,136.6,214.2,136.6,214.3z"/>
					<path class="st3" d="M136.3,215.1c0-0.1,0.1-0.2,0.1-0.3c-0.2-0.6-0.4-1.3-0.9-1.7c-0.3-0.3-0.7-0.4-1.2-0.4
						c-0.3,0-0.4,0.1-0.4,0.4c0,0.1,0,0.3,0.1,0.4c0.1,0.1,0.2,0.3,0.3,0.4c0.4,0.4,0.8,0.7,1.3,0.9
						C135.8,214.9,136,215,136.3,215.1z"/>
					<path class="st3" d="M139.4,212.4c-0.3,0-0.4,0.1-0.6,0.3c-0.6,0.5-1.2,1-1.7,1.6c-0.1,0.2-0.3,0.3-0.3,0.6
						c0,0.1-0.1,0.1-0.1,0.2s-0.1,0.2-0.1,0.3c0.2,0,0.4-0.1,0.6-0.2c0.9-0.5,1.6-1.1,2-2C139.4,212.9,139.5,212.6,139.4,212.4z"/>
					<path class="st3" d="M136,218c0.4-0.1,0.7-0.1,1-0.3c0.6-0.2,1.1-0.4,1.5-0.8c0.1-0.1,0.2-0.2,0.3-0.4c0.1-0.1,0-0.2,0.1-0.2
						c-0.3-0.1-0.5-0.1-0.7-0.1c-0.5,0.2-1,0.4-1.4,0.6C136.3,217.1,136.1,217.5,136,218z"/>
					<path class="st3" d="M131,218.9c-0.3,0.8-0.2,2,0.3,2.9c0.3-0.1,0.4-0.3,0.5-0.6c0.1-0.4,0.1-0.9,0-1.3c-0.1-0.4-0.3-0.8-0.7-1
						C131.2,218.9,131.1,218.9,131,218.9C131.1,218.9,131.1,218.9,131,218.9z"/>
					<path class="st3" d="M134,215.5c-0.1,0.3,0,0.5,0.1,0.7c0.1,0.1,0.2,0.3,0.3,0.3c0.4,0.3,0.7,0.7,1,1.1c0,0,0.1,0.1,0.1,0.1
						c0.1,0,0.2-0.1,0.2-0.2c0.1-0.4,0.1-0.8-0.1-1.2c-0.1-0.3-0.3-0.5-0.6-0.6c-0.2-0.1-0.4-0.2-0.7-0.2
						C134.3,215.5,134.1,215.4,134,215.5z"/>
					<path class="st3" d="M132.4,217.3c0,0.2,0,0.4,0,0.6c0,0.3,0.1,0.5,0.2,0.7c0.3,0.5,0.6,1,1.1,1.4c0,0,0.1,0,0.1,0
						c0.1,0,0.1-0.1,0.1-0.2c0.1-0.6,0-1.1-0.4-1.6c-0.2-0.3-0.4-0.6-0.7-0.8c-0.1-0.1-0.2-0.2-0.3-0.3
						C132.6,217.2,132.5,217.3,132.4,217.3z"/>
					<path class="st3" d="M134.7,220.3c0.3,0.1,0.6,0.1,0.9,0.1c0.5,0.1,1,0,1.5-0.1c0.2,0,0.2-0.1,0.2-0.3c0-0.1,0-0.2-0.1-0.3
						c-0.1-0.3-0.3-0.4-0.6-0.4c-0.1,0-0.2,0.1-0.4,0.1c-0.5,0.1-0.9,0.3-1.4,0.6C134.8,220.2,134.8,220.2,134.7,220.3z"/>
					<path class="st3" d="M132.5,222C132.5,222,132.5,222,132.5,222c0.4,0.4,0.9,0.6,1.5,0.6c0.2,0,0.3,0,0.5,0c0.1,0,0.2,0,0.3-0.1
						c0.1,0,0.1-0.1,0.1-0.1c0.1-0.2,0-0.5-0.2-0.6c-0.1,0-0.2-0.1-0.3-0.1c-0.5,0-1,0.1-1.4,0.1C132.7,221.9,132.6,222,132.5,222z"
						/>
				</g>
				<path class="st4" d="M133.6,220.4c0-0.1-0.1-0.1-0.1-0.1c-0.4-0.4-0.8-0.8-1-1.3c-0.1-0.2-0.3-0.5-0.3-0.8c0-0.4,0-0.7,0-1.1
					c0-0.1,0-0.1,0-0.2c0.1-0.2,0.2-0.3,0.4-0.2c0.1,0,0.2,0.1,0.2,0.1c0.6,0.4,1,1,1.3,1.6c0.1,0.2,0.2,0.5,0.2,0.7
					c0,0.1,0,0.3,0,0.4c0,0.1,0,0.1,0.1,0.2c0.1-0.1,0.2-0.2,0.3-0.3c0.3-0.4,0.6-0.9,0.8-1.3c-0.1-0.1-0.1-0.2-0.2-0.3
					c-0.3-0.3-0.6-0.7-1-1c-0.2-0.1-0.3-0.3-0.4-0.4c-0.2-0.3-0.3-0.6-0.3-0.9c0-0.3,0.2-0.4,0.4-0.5c0.1,0,0.2,0,0.3,0
					c0.3,0.1,0.7,0.2,0.9,0.3c0.3,0.2,0.6,0.5,0.7,0.9c0,0.1,0,0.2,0.1,0.2c0.2-0.4,0.2-0.6,0.2-0.9c-0.2-0.1-0.4-0.2-0.7-0.3
					c-0.6-0.2-1.1-0.6-1.5-1.1c-0.2-0.2-0.3-0.3-0.4-0.5c-0.2-0.3-0.2-0.6-0.1-0.9c0.1-0.2,0.2-0.3,0.4-0.4c0.1,0,0.2-0.1,0.3-0.1
					c0.5-0.1,0.9,0.1,1.3,0.4c0.1,0.1,0.1,0.1,0.2,0.1c-0.1-0.6,0-1.2,0.1-1.9c0.1-0.3,0.2-0.7,0.3-1c0.1-0.1,0.1-0.3,0.2-0.4
					c0.1-0.1,0.2-0.1,0.3-0.1c0.3,0.1,0.6,0.2,0.7,0.6c0.2,0.4,0.3,0.9,0.3,1.3c-0.1,0.5-0.1,1-0.2,1.6c0,0.1-0.1,0.2-0.1,0.4
					c0.1-0.1,0.1-0.1,0.2-0.1c0.2-0.2,0.4-0.3,0.6-0.5c0.2-0.2,0.4-0.3,0.6-0.5c0.2-0.2,0.4-0.2,0.6-0.3c0.3-0.1,0.4,0.1,0.5,0.4
					c0,0.4-0.1,0.7-0.2,1.1c-0.4,0.7-0.9,1.3-1.5,1.8c-0.3,0.3-0.7,0.5-1.2,0.6c-0.1,0-0.2,0.1-0.3,0.1c-0.1,0.3-0.1,0.6-0.1,0.8
					c0.1-0.1,0.2-0.1,0.3-0.1c0.4-0.2,0.8-0.3,1.2-0.5c0.3-0.1,0.5-0.2,0.8-0.1c0.4,0,0.7,0.4,0.5,0.8c-0.1,0.2-0.3,0.4-0.5,0.6
					c-0.2,0.1-0.3,0.2-0.5,0.3c-0.4,0.2-0.9,0.5-1.4,0.6c-0.3,0.1-0.7,0.2-1,0.2c-0.1,0-0.2,0.1-0.2,0.1c0,0,0,0.1-0.1,0.1
					c-0.2,0.3-0.3,0.6-0.5,0.9c0,0,0,0.1,0,0.1c0.1,0,0.2-0.1,0.3-0.1c0.3-0.1,0.7-0.3,1-0.4c0.5-0.2,0.9,0.1,1.1,0.5
					c0.1,0.2,0.1,0.3,0.1,0.5c0,0.3-0.2,0.6-0.5,0.7c-0.6,0.1-1.2,0.1-1.9,0c-0.3-0.1-0.5-0.1-0.8-0.1c-0.3,0-0.6,0-0.8,0.3
					c-0.1,0.1-0.3,0.2-0.4,0.4c0,0-0.1,0.1-0.1,0.2c0.1,0,0.2,0,0.3,0c0.2,0,0.5-0.1,0.7-0.1c0.2,0,0.5,0,0.7,0.2
					c0.2,0.1,0.3,0.2,0.3,0.4c0.1,0.6,0.1,0.8-0.6,1c0,0-0.1,0-0.1,0c-0.7,0.1-1.3,0-1.9-0.4c-0.2-0.1-0.5-0.2-0.7-0.3
					c-0.3,0.1-0.5,0.2-0.7,0.3c-0.4,0.2-0.9,0.3-1.4,0.4c-0.1,0-0.1,0-0.2,0c-0.1,0-0.2-0.1-0.2-0.2c0-0.1,0-0.2,0.2-0.2
					c0.1-0.1,0.3-0.1,0.4-0.1c0.4-0.1,0.8-0.2,1.1-0.4c-0.2-0.4-0.3-0.9-0.5-1.4c-0.2-0.6-0.1-1.2,0-1.8c0-0.1,0.1-0.2,0.2-0.3
					c0.1-0.2,0.3-0.2,0.4-0.1c0.1,0.1,0.2,0.1,0.3,0.2c0.5,0.4,0.8,0.9,0.8,1.6c0,0.4,0,0.9-0.2,1.4
					C132.8,221.3,133.2,220.9,133.6,220.4C133.6,220.5,133.6,220.4,133.6,220.4z M136.9,213.9c0.2-0.6,0.4-1.1,0.4-1.7
					c0-0.1,0-0.3,0.1-0.4c0.1-0.5,0-1-0.2-1.4c-0.1-0.2-0.2-0.4-0.5-0.4c-0.1,0.1-0.1,0.2-0.1,0.2c-0.1,0.3-0.2,0.5-0.2,0.8
					c-0.2,1-0.2,2.1,0.2,3.1c0,0,0,0.1,0.1,0.1c0,0,0,0.1,0.1,0.1C136.7,214.1,136.8,214,136.9,213.9z M136.4,214.9
					c-0.2-0.6-0.4-1.3-0.9-1.7c-0.3-0.3-0.7-0.4-1.2-0.4c-0.3,0-0.4,0.1-0.4,0.4c0,0.1,0,0.3,0.1,0.4c0.1,0.1,0.2,0.3,0.3,0.4
					c0.4,0.4,0.8,0.7,1.3,0.9c0.2,0.1,0.5,0.2,0.8,0.3C136.4,215,136.4,214.9,136.4,214.9z M138.8,212.6c-0.6,0.5-1.2,1-1.7,1.6
					c-0.1,0.2-0.3,0.3-0.3,0.6c0,0.1-0.1,0.1-0.1,0.2c0,0.1-0.1,0.2-0.1,0.3c0.2,0,0.4-0.1,0.6-0.2c0.9-0.5,1.6-1.1,2-2
					c0.1-0.2,0.2-0.5,0.1-0.7C139.2,212.4,139,212.5,138.8,212.6z M137,217.8c0.6-0.2,1.1-0.4,1.5-0.8c0.1-0.1,0.2-0.2,0.3-0.4
					c0.1-0.1,0-0.2,0.1-0.2c-0.3-0.1-0.5-0.1-0.7-0.1c-0.5,0.2-1,0.4-1.4,0.6c-0.4,0.2-0.6,0.6-0.7,1.1
					C136.4,217.9,136.7,217.9,137,217.8z M131.4,221.8c0.3-0.1,0.4-0.3,0.5-0.6c0.1-0.4,0.1-0.9,0-1.3c-0.1-0.4-0.3-0.8-0.7-1
					c0,0-0.1,0-0.1-0.1c0,0-0.1,0-0.1,0C130.7,219.6,130.9,220.9,131.4,221.8z M134.1,216.2c0.1,0.1,0.2,0.3,0.3,0.3
					c0.4,0.3,0.7,0.7,1,1.1c0,0,0.1,0.1,0.1,0.1c0.1,0,0.2-0.1,0.2-0.2c0.1-0.4,0.1-0.8-0.1-1.2c-0.1-0.3-0.3-0.5-0.6-0.6
					c-0.2-0.1-0.4-0.2-0.7-0.2c-0.1,0-0.2-0.1-0.4,0C133.9,215.8,133.9,216,134.1,216.2z M132.4,217.8c0,0.3,0.1,0.5,0.2,0.7
					c0.3,0.5,0.6,1,1.1,1.4c0,0,0.1,0,0.1,0c0.1,0,0.1-0.1,0.1-0.2c0.1-0.6,0-1.1-0.4-1.6c-0.2-0.3-0.4-0.6-0.7-0.8
					c-0.1-0.1-0.2-0.2-0.3-0.3c0,0-0.1,0-0.1,0C132.4,217.5,132.4,217.7,132.4,217.8z M135.6,220.4c0.5,0.1,1,0,1.5-0.1
					c0.2,0,0.2-0.1,0.2-0.3c0-0.1,0-0.2-0.1-0.3c-0.1-0.3-0.3-0.4-0.6-0.4c-0.1,0-0.2,0.1-0.4,0.1c-0.5,0.1-0.9,0.3-1.4,0.6
					c-0.1,0-0.1,0.1-0.2,0.2C135,220.4,135.3,220.4,135.6,220.4z M132.5,222.1c0.4,0.3,0.9,0.5,1.5,0.5c0.2,0,0.3,0,0.5,0
					c0.1,0,0.2,0,0.3-0.1c0.1,0,0.1-0.1,0.1-0.1c0.1-0.2,0-0.5-0.2-0.6c-0.1,0-0.2-0.1-0.3-0.1c-0.5,0-1,0.1-1.4,0.1
					C132.7,221.9,132.6,222,132.5,222.1C132.5,222,132.5,222,132.5,222.1z"/>
			</g>
		</g>
		<g>
			<g>
				<path class="st5" d="M105.5,204.1c0.5-0.3,1.1-0.5,1.7-0.7c0.3-0.1,0.5-0.1,0.8-0.2c0.6-0.2,1.2-0.3,1.8-0.4
					c0.3,0,0.6-0.1,0.9-0.1c0.4-0.1,0.8-0.1,1.2-0.2c0.1,0,0.2,0,0.3,0c1.4,0,2.7,0,4.1,0c0.3,0,0.6,0.1,0.9,0.1c0.2,0,0.3,0,0.5,0
					c0.5,0,1,0,1.5,0c0.9,0,1.9,0.1,2.8,0.2c0.1,0,0.3,0,0.4,0c0.8,0,1.6,0.1,2.4,0.3c0.3,0.1,0.7,0.1,1.1,0.1
					c0.3,0.1,0.7,0.1,1,0.1c0.4,0.1,0.7,0.3,0.9,0.7c0.2,0.3,0.3,0.5,0.3,0.9c0,0.1,0,0.2,0,0.2c-0.2,0.2-0.1,0.4-0.1,0.7
					c0,0.4,0.1,0.9,0.1,1.3c0,0.8,0,1.7,0.1,2.5c0,0.2,0,0.4,0,0.7c0,0.5,0.1,0.9,0.1,1.4c0,0.2,0,0.4,0,0.6c0,1.2,0,2.3,0,3.4
					c0,0.2,0,0.5,0.1,0.7c0,0.1,0,0.2,0,0.2c0,1,0,2-0.1,3c0,0.3,0,0.6-0.1,0.9c-0.1,0.2-0.2,0.3-0.4,0.3c-0.4,0-0.8,0.2-1.2,0.2
					c-0.5,0.1-1.1,0.2-1.6,0.2c-0.2,0-0.4,0-0.6-0.1c-0.2,0-0.4,0-0.7,0c-0.1,0-0.2,0-0.3,0c-0.3-0.1-0.6-0.1-0.9-0.1
					c-0.4,0-0.8,0-1.2,0.1c-1.1,0.2-2.2,0.1-3.3,0.1c-0.4,0-0.8,0-1.2,0c-0.1,0-0.2,0-0.3,0c-0.4-0.1-0.9-0.1-1.3-0.1c-1,0-2,0-3,0
					c-0.2,0-0.3,0-0.4,0c-0.7,0.1-1.4,0-2.1-0.1c-0.4-0.1-0.9,0-1.3,0c-0.5,0-1-0.1-1.5-0.2c-0.3-0.1-0.6-0.3-0.7-0.7
					c-0.1-0.3-0.2-0.6-0.2-0.9c-0.1-0.8-0.2-1.6-0.3-2.4c-0.1-0.6-0.2-1.2-0.3-1.8c0-0.1,0-0.1,0-0.2c0-1.2-0.2-2.3-0.4-3.5
					c0-0.3-0.1-0.6-0.1-0.8c0-1.1,0-2.1,0-3.2c0-0.2,0-0.5,0.1-0.7c0.1-0.4,0.1-0.9,0.2-1.3c0-0.1,0.1-0.2,0.1-0.3
					c0.2-0.2,0.3-0.5,0.3-0.8C105.5,204.2,105.5,204.2,105.5,204.1z M109,207.8c-0.6,0.1-1,0.4-1.4,0.8c-0.2,0.3-0.4,0.6-0.4,0.9
					c0,0.8,0,1.5,0,2.3c0,0.2,0,0.4,0.1,0.6c0.1,0.5,0.2,1.1,0.3,1.6c0.1,0.4,0.2,0.9,0.4,1.3c0.2,0.5,0.6,0.9,1.2,1.1
					c0.3,0.1,0.6,0.3,0.7,0.6c0.1,0.2,0.3,0.4,0.4,0.5c0.4,0.4,0.8,0.8,1.2,1.1c0.3,0.3,0.6,0.6,1,0.7c0.6,0.3,1.2,0.5,1.8,0.8
					c0.1,0,0.2,0.1,0.2,0.1c0.2,0,0.4,0.1,0.6,0.1c0.3,0.1,0.7,0.1,1,0.1c1.2,0,2.3,0,3.5,0c0.1,0,0.3,0,0.4,0
					c0.6-0.1,1.2-0.3,1.7-0.7c0.2-0.1,0.3-0.2,0.5-0.3c0.3-0.2,0.6-0.3,0.9-0.5c0.6-0.5,1.1-1,1.3-1.7c0.1-0.3,0.3-0.6,0.5-0.9
					c0.3,0,0.6,0,0.8-0.2c0.2-0.2,0.4-0.4,0.6-0.6c0.4-0.6,0.7-1.3,0.8-2.1c0.1-0.5,0-1,0.1-1.6c0-0.9-0.2-1.8-0.5-2.7
					c-0.1-0.2-0.2-0.4-0.4-0.5c-0.2-0.1-0.5-0.2-0.7-0.3c-0.3-0.1-0.6-0.3-0.8-0.7c-0.4-0.8-0.8-1.5-1.4-2.1
					c-0.2-0.3-0.5-0.5-0.7-0.7c-0.3-0.4-0.7-0.6-1.2-0.8c-0.2-0.1-0.3-0.2-0.4-0.2c-0.2-0.1-0.4-0.2-0.6-0.2
					c-0.3-0.1-0.6-0.2-0.9-0.3c-0.7-0.2-1.3-0.4-2-0.4c-0.1,0-0.1,0-0.2,0c-0.3-0.1-0.7-0.1-1-0.1c-0.5,0-0.9,0-1.4,0
					c-0.4,0-0.7,0-1.1,0.1c-0.4,0.1-0.8,0.3-1.2,0.5c-0.6,0.3-1.1,0.7-1.4,1.2c0,0,0,0,0,0c-0.6,0.5-1,1-1.5,1.6
					c-0.2,0.2-0.3,0.4-0.4,0.7C109.3,207.1,109.1,207.5,109,207.8z"/>
				<path class="st6" d="M105.7,203.3c0-0.1,0-0.2,0-0.2c0.1-0.7,0.2-1.3,0.4-2c0.1-0.4,0.2-0.9,0.4-1.3c0-0.1,0.1-0.1,0.1-0.2
					c0.2-0.6,0.6-1,1.2-1.3c0.2-0.1,0.3-0.2,0.5-0.3c0.3-0.2,0.6-0.3,1-0.3c0.1,0,0.3-0.1,0.4-0.1c0.9-0.3,1.8-0.3,2.7-0.4
					c0.1,0,0.1,0,0.2,0c0.5-0.1,1-0.1,1.5-0.1c1.6,0,3.2,0,4.8,0c0.2,0,0.4,0,0.7,0.1c0.2,0,0.3,0,0.5,0c0.3,0,0.7,0,1,0
					c0.2,0,0.4,0.1,0.7,0.1c0.4,0,0.7,0.1,1.1,0.1c0.8,0,1.5,0.2,2.2,0.3c0.3,0,0.6,0.1,0.8,0.1c0.4,0.1,0.7,0.3,0.8,0.8
					c0.1,0.3,0.2,0.7,0.2,1c0,0.2,0.1,0.4,0.2,0.7c0.1,0.2,0.2,0.4,0.2,0.6c0.2,0.7,0.5,1.3,0.7,2c0.1,0.2,0.2,0.3,0.1,0.6
					c-0.2-0.1-0.3-0.1-0.4-0.2c-0.6-0.3-1.2-0.6-1.9-0.6c-0.2,0-0.5-0.1-0.7-0.1c-0.5-0.1-1-0.2-1.4-0.2c-0.1,0-0.2,0-0.3,0
					c-0.9,0-1.8-0.1-2.7-0.2c-0.2,0-0.4,0-0.6,0c-0.6,0-1.2,0-1.8,0c-0.4,0-0.8-0.1-1.2-0.1c-0.1,0-0.2,0-0.3,0
					c-0.6,0-1.3,0-1.9-0.1c-0.3,0-0.5,0.1-0.8,0.1c-0.3,0-0.7,0-1,0c-1-0.1-2,0.1-2.9,0.2c-0.9,0.1-1.7,0.3-2.6,0.5
					c-0.5,0.2-1,0.3-1.5,0.5C105.8,203.3,105.7,203.3,105.7,203.3z M124.2,202.1c0.4-0.1,0.8-0.1,1.2-0.1c0.4-0.1,0.5-0.2,0.5-0.5
					c0-0.2,0-0.5,0-0.7c0-0.6-0.2-1-0.5-1.5c-0.3-0.3-0.6-0.6-1-0.6c-0.1,0-0.3-0.1-0.4-0.1c-0.7-0.1-1.3-0.2-1.9-0.2
					c-0.4,0-0.7,0-1.1,0c-0.4-0.1-0.8,0.1-1.1,0.3c-0.3,0.2-0.4,0.6-0.4,0.8c-0.1,0.5-0.1,1,0.1,1.5c0.1,0.3,0.2,0.5,0.4,0.7
					c0.2,0.2,0.5,0.3,0.8,0.3c0.2,0,0.4,0,0.7,0c0.4,0,0.8,0,1.1,0.1C123.1,202,123.6,202,124.2,202.1z M112.4,201.8
					c0.2,0,0.3,0,0.4,0c0.5,0,0.9-0.3,1.3-0.6c0.3-0.3,0.3-0.7,0.3-1.1c0-0.2-0.1-0.4-0.1-0.6c0-0.1-0.1-0.2-0.2-0.3
					c-0.2-0.3-0.5-0.6-0.9-0.7c-0.2-0.1-0.3-0.1-0.5-0.1c-0.6-0.1-1.1,0.1-1.6,0.3s-0.8,0.7-0.8,1.3c0,0.1,0,0.3,0,0.4
					c0,0.4,0.2,0.7,0.5,0.9C111.3,201.7,111.9,201.8,112.4,201.8z M109.2,201.8c0,0,0.2,0,0.3-0.1c0.3-0.1,0.5-0.3,0.6-0.6
					c0-0.4-0.1-0.7-0.4-0.8c-0.1-0.1-0.3-0.1-0.4-0.2c-0.2-0.1-0.3-0.1-0.5,0c-0.2,0.1-0.4,0.3-0.4,0.6c0,0.1,0,0.2,0,0.3
					C108.3,201.5,108.6,201.8,109.2,201.8z"/>
				<path class="st6" d="M105.5,201.1c0.1,0.2,0,0.3,0,0.4c-0.1,0.4-0.2,0.9-0.3,1.3c-0.1,0.3-0.1,0.5-0.2,0.8
					c-0.1,0.2-0.1,0.4-0.3,0.6c-0.3-0.1-0.6,0-0.8-0.1c-0.1,0-0.2,0-0.3,0c-0.5,0-1,0-1.6,0c-0.2,0-0.3,0-0.4,0.1
					c-0.6,0.1-1.1,0.2-1.7,0.1c-0.4,0-0.9,0.1-1.3,0.2c-0.3,0.1-0.6,0.2-0.9,0.2c0-0.1,0-0.2,0-0.2c0-0.4,0.1-0.8,0.1-1.2
					c0-0.5,0.3-0.9,0.7-1.1c0.4-0.3,1-0.5,1.5-0.5c0.4,0,0.9-0.1,1.3-0.2c0.6-0.1,1.1-0.1,1.7-0.2c0.7-0.1,1.4-0.1,2.1-0.1
					C105.2,201.1,105.3,201.1,105.5,201.1z"/>
				<path class="st6" d="M127.9,221.4c0,0.4-0.2,0.7-0.6,0.7c-0.4,0.1-0.9,0.2-1.4,0.3c-0.2,0-0.3,0.1-0.5,0.1c-0.3,0-0.6,0-0.9,0.1
					c-0.1,0.1-0.3,0-0.4,0c-1.1,0-2.1,0-3.2,0c-0.3,0-0.6,0.1-0.9,0.1c-0.7,0-1.3,0-2,0c-0.4-0.1-0.8-0.1-1.2-0.1
					c-0.1,0-0.2,0-0.2,0c-0.4-0.1-0.8-0.1-1.3-0.1c-1.8,0-3.5,0-5.3,0c-0.2,0-0.4-0.1-0.7-0.1c-0.2,0-0.4,0-0.7,0
					c-0.5,0-1-0.1-1.5-0.2c-0.1,0-0.3-0.1-0.4-0.1c-0.1-0.2-0.1-0.4-0.1-0.6c0.2-0.1,0.3-0.1,0.5-0.1c0.9,0,1.9,0,2.8,0
					c0.3,0,0.6,0,0.8,0c0.2,0,0.3,0,0.5,0c0.6,0.1,1.1,0.1,1.7,0.1c0.8-0.2,1.6-0.1,2.4-0.1c0.2,0,0.4,0,0.6,0.1
					c0.2,0,0.3,0,0.5,0.1c1.3,0,2.7,0,4,0c0.2,0,0.4,0,0.5-0.1c0.1,0,0.1,0,0.1,0c0.3,0,0.7-0.1,1-0.1c0.8,0.1,1.5,0,2.3,0.1
					c0.7,0.1,1.4,0.1,2-0.1c0.3-0.1,0.6-0.1,0.9-0.1C127.6,221.5,127.7,221.5,127.9,221.4z"/>
				<path class="st7" d="M104.4,220.7c-0.4,0-0.7,0-1.1,0c0,0-0.1-0.1-0.1-0.1c0-0.6-0.2-1.1-0.1-1.7c0-0.3-0.1-0.6-0.1-0.9
					c0-0.2-0.1-0.4-0.1-0.6c0-0.6,0-1.1,0-1.6c0-0.3,0-0.7-0.1-1c-0.1-0.3,0-0.6,0-0.8c0-0.7-0.1-1.3-0.2-2
					c-0.1-0.4-0.1-0.8-0.1-1.2c-0.1-1-0.2-2.1-0.3-3.1c-0.1-0.5-0.1-1-0.1-1.5c0-0.4-0.1-0.8-0.1-1.3c0-0.1,0-0.2,0-0.3
					c0.3-0.1,0.6,0,0.9,0c0,0.2,0,0.3,0,0.4c0,0.6,0.1,1.3,0.1,1.9c0.1,0.7,0.2,1.3,0.2,2c0,0.4,0.1,0.9,0.1,1.3
					c0.1,0.4,0.1,0.8,0.1,1.3c0,0.3,0.1,0.6,0.1,0.9c0,0.1,0,0.1,0,0.2c0,0.8,0.1,1.6,0.1,2.5c0,0.1,0,0.2,0,0.2
					c-0.1,1.1,0.1,2.2,0.3,3.2C104.2,219.2,104.3,219.9,104.4,220.7z"/>
				<path class="st8" d="M98.7,205c0.2-0.1,0.4-0.2,0.6-0.2c0,0.1,0.1,0.1,0.1,0.1c0.1,0.9,0.1,1.9,0.2,2.8c0.1,0.7,0.2,1.4,0.2,2
					c0.1,0.7,0.2,1.4,0.3,2.1c0.1,0.3,0.1,0.6,0.2,0.9c0.1,0.3,0.1,0.7,0.1,1.1c0,0.4,0.1,0.8,0.1,1.1c0.1,0.7,0.2,1.4,0.3,2.1
					c0.1,0.7,0.2,1.3,0.3,2c0,0.1,0,0.2,0,0.2c0,0.3,0,0.5,0.1,0.8c0,0.1,0,0.2,0,0.3c-0.1,0.1-0.2,0-0.3,0c-0.1,0-0.2-0.1-0.3-0.1
					c-0.2-0.5-0.3-1-0.4-1.5c-0.1-0.3-0.1-0.5-0.1-0.8c-0.1-0.5-0.1-1.1-0.2-1.6c-0.1-0.5-0.2-1-0.2-1.5c-0.1-0.5-0.1-0.9-0.2-1.4
					c0-0.1,0-0.2,0-0.2c0-0.8-0.1-1.6-0.2-2.4c0-0.1,0-0.2,0-0.2c-0.1-0.7-0.1-1.3-0.1-2c0-0.4-0.1-0.8-0.1-1.2
					c0-0.3-0.1-0.6-0.1-0.9C98.7,206,98.7,205.5,98.7,205z"/>
				<path class="st7" d="M102,220.6c-0.4,0-0.4-0.1-0.5-0.3c-0.1-0.4-0.1-0.7-0.1-1.1c0-0.4-0.1-0.7-0.1-1.1
					c-0.2-1.3-0.4-2.6-0.6-3.9c0,0,0-0.1,0-0.1c0-0.6-0.1-1.1-0.2-1.7c-0.1-0.7-0.2-1.5-0.3-2.2c-0.1-0.7-0.2-1.5-0.3-2.2
					c-0.1-0.4-0.1-0.7-0.1-1.1c-0.1-0.6-0.1-1.2-0.1-1.8c0-0.1,0-0.2,0-0.3c0.3-0.1,0.5,0,0.8,0c0,0.1,0,0.2,0.1,0.3
					c0.2,1.5,0.3,3,0.6,4.4c0.1,0.2,0.1,0.4,0.1,0.7c0.1,0.8,0.2,1.5,0.2,2.4c0,0.3,0,0.6,0.1,0.8c0,0.3,0.1,0.7,0,1
					c0,0.6,0.1,1.1,0.1,1.7c0.1,0.6,0.1,1.2,0.2,1.8c0,0.4,0.1,0.8,0.2,1.2C102,219.5,102.1,220,102,220.6z"/>
				<path class="st8" d="M102.9,220.7c-0.4,0-0.5,0-0.5-0.3c-0.1-0.3-0.1-0.7-0.1-1c-0.1-0.4-0.1-0.8-0.2-1.2c0-0.1,0-0.1,0-0.2
					c0-0.5-0.1-1-0.1-1.5c0-0.3-0.1-0.7-0.1-1c0-0.3-0.1-0.5-0.1-0.8c0-0.5,0-1-0.1-1.5c-0.1-0.2,0-0.5,0-0.7c0-0.7-0.1-1.4-0.2-2
					c-0.1-0.7-0.2-1.4-0.3-2c-0.1-0.8-0.2-1.5-0.3-2.3c0-0.2-0.1-0.4-0.1-0.6c0-0.2-0.1-0.4,0-0.7c0.2-0.1,0.5-0.2,0.7-0.1
					c0,0.1,0.1,0.1,0.1,0.1c0.1,1.2,0.2,2.4,0.4,3.7c0.1,0.4,0.1,0.8,0.1,1.1c0.1,1.1,0.3,2.2,0.4,3.2c0,0.3,0.1,0.5,0.1,0.8
					c0,0.5,0,1,0.1,1.6c0,0.1,0,0.3,0,0.4c0,0.4,0,0.8,0,1.3c0,0.6,0,1.2,0.2,1.7c0,0.1,0,0.2,0,0.3c0,0.4,0,0.7,0.1,1.1
					C103,220.2,102.9,220.4,102.9,220.7z"/>
				<path class="st8" d="M103.4,204.6c0.3-0.1,0.6,0.1,0.9,0.1c0.1,0.2,0.1,0.4,0,0.7c-0.1,1.1-0.1,2.3-0.1,3.4c0,0.5,0,1,0,1.5
					c0,0.8,0.1,1.6,0.2,2.4c0.1,0.6,0.1,1.2,0.2,1.8c0.1,1,0.2,1.9,0.3,2.9c0.1,0.8,0.2,1.6,0.3,2.4c0,0.2,0.1,0.5,0.2,0.7
					c0,0.1,0.1,0.2,0.1,0.4c-0.2,0-0.4,0-0.6,0c-0.2-0.2-0.3-0.6-0.3-0.8c-0.1-0.7-0.2-1.3-0.4-2c-0.1-0.4-0.2-0.9-0.2-1.4
					c0-0.1,0-0.3,0-0.4c0-0.5,0-0.9,0-1.4c0-0.3-0.1-0.7-0.1-1c0-0.2,0-0.5,0-0.7c0-0.3-0.1-0.6-0.1-0.9c0-0.1,0-0.2,0-0.3
					c0-0.8-0.1-1.5-0.2-2.3c0-0.2,0-0.3,0-0.4c0-0.8-0.1-1.5-0.2-2.3c-0.1-0.6-0.2-1.3-0.1-1.9C103.4,204.8,103.4,204.7,103.4,204.6
					z"/>
				<path class="st7" d="M97.7,205.3c0.2-0.2,0.4-0.2,0.6-0.2c0,0.1,0,0.2,0,0.3c0,0.2,0,0.4,0,0.6c0,0.7,0,1.3,0.1,2
					c0,0.2,0.1,0.3,0.1,0.4c0.1,0.7,0.1,1.4,0.1,2.1c0,0.2,0.1,0.4,0.1,0.6c0.1,0.6,0.1,1.1,0.2,1.7c0,0.1,0,0.2,0,0.3
					c0,0.5,0.1,1,0.2,1.5c0.1,0.3,0.1,0.6,0.1,0.9c0,0.5,0.2,1,0.3,1.5c0.1,0.4,0.2,0.9,0.2,1.4c0,0.2,0.1,0.4,0.1,0.7
					c0.1,0.3,0.2,0.7,0.3,1c0,0.1,0,0.1,0,0.2c-0.4,0-0.4,0-0.7-0.2c-0.1-0.3-0.2-0.7-0.3-1c0-0.1-0.1-0.1-0.1-0.2
					c0-0.5-0.2-1-0.2-1.4c-0.1-0.7-0.2-1.3-0.3-1.9c-0.1-0.6-0.2-1.3-0.2-1.9c-0.1-0.4-0.1-0.9-0.2-1.4c0-0.2,0-0.4,0-0.6
					c0-0.4,0-0.8-0.1-1.2c0-0.1,0-0.2,0-0.3c0-0.6-0.1-1.2-0.2-1.8c0-0.2-0.1-0.3-0.1-0.5C97.8,207,97.7,206.1,97.7,205.3z"/>
				<path class="st6" d="M106.2,221.4c0.1,0.3,0.1,0.6,0,0.8c-0.1,0-0.2,0-0.3,0c-1.5,0-3.1,0-4.7,0c-0.6,0-1.2-0.1-1.7-0.4
					c-0.2-0.1-0.3-0.2-0.4-0.3c-0.2-0.4-0.3-0.8-0.4-1.3c0,0,0-0.1,0-0.1c0.1,0.1,0.2,0.1,0.3,0.2c0.3,0.2,0.7,0.4,1.1,0.4
					c0.1,0,0.3,0,0.4,0.1c0.5,0.1,1.1,0.2,1.6,0.3c0.7,0.1,1.3,0.1,2,0.1c0.2,0,0.3,0,0.4,0.1c0.2,0,0.3,0,0.5,0.1
					C105.4,221.3,105.8,221.4,106.2,221.4z"/>
				<path class="st8" d="M97.5,205.4c0,0.7,0,1.3,0,1.9c0,0.4,0,0.8,0.1,1.3c0,0.2,0.1,0.3,0.1,0.5c0.1,0.8,0.1,1.6,0.1,2.4
					c0,0.6,0.1,1.1,0.1,1.7c0.1,0.7,0.2,1.4,0.3,2c0,0.2,0.1,0.3,0.1,0.5c0.2,0.9,0.3,1.8,0.5,2.6c0,0.2,0,0.3,0.1,0.5
					c0,0.2,0.1,0.3,0.1,0.5c-0.1-0.1-0.1-0.1-0.2-0.1c-0.3-0.5-0.5-1-0.6-1.5c-0.1-0.7-0.2-1.3-0.3-2c0-0.3-0.1-0.7-0.2-1
					c-0.2-0.8-0.3-1.5-0.3-2.3c0-0.2,0-0.3,0-0.4c-0.1-0.8-0.1-1.5-0.1-2.3c0-0.6,0-1.1,0-1.6c0-0.7,0-1.3,0-2
					c0-0.2,0.1-0.4,0.2-0.6C97.3,205.5,97.4,205.5,97.5,205.4z"/>
				<path class="st9" d="M128.5,202.9c-0.1-0.2-0.2-0.3-0.2-0.6c0.3-0.1,0.6,0,0.8,0.2c0.2,0.1,0.3,0.2,0.5,0.3
					c0.3,0.2,0.4,0.4,0.5,0.7c0.3,0.8,0.1,1.6-0.6,2.2c-0.2,0.1-0.3,0.2-0.5,0.4c-0.1,0.1-0.2,0.1-0.2,0.1c0,0-0.1,0-0.1-0.1
					c0-0.1,0-0.1,0-0.2c0.1-0.1,0.1-0.1,0.2-0.1c0.5-0.2,0.8-0.7,0.9-1.2c0,0,0,0,0-0.1c0.1-0.7-0.2-1.2-0.9-1.4
					C128.7,202.9,128.6,202.9,128.5,202.9z"/>
				<path class="st9" d="M96.6,207.2c-0.2,0.1-0.4,0-0.6-0.1c-0.4-0.4-0.7-0.8-0.7-1.5c0-0.1,0-0.3,0-0.4c0-0.1,0-0.2,0.1-0.3
					c0.2-0.4,0.4-0.7,0.7-1c0.1-0.1,0.3-0.2,0.4-0.2c0.2,0,0.4,0,0.6,0c0.1,0,0.1,0.1,0.1,0.2c0,0-0.1,0.1-0.1,0.1
					c-0.4,0-0.7,0.2-1,0.4c-0.2,0.1-0.3,0.3-0.4,0.5c-0.2,0.5-0.2,1,0.1,1.5c0,0,0,0.1,0.1,0.1C96.2,207,96.2,207,96.6,207.2z"/>
				<path class="st10" d="M97.3,204.6c0.1,0.4-0.2,0.4-0.4,0.5c-0.2,0.5-0.2,1-0.2,1.5c-0.1,0-0.1,0-0.1,0c-0.3-0.3-0.4-0.7-0.3-1.2
					c0-0.2,0.1-0.4,0.3-0.6c0.1-0.1,0.2-0.2,0.4-0.2C97,204.5,97.1,204.5,97.3,204.6z"/>
				<path class="st10" d="M128.7,205.2c0-0.3,0-0.6,0-0.9c0-0.3-0.2-0.6-0.1-0.9c0.2-0.1,0.3,0.1,0.5,0.2c0.1,0.1,0.2,0.2,0.3,0.4
					c0.1,0.5-0.1,0.9-0.5,1.2C128.8,205.2,128.8,205.2,128.7,205.2C128.7,205.2,128.7,205.2,128.7,205.2z"/>
				<g>
					<path class="st11" d="M101.8,200.8c-0.2,0-0.4,0.1-0.7,0.1c-0.1-0.2-0.1-0.5-0.1-0.7c0-0.2-0.1-0.4,0-0.6
						c0.3-0.1,0.3-0.1,0.7-0.1C101.8,199.9,101.8,200.3,101.8,200.8z"/>
					<path class="st11" d="M100.6,200.9c-0.3,0.1-0.6,0.1-0.8,0.2c-0.1-0.3-0.1-0.6,0.1-0.9c0.2-0.4,0.3-0.5,0.8-0.6
						c0.1,0.2,0,0.4,0,0.7C100.6,200.5,100.6,200.7,100.6,200.9z"/>
					<path class="st11" d="M102.2,199.4c0.1,0,0.2-0.1,0.3-0.1c0.1,0,0.2,0,0.3,0c0.1,0.3,0.2,1,0.1,1.3c-0.2,0.1-0.2,0.1-0.6,0.1
						c-0.2-0.1-0.2-0.3-0.2-0.4C102.2,200,102.2,199.7,102.2,199.4z"/>
					<path class="st11" d="M104.1,200.6c-0.2,0.1-0.4,0.1-0.6,0c-0.1-0.4-0.1-0.8-0.1-1.2c0.2-0.1,0.3-0.1,0.5-0.1
						C104,199.8,104,200.1,104.1,200.6z"/>
					<path class="st11" d="M104.8,200.5c-0.1,0.1-0.3,0.1-0.3-0.1c-0.1-0.3-0.1-0.7-0.2-1c0.2-0.1,0.3,0,0.3,0.1
						C104.8,199.9,104.9,200.2,104.8,200.5z"/>
				</g>
				<path class="st10" d="M117.8,219.8c-0.4,0-0.8,0-1.1,0c-0.5,0-1-0.1-1.6-0.1c-0.7-0.1-1.3-0.4-2-0.6c-0.6-0.2-1.1-0.6-1.5-1
					c-0.3-0.3-0.7-0.6-1-1c-0.4-0.5-0.8-1-1.1-1.5c-0.3-0.7-0.4-1.3-0.6-2c-0.1-0.3-0.1-0.6-0.2-0.8c0-0.1,0-0.1,0-0.2
					c0-0.6-0.1-1.3,0.1-1.9c0-0.1,0-0.1,0-0.2c0-0.8,0.3-1.5,0.5-2.3c0.3-0.8,0.7-1.5,1.3-2.1c0.4-0.6,1.1-1,1.5-1.7
					c0.1-0.2,0.3-0.3,0.4-0.4c0.2-0.1,0.4-0.3,0.6-0.4c0.5-0.3,1.1-0.5,1.7-0.5c0.7,0,1.3,0,2,0c0.2,0,0.3,0,0.4,0.1
					c0.2,0,0.3,0.1,0.4,0.1c0.4,0,0.8,0.1,1.1,0.2c0.5,0.2,1.1,0.3,1.6,0.5c0.5,0.2,0.9,0.4,1.4,0.7c0.1,0.1,0.2,0.2,0.4,0.3
					c0.1,0.1,0.1,0.2,0.2,0.2c0.7,0.6,1.2,1.3,1.6,2c0.3,0.5,0.5,0.9,0.7,1.4c0.3,0.7,0.5,1.4,0.6,2.2c0.1,0.5,0.1,1,0.1,1.5
					c0,0.2,0,0.3,0,0.5c0,0.1,0,0.2,0,0.3c-0.1,0.3-0.1,0.5-0.1,0.8c0.1,0.5-0.2,0.9-0.3,1.4c0,0.1-0.1,0.1-0.2,0.2
					c-0.1,0.1-0.2,0.3-0.2,0.4c-0.1,0.2-0.3,0.5-0.4,0.7c-0.1,0.1-0.1,0.2-0.2,0.4c-0.1,0.3-0.3,0.6-0.5,0.9
					c-0.3,0.3-0.6,0.5-0.9,0.7c-0.6,0.3-1.1,0.7-1.7,0.9c-0.6,0.3-1.2,0.4-1.9,0.4C118.6,219.8,118.2,219.8,117.8,219.8L117.8,219.8
					z M109.4,211.2c-0.1,0.9,0.2,1.8,0.4,2.8c0.1,0.2,0.1,0.4,0.2,0.7c0.2,0.6,0.6,1.2,1,1.8c0.4,0.6,0.9,1.1,1.5,1.4
					c0.5,0.3,1,0.5,1.5,0.8c0.2,0.1,0.4,0.2,0.6,0.2c1.3,0.4,2.5,0.5,3.8,0.4c0.9-0.1,1.9-0.4,2.7-0.8c0.7-0.3,1.3-0.7,1.7-1.3
					c0.4-0.6,0.7-1.1,1-1.7c0.2-0.4,0.3-0.8,0.3-1.2c0-0.3,0.1-0.6,0.2-0.8c0.1-0.4,0.1-0.7,0.1-1.1c0-0.3,0.1-0.6,0.1-0.8
					c0-0.3,0-0.6-0.1-0.8c-0.1-0.4-0.2-0.8-0.2-1.3c-0.1-0.5-0.2-0.9-0.3-1.4c-0.2-0.6-0.5-1.1-1-1.5c-0.9-0.8-1.8-1.5-2.9-2
					c-0.8-0.4-1.6-0.7-2.5-0.6c-0.4,0-0.8,0-1.2,0c-0.4,0-0.9,0-1.3,0.1c-0.7,0.2-1.4,0.3-2,0.5c-0.3,0.1-0.6,0.2-0.8,0.4
					c-0.4,0.4-0.8,0.8-1.2,1.3c-0.2,0.3-0.5,0.6-0.6,1c-0.2,0.5-0.5,1-0.7,1.5c-0.1,0.2-0.2,0.5-0.2,0.7
					C109.3,210.1,109.4,210.6,109.4,211.2z"/>
				<path class="st12" d="M125.3,215.6c0-0.2,0.1-0.4,0.1-0.6c0.1-0.3,0.2-0.5,0.2-0.8c0-0.1,0.1-0.3,0.1-0.4
					c0.1-0.3,0.2-0.6,0.2-0.9c0-0.2,0-0.4,0-0.6c0.1-0.7-0.1-1.4-0.2-2.2c-0.1-0.3-0.2-0.6-0.2-0.9c-0.1-0.2-0.1-0.4-0.2-0.6
					c0.2-0.1,0.3,0,0.4,0.1c0.7,0.3,0.5,0.2,0.7,0.8c0.1,0.2,0.1,0.5,0.2,0.7c0.2,0.8,0.2,2.9-0.1,3.6c-0.2,0.6-0.5,1.2-0.9,1.6
					C125.5,215.5,125.5,215.5,125.3,215.6z"/>
				<path class="st12" d="M108.9,215.6c-0.3-0.3-0.5-0.5-0.6-0.8c-0.3-0.7-0.3-1.4-0.4-2c-0.1-0.7-0.1-1.3-0.1-2c0-0.3,0-0.7,0-1
					c-0.1-0.5,0.2-0.8,0.5-1.1c0.2-0.1,0.3-0.2,0.6-0.3c0,0.1,0,0.2-0.1,0.3c-0.1,0.4-0.2,0.7-0.3,1.1c0,0.1,0,0.1,0,0.2
					c-0.1,0.9-0.2,1.7-0.1,2.6c0,0.5,0.2,1,0.3,1.5C108.6,214.4,108.7,215,108.9,215.6z"/>
				<path class="st10" d="M125.4,201.4c-0.4,0.1-0.7,0.2-1,0.2c-0.7,0-1.4-0.1-2-0.2c-0.4,0-0.7,0-1.1-0.1c-0.2,0-0.4,0-0.6,0
					c-0.4,0-0.7-0.2-0.8-0.7c-0.1-0.4-0.1-0.9,0-1.3c0.1-0.4,0.4-0.6,0.8-0.6c0.7,0,1.3,0,2,0c0.5,0,1.1,0.1,1.6,0.3
					c0.2,0.1,0.3,0.1,0.5,0.3c0.4,0.4,0.6,0.8,0.6,1.4C125.4,200.9,125.4,201.1,125.4,201.4z M121.8,198.9
					C121.8,198.9,121.8,198.9,121.8,198.9c-0.2,0-0.4,0-0.6,0c-0.1,0-0.2,0-0.3,0.1c-0.2,0.2-0.5,0.5-0.4,0.8c0,0.1,0,0.3,0,0.4
					c0,0.3,0.1,0.4,0.4,0.5c0.5,0.1,1,0.2,1.5,0.2c0.6,0.1,1.3-0.1,1.9,0.1c0.2,0.1,0.3-0.1,0.4-0.2c0.2-0.4,0.1-1.1-0.2-1.4
					c-0.1-0.1-0.1-0.1-0.2-0.1c-0.1-0.1-0.2-0.1-0.4-0.1c-0.3-0.1-0.6-0.1-1-0.1C122.6,199,122.2,198.9,121.8,198.9z"/>
				<path class="st10" d="M112.5,201.3c-0.2,0-0.5,0-0.7-0.1c-0.9-0.3-1.1-0.7-0.9-1.7c0-0.2,0.2-0.3,0.3-0.4c0.4-0.4,0.4-0.4,1-0.5
					c0.9-0.2,1.9,0.7,1.7,1.8c0,0.1-0.1,0.2-0.2,0.3c-0.3,0.3-0.6,0.6-1,0.5C112.6,201.3,112.6,201.3,112.5,201.3
					C112.5,201.3,112.5,201.3,112.5,201.3z M111.2,200.1L111.2,200.1c0,0.1,0,0.2,0,0.2c0,0.4,0.2,0.7,0.6,0.8
					c0.3,0.1,0.7,0.1,1,0.1c0.4-0.1,0.7-0.4,0.7-0.8c0-0.1,0-0.2,0-0.2c0-0.4-0.4-0.8-0.8-0.9c-0.2,0-0.4-0.1-0.6-0.1
					c-0.4,0-0.9,0.3-0.8,0.8C111.2,199.9,111.2,200,111.2,200.1z"/>
				<path class="st10" d="M109.1,201.3c-0.3,0-0.4-0.1-0.3-0.4c0-0.3,0.1-0.4,0.3-0.4c0.3,0,0.5,0.2,0.5,0.5
					C109.6,201.2,109.4,201.3,109.1,201.3z"/>
				<path class="st13" d="M117.2,218.8c-0.5,0-1,0-1.5-0.2c-0.4-0.1-0.9-0.3-1.3-0.5c-0.4-0.2-0.8-0.4-1.2-0.6
					c-0.4-0.2-0.8-0.4-1.2-0.7c-0.2-0.1-0.3-0.4-0.5-0.6c-0.4-0.5-0.7-1.1-1-1.7c-0.3-0.6-0.4-1.3-0.6-2c-0.1-0.5-0.2-1.1-0.1-1.6
					c0-0.2,0-0.4,0-0.7c0-0.5,0.1-1,0.4-1.4c0.2-0.4,0.4-0.8,0.6-1.2c0.2-0.4,0.4-0.8,0.8-1.2c0.3-0.3,0.6-0.7,0.9-1
					c0,0,0.1-0.1,0.1-0.1c0.5-0.3,1-0.6,1.6-0.7c0.4-0.1,0.9-0.2,1.3-0.2c0.3-0.1,0.7-0.1,1,0c1,0.1,2,0.2,3,0.6
					c0.7,0.2,1.3,0.6,1.8,1c0.3,0.2,0.6,0.4,0.8,0.6c0.6,0.5,1,1.2,1.3,1.9c0.3,0.9,0.5,1.8,0.6,2.8c0,0.3,0.1,0.6,0.1,0.9
					c0,0.2,0,0.5-0.1,0.7c-0.1,0.6-0.3,1.1-0.4,1.7c-0.1,0.2-0.1,0.5-0.2,0.7c-0.1,0.3-0.3,0.7-0.5,1c-0.2,0.4-0.4,0.6-0.7,0.9
					c0,0-0.1,0.1-0.1,0.1c-0.2,0.2-0.4,0.4-0.6,0.6c-0.3,0.3-0.6,0.4-0.9,0.5c-0.1,0-0.2,0-0.3,0.1
					C119.3,218.7,118.2,218.9,117.2,218.8z M122,211.7c-0.1-0.4-0.1-0.8-0.1-1.3c-0.1-1.2-0.7-2-1.6-2.6c-0.2-0.2-0.5-0.3-0.7-0.4
					c-0.2-0.2-0.5-0.3-0.8-0.3c-0.3-0.1-0.7-0.2-1-0.3c-0.5-0.2-1-0.2-1.4-0.1c-0.1,0-0.3,0-0.4,0.1c-0.4,0.1-0.9,0.2-1.3,0.4
					c-0.5,0.3-0.9,0.8-1.3,1.3c-0.2,0.3-0.4,0.7-0.6,1.1c-0.2,0.4-0.2,0.7-0.3,1.1c-0.1,0.5,0,1,0.1,1.5c0.1,0.4,0.2,0.9,0.4,1.2
					c0.1,0.1,0.1,0.2,0.2,0.3c0.2,0.5,0.6,1,0.9,1.4c0.1,0.2,0.3,0.3,0.5,0.4c0.9,0.5,1.8,0.8,2.9,0.7c0.6,0,1.1-0.1,1.6-0.2
					c0.4-0.1,0.8-0.3,1.1-0.5c0.2-0.2,0.4-0.3,0.5-0.5c0.3-0.3,0.7-0.7,0.8-1.2c0-0.1,0.1-0.2,0.2-0.3c0.1-0.2,0.2-0.4,0.2-0.6
					C121.9,212.5,122,212.1,122,211.7z"/>
				<path class="st13" d="M120.9,200.3c0-0.2,0-0.3,0-0.5c0-0.1,0-0.2,0-0.3c0.2-0.2,0.5-0.3,0.8-0.3c0.3,0,0.6,0,0.9,0.1
					c0.1,0,0.2,0,0.2,0c0.3,0,0.7,0.1,1,0.1c0.2,0,0.4,0.1,0.5,0.3c0.1,0.3,0.2,0.5,0,0.8c-0.6,0-1.3,0-1.9,0
					C122,200.6,121.5,200.5,120.9,200.3z"/>
				<path class="st13" d="M112.3,200.8c-0.1,0-0.2,0-0.4-0.1c-0.2-0.1-0.3-0.2-0.3-0.4c0-0.6-0.1-0.7,0.6-0.8
					c0.4-0.1,0.8,0.2,0.9,0.7C113.1,200.6,113,200.8,112.3,200.8z"/>
				<path class="st10" d="M116.9,207.1c0.1,0,0.3,0,0.4,0c0.1,0,0.2,0,0.3,0c0.6,0.2,1.2,0.3,1.7,0.7c0.3,0.2,0.6,0.3,0.8,0.5
					c0.1,0.1,0.2,0.1,0.2,0.1c0.6,0.6,1,1.3,1,2.1c0,0.4,0.1,0.9,0.1,1.4c-0.1,1.3-0.5,2.4-1.5,3.2c-0.2,0.1-0.3,0.2-0.5,0.3
					c-1,0.3-2.1,0.4-3.2,0.2c-0.5-0.1-0.9-0.3-1.4-0.6c-0.1-0.1-0.2-0.2-0.3-0.3c-0.3-0.4-0.6-0.8-0.8-1.3c-0.1-0.1-0.1-0.3-0.2-0.4
					c-0.1-0.2-0.2-0.4-0.3-0.7c-0.1-0.6-0.2-1.1-0.2-1.7c0-0.3,0.1-0.6,0.2-0.8c0.2-0.5,0.4-1,0.8-1.5c0.2-0.2,0.3-0.4,0.5-0.5
					c0.4-0.3,0.8-0.5,1.3-0.6c0.2-0.1,0.3-0.1,0.5-0.1C116.5,207.1,116.7,207.2,116.9,207.1C116.9,207.2,116.9,207.2,116.9,207.1z
					 M117.7,214.6c0.3,0,0.7,0,1-0.1c0.4-0.1,0.7-0.2,0.9-0.5c0.3-0.4,0.5-0.7,0.7-1.1c0.1-0.2,0.2-0.5,0.2-0.7
					c0-0.7-0.1-1.4-0.5-2.1c-0.1-0.1-0.2-0.3-0.3-0.4c-0.2-0.2-0.5-0.5-0.7-0.7c-0.5-0.4-1.1-0.7-1.8-0.6c-0.1,0-0.2,0-0.3-0.1
					c-0.7-0.2-1.2,0-1.8,0.4c-0.1,0.1-0.1,0.2-0.2,0.2c-0.5,0.3-0.7,0.8-0.8,1.3c-0.1,0.6-0.1,1.3-0.1,1.9c0,0.1,0.1,0.2,0.1,0.3
					c0.3,0.6,0.7,1.2,1.2,1.6c0.3,0.2,0.6,0.4,1,0.4C116.9,214.5,117.2,214.5,117.7,214.6z"/>
				<path class="st10" d="M115.5,210.8c0,0.2,0,0.4-0.1,0.6c0,0.3,0.1,0.6,0.2,0.8c0.2,0.2,0.3,0.4,0.5,0.7c0.2,0.3,0.5,0.5,0.9,0.4
					c0.1,0,0.1,0,0.2,0c-0.1,0.1-0.2,0.1-0.2,0.2c-0.1,0-0.3,0-0.4,0c-0.6-0.2-1.1-0.5-1.4-1.1c-0.1-0.1-0.1-0.3-0.2-0.5
					c-0.1-0.3,0.1-0.7,0.2-1C115.3,210.9,115.3,210.8,115.5,210.8z"/>
				<path class="st10" d="M119.2,210.3c-0.8-1-0.6-0.8-2-1.3c0.1-0.1,0.1-0.1,0.2-0.1c0.1,0,0.2,0,0.3,0c0.3,0,1.1,0.4,1.3,0.7
					c0.1,0.1,0.2,0.3,0.2,0.4C119.2,210.1,119.3,210.3,119.2,210.3z"/>
				<path class="st10" d="M118.9,212.7c0.1-0.5,0-0.9,0.2-1.3c0.1,0.2,0.1,0.3,0.1,0.6C119.2,212.2,119.1,212.5,118.9,212.7z"/>
				<path class="st10" d="M118.1,210.4c0.3,0.1,0.4,0.2,0.4,0.4c0,0.2-0.1,0.5-0.2,0.7c-0.1-0.2-0.1-0.4-0.1-0.6
					C118.2,210.8,118.1,210.6,118.1,210.4z"/>
				<path class="st10" d="M117.5,211.5c-0.1,0.1-0.2,0.2-0.3,0.3c-0.2-0.1-0.3-0.3-0.4-0.5c0-0.1,0-0.2,0.3-0.3
					c0.1,0.2-0.1,0.3,0,0.4C117.2,211.7,117.4,211.5,117.5,211.5L117.5,211.5z"/>
				<path class="st10" d="M117.6,211.9c0.1-0.2,0.2-0.4,0.2-0.6c0.2,0.1,0.2,0.2,0.2,0.3C117.9,211.7,117.8,211.8,117.6,211.9z"/>
				<path class="st10" d="M116.2,209.5c0.1-0.1,0.3-0.3,0.5-0.2C116.5,209.5,116.4,209.5,116.2,209.5z"/>
				<path class="st10" d="M117.7,209.9c0.3-0.1,0.4,0,0.6,0.2c-0.2-0.1-0.2-0.1-0.3-0.1C118,210,117.9,210,117.7,209.9z"/>
				<path class="st10" d="M117.9,213.4c0.1-0.2,0.2-0.2,0.4-0.2C118.2,213.4,118.1,213.4,117.9,213.4z"/>
				<path class="st10" d="M115.9,208.5c0,0.1,0,0.1,0,0.1c-0.1,0.1-0.2,0.1-0.3,0.1C115.7,208.7,115.8,208.6,115.9,208.5
					L115.9,208.5z"/>
				<path class="st10" d="M117.5,211.5c0-0.1,0-0.1,0-0.2l0,0C117.5,211.4,117.5,211.5,117.5,211.5L117.5,211.5z"/>
				<path class="st10" d="M115.9,208.5c0.1,0,0.1,0,0.2,0l0,0C116,208.6,116,208.6,115.9,208.5L115.9,208.5z"/>
				<path class="st10" d="M117.7,212.1L117.7,212.1C117.6,212.1,117.6,212.1,117.7,212.1L117.7,212.1
					C117.6,212.1,117.7,212.1,117.7,212.1z"/>
				<path class="st10" d="M117.8,209.7C117.8,209.6,117.8,209.6,117.8,209.7C117.8,209.6,117.8,209.6,117.8,209.7L117.8,209.7
					C117.8,209.6,117.8,209.6,117.8,209.7L117.8,209.7z"/>
				<path class="st10" d="M117.8,209.7c0.2-0.1,0.2-0.1,0.2,0.1l0,0C117.9,209.7,117.9,209.7,117.8,209.7L117.8,209.7z"/>
				<path class="st10" d="M118,209.8c0,0,0.1-0.1,0.1-0.1l0,0C118.1,209.8,118.1,209.8,118,209.8C118.1,209.8,118,209.8,118,209.8
					C118,209.7,118,209.8,118,209.8z"/>
				<path class="st10" d="M114.7,209.9L114.7,209.9c0,0.1,0,0.1,0,0.1L114.7,209.9C114.6,210,114.7,210,114.7,209.9z"/>
				<path class="st10" d="M115,209.3C115,209.3,114.9,209.3,115,209.3C114.9,209.3,114.9,209.3,115,209.3L115,209.3
					C115,209.3,115,209.3,115,209.3z"/>
			</g>
			<g>
				<path class="st4" d="M128.6,206.6c0,0.2-0.1,0.4-0.1,0.6c0,0.8,0,1.6,0.1,2.4c0,0.3,0,0.6,0,0.9c0,0.4,0.1,0.8,0.1,1.3
					c0,0.2,0,0.4,0,0.6c0,0.7,0,1.5,0,2.2c0,0.2,0.1,0.4,0.1,0.7c0,0.2,0,0.3,0,0.5c0,0.3,0,0.7,0,1c0,0.1,0,0.2,0,0.2
					c0.2,0.7,0.1,1.5,0.1,2.3c0,0.6-0.2,1.2-0.4,1.8c-0.1,0.1-0.1,0.2-0.1,0.3c0,0.2-0.1,0.3-0.1,0.5c-0.1,0.6-0.4,0.8-0.9,0.9
					s-1,0.3-1.5,0.4c-0.1,0-0.1,0-0.1,0c-0.6-0.1-1.1,0.1-1.7,0.1c-1.2,0-2.5,0-3.7,0c-0.5,0-1,0.1-1.6,0.1c-0.4,0-0.8,0.1-1.3-0.1
					c0,0-0.1,0-0.1,0c-0.6,0-1.2-0.1-1.9-0.1c-1.9,0-3.9,0-5.8,0c-0.2,0-0.4-0.1-0.6-0.1c-0.2,0-0.5-0.1-0.7,0
					c-0.5,0-0.9-0.1-1.4-0.1c-0.2,0-0.4-0.1-0.7-0.1c-1.8,0-3.5,0-5.3,0c-0.7,0-1.4-0.2-2-0.4c-0.3-0.1-0.5-0.3-0.6-0.6
					c-0.3-0.7-0.5-1.4-0.5-2.2c0-0.1-0.1-0.3-0.1-0.4c-0.4-0.7-0.5-1.4-0.6-2.2c-0.1-0.9-0.2-1.8-0.4-2.7c-0.1-0.6-0.2-1.2-0.2-1.8
					c0-0.5-0.1-1-0.1-1.5c0-0.4,0-0.9,0.1-1.3c0-0.3,0.1-0.7,0-1c0-0.3-0.1-0.5-0.1-0.8c-0.7,0-1.1-0.5-1.5-1.1
					c-0.4-0.6-0.3-1.2-0.3-1.9c0.2-0.6,0.6-1.1,1.1-1.5c0.2-0.1,0.3-0.2,0.5-0.2c0.2,0,0.4,0,0.7,0c0-0.1,0.1-0.1,0.1-0.1
					c0-0.6,0.3-1.1,0.8-1.4c0.4-0.3,0.8-0.5,1.3-0.6c0.1-0.2,0.1-0.4,0-0.6c-0.1-0.5,0.3-0.8,0.5-1.1c0.2-0.3,0.5-0.4,0.9-0.4
					c0.6-0.1,1.2-0.2,1.8-0.2c0.7,0,1.3-0.1,2,0.1c0.3,0.1,0.5,0.2,0.6,0.5c0.1,0.3,0.2,0.6,0.2,0.9c0,0.1,0,0.2,0,0.2
					c0.3,0.1,0.3,0.1,0.4-0.1c0.1-0.1,0.1-0.3,0.1-0.4c0.2-0.5,0.3-1,0.7-1.4c0.3-0.3,0.6-0.5,1-0.7c0,0,0,0,0.1,0
					c0.4-0.2,0.7-0.4,1.1-0.5c0.4-0.1,0.8-0.2,1.2-0.3c0.3-0.1,0.7-0.2,1.1-0.2c0.4-0.1,0.9-0.1,1.3-0.1c0,0,0.1,0,0.1,0
					c0.6-0.2,1.2-0.1,1.8-0.1c1.5,0,3,0,4.6,0c0.3,0,0.5,0.1,0.8,0.1c0.3,0,0.6,0.1,0.9,0c0.7,0,1.5,0.1,2.2,0.2c0.1,0,0.2,0,0.2,0
					c0.5,0,1,0.1,1.5,0.2c0.3,0.1,0.6,0.1,0.8,0.1c0.3,0,0.6,0.1,0.8,0.2c0.3,0.1,0.6,0.3,0.8,0.5c0.1,0.1,0.1,0.2,0.2,0.3
					c0.1,0.4,0.3,0.9,0.3,1.3c0,0.2,0.1,0.3,0.1,0.5c0.2,0.6,0.4,1.1,0.7,1.7c0,0.1,0.1,0.1,0.1,0.2c0.2,0,0.3,0,0.5,0
					c0.3,0,0.6,0.1,0.8,0.2c0.2,0.1,0.3,0.2,0.5,0.3c0.3,0.2,0.4,0.4,0.6,0.7c0.2,0.4,0.2,0.7,0.2,1.1c0,0.2-0.1,0.5-0.1,0.7
					c-0.2,0.5-0.5,0.9-0.9,1.2c0,0-0.1,0-0.1,0.1C129.3,206.4,129.1,206.6,128.6,206.6z M105.5,204.1c0,0.1,0,0.1,0,0.2
					c0,0.3-0.1,0.6-0.3,0.8c-0.1,0.1-0.1,0.2-0.1,0.3c-0.1,0.4-0.2,0.9-0.2,1.3c0,0.2-0.1,0.5-0.1,0.7c0,1.1,0,2.1,0,3.2
					c0,0.3,0,0.6,0.1,0.8c0.1,1.2,0.3,2.3,0.4,3.5c0,0.1,0,0.1,0,0.2c0.1,0.6,0.2,1.2,0.3,1.8c0.1,0.8,0.2,1.6,0.3,2.4
					c0.1,0.3,0.1,0.6,0.2,0.9c0.1,0.4,0.3,0.6,0.7,0.7c0.5,0.1,1,0.2,1.5,0.2c0.4,0,0.9,0,1.3,0c0.7,0.1,1.4,0.1,2.1,0.1
					c0.2,0,0.3,0,0.4,0c1,0,2,0,3,0c0.4,0,0.9,0,1.3,0.1c0.1,0,0.2,0,0.3,0c0.4,0,0.8,0,1.2,0c1.1,0,2.2,0.1,3.3-0.1
					c0.4-0.1,0.8-0.1,1.2-0.1c0.3,0,0.6-0.1,0.9,0.1c0.1,0,0.2,0,0.3,0c0.2,0,0.4,0,0.7,0c0.2,0,0.4,0.1,0.6,0.1
					c0.6,0,1.1-0.1,1.6-0.2c0.4-0.1,0.8-0.3,1.2-0.2c0.2,0,0.4-0.1,0.4-0.3c0.1-0.3,0.1-0.6,0.1-0.9c0-1,0-2,0.1-3
					c0-0.1,0-0.2,0-0.2c-0.1-0.2-0.1-0.5-0.1-0.7c0-1.2,0-2.3,0-3.4c0-0.2,0-0.4,0-0.6c0-0.5-0.1-0.9-0.1-1.4c0-0.2,0-0.5,0-0.7
					c-0.1-0.8-0.1-1.6-0.1-2.5c0-0.4-0.1-0.9-0.1-1.3c0-0.2-0.1-0.4,0.1-0.7c0.1-0.1,0-0.2,0-0.2c0-0.3-0.2-0.6-0.3-0.9
					c-0.2-0.4-0.6-0.6-0.9-0.7c-0.3-0.1-0.7-0.1-1-0.1c-0.4-0.1-0.7-0.1-1.1-0.1c-0.8-0.2-1.6-0.3-2.4-0.3c-0.1,0-0.3,0-0.4,0
					c-0.9-0.1-1.9-0.2-2.8-0.2c-0.5,0-1,0-1.5,0c-0.2,0-0.3,0-0.5,0c-0.3,0-0.6-0.1-0.9-0.1c-1.4,0-2.7,0-4.1,0c-0.1,0-0.2,0-0.3,0
					c-0.4,0.1-0.8,0.1-1.2,0.2c-0.3,0.1-0.6,0.1-0.9,0.1c-0.6,0.1-1.2,0.1-1.8,0.4c-0.2,0.1-0.5,0.2-0.8,0.2
					C106.6,203.6,106,203.8,105.5,204.1z M105.7,203.3c0.1,0,0.2,0,0.2-0.1c0.5-0.2,1-0.3,1.5-0.5c0.8-0.3,1.7-0.4,2.6-0.5
					c1-0.1,1.9-0.3,2.9-0.2c0.3,0,0.7,0,1,0c0.3,0,0.5-0.1,0.8-0.1c0.6,0.1,1.3,0,1.9,0.1c0.1,0,0.2,0,0.3,0c0.4,0,0.8,0.1,1.2,0.1
					c0.6,0,1.2,0,1.8,0c0.2,0,0.4,0,0.6,0c0.9,0.1,1.8,0.2,2.7,0.2c0.1,0,0.2,0,0.3,0c0.5,0.1,1,0.2,1.4,0.2
					c0.2,0.1,0.5,0.1,0.7,0.1c0.7,0,1.3,0.2,1.9,0.6c0.1,0.1,0.2,0.1,0.4,0.2c0-0.2-0.1-0.4-0.1-0.6c-0.2-0.7-0.5-1.3-0.7-2
					c-0.1-0.2-0.1-0.4-0.2-0.6c-0.1-0.2-0.2-0.4-0.2-0.7c0-0.3-0.2-0.7-0.2-1c-0.1-0.4-0.4-0.7-0.8-0.8c-0.3-0.1-0.6-0.1-0.8-0.1
					c-0.7-0.1-1.5-0.3-2.2-0.3c-0.4,0-0.7-0.1-1.1-0.1c-0.2,0-0.4-0.1-0.7-0.1c-0.3,0-0.7,0-1,0c-0.2,0-0.3,0-0.5,0
					c-0.2,0-0.4-0.1-0.7-0.1c-1.6,0-3.2,0-4.8,0c-0.5,0-1-0.1-1.5,0.1c-0.1,0-0.1,0-0.2,0c-0.9,0.1-1.8,0.1-2.7,0.4
					c-0.1,0-0.3,0.1-0.4,0.1c-0.3,0-0.7,0.2-1,0.3c-0.2,0.1-0.3,0.2-0.5,0.3c-0.6,0.3-1,0.7-1.2,1.3c0,0.1,0,0.1-0.1,0.2
					c-0.2,0.4-0.2,0.9-0.4,1.3c-0.2,0.7-0.3,1.3-0.4,2C105.6,203.2,105.7,203.3,105.7,203.3z M105.5,201.1c-0.1,0-0.2,0-0.4,0
					c-0.7,0-1.4,0-2.1,0.1c-0.6,0.1-1.1,0.1-1.7,0.2c-0.4,0.1-0.9,0.2-1.3,0.2c-0.6,0.1-1,0.2-1.5,0.5c-0.4,0.3-0.7,0.6-0.7,1.1
					c0,0.4,0,0.8-0.1,1.2c0,0.1,0,0.2,0,0.2c0.3,0,0.6-0.1,0.9-0.2c0.4-0.1,0.9-0.2,1.3-0.2c0.6,0,1.1,0,1.7-0.1
					c0.1,0,0.3-0.1,0.4-0.1c0.5,0,1,0,1.6,0c0.1,0,0.2,0,0.3,0c0.3,0.1,0.6,0.1,0.8,0.1c0.2-0.2,0.2-0.3,0.3-0.6
					c0.1-0.3,0.1-0.5,0.2-0.8c0.1-0.4,0.2-0.9,0.3-1.3C105.5,201.5,105.5,201.3,105.5,201.1z M127.9,221.4c-0.2,0-0.3,0.1-0.4,0.1
					c-0.3,0.1-0.6,0.1-0.9,0.1c-0.7,0.1-1.4,0.1-2,0.1c-0.8-0.1-1.5-0.1-2.3-0.1c-0.3,0-0.7,0.1-1,0.1c-0.1,0-0.1,0-0.1,0
					c-0.2,0-0.4,0.1-0.5,0.1c-1.3,0-2.7,0-4,0c-0.2,0-0.3,0-0.5-0.1c-0.2,0-0.4-0.1-0.6-0.1c-0.8,0-1.6-0.1-2.4,0.1
					c-0.6,0-1.1,0.1-1.7-0.1c-0.2,0-0.3,0-0.5,0c-0.3,0-0.6,0-0.8,0c-0.9,0-1.9,0-2.8,0c-0.2,0-0.3,0-0.5,0.1c0,0.2-0.1,0.4,0.1,0.6
					c0.2,0,0.3,0.1,0.4,0.1c0.5,0.1,1,0.2,1.5,0.2c0.2,0,0.4,0,0.7,0c0.2,0,0.4,0.1,0.7,0.1c1.8,0,3.5,0,5.3,0c0.4,0,0.9,0,1.3,0.1
					c0.1,0,0.2,0,0.2,0c0.4,0,0.8,0,1.2,0.1c0.7,0,1.3,0,2,0c0.3,0,0.6-0.1,0.9-0.1c1.1,0,2.1,0,3.2,0c0.1,0,0.3,0,0.4,0
					c0.3-0.1,0.6-0.1,0.9-0.1c0.2,0,0.3,0,0.5-0.1c0.5-0.1,0.9-0.2,1.4-0.3C127.7,222.1,127.9,221.9,127.9,221.4z M104.4,220.7
					c-0.2-0.8-0.3-1.5-0.4-2.2c-0.2-1-0.4-2.1-0.3-3.2c0-0.1,0-0.2,0-0.2c0-0.8-0.1-1.6-0.1-2.5c0-0.1,0-0.1,0-0.2
					c0-0.3-0.1-0.6-0.1-0.9c0-0.4,0-0.8-0.1-1.3c-0.1-0.4-0.1-0.8-0.1-1.3c0-0.7-0.1-1.3-0.2-2c-0.1-0.6-0.2-1.3-0.1-1.9
					c0-0.1,0-0.3,0-0.4c-0.3,0-0.6,0-0.9,0c0,0.1,0,0.2,0,0.3c0,0.4,0.1,0.8,0.1,1.3c0.1,0.5,0.1,1,0.1,1.5c0.1,1,0.2,2.1,0.3,3.1
					c0.1,0.4,0.1,0.8,0.1,1.2c0.1,0.7,0.2,1.3,0.2,2c0,0.3,0,0.6,0,0.8c0.1,0.3,0.1,0.7,0.1,1c0,0.6,0,1.1,0,1.6
					c0,0.2,0,0.4,0.1,0.6c0,0.3,0.1,0.6,0.1,0.9c0,0.6,0.1,1.1,0.1,1.7c0,0,0,0.1,0.1,0.1C103.7,220.7,104.1,220.7,104.4,220.7z
					 M98.7,205c0,0.5,0,1,0,1.5c0,0.3,0.1,0.6,0.1,0.9c0.1,0.4,0.1,0.8,0.1,1.2c0.1,0.7,0.1,1.3,0.1,2c0,0.1,0,0.2,0,0.2
					c0.1,0.8,0.2,1.6,0.2,2.4c0,0.1,0,0.2,0,0.2c0.1,0.5,0.1,0.9,0.2,1.4c0.1,0.5,0.1,1,0.2,1.5c0.1,0.5,0.2,1,0.2,1.6
					c0,0.3,0.1,0.5,0.1,0.8c0.2,0.5,0.3,1,0.4,1.5c0.1,0,0.2,0.1,0.3,0.1c0.1,0,0.2,0.1,0.3,0c0-0.1,0-0.2,0-0.3
					c-0.1-0.3-0.1-0.5-0.1-0.8c0-0.1,0-0.2,0-0.2c-0.1-0.7-0.2-1.3-0.3-2c-0.1-0.7-0.2-1.4-0.3-2.1c-0.1-0.4-0.1-0.7-0.1-1.1
					c0-0.4-0.1-0.7-0.1-1.1c-0.1-0.3-0.1-0.6-0.2-0.9c-0.1-0.7-0.2-1.4-0.3-2.1c-0.1-0.7-0.2-1.4-0.2-2c-0.1-0.9-0.1-1.9-0.2-2.8
					c0,0,0-0.1-0.1-0.1C99,204.8,98.8,204.9,98.7,205z M102,220.6c0.1-0.5-0.1-1-0.1-1.5c-0.1-0.4-0.1-0.8-0.2-1.2
					c-0.1-0.6-0.1-1.2-0.2-1.8c-0.1-0.6-0.2-1.1-0.1-1.7c0-0.3,0-0.7,0-1c0-0.3-0.1-0.6-0.1-0.8c0-0.8-0.1-1.6-0.2-2.4
					c0-0.2-0.1-0.4-0.1-0.7c-0.3-1.5-0.4-2.9-0.6-4.4c0-0.1,0-0.2-0.1-0.3c-0.3,0-0.5,0-0.8,0c0,0.1,0,0.2,0,0.3
					c0.1,0.6,0.1,1.2,0.1,1.8c0,0.4,0.1,0.7,0.1,1.1c0.1,0.7,0.2,1.5,0.3,2.2c0.1,0.7,0.2,1.5,0.3,2.2c0.1,0.6,0.2,1.1,0.2,1.7
					c0,0,0,0.1,0,0.1c0.2,1.3,0.4,2.6,0.6,3.9c0.1,0.4,0.1,0.7,0.1,1.1c0,0.4,0.1,0.7,0.1,1.1C101.6,220.5,101.6,220.6,102,220.6z
					 M102.9,220.7c0-0.2,0.1-0.5,0-0.7c-0.1-0.4-0.1-0.7-0.1-1.1c0-0.1,0-0.2,0-0.3c-0.1-0.6-0.2-1.1-0.2-1.7c0-0.4,0-0.8,0-1.3
					c0-0.2,0-0.3,0-0.4c-0.1-0.5-0.1-1-0.1-1.6c0-0.3,0-0.5-0.1-0.8c-0.1-1.1-0.2-2.2-0.4-3.2c-0.1-0.4-0.1-0.8-0.1-1.1
					c-0.2-1.2-0.3-2.4-0.4-3.7c0-0.1,0-0.1-0.1-0.1c-0.3,0-0.5,0-0.7,0.1c-0.1,0.2,0,0.4,0,0.7c0,0.2,0.1,0.4,0.1,0.6
					c0.1,0.8,0.2,1.5,0.3,2.3c0.1,0.7,0.2,1.4,0.3,2s0.2,1.4,0.2,2c0,0.2,0,0.5,0,0.7c0.1,0.5,0.1,1,0.1,1.5c0,0.3,0.1,0.5,0.1,0.8
					c0,0.3,0.1,0.7,0.1,1c0.1,0.5,0.1,1,0.1,1.5c0,0.1,0,0.1,0,0.2c0.1,0.4,0.1,0.8,0.2,1.2c0.1,0.3,0.1,0.7,0.1,1
					C102.5,220.6,102.5,220.7,102.9,220.7z M103.4,204.6c0,0.1,0,0.2,0,0.3c0,0.6,0.1,1.3,0.1,1.9c0.1,0.8,0.2,1.5,0.2,2.3
					c0,0.2,0,0.3,0,0.4c0.1,0.7,0.2,1.5,0.2,2.3c0,0.1,0,0.2,0,0.3c0,0.3,0.1,0.6,0.1,0.9c0,0.2,0,0.5,0,0.7c0,0.3,0.1,0.7,0.1,1
					c0,0.5,0,0.9,0,1.4c0,0.1,0,0.3,0,0.4c0.1,0.4,0.2,0.9,0.2,1.4c0.1,0.7,0.2,1.3,0.4,2c0.1,0.3,0.1,0.6,0.3,0.8
					c0.2,0,0.4,0,0.6,0c-0.1-0.2-0.1-0.3-0.1-0.4c-0.1-0.2-0.1-0.5-0.2-0.7c-0.1-0.8-0.2-1.6-0.3-2.4c-0.1-1-0.3-1.9-0.3-2.9
					c0-0.6-0.1-1.2-0.2-1.8c-0.1-0.8-0.2-1.5-0.2-2.4c0-0.5,0-1,0-1.5c0-1.1,0-2.3,0.1-3.4c0-0.2,0-0.4,0-0.7
					C104,204.7,103.8,204.5,103.4,204.6z M97.7,205.3c0,0.9,0,1.7,0,2.5c0,0.2,0,0.3,0.1,0.5c0.1,0.6,0.2,1.2,0.2,1.8
					c0,0.1,0,0.2,0,0.3c0.1,0.4,0.1,0.8,0.1,1.2c0,0.2,0,0.4,0,0.6c0.1,0.4,0.1,0.9,0.2,1.4c0.1,0.6,0.1,1.3,0.2,1.9
					c0.1,0.7,0.3,1.3,0.3,1.9c0.1,0.5,0.3,0.9,0.2,1.4c0,0.1,0,0.1,0.1,0.2c0.1,0.3,0.2,0.6,0.3,1c0.3,0.2,0.3,0.2,0.7,0.2
					c0-0.1,0-0.1,0-0.2c-0.1-0.3-0.2-0.7-0.3-1c-0.1-0.2-0.1-0.4-0.1-0.7c0-0.5-0.1-0.9-0.2-1.4c-0.1-0.5-0.2-1-0.3-1.5
					c0-0.3-0.1-0.6-0.1-0.9c-0.1-0.5-0.2-1-0.2-1.5c0-0.1,0-0.2,0-0.3c-0.1-0.6-0.1-1.1-0.2-1.7c0-0.2-0.1-0.4-0.1-0.6
					c-0.1-0.7-0.1-1.4-0.1-2.1c0-0.2,0-0.3-0.1-0.4c-0.1-0.7-0.1-1.3-0.1-2c0-0.2,0-0.4,0-0.6c0-0.1,0-0.2,0-0.3
					C98.1,205.1,97.9,205.2,97.7,205.3z M106.2,221.4c-0.4-0.1-0.8-0.1-1.2-0.1c-0.2,0-0.3,0-0.5-0.1s-0.3,0-0.4-0.1
					c-0.7,0-1.3,0-2-0.1c-0.5-0.1-1.1-0.1-1.6-0.3c-0.1,0-0.3-0.1-0.4-0.1c-0.4,0-0.8-0.2-1.1-0.4c-0.1-0.1-0.2-0.1-0.3-0.2
					c0,0.1-0.1,0.1,0,0.1c0.1,0.4,0.3,0.8,0.4,1.3c0.1,0.2,0.2,0.3,0.4,0.3c0.6,0.2,1.1,0.4,1.7,0.4c1.5,0,3.1,0,4.7,0
					c0.1,0,0.2,0,0.3,0C106.2,221.9,106.2,221.7,106.2,221.4z M97.5,205.4c-0.1,0.1-0.1,0.1-0.1,0.1c-0.1,0.2-0.2,0.4-0.2,0.6
					c0,0.7,0,1.3,0,2c0,0.6,0,1.1,0,1.6c0,0.8-0.1,1.5,0.1,2.3c0,0.2,0,0.3,0,0.4c0,0.8,0.1,1.6,0.3,2.3c0.1,0.3,0.2,0.6,0.2,1
					c0.1,0.7,0.2,1.3,0.3,2c0.1,0.6,0.4,1,0.6,1.5c0,0,0.1,0.1,0.2,0.1c-0.1-0.2-0.1-0.3-0.1-0.5c0-0.2,0-0.3-0.1-0.5
					c-0.2-0.9-0.3-1.8-0.5-2.6c0-0.2-0.1-0.3-0.1-0.5c-0.1-0.7-0.2-1.4-0.3-2c-0.1-0.6-0.1-1.1-0.1-1.7c-0.1-0.8-0.1-1.6-0.1-2.4
					c0-0.2-0.1-0.3-0.1-0.5c-0.1-0.4-0.1-0.8-0.1-1.3C97.5,206.7,97.5,206.1,97.5,205.4z M128.5,202.9c0.2,0.1,0.3,0.1,0.4,0.1
					c0.7,0.2,1,0.7,0.9,1.4c0,0,0,0,0,0.1c-0.1,0.5-0.3,1-0.9,1.2c-0.1,0-0.2,0.1-0.2,0.1c0,0,0,0.1,0,0.2c0,0,0.1,0.1,0.1,0.1
					c0.1,0,0.2,0,0.2-0.1c0.2-0.1,0.3-0.2,0.5-0.4c0.7-0.6,0.9-1.3,0.6-2.2c-0.1-0.3-0.2-0.5-0.5-0.7c-0.2-0.1-0.3-0.2-0.5-0.3
					c-0.3-0.2-0.5-0.2-0.8-0.2C128.2,202.5,128.4,202.7,128.5,202.9z M96.6,207.2c-0.4-0.2-0.4-0.2-0.7-0.7c0,0,0-0.1-0.1-0.1
					c-0.3-0.5-0.2-1-0.1-1.5c0.1-0.2,0.2-0.4,0.4-0.5c0.3-0.2,0.6-0.4,1-0.4c0,0,0.1-0.1,0.1-0.1c0-0.1,0-0.2-0.1-0.2
					c-0.2,0-0.4,0-0.6,0c-0.2,0-0.3,0.1-0.4,0.2c-0.3,0.3-0.5,0.6-0.7,1c-0.1,0.1-0.1,0.2-0.1,0.3c0,0.1,0,0.3,0,0.4
					c0,0.6,0.3,1,0.7,1.5C96.2,207.2,96.4,207.3,96.6,207.2z M101.8,200.8c0-0.5,0-0.9,0-1.3c-0.4-0.1-0.4-0.1-0.7,0.1
					c-0.1,0.2,0,0.4,0,0.6c0,0.2-0.1,0.4,0.1,0.7C101.4,200.8,101.6,200.8,101.8,200.8z M100.6,200.9c0-0.3,0-0.5,0-0.7
					s0.1-0.4,0-0.7c-0.4,0.1-0.5,0.2-0.8,0.6c-0.2,0.3-0.1,0.6-0.1,0.9C100.1,201,100.3,201,100.6,200.9z M97.3,204.6
					c-0.2-0.1-0.3-0.1-0.4,0c-0.1,0.1-0.3,0.2-0.4,0.2c-0.2,0.1-0.3,0.3-0.3,0.6c-0.1,0.4,0.1,0.8,0.3,1.2c0,0,0.1,0,0.1,0
					c0-0.5,0-1,0.2-1.5C97,205,97.4,205,97.3,204.6z M128.7,205.2C128.7,205.2,128.7,205.2,128.7,205.2c0.1,0,0.2,0,0.2,0
					c0.4-0.3,0.5-0.7,0.5-1.2c0-0.2-0.1-0.3-0.3-0.4c-0.1-0.1-0.3-0.3-0.5-0.2c-0.1,0.3,0.1,0.6,0.1,0.9
					C128.7,204.5,128.7,204.9,128.7,205.2z M102.2,199.4c0,0.3,0,0.6,0,0.8c0,0.2,0,0.3,0.2,0.4c0.3,0,0.3,0,0.6-0.1
					c0-0.3-0.1-1-0.1-1.3c-0.1,0-0.2,0-0.3,0C102.4,199.4,102.3,199.4,102.2,199.4z M104.1,200.6c-0.1-0.4-0.1-0.8-0.2-1.2
					c-0.2,0-0.3-0.1-0.5,0.1c0.1,0.4,0.1,0.8,0.1,1.2C103.7,200.6,103.8,200.6,104.1,200.6z M104.8,200.5c0.1-0.4,0-0.7-0.2-1
					c-0.1-0.1-0.2-0.2-0.3-0.1c0,0.3,0.1,0.7,0.2,1C104.6,200.6,104.7,200.6,104.8,200.5z"/>
				<path class="st4" d="M109,207.8c0.2-0.3,0.3-0.6,0.5-0.9c0.1-0.2,0.3-0.4,0.4-0.7c0.4-0.6,0.9-1.1,1.5-1.6l0,0
					c0.4-0.5,0.9-0.9,1.4-1.2c0.4-0.2,0.8-0.4,1.2-0.5c0.3-0.1,0.7-0.1,1.1-0.1c0.4,0,0.9,0,1.4,0c0.3,0,0.7,0,1,0.1
					c0.1,0,0.1,0,0.2,0c0.7,0,1.3,0.2,2,0.4c0.3,0.1,0.6,0.2,0.9,0.3c0.2,0.1,0.4,0.2,0.6,0.2c0.2,0.1,0.3,0.2,0.4,0.2
					c0.4,0.2,0.8,0.4,1.2,0.8c0.2,0.3,0.5,0.5,0.7,0.7c0.6,0.7,1,1.4,1.4,2.1c0.2,0.3,0.4,0.5,0.8,0.7c0.2,0.1,0.5,0.2,0.7,0.3
					c0.2,0.1,0.4,0.3,0.4,0.5c0.2,0.9,0.5,1.8,0.5,2.7c0,0.5,0,1-0.1,1.6c-0.1,0.8-0.4,1.5-0.8,2.1c-0.2,0.2-0.4,0.4-0.6,0.6
					c-0.2,0.2-0.5,0.2-0.8,0.2c-0.2,0.3-0.4,0.6-0.5,0.9c-0.3,0.7-0.8,1.3-1.3,1.7c-0.3,0.2-0.6,0.3-0.9,0.5
					c-0.2,0.1-0.3,0.2-0.5,0.3c-0.6,0.3-1.1,0.5-1.7,0.7c-0.1,0-0.3,0-0.4,0c-1.2,0-2.3,0-3.5,0c-0.3,0-0.7-0.1-1-0.1
					c-0.2,0-0.4-0.1-0.6-0.1c-0.1,0-0.2,0-0.2-0.1c-0.6-0.2-1.2-0.5-1.8-0.8c-0.4-0.2-0.7-0.4-1-0.7c-0.4-0.4-0.8-0.8-1.2-1.1
					c-0.2-0.2-0.3-0.3-0.4-0.5c-0.2-0.3-0.4-0.5-0.7-0.6c-0.5-0.2-0.9-0.6-1.2-1.1c-0.2-0.4-0.3-0.8-0.4-1.3
					c-0.1-0.5-0.2-1.1-0.3-1.6c0-0.2-0.1-0.4-0.1-0.6c0-0.8,0-1.5,0-2.3c0-0.4,0.2-0.7,0.4-0.9C108,208.1,108.4,207.9,109,207.8z
					 M117.8,219.8L117.8,219.8c0.4,0,0.9,0,1.3,0c0.7,0,1.3-0.2,1.9-0.4s1.2-0.6,1.7-0.9c0.3-0.2,0.6-0.4,0.9-0.7
					c0.2-0.3,0.4-0.6,0.5-0.9c0.1-0.1,0.1-0.2,0.2-0.4c0.1-0.2,0.3-0.5,0.4-0.7c0.1-0.1,0.2-0.3,0.2-0.4c0.1-0.1,0.1-0.1,0.2-0.2
					c0.1-0.4,0.4-0.9,0.3-1.4c0-0.3,0-0.5,0.1-0.8c0.1-0.1,0-0.2,0-0.3c0-0.2,0-0.3,0-0.5c0-0.5,0-1-0.1-1.5
					c-0.1-0.7-0.3-1.5-0.6-2.2c-0.2-0.5-0.4-1-0.7-1.4c-0.4-0.7-0.9-1.5-1.6-2c-0.1-0.1-0.1-0.2-0.2-0.2c-0.1-0.1-0.2-0.3-0.4-0.3
					c-0.4-0.2-0.9-0.5-1.4-0.7c-0.5-0.2-1.1-0.3-1.6-0.5c-0.4-0.1-0.7-0.2-1.1-0.2c-0.2,0-0.3,0-0.4-0.1s-0.3-0.1-0.4-0.1
					c-0.7,0-1.3,0-2,0c-0.6,0-1.2,0.3-1.7,0.5c-0.2,0.1-0.4,0.2-0.6,0.4c-0.2,0.1-0.3,0.2-0.4,0.4c-0.5,0.6-1.1,1-1.5,1.7
					c-0.6,0.6-1,1.3-1.3,2.1c-0.3,0.7-0.5,1.5-0.5,2.3c0,0.1,0,0.1,0,0.2c-0.1,0.6,0,1.2-0.1,1.9c0,0.1,0,0.1,0,0.2
					c0.1,0.3,0.1,0.6,0.2,0.8c0.2,0.7,0.3,1.4,0.6,2c0.3,0.6,0.7,1.1,1.1,1.5c0.3,0.4,0.7,0.7,1,1c0.4,0.4,0.9,0.8,1.5,1
					c0.6,0.2,1.3,0.6,2,0.6c0.5,0,1,0.2,1.6,0.1C117,219.8,117.4,219.8,117.8,219.8z M125.3,215.6c0.1-0.1,0.2-0.1,0.2-0.2
					c0.4-0.4,0.7-1,0.9-1.6c0.2-0.7,0.3-2.8,0.1-3.6c-0.1-0.2-0.1-0.5-0.2-0.7c-0.2-0.6,0-0.5-0.7-0.8c-0.1-0.1-0.2-0.1-0.4-0.1
					c0.1,0.2,0.1,0.4,0.2,0.6c0.1,0.3,0.2,0.6,0.2,0.9c0.1,0.7,0.3,1.4,0.2,2.2c0,0.2,0,0.4,0,0.6c0,0.3,0,0.6-0.2,0.9
					c-0.1,0.1-0.1,0.3-0.1,0.4c0,0.3-0.1,0.6-0.2,0.8C125.4,215.2,125.3,215.4,125.3,215.6z M108.9,215.6c-0.2-0.6-0.3-1.1-0.4-1.6
					c-0.1-0.5-0.2-1-0.3-1.5c-0.1-0.9,0-1.7,0.1-2.6c0-0.1,0-0.1,0-0.2c0.1-0.4,0.2-0.7,0.3-1.1c0-0.1,0-0.2,0.1-0.3
					c-0.2,0.1-0.4,0.2-0.6,0.3c-0.3,0.3-0.5,0.6-0.5,1.1c0,0.3,0,0.7,0,1c0,0.7,0,1.3,0.1,2c0.1,0.7,0.2,1.4,0.4,2
					C108.4,215.1,108.6,215.3,108.9,215.6z"/>
				<path class="st4" d="M124.2,202.1c-0.6-0.1-1.2-0.1-1.7-0.2c-0.4-0.1-0.8-0.1-1.1-0.1c-0.2,0-0.4,0-0.7,0
					c-0.3,0-0.6-0.1-0.8-0.3c-0.2-0.2-0.4-0.4-0.4-0.7c-0.1-0.5-0.1-1-0.1-1.5c0-0.3,0.2-0.7,0.4-0.8c0.3-0.2,0.7-0.4,1.1-0.3
					c0.4,0,0.7,0,1.1,0c0.7,0,1.3,0.1,1.9,0.2c0.1,0,0.3,0.1,0.4,0.1c0.4,0,0.7,0.3,1,0.6c0.4,0.4,0.5,0.9,0.5,1.5
					c0,0.2,0,0.5,0,0.7c0,0.3-0.2,0.5-0.5,0.5C125,202,124.6,202,124.2,202.1z M125.4,201.4c0-0.3,0-0.5,0-0.7c0-0.5-0.2-1-0.6-1.4
					c-0.1-0.1-0.3-0.2-0.5-0.3c-0.5-0.2-1-0.2-1.6-0.3c-0.7-0.1-1.3-0.1-2,0c-0.4,0-0.7,0.2-0.8,0.6c-0.1,0.4-0.1,0.9,0,1.3
					c0.1,0.4,0.3,0.6,0.8,0.7c0.2,0,0.4,0,0.6,0c0.4,0,0.7,0,1.1,0.1c0.7,0.1,1.4,0.2,2,0.2C124.8,201.5,125,201.5,125.4,201.4z"/>
				<path class="st4" d="M112.4,201.8c-0.5,0.1-1-0.1-1.5-0.5c-0.3-0.2-0.5-0.5-0.5-0.9c0-0.1,0-0.3,0-0.4c0-0.6,0.2-1,0.8-1.3
					c0.5-0.3,1-0.4,1.6-0.3c0.2,0,0.3,0.1,0.5,0.1c0.3,0.2,0.6,0.4,0.9,0.7c0.1,0.1,0.1,0.2,0.2,0.3c0.1,0.2,0.1,0.4,0.1,0.6
					c0,0.4,0,0.8-0.3,1.1c-0.3,0.4-0.7,0.7-1.3,0.6C112.7,201.8,112.6,201.8,112.4,201.8z M112.5,201.3
					C112.5,201.3,112.5,201.3,112.5,201.3c0.1,0,0.1,0,0.2,0c0.4,0.1,0.8-0.2,1-0.5c0.1-0.1,0.1-0.2,0.2-0.3c0.2-1.1-0.8-2-1.7-1.8
					c-0.6,0.1-0.6,0.1-1,0.5c-0.1,0.1-0.2,0.2-0.3,0.4c-0.2,0.9-0.1,1.3,0.9,1.7C112,201.3,112.2,201.3,112.5,201.3z"/>
				<path class="st4" d="M109.2,201.8c-0.6,0-0.8-0.2-0.8-0.7c0-0.1,0-0.2,0-0.3c0-0.3,0.2-0.5,0.4-0.6c0.2-0.1,0.3-0.1,0.5,0
					c0.1,0.1,0.2,0.1,0.4,0.2c0.3,0.1,0.5,0.5,0.4,0.8c0,0.3-0.3,0.5-0.6,0.6C109.3,201.8,109.2,201.8,109.2,201.8z M109.1,201.3
					c0.3,0,0.5-0.1,0.5-0.3c0-0.3-0.2-0.5-0.5-0.5c-0.2,0-0.3,0.1-0.3,0.4C108.8,201.2,108.9,201.3,109.1,201.3z"/>
				<path class="st4" d="M109.4,211.2c0-0.7,0-1.2,0.1-1.7c0.1-0.2,0.1-0.5,0.2-0.7c0.2-0.5,0.5-1,0.7-1.5c0.2-0.4,0.4-0.7,0.6-1
					c0.4-0.4,0.8-0.8,1.2-1.3c0.2-0.2,0.5-0.3,0.8-0.4c0.7-0.3,1.3-0.4,2-0.5c0.4-0.1,0.9-0.1,1.3-0.1c0.4,0,0.8,0,1.2,0
					c0.9-0.1,1.7,0.2,2.5,0.6c1.1,0.5,2,1.2,2.9,2c0.4,0.4,0.8,0.9,1,1.5c0.2,0.4,0.3,0.9,0.3,1.4c0.1,0.4,0.2,0.8,0.2,1.3
					c0.1,0.3,0.1,0.6,0.1,0.8c0,0.3,0,0.6-0.1,0.8c0,0.4-0.1,0.7-0.1,1.1c-0.1,0.3-0.1,0.6-0.2,0.8c0,0.4-0.2,0.8-0.3,1.2
					c-0.3,0.6-0.6,1.2-1,1.7c-0.4,0.6-1,1-1.7,1.3c-0.9,0.4-1.8,0.7-2.7,0.8c-1.3,0.1-2.6,0.1-3.8-0.4c-0.2-0.1-0.4-0.2-0.6-0.2
					c-0.5-0.3-1-0.5-1.5-0.8c-0.7-0.3-1.1-0.8-1.5-1.4c-0.4-0.6-0.7-1.1-1-1.8c-0.1-0.2-0.2-0.4-0.2-0.7
					C109.5,213.1,109.3,212.1,109.4,211.2z M117.2,218.8c1.1,0,2.1-0.1,3.1-0.5c0.1-0.1,0.2-0.1,0.3-0.1c0.4,0,0.7-0.2,0.9-0.5
					c0.2-0.2,0.4-0.4,0.6-0.6c0,0,0.1-0.1,0.1-0.1c0.2-0.3,0.5-0.6,0.7-0.9c0.2-0.3,0.3-0.6,0.5-1c0.1-0.2,0.1-0.5,0.2-0.7
					c0.1-0.6,0.3-1.1,0.4-1.7c0.1-0.2,0.1-0.4,0.1-0.7c0-0.3,0-0.6-0.1-0.9c-0.1-0.9-0.3-1.9-0.6-2.8c-0.3-0.7-0.7-1.4-1.3-1.9
					c-0.2-0.2-0.5-0.4-0.8-0.6c-0.6-0.4-1.2-0.7-1.8-1c-1-0.4-2-0.5-3-0.6c-0.3,0-0.7,0-1,0c-0.4,0.1-0.9,0.2-1.3,0.2
					c-0.6,0.1-1.1,0.4-1.6,0.7c0,0-0.1,0.1-0.1,0.1c-0.3,0.3-0.7,0.6-0.9,1c-0.3,0.4-0.6,0.8-0.8,1.2c-0.2,0.4-0.4,0.8-0.6,1.2
					c-0.2,0.4-0.3,0.9-0.4,1.4c0,0.2,0,0.5,0,0.7c0,0.6,0,1.1,0.1,1.6c0.2,0.7,0.3,1.3,0.6,2c0.3,0.6,0.6,1.2,1,1.7
					c0.1,0.2,0.3,0.4,0.5,0.6c0.4,0.3,0.7,0.5,1.2,0.7c0.4,0.2,0.8,0.4,1.2,0.6c0.4,0.2,0.8,0.4,1.3,0.5
					C116.2,218.8,116.7,218.9,117.2,218.8z"/>
				<path class="st4" d="M121.8,198.9c0.4,0.1,0.7,0.1,1.1,0.1c0.3,0,0.7,0.1,1,0.1c0.1,0,0.3,0.1,0.4,0.1c0.1,0,0.2,0.1,0.2,0.1
					c0.3,0.3,0.4,1,0.2,1.4c-0.1,0.2-0.2,0.3-0.4,0.2c-0.6-0.2-1.3,0-1.9-0.1c-0.5-0.1-1-0.1-1.5-0.2c-0.3-0.1-0.4-0.2-0.4-0.5
					c0-0.1,0-0.3,0-0.4c0-0.4,0.2-0.6,0.4-0.8c0.1-0.1,0.2-0.1,0.3-0.1C121.5,198.9,121.6,198.9,121.8,198.9
					C121.8,198.9,121.8,198.9,121.8,198.9z M120.9,200.3c0.5,0.1,1,0.2,1.6,0.3c0.6,0,1.2,0,1.9,0c0.2-0.3,0.1-0.5,0-0.8
					c-0.1-0.2-0.3-0.3-0.5-0.3c-0.3-0.1-0.6-0.2-1-0.1c-0.1,0-0.2,0-0.2,0c-0.3-0.1-0.6-0.1-0.9-0.1c-0.3,0-0.6,0.1-0.8,0.3
					c0,0.1,0,0.2,0,0.3C120.9,200,120.9,200.1,120.9,200.3z"/>
				<path class="st4" d="M111.2,200.1c0-0.1,0-0.1,0-0.2c-0.1-0.5,0.4-0.8,0.8-0.8c0.2,0,0.4,0,0.6,0.1c0.4,0.1,0.8,0.5,0.8,0.9
					c0,0.1,0,0.2,0,0.2c0,0.4-0.2,0.7-0.7,0.8c-0.3,0.1-0.7,0.1-1-0.1c-0.4-0.1-0.6-0.4-0.6-0.8
					C111.2,200.2,111.2,200.2,111.2,200.1L111.2,200.1z M112.3,200.8c0.6,0,0.8-0.1,0.7-0.6c0-0.5-0.4-0.8-0.9-0.7
					c-0.7,0.1-0.6,0.2-0.6,0.8c0,0.2,0.1,0.4,0.3,0.4C112.1,200.7,112.3,200.7,112.3,200.8z"/>
				<path class="st4" d="M122,211.7c0,0.4-0.1,0.8-0.1,1.1c-0.1,0.2-0.1,0.4-0.2,0.6c-0.1,0.1-0.1,0.2-0.2,0.3
					c-0.1,0.5-0.4,0.8-0.8,1.2c-0.2,0.2-0.3,0.3-0.5,0.5c-0.3,0.3-0.7,0.5-1.1,0.5c-0.5,0.1-1,0.2-1.6,0.2c-1,0-2-0.2-2.9-0.7
					c-0.2-0.1-0.4-0.2-0.5-0.4c-0.4-0.4-0.7-0.9-0.9-1.4c-0.1-0.1-0.1-0.2-0.2-0.3c-0.3-0.4-0.4-0.8-0.4-1.2c-0.1-0.5-0.2-1-0.1-1.5
					c0.1-0.4,0.1-0.8,0.3-1.1c0.2-0.4,0.3-0.8,0.6-1.1c0.4-0.5,0.8-0.9,1.3-1.3c0.4-0.2,0.9-0.3,1.3-0.4c0.1,0,0.3,0,0.4-0.1
					c0.5-0.1,1-0.1,1.4,0.1c0.3,0.1,0.7,0.2,1,0.3c0.3,0.1,0.5,0.2,0.8,0.3c0.2,0.2,0.5,0.3,0.7,0.4c0.9,0.6,1.5,1.5,1.6,2.6
					C121.9,210.9,121.9,211.3,122,211.7z M116.9,207.1C116.9,207.2,116.9,207.2,116.9,207.1c-0.2,0-0.4,0-0.6,0
					c-0.2,0-0.3,0-0.5,0.1c-0.4,0.2-0.9,0.4-1.3,0.6c-0.2,0.1-0.4,0.3-0.5,0.5c-0.3,0.4-0.6,0.9-0.8,1.5c-0.1,0.3-0.2,0.5-0.2,0.8
					c-0.1,0.6,0.1,1.2,0.2,1.7c0.1,0.2,0.1,0.5,0.3,0.7c0.1,0.1,0.2,0.2,0.2,0.4c0.2,0.5,0.5,0.9,0.8,1.3c0.1,0.1,0.2,0.2,0.3,0.3
					c0.4,0.2,0.9,0.4,1.4,0.6c1.1,0.3,2.1,0.1,3.2-0.2c0.2-0.1,0.4-0.2,0.5-0.3c1-0.8,1.4-1.9,1.5-3.2c0-0.5-0.1-0.9-0.1-1.4
					c-0.1-0.8-0.5-1.5-1-2.1c-0.1-0.1-0.1-0.1-0.2-0.1c-0.3-0.2-0.6-0.3-0.8-0.5c-0.5-0.4-1.1-0.5-1.7-0.7c-0.1,0-0.2,0-0.3,0
					C117.1,207.1,117,207.1,116.9,207.1z"/>
				<path class="st4" d="M117.7,214.6c-0.5,0-0.9-0.1-1.2-0.1c-0.4,0-0.7-0.2-1-0.4c-0.6-0.4-0.9-1-1.2-1.6
					c-0.1-0.1-0.1-0.2-0.1-0.3c0-0.6-0.1-1.3,0.1-1.9c0.1-0.5,0.3-1,0.8-1.3c0.1-0.1,0.1-0.1,0.2-0.2c0.5-0.4,1.1-0.6,1.8-0.4
					c0.1,0,0.2,0.1,0.3,0.1c0.7-0.1,1.3,0.2,1.8,0.6c0.3,0.2,0.5,0.4,0.7,0.7c0.1,0.1,0.2,0.2,0.3,0.4c0.4,0.7,0.5,1.3,0.5,2.1
					c0,0.2-0.1,0.5-0.2,0.7c-0.2,0.4-0.5,0.7-0.7,1.1c-0.2,0.3-0.6,0.5-0.9,0.5C118.3,214.5,118,214.5,117.7,214.6z M118,209.7
					C118,209.7,118.1,209.8,118,209.7c0.1,0,0.1,0,0.1,0l0,0C118.1,209.7,118,209.7,118,209.7c0-0.1-0.1-0.2-0.2-0.1
					c0,0,0-0.1,0-0.1l0,0l0,0c0,0,0,0.1,0,0.1C117.9,209.7,117.9,209.7,118,209.7z M115.9,208.5c-0.1,0.1-0.2,0.1-0.3,0.2
					c0.1,0,0.2,0,0.3-0.1C115.9,208.7,115.9,208.6,115.9,208.5c0.1,0,0.1,0,0.2,0.1l0,0C116,208.5,116,208.5,115.9,208.5z
					 M117.5,211.5c-0.1-0.1-0.3,0.2-0.4,0c-0.1-0.2,0.2-0.3,0-0.4c-0.2,0.1-0.3,0.1-0.3,0.3c0.1,0.2,0.1,0.4,0.4,0.5
					C117.4,211.7,117.4,211.6,117.5,211.5c0-0.1,0-0.2,0-0.2l0,0C117.5,211.4,117.5,211.5,117.5,211.5z M115.5,210.8
					c-0.2,0-0.2,0.1-0.3,0.2c-0.2,0.3-0.2,0.7-0.2,1c0,0.2,0.1,0.3,0.2,0.5c0.3,0.5,0.8,0.9,1.4,1.1c0.1,0,0.3,0,0.4,0
					c0.1,0,0.1-0.1,0.2-0.2c-0.1,0-0.1-0.1-0.2,0c-0.4,0-0.7-0.2-0.9-0.4c-0.2-0.2-0.3-0.4-0.5-0.7c-0.2-0.2-0.3-0.5-0.2-0.8
					C115.4,211.2,115.5,211,115.5,210.8z M119.2,210.3c0.1-0.1,0.1-0.2,0.1-0.3c-0.1-0.2-0.1-0.3-0.2-0.4c-0.2-0.3-1-0.7-1.3-0.7
					c-0.1,0-0.2,0-0.3,0c-0.1,0-0.1,0.1-0.2,0.1C118.6,209.5,118.4,209.4,119.2,210.3z M118.9,212.7c0.3-0.2,0.3-0.4,0.3-0.7
					c0-0.3,0-0.4-0.1-0.6C118.9,211.8,119,212.2,118.9,212.7z M118.1,210.4c0.1,0.2,0.1,0.4,0.2,0.6c0.1,0.2,0,0.4,0.1,0.6
					c0.1-0.2,0.2-0.4,0.2-0.7C118.5,210.6,118.4,210.5,118.1,210.4z M117.6,211.9c0.3,0,0.4-0.2,0.4-0.3c0-0.1,0-0.3-0.2-0.3
					C117.7,211.4,117.6,211.6,117.6,211.9z M116.2,209.5c0.2-0.1,0.4,0,0.5-0.2C116.4,209.3,116.3,209.4,116.2,209.5z M117.7,209.9
					c0.2,0.1,0.3,0.1,0.4,0.2c0.1,0,0.1,0,0.3,0.1C118.1,209.9,118,209.9,117.7,209.9z M117.9,213.4c0.2,0,0.3,0,0.4-0.2
					C118.1,213.2,118,213.2,117.9,213.4z M117.7,212.1C117.7,212.1,117.7,212.1,117.7,212.1C117.6,212.1,117.6,212.1,117.7,212.1
					C117.6,212.1,117.7,212.1,117.7,212.1C117.6,212.2,117.6,212.2,117.7,212.1z M114.7,209.9C114.7,210,114.6,210,114.7,209.9
					l0,0.1C114.7,210,114.7,210,114.7,209.9C114.7,210,114.7,209.9,114.7,209.9z M115,209.3L115,209.3L115,209.3
					C114.9,209.3,114.9,209.3,115,209.3C114.9,209.3,115,209.3,115,209.3z"/>
			</g>
		</g>
	</g>
</g>
</svg>
